<?xml version="1.0" encoding="UTF-8" standalone="no"?>
<svg
   xmlns:dc="http://purl.org/dc/elements/1.1/"
   xmlns:cc="http://creativecommons.org/ns#"
   xmlns:rdf="http://www.w3.org/1999/02/22-rdf-syntax-ns#"
   xmlns:svg="http://www.w3.org/2000/svg"
   xmlns="http://www.w3.org/2000/svg"
   xmlns:xlink="http://www.w3.org/1999/xlink"
   xmlns:sodipodi="http://sodipodi.sourceforge.net/DTD/sodipodi-0.dtd"
   xmlns:inkscape="http://www.inkscape.org/namespaces/inkscape"
   sodipodi:docname="apps-guidance.svg"
   inkscape:version="1.0 (4035a4fb49, 2020-05-01)"
   version="1.1"
   id="svg4327"
   viewBox="0 0 144.19434 144.19434"
   height="40.694847mm"
   width="40.694847mm">
  <sodipodi:namedview
     inkscape:document-rotation="0"
     fit-margin-bottom="0"
     fit-margin-right="0"
     fit-margin-left="0"
     fit-margin-top="0"
     inkscape:window-maximized="1"
     inkscape:window-y="27"
     inkscape:window-x="0"
     inkscape:window-height="1016"
     inkscape:window-width="1920"
     showgrid="false"
     inkscape:current-layer="layer1"
     inkscape:document-units="px"
     inkscape:cy="110.88205"
     inkscape:cx="-64.052297"
     inkscape:zoom="1.7728297"
     inkscape:pageshadow="2"
     inkscape:pageopacity="0.0"
     borderopacity="1.0"
     bordercolor="#666666"
     pagecolor="#ffffff"
     id="base" />
  <defs
     id="defs4329">
    <rect
       id="rect868"
       height="53.985475"
       width="468.48272"
       y="410.44731"
       x="-88.121494" />
    <linearGradient
       inkscape:collect="always"
       id="linearGradient5538">
      <stop
         style="stop-color:#a55416;stop-opacity:1"
         offset="0"
         id="stop5540" />
      <stop
         style="stop-color:#f48128;stop-opacity:1"
         offset="1"
         id="stop5542" />
    </linearGradient>
    <linearGradient
       id="linearGradient5532"
       inkscape:collect="always">
      <stop
         id="stop5534"
         offset="0"
         style="stop-color:#f48128;stop-opacity:1" />
      <stop
         id="stop5536"
         offset="1"
         style="stop-color:#f48128;stop-opacity:1" />
    </linearGradient>
    <linearGradient
       gradientUnits="userSpaceOnUse"
       y2="445.44449"
       x2="378.57465"
       y1="346.7829"
       x1="278.40268"
       id="linearGradient5248"
       xlink:href="#linearGradient5532"
       inkscape:collect="always" />
    <linearGradient
       gradientTransform="translate(-0.39885771,-0.39885771)"
       y2="427.95831"
       x2="365.03696"
       y1="346.7829"
       x1="278.40268"
       gradientUnits="userSpaceOnUse"
       id="linearGradient5250"
       xlink:href="#linearGradient5538"
       inkscape:collect="always" />
    <clipPath
       id="clipPath5559"
       clipPathUnits="userSpaceOnUse">
      <rect
         style="color:#000000;clip-rule:nonzero;display:inline;overflow:visible;visibility:visible;opacity:1;isolation:auto;mix-blend-mode:normal;color-interpolation:sRGB;color-interpolation-filters:linearRGB;solid-color:#000000;solid-opacity:1;fill:#f48128;fill-opacity:1;fill-rule:nonzero;stroke:none;stroke-width:5;stroke-linecap:round;stroke-linejoin:round;stroke-miterlimit:4;stroke-dasharray:none;stroke-dashoffset:0;stroke-opacity:1;color-rendering:auto;image-rendering:auto;shape-rendering:auto;text-rendering:auto;enable-background:accumulate"
         id="rect5561"
         width="144.19434"
         height="144.19434"
         x="244.44795"
         y="306.66141"
         rx="5.2235179"
         ry="5.2235179" />
    </clipPath>
    <linearGradient
       y2="445.44449"
       x2="378.57465"
       y1="346.7829"
       x1="278.40268"
       gradientUnits="userSpaceOnUse"
       id="linearGradient5582"
       xlink:href="#linearGradient5532"
       inkscape:collect="always" />
  </defs>
  <metadata
     id="metadata4332">
    <rdf:RDF>
      <cc:Work
         rdf:about="">
        <dc:format>image/svg+xml</dc:format>
        <dc:type
           rdf:resource="http://purl.org/dc/dcmitype/StillImage" />
        <dc:title></dc:title>
      </cc:Work>
    </rdf:RDF>
  </metadata>
  <g
     transform="translate(-244.04909,-306.26254)"
     inkscape:label="Layer 1"
     inkscape:groupmode="layer"
     id="layer1">
    <rect
       inkscape:export-ydpi="435.10425"
       inkscape:export-xdpi="435.10425"
       inkscape:export-filename="/home/user/Desktop/logo.png"
       style="color:#000000;clip-rule:nonzero;display:inline;overflow:visible;visibility:visible;opacity:1;isolation:auto;mix-blend-mode:normal;color-interpolation:sRGB;color-interpolation-filters:linearRGB;solid-color:#000000;solid-opacity:1;fill:#f48128;fill-opacity:1;fill-rule:nonzero;stroke:none;stroke-width:7.17251;stroke-linecap:round;stroke-linejoin:round;stroke-miterlimit:4;stroke-dasharray:none;stroke-dashoffset:0;stroke-opacity:1;color-rendering:auto;image-rendering:auto;shape-rendering:auto;text-rendering:auto;enable-background:accumulate"
       id="rect4912"
       width="206.84698"
       height="206.84698"
       x="214.59778"
       y="284.31122"
       rx="7.493144"
       ry="7.493144" />
    <g
       clip-path="url(#clipPath5559)"
       transform="translate(-0.39885771,-4.1488577)"
       style="fill:url(#linearGradient5248);fill-opacity:1"
       id="g4956">
      <path
         inkscape:connector-curvature="0"
         id="path4960"
         transform="translate(0.39885771,0.39885771)"
         d="m 308.58203,326.86133 c -20.43894,3.78799 -37.19887,19.85865 -41.46875,40.73437 -0.80414,3.9314 -0.95117,5.54763 -0.95117,10.53516 0,4.9876 0.14703,6.59984 0.95117,10.53125 2.08809,10.20882 7.1788,19.28232 14.22656,26.33008 L 493.47266,627.125 c 9.03661,9.03661 21.28843,14.74049 34.55273,15.23438 9.35882,0.34843 17.66745,-1.42386 25.77539,-5.5 11.38186,-5.72206 20.15833,-15.31825 24.87305,-26.86719 l -13.8086,-13.8086 c 2.01226,0.0542 4.35453,0.11769 4.42774,0.11133 0.28467,-0.0244 0.48308,-1.70292 0.58008,-4.91211 0.15345,-5.07231 -0.49607,-9.41675 -2.10352,-14.07031 -1.97751,-5.72476 -5.2251,-10.86573 -9.42969,-15.07031 L 346.20898,350.10938 c -3.0222,-3.0222 -6.53884,-5.55935 -10.43359,-7.48047 -3.55694,-1.75448 -6.74881,-2.82039 -10.47461,-3.49805 -1.42508,-0.25925 -3.43971,-0.50212 -4.41211,-0.55274 -0.32413,-0.0169 -0.53231,-0.0126 -0.56445,0.0195 -5e-5,5e-5 -0.002,0.004 -0.002,0.004 l -11.74024,-11.74023 z"
         style="opacity:0.5;fill:url(#linearGradient5250);fill-opacity:1" />
      <path
         inkscape:connector-curvature="0"
         style="fill:url(#linearGradient5582);fill-opacity:1"
         d="m 308.98047,327.25977 c -20.43894,3.78799 -37.19887,19.85865 -41.46875,40.73437 -0.80414,3.9314 -0.95117,5.54763 -0.95117,10.53516 0,4.9876 0.14703,6.59984 0.95117,10.53125 4.76543,23.29853 25.17196,40.68731 48.78125,41.5664 9.35882,0.34844 17.66745,-1.42385 25.77539,-5.5 11.38186,-5.72206 20.15833,-15.31824 24.87305,-26.86718 l -1.58399,-0.0371 -1.92187,-0.0312 c -1.05784,-0.0165 -3.00474,-0.0654 -4.32422,-0.10743 l -2.39844,-0.0742 -0.53711,0.98437 c -4.60405,8.41572 -11.97109,15.09932 -20.7539,18.83203 -3.64909,1.55091 -7.25908,2.52732 -11.47852,3.10352 -1.3797,0.18841 -7.10773,0.34677 -8.4043,0.23242 -6.22521,-0.54903 -11.30186,-1.99455 -16.61328,-4.73047 -4.23885,-2.18346 -7.50411,-4.62299 -10.99023,-8.20703 -3.19796,-3.28775 -5.48403,-6.49898 -7.50782,-10.55273 -4.6229,-9.26009 -5.73708,-19.6501 -3.1914,-29.7793 1.55592,-6.19095 4.65604,-12.15049 8.95898,-17.2207 2.02234,-2.38284 5.50276,-5.50278 8.20899,-7.36133 3.37881,-2.32046 7.49919,-4.32786 11.38281,-5.54688 0.81061,-0.25447 1.47461,-0.50348 1.47461,-0.55273 0,-0.16099 1.5199,-8.34998 1.55664,-8.38672 l 0.16211,-1.56445 z m 12.30664,11.71679 c -0.32413,-0.0169 -0.53231,-0.0126 -0.56445,0.0195 -0.0996,0.0996 -2.32056,12.14429 -2.25196,12.21289 0.0258,0.0258 0.8068,0.098 1.73633,0.16016 4.5623,0.30599 8.57422,1.54432 12.32813,3.80469 1.65568,0.99685 2.05694,1.30344 1.87304,1.43359 -0.32914,0.23295 -2.25833,1.78775 -4.05859,3.24219 -3.4589,-2.2579 -7.57687,-3.57813 -11.98633,-3.57813 -12.11996,0 -22.06055,9.94059 -22.06055,22.06055 0,2.81331 0.54144,5.50684 1.51563,7.98828 l -14.21484,11.54297 c 0,0 0.34965,0.42804 2.0957,2.61524 1.14884,1.43916 2.91597,3.61326 3.92578,4.83203 1.80382,2.17744 1.89453,2.13476 1.89453,2.13476 l 14.30469,-11.00195 c 3.5688,2.48516 7.89229,3.95117 12.53906,3.95117 12.12002,0 22.06055,-9.94247 22.06055,-22.0625 0,-2.63394 -0.47071,-5.16324 -1.33008,-7.51172 1.40201,-1.05795 2.79039,-2.09625 4.29883,-3.26758 0.27001,0 1.38961,3.37068 1.8125,5.45704 0.64206,3.16864 0.71891,6.91719 0.20312,9.8457 -0.12764,0.72437 -0.22108,1.3298 -0.20898,1.3457 0.0121,0.0159 2.75602,0.10743 6.09766,0.20313 3.34161,0.0957 6.1601,0.1672 6.26367,0.1582 0.28467,-0.0244 0.48308,-1.70292 0.58007,-4.91211 0.15345,-5.07231 -0.49606,-9.41675 -2.10351,-14.07031 -3.39893,-9.83964 -10.55002,-17.9589 -19.86328,-22.55274 -3.55694,-1.75448 -6.74881,-2.82038 -10.47461,-3.49804 -1.42508,-0.25925 -3.43971,-0.50212 -4.41211,-0.55274 z m -14.70899,1.76563 c -0.13173,-0.15179 -4.2882,1.55253 -6.15234,2.52343 -11.93153,6.21455 -19.64646,17.45349 -21.2793,30.99805 -0.24012,1.99112 -0.20622,6.97915 0.0625,9.03125 0.53026,4.05269 1.61852,7.92162 3.2129,11.47461 l 10.27734,-7.91211 c -1.60771,-4.93819 -1.75602,-10.14069 -0.42969,-15.22851 1.63741,-6.28137 5.3838,-11.67401 10.69922,-15.40235 0.50246,-0.35238 0.94098,-0.75749 0.97461,-0.89844 0.12723,-0.53284 2.66014,-14.55611 2.63476,-14.58593 z m 11.78516,26.35547 c 6.26968,0 11.23633,4.96476 11.23633,11.23437 0,6.26968 -4.96665,11.23828 -11.23633,11.23828 -6.26961,0 -11.23633,-4.9686 -11.23633,-11.23828 0,-6.26961 4.96672,-11.23437 11.23633,-11.23437 z m 19.70703,30.44336 -0.80078,0.71679 c -3.30425,2.95403 -6.16099,4.68262 -9.81445,5.93946 -2.6795,0.92179 -5.00581,1.34528 -7.96485,1.44726 -2.38937,0.0824 -4.06338,-0.0557 -6.42382,-0.5293 -3.2762,-0.65741 -6.78847,-2.1296 -9.54102,-3.96484 l -9.58398,8.39063 c 0.849,0.6594 1.9179,1.44884 2.68359,1.95703 5.41803,3.59577 11.75013,5.83961 18.23438,6.46289 v -0.002 c 1.88481,0.18099 5.82164,0.15538 7.78515,-0.0508 9.14751,-0.96063 17.50666,-4.95536 24.00391,-11.4707 2.33119,-2.33766 3.99653,-4.44459 5.72461,-7.24023 l 0.79883,-1.29102 h -1.03711 c -0.5696,-10e-4 -3.96587,-0.0842 -7.54883,-0.18359 l -6.51563,-0.18164 z"
         id="path4955-6-0-37-4-4-6-4-7-7-3" />
    </g>
    <path
       inkscape:connector-curvature="0"
       style="fill:#ffffff;fill-opacity:1"
       d="m 308.58161,323.11091 c -20.43894,3.78799 -37.19887,19.85865 -41.46875,40.73437 -0.80414,3.9314 -0.95117,5.54763 -0.95117,10.53516 0,4.9876 0.14703,6.59984 0.95117,10.53125 4.76543,23.29853 25.17196,40.68731 48.78125,41.5664 9.35882,0.34844 17.66745,-1.42385 25.77539,-5.5 11.38186,-5.72206 20.15833,-15.31824 24.87305,-26.86718 l -1.58399,-0.0371 -1.92187,-0.0312 c -1.05784,-0.0165 -3.00474,-0.0654 -4.32422,-0.10743 l -2.39844,-0.0742 -0.53711,0.98437 c -4.60405,8.41572 -11.97109,15.09932 -20.7539,18.83203 -3.64909,1.55091 -7.25908,2.52732 -11.47852,3.10352 -1.3797,0.18841 -7.10773,0.34677 -8.4043,0.23242 -6.22521,-0.54903 -11.30186,-1.99455 -16.61328,-4.73047 -4.23885,-2.18346 -7.50411,-4.62299 -10.99023,-8.20703 -3.19796,-3.28775 -5.48403,-6.49898 -7.50782,-10.55273 -4.6229,-9.26009 -5.73708,-19.6501 -3.1914,-29.7793 1.55592,-6.19095 4.65604,-12.15049 8.95898,-17.2207 2.02234,-2.38284 5.50276,-5.50278 8.20899,-7.36133 3.37881,-2.32046 7.49919,-4.32786 11.38281,-5.54688 0.81061,-0.25447 1.47461,-0.50348 1.47461,-0.55273 0,-0.16099 1.5199,-8.34998 1.55664,-8.38672 l 0.16211,-1.56445 z m 12.30664,11.71679 c -0.32413,-0.0169 -0.53231,-0.0126 -0.56445,0.0195 -0.0996,0.0996 -2.32056,12.14429 -2.25196,12.21289 0.0258,0.0258 0.8068,0.098 1.73633,0.16016 4.5623,0.30599 8.57422,1.54432 12.32813,3.80469 1.65568,0.99685 2.05694,1.30344 1.87304,1.43359 -0.32914,0.23295 -2.25833,1.78775 -4.05859,3.24219 -3.4589,-2.2579 -7.57687,-3.57813 -11.98633,-3.57813 -12.11996,0 -22.06055,9.94059 -22.06055,22.06055 0,2.81331 0.54144,5.50684 1.51563,7.98828 l -14.21484,11.54297 c 0,0 0.34965,0.42804 2.0957,2.61524 1.14884,1.43916 2.91597,3.61326 3.92578,4.83203 1.80382,2.17744 1.89453,2.13476 1.89453,2.13476 l 14.30469,-11.00195 c 3.5688,2.48516 7.89229,3.95117 12.53906,3.95117 12.12002,0 22.06055,-9.94247 22.06055,-22.0625 0,-2.63394 -0.47071,-5.16324 -1.33008,-7.51172 1.40201,-1.05795 2.79039,-2.09625 4.29883,-3.26758 0.27001,0 1.38961,3.37068 1.8125,5.45704 0.64206,3.16864 0.71891,6.91719 0.20312,9.8457 -0.12764,0.72437 -0.22108,1.3298 -0.20898,1.3457 0.0121,0.0159 2.75602,0.10743 6.09766,0.20313 3.34161,0.0957 6.1601,0.1672 6.26367,0.1582 0.28467,-0.0244 0.48308,-1.70292 0.58007,-4.91211 0.15345,-5.07231 -0.49606,-9.41675 -2.10351,-14.07031 -3.39893,-9.83964 -10.55002,-17.9589 -19.86328,-22.55274 -3.55694,-1.75448 -6.74881,-2.82038 -10.47461,-3.49804 -1.42508,-0.25925 -3.43971,-0.50212 -4.41211,-0.55274 z m -14.70899,1.76563 c -0.13173,-0.15179 -4.2882,1.55253 -6.15234,2.52343 -11.93153,6.21455 -19.64646,17.45349 -21.2793,30.99805 -0.24012,1.99112 -0.20622,6.97915 0.0625,9.03125 0.53026,4.05269 1.61852,7.92162 3.2129,11.47461 l 10.27734,-7.91211 c -1.60771,-4.93819 -1.75602,-10.14069 -0.42969,-15.22851 1.63741,-6.28137 5.3838,-11.67401 10.69922,-15.40235 0.50246,-0.35238 0.94098,-0.75749 0.97461,-0.89844 0.12723,-0.53284 2.66014,-14.55611 2.63476,-14.58593 z m 11.78516,26.35547 c 6.26968,0 11.23633,4.96476 11.23633,11.23437 0,6.26968 -4.96665,11.23828 -11.23633,11.23828 -6.26961,0 -11.23633,-4.9686 -11.23633,-11.23828 0,-6.26961 4.96672,-11.23437 11.23633,-11.23437 z m 19.70703,30.44336 -0.80078,0.71679 c -3.30425,2.95403 -6.16099,4.68262 -9.81445,5.93946 -2.6795,0.92179 -5.00581,1.34528 -7.96485,1.44726 -2.38937,0.0824 -4.06338,-0.0557 -6.42382,-0.5293 -3.2762,-0.65741 -6.78847,-2.1296 -9.54102,-3.96484 l -9.58398,8.39063 c 0.849,0.6594 1.9179,1.44884 2.68359,1.95703 5.41803,3.59577 11.75013,5.83961 18.23438,6.46289 v -0.002 c 1.88481,0.18099 5.82164,0.15538 7.78515,-0.0508 9.14751,-0.96063 17.50666,-4.95536 24.00391,-11.4707 2.33119,-2.33766 3.99653,-4.44459 5.72461,-7.24023 l 0.79883,-1.29102 h -1.03711 c -0.5696,-0.001 -3.96587,-0.0842 -7.54883,-0.18359 l -6.51563,-0.18164 z"
       id="path4955-6-0-37-4-4-6-4-7-7" />
    <g
       transform="translate(224.39578,24.222459)"
       id="g883">
      <path
         id="path864"
         style="opacity:0.3;fill:none;stroke:none;stroke-width:1.6686;stroke-linecap:round;stroke-linejoin:round;stroke-opacity:1;paint-order:stroke fill markers"
         d="m 17.42627,350.40664 c 0.151,41.97708 34.222671,75.92635 76.200019,75.92627 41.976721,-8.2e-4 76.047401,-33.94982 76.198401,-75.92627"
         sodipodi:nodetypes="ccc" />
      <text
         x="1.0576311"
         xml:space="preserve"
         id="text866"
         style="font-style:normal;font-weight:normal;font-size:18.75px;line-height:1.25;font-family:sans-serif;letter-spacing:2.07188px;white-space:pre;fill:#ffffff;fill-opacity:1;stroke:none"><textPath
           xlink:href="#path864"
           id="textPath877"
           style="font-style:normal;font-variant:normal;font-weight:bold;font-stretch:normal;font-size:18.75px;font-family:'Open Sans';-inkscape-font-specification:'Open Sans Bold';fill:#ffffff">   GUIDANCE CENTER</textPath></text>
    </g>
  </g>
</svg>
