<svg width="2331" height="2331" viewBox="0 0 2331 2331" fill="none" xmlns="http://www.w3.org/2000/svg">
<circle cx="1165" cy="1165" r="1120" fill="white"/>
<circle cx="1165" cy="1165" r="1120" fill="white"/>
<path d="M1154.06 0.0878184C1108.99 0.668802 1058.72 4.10289 1017.01 9.69426C909.724 24.0768 820.833 47.7178 720.297 88.58C667.989 109.84 604.629 142.08 556.608 171.875C499.775 207.137 460.476 235.73 406.817 280.865C384.369 299.747 373.87 309.553 342.191 341.228C300.163 383.249 278.49 407.807 241.853 454.919C181.622 532.375 125.414 629.659 88.5591 720.269C63.7905 781.164 49.345 825.473 33.1396 890.217C9.66742 983.997 -2.73308 1100.04 0.514692 1195.4C4.22704 1304.41 18.4121 1394.02 48.2841 1497.02C63.1202 1548.17 90.2649 1618.77 113.602 1666.93C160.915 1764.55 210.962 1841.32 282.401 1925.83C312.355 1961.27 368.514 2017.45 404.17 2047.65C457.026 2092.43 499.772 2123.61 556.608 2158.85C638.17 2209.42 741.47 2255.52 832.46 2281.98C933.698 2311.42 1026.05 2326.43 1128.52 2330.08C1161.78 2331.27 1163.97 2331.27 1195.52 2330.24C1261.12 2328.09 1311.95 2322.8 1375.48 2311.52C1469.94 2294.76 1580.42 2259.06 1665.98 2217.66C1763.46 2170.49 1840.58 2120.28 1925.35 2048.81C1960.35 2019.3 2017.58 1962.11 2047.7 1926.53C2119.45 1841.8 2168.86 1766.16 2216.65 1667.87C2240.28 1619.28 2266.84 1550.46 2281.84 1498.94C2312.15 1394.88 2326.49 1305.06 2330.24 1195.99C2333.45 1102.47 2321.61 988.714 2299.01 895.91C2273.71 791.987 2240.71 705.62 2189.84 610.199C2153.55 542.117 2105.99 473.094 2048.35 404.882C2018.7 369.795 1961.46 312.531 1926.09 282.568C1842.2 211.517 1766.39 162.028 1668.03 114.119C1619.71 90.585 1550.4 63.8246 1499 48.8695C1395.09 18.6313 1305.5 4.28729 1196.88 0.486708C1183.52 0.018944 1169.08 -0.105932 1154.06 0.0878184ZM1175.06 77.2216C1426.24 79.3563 1668.79 167.456 1863.63 330.6C1887.27 350.395 1906.57 368.257 1934.53 396.21C1973.22 434.882 1998.24 463.216 2029.11 503.341C2149.52 659.872 2225.12 847.641 2246.91 1044.28C2265.1 1208.35 2245.76 1376.36 2191.03 1529.79C2147.99 1650.44 2084.97 1761.12 2002.88 1860.26C1949.04 1925.29 1879.76 1990.8 1812.03 2040.7C1634.98 2171.17 1430.28 2243.17 1209.41 2252.69C1115.35 2256.74 1016.39 2247.65 922.733 2226.36C751.832 2187.5 591.633 2106.82 458.032 1992.34C417.204 1957.35 373.42 1913.58 338.443 1872.76C223.837 1739.01 143.255 1579.01 104.375 1408C55.7926 1194.32 72.5652 969.816 152.203 767.649C200.008 646.291 266.598 538.333 355.009 438.87C369.836 422.189 422.197 369.818 438.878 354.991C536.418 268.29 642.574 202.311 760.971 154.793C836.93 124.307 919.807 101.731 1000.27 89.6117C1058.67 80.8145 1117.1 76.7289 1175.06 77.2216ZM1184 89.6895C1027.59 87.0303 871.875 118.437 728.959 181.841C585.986 245.273 456.495 341.064 353.568 459.533C147.607 696.595 56.1999 1007.25 100.56 1319.46C128.026 1512.77 209.352 1696.69 334.609 1848.76C443.667 1981.16 583.903 2086.61 740.386 2153.86C863.511 2206.77 992.562 2235.57 1128.99 2240.58C1163.43 2241.84 1212.34 2240.74 1250.09 2237.84C1467.39 2221.19 1676.68 2137.13 1845.73 1998.61C1979.27 1889.18 2084.76 1749.85 2152.69 1593.18C2246.56 1376.69 2266.42 1133.57 2209.03 903.638C2129.24 583.899 1903.92 316.06 1601.84 181.861C1490.82 132.538 1372.75 102.6 1251.04 92.9209C1228.7 91.1446 1206.34 90.0696 1184 89.6895ZM1145.89 109.224C1359.13 105.304 1567.78 165.563 1746.22 283.745C2015.27 461.944 2188.57 750.932 2217.25 1069.17C2220.44 1104.58 2221.41 1126.92 2221.41 1165.36C2221.41 1203.92 2220.43 1226.41 2217.23 1261.56C2201.29 1436.54 2142.5 1602.94 2044.91 1749.24C2003.85 1810.78 1965.01 1858.06 1911.54 1911.53C1858.11 1964.96 1811.7 2003.1 1749.73 2044.55C1592.69 2149.57 1413.33 2209.33 1222.8 2220.11C1204.24 2221.16 1155.16 2221.98 1139.53 2221.5C1134 2221.33 1120.66 2220.73 1109.87 2220.17C881.956 2208.24 665.241 2122.97 489.217 1975.99C463.26 1954.31 447.441 1939.76 419.208 1911.53C390.974 1883.29 376.411 1867.47 354.736 1841.52C220.051 1680.22 136.524 1483.43 114.877 1276.44C89.1575 1030.51 149.59 785.19 286.187 581.01C327.683 518.983 365.785 472.621 419.208 419.199C447.441 390.966 463.26 376.402 489.217 354.728C650.515 220.04 847.31 136.497 1054.3 114.849C1084.88 111.651 1115.43 109.784 1145.89 109.224ZM1201.73 175.972L1181.82 176.186L1182.33 225.572L1182.72 235.129C1182.89 238.316 1183.07 241.501 1183.24 244.687C1183.42 247.874 1183.57 251.088 1183.7 254.323L1183.21 254.333L1137.07 176.645L1109.17 176.937L1110.25 281.284L1130.02 281.07L1129.51 231.967C1129.34 228.637 1129.16 225.331 1128.98 222.049C1128.8 218.72 1128.63 215.392 1128.45 212.063C1128.27 208.734 1128.07 205.436 1127.85 202.155H1128.49L1174.7 280.612L1202.82 280.32L1201.73 175.972ZM1241.36 178.444L1229.13 282.071L1258.47 285.536C1270.38 286.941 1280.8 286.183 1289.72 283.259C1298.65 280.287 1305.79 275.164 1311.16 267.89C1316.57 260.576 1319.97 251.084 1321.35 239.412C1322.66 228.307 1321.55 218.732 1318.05 210.7C1314.54 202.62 1309.03 196.198 1301.49 191.428C1293.96 186.611 1284.76 183.561 1273.89 182.279L1241.36 178.444ZM1046.37 183.087L1019.56 186.708L997.064 295.464L1020.7 292.281L1024.87 266.654L1062.57 261.564L1073.39 285.176L1097.01 281.984L1046.37 183.087ZM1261.21 199.039L1272.91 200.422C1279.33 201.18 1284.58 202.996 1288.64 205.872C1292.76 208.753 1295.64 212.804 1297.28 218.028C1298.97 223.211 1299.36 229.625 1298.45 237.28C1297.12 248.574 1293.49 256.777 1287.57 261.876C1281.7 266.98 1273.4 268.893 1262.68 267.628L1253.25 266.518L1261.21 199.039ZM1035.24 200.937C1035.97 202.807 1036.89 205.017 1038 207.556C1039.15 210.041 1040.28 212.499 1041.38 214.943C1042.52 217.334 1043.43 219.302 1044.11 220.841L1054.86 243.879L1027.91 247.519L1032.09 222.467C1032.28 221.338 1032.57 219.45 1032.98 216.802C1033.39 214.154 1033.8 211.36 1034.22 208.422C1034.69 205.431 1035.03 202.935 1035.24 200.937ZM889.475 214.544L866.905 222.214L860.131 269.905L825.822 236.19L803.115 243.908L856.636 293.78L869.474 331.564L890.293 324.488L877.222 286.033L889.475 214.544ZM1440.02 214.982L1410.06 314.949L1431.26 321.295L1461.21 221.338L1440.02 214.982ZM1495.84 231.762L1456.63 328.459L1474.94 335.895L1493.4 290.383C1494.52 287.243 1495.63 284.126 1496.74 281.03L1500.09 271.608C1501.21 268.468 1502.3 265.34 1503.35 262.226L1503.95 262.469L1516.35 352.684L1542.41 363.244L1581.63 266.547L1563.17 259.063L1544.61 304.837C1543.5 307.827 1542.39 310.811 1541.28 313.801C1540.22 316.809 1539.15 319.825 1538.08 322.833C1537.01 325.841 1535.92 328.86 1534.79 331.894L1534.33 331.71L1521.7 242.244L1495.84 231.762ZM767.366 263.423C760.836 263.928 753.272 266.172 744.678 270.149L717.086 282.918L760.913 377.62L780.992 368.325L764.173 331.982L774.86 327.038L814.288 352.918L836.567 342.61L789.625 314.229C792.075 311.365 794.118 308.195 795.757 304.71C797.395 301.226 798.282 297.487 798.424 293.488C798.567 289.49 797.638 285.329 795.64 281.011C792.682 274.619 788.872 269.964 784.213 267.034C779.555 264.104 773.939 262.898 767.366 263.423ZM766.499 283.483C770.488 283.944 773.522 286.418 775.6 290.909C777.598 295.227 777.678 299.179 775.824 302.764C773.992 306.285 769.753 309.585 763.103 312.662L756.62 315.66L744.784 290.072L750.868 287.259C757.346 284.262 762.554 283.001 766.499 283.483ZM1615.55 283.765L1565.76 375.469L1584.89 385.854L1604.58 349.599L1635.68 366.495L1644.3 350.621L1613.19 333.734L1626.03 310.083L1659.46 328.235L1668.1 312.302L1615.55 283.765ZM662.941 312.604L639.805 326.609L662.571 435.317L682.971 422.966L676.576 397.806L709.114 378.097L728.453 395.422L748.844 383.07L662.941 312.604ZM659.856 333.413C661.273 334.835 663.002 336.482 665.033 338.367C667.081 340.187 669.095 342.004 671.078 343.808C673.076 345.546 674.699 346.982 675.944 348.119L694.982 364.957L671.72 379.041L665.559 354.407C665.278 353.298 664.798 351.441 664.119 348.849C663.439 346.257 662.706 343.535 661.919 340.674C661.148 337.747 660.459 335.328 659.856 333.413ZM1165.07 341.715V341.726C1140.62 341.727 1116.28 342.14 1106.51 342.971C1062.51 346.714 1032.79 350.832 997.667 358.048C864.751 385.356 740.172 445.481 636.058 532.579C601.009 561.901 561.669 601.239 532.597 636.041C427.524 761.822 362.871 914.604 345.646 1077.78C342.337 1109.13 341.723 1122.6 341.723 1165.36C341.723 1208.12 342.337 1221.6 345.646 1252.95C362.861 1416.03 427.768 1569.4 532.597 1694.68C561.926 1729.73 601.136 1768.94 636.058 1798.15C740.225 1885.26 864.705 1945.33 997.667 1972.67C1039.27 1981.22 1076.08 1985.86 1126.61 1988.9C1141.65 1989.81 1214.79 1988.58 1231.41 1987.14C1282.68 1982.71 1320.64 1976.45 1368.29 1964.59C1480.67 1936.62 1588.66 1883.09 1680.04 1810.05C1852.69 1672.05 1961.92 1472.57 1985.11 1252.94C1988.41 1221.59 1989.02 1208.12 1989.02 1165.36C1989.02 1122.6 1988.41 1109.13 1985.11 1077.78C1968.14 917.021 1905.07 766.248 1802.54 641.306C1764.32 594.72 1716.55 548.543 1667.66 510.904C1579.81 443.283 1475.39 392.787 1368.29 366.126C1319.14 353.892 1278.98 347.431 1224.24 342.962C1214.08 342.128 1189.53 341.715 1165.07 341.715ZM1706.87 342.377C1698.29 341.796 1690.24 343.791 1682.71 348.353C1675.26 352.903 1668.44 359.605 1662.27 368.471C1657.65 375.11 1654.27 381.717 1652.13 388.287C1649.99 394.858 1649.23 401.255 1649.84 407.471C1650.48 413.714 1652.62 419.671 1656.27 425.341C1659.94 430.972 1665.28 436.213 1672.27 441.079C1679.26 445.944 1686.03 449.126 1692.59 450.617C1699.18 452.071 1705.48 451.998 1711.52 450.403C1717.6 448.835 1723.33 445.931 1728.72 441.682C1734.14 437.395 1739.15 431.951 1743.74 425.35V425.34C1749.94 416.435 1753.87 407.67 1755.53 399.032C1757.24 390.419 1756.35 382.206 1752.86 374.388C1749.41 366.597 1743.04 359.464 1733.74 352.995C1724.41 346.498 1715.45 342.958 1706.87 342.377ZM1155.41 362.563C1176.08 362.356 1197.06 362.51 1208 363.157C1252.98 365.772 1291.01 370.704 1330.49 379.041C1496.97 414.198 1646.3 499.922 1760.68 625.996C1873.82 750.702 1945.51 909.288 1963.61 1074.93C1967.46 1110.15 1967.94 1120.3 1967.94 1165.36C1967.94 1210.42 1967.45 1220.57 1963.61 1255.79C1938.07 1489.5 1807.72 1702.86 1610.14 1834.34C1490.18 1914.18 1356.82 1958.54 1209.88 1967.49C1196.13 1968.33 1137.72 1968.53 1125.65 1967.78C1078.84 1964.89 1046.55 1960.87 1006.97 1952.99C863.589 1924.44 728.983 1855.82 621.235 1756.31C478.476 1624.48 387.94 1446.11 367.146 1255.79C363.28 1220.42 362.795 1210.43 362.795 1165.36C362.795 1120.29 363.284 1110.3 367.146 1074.93C383.329 926.801 443.338 781.818 536.762 665.132C633.809 543.922 760.689 454.495 905.973 404.921C969.957 383.088 1031.38 370.487 1104.6 364.178C1114.37 363.337 1134.74 362.769 1155.41 362.563ZM1708.24 362.904C1713.11 362.816 1718.1 364.55 1723.22 368.111C1730.92 373.465 1734.65 379.889 1734.42 387.382C1734.2 394.875 1730.95 403.111 1724.7 412.094C1720.54 418.07 1716.21 422.71 1711.71 426.012C1707.27 429.304 1702.64 431.009 1697.81 431.122C1693 431.198 1688.02 429.445 1682.87 425.857C1677.79 422.323 1674.45 418.282 1672.85 413.749C1671.28 409.177 1671.23 404.214 1672.7 398.857C1674.23 393.489 1677.08 387.819 1681.23 381.844C1685.42 375.829 1689.74 371.189 1694.22 367.926C1698.76 364.65 1703.44 362.978 1708.24 362.904ZM586.634 371.965C583.763 371.997 580.75 372.513 577.602 373.493C571.344 375.425 564.464 379.273 556.958 385.046L532.86 403.578L596.474 486.298L614.013 472.808L589.603 441.069L598.937 433.886L643.095 450.442L662.561 435.473L610.509 418.148C612.267 414.814 613.562 411.26 614.393 407.5C615.222 403.74 615.271 399.898 614.531 395.967C613.789 392.036 611.962 388.185 609.061 384.414C604.768 378.831 600.031 375.12 594.841 373.289C592.246 372.374 589.506 371.932 586.634 371.965ZM1175.25 377.591C1013.5 375.506 856.413 422.555 721.718 514.251C598.057 598.439 499.273 718.556 440.513 856.19C354.101 1058.59 356.669 1289.93 447.54 1490.5C522.338 1655.59 654.304 1791.97 816.478 1871.75C874.397 1900.24 927.494 1919.17 989.248 1933.35C1035.89 1944.06 1071.85 1948.96 1129.49 1952.47C1141.7 1953.22 1190.62 1953.01 1206.53 1952.15C1293.49 1947.43 1376.82 1929.33 1455.53 1898.05C1685.41 1806.68 1860.26 1611.64 1925.31 1374.02C1982.93 1163.51 1950.4 936.303 1836.27 752.125C1706.3 542.387 1488.28 405.763 1244.83 381.504C1221.58 379.187 1198.36 377.888 1175.25 377.591ZM581.184 393.251C585.176 392.822 588.688 394.565 591.705 398.487C594.606 402.259 595.546 406.096 594.528 410.002C593.518 413.84 590.106 417.992 584.298 422.46L578.634 426.81L561.455 404.464L566.769 400.376C572.427 396.024 577.229 393.651 581.184 393.251ZM1799.78 404.512L1730.37 482.425L1746.88 497.141L1773.52 467.251L1782.32 475.086L1774.28 521.551L1792.61 537.883L1799.94 483.524C1803.54 484.633 1807.27 485.241 1811.12 485.354C1814.97 485.47 1818.75 484.791 1822.48 483.33C1826.2 481.868 1829.65 479.368 1832.81 475.816C1837.5 470.558 1840.25 465.206 1841.09 459.766C1841.92 454.326 1840.79 448.69 1837.69 442.87C1834.63 437.081 1829.56 431.046 1822.49 424.747L1799.78 404.512ZM1804.25 432.767L1809.25 437.234C1814.58 441.983 1817.82 446.261 1818.94 450.072C1820.11 453.915 1819.05 457.687 1815.75 461.382C1812.59 464.934 1808.99 466.57 1804.96 466.297C1801 466.02 1796.29 463.444 1790.82 458.569L1785.49 453.819L1804.25 432.767ZM508.332 437.147C506.436 437.104 504.504 437.344 502.541 437.877C494.691 440.007 485.757 445.888 475.737 455.513L452.319 478.006L524.596 553.271L552.754 526.223C558.451 520.751 562.537 515.183 565.007 509.511C567.479 503.773 568.264 498.203 567.363 492.8C566.462 487.397 563.825 482.414 559.441 477.85C555.65 473.903 552 471.342 548.491 470.161C544.982 468.912 541.619 468.634 538.408 469.343C535.163 470.018 532.044 471.306 529.044 473.198L528.55 472.682C530.593 469.863 531.765 466.89 532.063 463.767C532.361 460.643 531.851 457.501 530.535 454.345C529.254 451.156 527.246 448.142 524.51 445.293C519.418 439.991 514.022 437.274 508.332 437.147ZM501.042 460.01C504.357 459.201 507.393 460.241 510.162 463.124C512.898 465.973 514.082 468.986 513.715 472.176C513.317 475.331 510.795 479.143 506.162 483.593L496.896 492.488L480.827 475.758L489.227 467.699C493.791 463.315 497.73 460.75 501.042 460.01ZM1881.33 478.901L1802.27 547.003L1815.18 561.982L1851.95 530.301C1854.65 527.972 1857.62 525.294 1860.85 522.262C1864.07 519.229 1867.09 516.355 1869.89 513.628C1872.76 510.907 1874.9 508.871 1876.32 507.526L1876.74 508.013L1831.1 580.475L1844.34 595.833L1923.82 562.887L1924.24 563.374C1922.7 564.575 1920.39 566.374 1917.31 568.776C1914.26 571.147 1911.07 573.681 1907.73 576.368C1904.43 579.091 1901.53 581.525 1899.04 583.667L1861.62 615.893L1875.08 631.524L1954.15 563.423L1934.49 540.599L1856.94 572.835L1856.65 572.514L1901 501.716L1881.33 478.901ZM861.863 484.702H1012.82C1019.64 484.702 1025.54 487.198 1030.52 492.177C1035.5 497.156 1037.98 503.048 1037.98 509.862C1037.98 516.938 1035.5 522.966 1030.52 527.946C1025.54 532.663 1019.64 535.022 1012.82 535.022H861.863C854.785 535.022 848.758 532.663 843.779 527.946C839.061 522.966 836.703 516.938 836.703 509.862C836.703 503.048 839.061 497.156 843.779 492.177C848.758 487.198 854.785 484.702 861.863 484.702ZM1163.78 484.702C1170.59 484.702 1176.5 487.198 1181.47 492.177C1186.45 497.156 1188.94 503.048 1188.94 509.862C1188.94 516.938 1186.45 522.966 1181.47 527.946C1176.5 532.663 1170.59 535.022 1163.78 535.022C1156.7 535.022 1150.67 532.663 1145.7 527.946C1140.98 522.966 1138.62 516.938 1138.62 509.862C1138.62 503.048 1140.98 497.156 1145.7 492.177C1150.67 487.198 1156.7 484.702 1163.78 484.702ZM1314.74 484.702C1321.55 484.702 1327.44 487.198 1332.42 492.177C1337.41 497.156 1339.9 503.048 1339.9 509.862C1339.9 516.938 1337.41 522.966 1332.42 527.946C1327.44 532.663 1321.55 535.022 1314.74 535.022C1307.66 535.022 1301.63 532.663 1296.65 527.946C1291.94 522.966 1289.58 516.938 1289.58 509.862C1289.58 503.048 1291.94 497.156 1296.65 492.177C1301.63 487.198 1307.66 484.702 1314.74 484.702ZM1465.7 484.702C1472.51 484.702 1478.41 487.198 1483.39 492.177C1488.37 497.156 1490.86 503.048 1490.86 509.862C1490.86 516.938 1488.37 522.966 1483.39 527.946C1478.41 532.663 1472.51 535.022 1465.7 535.022C1458.62 535.022 1452.59 532.663 1447.61 527.946C1442.89 522.966 1440.54 516.938 1440.54 509.862C1440.54 503.048 1442.89 497.156 1447.61 492.177C1452.59 487.198 1458.62 484.702 1465.7 484.702ZM535.4 488.469C537.575 489.085 539.547 490.314 541.327 492.167C544.326 495.29 545.775 498.692 545.668 502.358C545.562 506.024 543.105 510.162 538.3 514.777L527.896 524.763L509.062 505.151L518.941 495.661C522.339 492.398 525.382 490.236 528.061 489.179C530.776 488.09 533.225 487.853 535.4 488.469ZM428.911 503.915L414.264 520.5L492.507 589.546L507.155 572.961L428.911 503.915ZM371.584 573.623L358.211 591.239L441.321 654.338L480.292 602.997L465.741 591.95L440.143 625.665L371.584 573.623ZM861.863 577.087C868.677 577.087 874.576 579.573 879.558 584.553C884.534 589.532 887.023 595.433 887.023 602.247C887.023 609.324 884.534 615.352 879.558 620.331C874.576 625.048 868.677 627.407 861.863 627.407C854.785 627.407 848.758 625.048 843.779 620.331C839.061 615.352 836.703 609.324 836.703 602.247C836.703 595.433 839.061 589.532 843.779 584.553C848.758 579.573 854.785 577.087 861.863 577.087ZM1012.82 577.087H1163.78C1170.59 577.087 1176.5 579.573 1181.47 584.553C1186.45 589.532 1188.94 595.433 1188.94 602.247C1188.94 609.324 1186.45 615.352 1181.47 620.331C1176.5 625.048 1170.59 627.407 1163.78 627.407H1012.82C1005.75 627.407 999.72 625.048 994.738 620.331C990.02 615.352 987.662 609.324 987.662 602.247C987.662 595.433 990.02 589.532 994.738 584.553C999.72 579.573 1005.75 577.087 1012.82 577.087ZM1314.74 577.087C1321.55 577.087 1327.44 579.573 1332.42 584.553C1337.41 589.532 1339.9 595.433 1339.9 602.247C1339.9 609.324 1337.41 615.352 1332.42 620.331C1327.44 625.048 1321.55 627.407 1314.74 627.407C1307.66 627.407 1301.63 625.048 1296.65 620.331C1291.94 615.352 1289.58 609.324 1289.58 602.247C1289.58 595.433 1291.94 589.532 1296.65 584.553C1301.63 579.573 1307.66 577.087 1314.74 577.087ZM1465.7 577.087C1472.51 577.087 1478.41 579.573 1483.39 584.553C1488.37 589.532 1490.86 595.433 1490.86 602.247C1490.86 609.324 1488.37 615.352 1483.39 620.331C1478.41 625.048 1472.51 627.407 1465.7 627.407C1458.62 627.407 1452.59 625.048 1447.61 620.331C1442.89 615.352 1440.54 609.324 1440.54 602.247C1440.54 595.433 1442.89 589.532 1447.61 584.553C1452.59 579.573 1458.62 577.087 1465.7 577.087ZM1990.68 616.117L1882.76 642.366L1895.77 662.358L1920.71 655.156L1941.45 687.041L1924.76 706.925L1937.76 726.917L2005.43 638.794L1990.68 616.117ZM1984.53 636.371C1983.16 637.834 1981.56 639.614 1979.74 641.705C1977.99 643.81 1976.25 645.885 1974.51 647.924C1972.83 649.977 1971.45 651.646 1970.35 652.927L1954.13 672.5L1939.3 649.705L1963.73 642.756C1964.83 642.438 1966.66 641.893 1969.23 641.13C1971.8 640.368 1974.5 639.547 1977.34 638.668C1980.24 637.804 1982.64 637.036 1984.53 636.371ZM1012.82 669.463C1019.64 669.463 1025.54 671.958 1030.52 676.938C1035.49 681.917 1037.98 687.809 1037.98 694.623C1037.98 701.699 1035.49 707.727 1030.52 712.707C1025.54 717.424 1019.64 719.783 1012.82 719.783C1005.75 719.783 999.72 717.424 994.738 712.707C990.022 707.727 987.662 701.699 987.662 694.623C987.662 687.809 990.022 681.917 994.738 676.938C999.72 671.958 1005.75 669.463 1012.82 669.463ZM1163.78 669.463C1170.59 669.463 1176.5 671.958 1181.47 676.938C1186.45 681.917 1188.94 687.809 1188.94 694.623C1188.94 701.699 1186.45 707.727 1181.47 712.707C1176.5 717.424 1170.59 719.783 1163.78 719.783C1156.7 719.783 1150.67 717.424 1145.7 712.707C1140.98 707.727 1138.62 701.699 1138.62 694.623C1138.62 687.809 1140.98 681.917 1145.7 676.938C1150.67 671.958 1156.7 669.463 1163.78 669.463ZM1314.74 669.463C1321.55 669.463 1327.45 671.958 1332.43 676.938C1337.41 681.917 1339.9 687.809 1339.9 694.623C1339.9 701.699 1337.41 707.727 1332.43 712.707C1327.45 717.424 1321.55 719.783 1314.74 719.783C1307.66 719.783 1301.63 717.424 1296.65 712.707C1291.94 707.727 1289.58 701.699 1289.58 694.623C1289.58 687.809 1291.94 681.917 1296.65 676.938C1301.63 671.958 1307.66 669.463 1314.74 669.463ZM2031.69 682.34L2015.3 690.71L2028.18 715.948L1951.65 755.036L1961.72 774.745L2038.25 735.657L2051.14 760.885L2067.53 752.515L2031.69 682.34ZM296.777 688.296L269.583 741.565L362.513 789.023L372.411 769.625L335.669 750.87L351.768 719.335L335.689 711.13L319.591 742.655L295.628 730.421L312.924 696.54L296.777 688.296ZM2076.63 774.628L1980.41 815.01L1988.98 835.41L2085.2 795.028L2076.63 774.628ZM275.247 784.838C266.48 785.288 258.736 788.152 252.005 793.442C245.291 798.687 239.931 806.607 235.926 817.2C231.904 827.837 230.658 837.39 232.189 845.854C233.72 854.318 237.618 861.639 243.878 867.821C250.11 873.942 258.272 878.912 268.376 882.732C275.942 885.593 283.177 887.256 290.071 887.725C296.964 888.194 303.344 887.382 309.225 885.282C315.123 883.137 320.375 879.605 324.983 874.683C329.546 869.744 333.339 863.291 336.351 855.324C339.363 847.357 340.788 840.011 340.633 833.289C340.437 826.549 338.827 820.447 335.806 814.981C332.802 809.47 328.579 804.612 323.143 800.42C317.663 796.212 311.17 792.694 303.648 789.85C293.5 786.014 284.031 784.343 275.247 784.838ZM988.041 793.257H1089.62C1096.5 793.257 1102.08 798.835 1102.08 805.715V923.659H1127.5H1203.26H1228.67V894.636C1228.67 887.755 1234.25 882.178 1241.13 882.177H1342.71C1349.59 882.178 1355.17 887.755 1355.17 894.636V1061.35H1379.17V959.662C1379.17 952.781 1384.75 947.204 1391.63 947.203H1535.31C1540.3 935.47 1551.8 927.846 1564.55 927.825C1582.14 927.826 1596.39 942.079 1596.39 959.662C1596.4 977.247 1582.14 991.507 1564.55 991.508C1551.8 991.487 1540.29 983.856 1535.31 972.12H1404.09V1061.35H1444.29C1451.17 1061.35 1456.75 1066.93 1456.75 1073.81V1202.55H1586.51C1593.39 1202.55 1598.97 1208.13 1598.97 1215.01V1296.51H1604.47C1608.54 1296.51 1611.83 1299.81 1611.83 1303.88V1339.79C1611.83 1343.86 1608.54 1347.16 1604.47 1347.16H1568.54C1564.48 1347.16 1561.18 1343.86 1561.19 1339.79V1303.88C1561.18 1299.81 1564.48 1296.51 1568.54 1296.51H1574.05V1227.46H1456.75V1371.87H1510.08C1516.96 1371.87 1522.54 1377.45 1522.54 1384.33V1490.53C1522.54 1497.41 1516.96 1502.98 1510.08 1502.99H1430.09C1423.21 1502.98 1417.64 1497.41 1417.64 1490.53V1474.81C1417.64 1467.69 1412.29 1462.35 1405.18 1462.35H1402.76L1378.54 1437.43H1405.18C1425.67 1437.43 1442.55 1454.32 1442.55 1474.81V1478.07H1497.62V1396.79H1342.71H1339.02L1314.8 1371.87H1330.25V1073.81V907.094H1253.59V936.117V1232.94V1309.38V1357.35C1248.64 1362.98 1245.39 1370.41 1245.39 1378.39V1396.79H886.448H833.142V1478.07H888.2V1474.81C888.2 1454.32 905.085 1437.43 925.575 1437.43H1245.39V1462.35H925.575C918.458 1462.35 913.117 1467.69 913.117 1474.81V1490.53C913.116 1497.41 907.538 1502.98 900.659 1502.99H820.683C813.803 1502.98 808.226 1497.41 808.225 1490.53V1384.33C808.226 1377.45 813.803 1371.87 820.683 1371.87H873.99V1209.55H784.583C782.142 1215.29 778.07 1220.18 772.87 1223.63C767.67 1227.07 761.573 1228.91 755.336 1228.92C746.892 1228.92 738.795 1225.57 732.825 1219.6C726.854 1213.63 723.499 1205.53 723.499 1197.09C723.499 1188.64 726.854 1180.55 732.825 1174.58C738.795 1168.61 746.892 1165.25 755.336 1165.25C761.581 1165.25 767.689 1167.09 772.898 1170.53C778.108 1173.98 782.188 1178.88 784.632 1184.63H873.99V1067.57H755.336C748.456 1067.57 742.879 1061.99 742.878 1055.11V850.166H737.369C735.417 850.165 733.546 849.39 732.166 848.01C730.786 846.63 730.011 844.759 730.01 842.807V806.873C730.011 804.922 730.786 803.05 732.166 801.67C733.546 800.291 735.417 799.515 737.369 799.515H773.303C775.254 799.515 777.125 800.291 778.505 801.67C779.885 803.05 780.661 804.922 780.661 806.873V842.807C780.661 844.759 779.885 846.63 778.505 848.01C777.125 849.39 775.254 850.165 773.303 850.166H767.795V1042.65H873.99V1009.84C873.991 1002.96 879.569 997.387 886.448 997.386H975.583V805.715C975.584 798.835 981.161 793.257 988.041 793.257ZM281.175 807.798C285.565 808.364 290.325 809.61 295.443 811.545C302.253 814.12 307.805 817.184 312.106 820.743C316.379 824.241 319.166 828.318 320.457 832.977C321.703 837.62 321.209 842.879 318.988 848.754C316.8 854.54 313.708 858.77 309.702 861.427C305.652 864.068 300.849 865.33 295.297 865.213C289.717 865.036 283.527 863.66 276.717 861.086C269.863 858.495 264.301 855.421 260.044 851.879C255.76 848.275 252.998 844.16 251.752 839.518C250.478 834.814 250.939 829.542 253.144 823.711C256.458 814.943 261.784 809.755 269.106 808.148C272.767 807.345 276.785 807.232 281.175 807.798ZM1000.5 818.173V1009.84V1371.87H1077.17V1309.38V1232.94V936.117V818.173H1000.5ZM2076.63 835.994C2067.95 835.033 2058.46 836.171 2048.16 839.411C2040.44 841.837 2033.73 844.991 2028.02 848.881C2022.31 852.771 2017.79 857.358 2014.46 862.643C2011.15 867.974 2009.2 874 2008.62 880.717C2008.08 887.42 2009.09 894.832 2011.65 902.957C2014.2 911.083 2017.61 917.739 2021.89 922.929C2026.21 928.105 2031.25 931.915 2037 934.346C2042.77 936.824 2049.08 938.031 2055.94 937.967C2062.85 937.89 2070.14 936.641 2077.81 934.229C2088.16 930.975 2096.64 926.439 2103.25 920.623C2109.86 914.852 2114.18 907.81 2116.2 899.492C2118.24 891.22 2117.56 881.681 2114.17 870.877C2110.75 860.028 2105.83 851.748 2099.4 846.039C2092.97 840.33 2085.38 836.987 2076.63 835.994ZM2073.76 858.516C2079.36 858.703 2084.09 860.24 2087.93 863.12C2091.84 866.032 2094.73 870.459 2096.6 876.406C2099.41 885.348 2098.43 892.712 2093.67 898.5C2088.9 904.287 2081.3 908.824 2070.86 912.106C2063.92 914.29 2057.65 915.304 2052.07 915.162C2046.55 915.052 2041.84 913.57 2037.95 910.705C2034.1 907.824 2031.24 903.382 2029.35 897.39C2027.5 891.489 2027.32 886.265 2028.83 881.7C2030.38 877.122 2033.37 873.157 2037.81 869.816C2042.31 866.507 2048.03 863.766 2054.98 861.582C2061.97 859.384 2068.23 858.361 2073.76 858.516ZM1291.92 927.825C1298.8 927.825 1304.38 933.403 1304.38 940.283V1155.55C1304.38 1162.43 1298.8 1168.01 1291.92 1168.01C1285.04 1168.01 1279.47 1162.43 1279.47 1155.55V940.283C1279.47 933.402 1285.04 927.825 1291.92 927.825ZM1102.08 948.576V1220.49H1228.67V948.576H1215.71V1065.87C1215.72 1075.76 1204.74 1081.71 1196.45 1076.31L1165.63 1056.23L1134.96 1079.16C1126.75 1085.31 1115.04 1079.45 1115.04 1069.19V948.576H1102.08ZM1139.95 948.576V1044.32L1157.68 1031.07C1161.86 1027.94 1167.56 1027.76 1171.94 1030.61L1190.8 1042.9V948.575L1139.95 948.576ZM2135.64 953.238L2032.83 971.117L2036.21 990.593L2084.6 982.174C2087.85 981.462 2091.08 980.755 2094.29 980.052C2097.55 979.341 2100.81 978.632 2104.06 977.921C2107.32 977.209 2110.55 976.481 2113.76 975.731L2113.86 976.363L2043.86 1034.62L2048.68 1062.32L2151.49 1044.44L2148.08 1024.82L2099.42 1033.28L2090.05 1035.2C2086.93 1035.89 2083.81 1036.58 2080.69 1037.26C2077.58 1037.95 2074.43 1038.62 2071.26 1039.27L2071.18 1038.77L2140.41 980.733L2135.64 953.238ZM212.265 982.524C209.27 982.811 206.515 983.514 204.002 984.636C198.976 986.88 194.859 990.881 191.641 996.637C188.43 1002.35 186.086 1009.87 184.614 1019.23L179.884 1049.26L282.965 1065.49L286.411 1043.64L246.856 1037.41L248.686 1025.78L292.114 1007.39L295.93 983.137L246.244 1006.39C245.225 1002.76 243.722 999.294 241.737 995.995C239.751 992.696 237.136 989.878 233.892 987.537C230.648 985.196 226.679 983.653 221.979 982.914C218.501 982.366 215.261 982.237 212.265 982.524ZM219.069 1005.08C223.769 1005.82 227.096 1007.95 229.045 1011.48C230.954 1014.96 231.333 1020.32 230.193 1027.56L229.084 1034.62L201.238 1030.23L202.279 1023.6C203.389 1016.55 205.243 1011.51 207.837 1008.5C210.438 1005.44 214.18 1004.31 219.069 1005.08ZM898.907 1022.3V1055.11V1197.09V1371.87H975.583V1022.3L898.907 1022.3ZM937.245 1040.13C944.125 1040.13 949.704 1045.71 949.704 1052.59V1267.87C949.704 1274.75 944.125 1280.32 937.245 1280.32C930.364 1280.32 924.787 1274.75 924.787 1267.87V1052.59C924.787 1045.71 930.364 1040.13 937.245 1040.13ZM227.731 1085.13C216.889 1084.74 207.389 1086.18 199.223 1089.45C191.059 1092.68 184.63 1097.87 179.942 1105.03C175.256 1112.15 172.703 1121.37 172.292 1132.68C171.877 1144.05 173.753 1153.5 177.908 1161.03C182.063 1168.56 188.095 1174.25 196.001 1178.11C203.862 1181.92 213.189 1184.01 223.984 1184.41C232.067 1184.7 239.454 1183.97 246.136 1182.22C252.818 1180.46 258.608 1177.65 263.509 1173.78C268.413 1169.86 272.259 1164.83 275.053 1158.69C277.799 1152.55 279.328 1145.24 279.637 1136.72C279.945 1128.21 278.953 1120.79 276.658 1114.47C274.317 1108.15 270.843 1102.88 266.234 1098.67C261.628 1094.41 256.081 1091.15 249.591 1088.92C243.054 1086.68 235.767 1085.42 227.731 1085.13ZM1355.17 1086.27V1369.67H1431.84V1086.27H1355.17ZM226.894 1108.3C234.169 1108.57 240.408 1109.7 245.621 1111.7C250.787 1113.65 254.725 1116.62 257.437 1120.63C260.1 1124.63 261.323 1129.77 261.095 1136.04C260.872 1142.22 259.284 1147.21 256.337 1151.01C253.342 1154.81 249.195 1157.54 243.897 1159.21C238.553 1160.82 232.243 1161.49 224.967 1161.23C217.644 1160.97 211.406 1159.83 206.24 1157.83C201.03 1155.79 197.089 1152.76 194.425 1148.76C191.715 1144.71 190.471 1139.58 190.697 1133.35C191.037 1123.98 194.423 1117.36 200.848 1113.5C207.274 1109.64 215.957 1107.91 226.894 1108.3ZM1375.62 1127.02H1411.39C1418.27 1127.02 1423.84 1132.6 1423.84 1139.48C1423.84 1146.36 1418.27 1151.94 1411.39 1151.94H1375.62C1368.74 1151.94 1363.16 1146.36 1363.16 1139.48C1363.16 1132.6 1368.74 1127.02 1375.62 1127.02ZM2059.31 1158.17C2057.86 1160.98 2056.61 1163.96 2055.58 1167.07C2054.6 1170.24 2053.82 1173.52 2053.26 1176.93C2052.69 1180.39 2052.37 1183.93 2052.27 1187.55C2052.07 1195.73 2053.13 1202.7 2055.46 1208.48C2057.78 1214.29 2061.19 1218.76 2065.68 1221.88C2070.17 1224.99 2075.5 1226.62 2081.69 1226.78C2087.16 1226.92 2091.75 1226.02 2095.47 1224.07C2099.23 1222.12 2102.51 1219.27 2105.32 1215.53C2108.17 1211.84 2110.93 1207.37 2113.59 1202.11C2115.8 1197.79 2117.72 1194.18 2119.36 1191.27C2121.01 1188.41 2122.68 1186.26 2124.38 1184.82C2126.13 1183.44 2128.25 1182.77 2130.72 1182.84C2132.81 1182.89 2134.63 1183.44 2136.17 1184.48C2137.76 1185.52 2138.97 1187.03 2139.77 1189C2140.63 1190.97 2141.02 1193.34 2140.95 1196.09C2140.85 1200.04 2140.2 1203.91 2139 1207.69C2137.86 1211.47 2136.26 1215.73 2134.19 1220.49L2151.2 1228.06C2153.72 1222.74 2155.66 1217.63 2157.02 1212.72C2158.43 1207.85 2159.2 1202.7 2159.34 1197.28C2159.52 1190.05 2158.49 1183.74 2156.25 1178.35C2154.06 1173.01 2150.78 1168.86 2146.43 1165.89C2142.08 1162.93 2136.79 1161.36 2130.56 1161.2C2125.8 1161.08 2121.69 1161.78 2118.22 1163.31C2114.8 1164.89 2111.87 1166.94 2109.43 1169.45C2106.98 1171.95 2104.9 1174.62 2103.16 1177.43C2101.47 1180.24 2100.02 1182.85 2098.82 1185.24C2096.86 1189.05 2095.03 1192.45 2093.34 1195.45C2091.64 1198.5 2089.84 1200.88 2087.94 1202.6C2086.04 1204.31 2083.79 1205.14 2081.17 1205.07C2079.03 1205.01 2077.15 1204.47 2075.51 1203.42C2073.87 1202.38 2072.59 1200.73 2071.7 1198.47C2070.8 1196.26 2070.4 1193.34 2070.49 1189.73C2070.63 1184.5 2071.64 1179.23 2073.54 1173.95C2075.44 1168.67 2077.54 1163.58 2079.86 1158.69L2059.31 1158.17ZM1375.62 1170.59H1411.39C1418.27 1170.59 1423.84 1176.17 1423.84 1183.05C1423.84 1189.93 1418.27 1195.51 1411.39 1195.51H1375.62C1368.74 1195.51 1363.16 1189.93 1363.16 1183.05C1363.16 1176.17 1368.74 1170.59 1375.62 1170.59ZM277.428 1199.87L259.207 1201.25L262.409 1243.46L176.575 1249.97L178.248 1272.03L282.304 1264.14L277.428 1199.87ZM1766.82 1222.05C1769.46 1222.3 1770.15 1223.52 1781.42 1248.09C1787.93 1262.27 1793.26 1274.36 1793.26 1274.95C1793.26 1275.54 1792.69 1276.79 1792 1277.73C1790.87 1279.29 1789.86 1279.37 1781.37 1278.59C1774.95 1278.01 1771.9 1278.06 1771.71 1278.74C1771.56 1279.29 1770.27 1287.7 1768.86 1297.44C1765.49 1320.68 1763.3 1331.47 1759.21 1344.96C1755 1358.85 1745.82 1382.32 1736.83 1402.1C1733.04 1410.44 1730.17 1417.49 1730.46 1417.78C1731.08 1418.4 1765.81 1416.24 1770.06 1415.32C1772.13 1414.87 1775.2 1412.05 1781.18 1405.13L1789.45 1395.55L1785.61 1392.37C1783.03 1390.23 1781.77 1388.4 1781.77 1386.82C1781.77 1383.37 1804.41 1356.94 1807.45 1356.85C1808.97 1356.8 1814.08 1360.53 1823.46 1368.51C1834.76 1378.14 1837.25 1380.71 1837.25 1382.81C1837.31 1386.11 1815.41 1412 1812.14 1412.52C1810.86 1412.72 1808.57 1411.76 1806.42 1410.11C1804.44 1408.6 1802.48 1407.5 1802.06 1407.68C1801.63 1407.86 1797.26 1412.44 1792.34 1417.86C1787.43 1423.28 1781.8 1428.55 1779.83 1429.56C1775.83 1431.6 1768.24 1432.61 1740.16 1434.85C1729.63 1435.69 1720.95 1436.46 1720.89 1436.55C1720.82 1436.64 1715.77 1446.62 1709.65 1458.73C1693.8 1490.12 1682.72 1507.14 1661.8 1532.29C1656.61 1538.53 1652.74 1543.97 1653.18 1544.37C1653.63 1544.77 1662.69 1546.49 1673.33 1548.19L1692.67 1551.29L1695.83 1549.08C1704.64 1542.92 1712.86 1536.4 1712.86 1535.6C1712.86 1535.1 1711.79 1533.29 1710.47 1531.56C1706.23 1526 1706.66 1525.34 1723.02 1513.21C1734.78 1504.49 1738.44 1502.25 1740.16 1502.68C1741.55 1503.03 1745.91 1508.13 1752.29 1516.87C1764.41 1533.47 1763.85 1532.52 1763.13 1534.79C1762.38 1537.15 1734.51 1557.8 1732.07 1557.8C1731.07 1557.8 1728.77 1556.02 1726.97 1553.85L1723.7 1549.91L1711.67 1558.08C1702.27 1564.48 1698.64 1566.42 1695.01 1566.97C1691.58 1567.49 1683.6 1566.66 1664.52 1563.81L1638.67 1559.95L1635.85 1563.42C1630.33 1570.2 1613.66 1586.81 1605.17 1593.97C1592.32 1604.81 1571.86 1619.8 1552.8 1632.33C1543.47 1638.45 1535.81 1643.7 1535.81 1643.98C1535.76 1644.72 1569.52 1664.99 1571.79 1665.58C1573.35 1665.99 1596.83 1660.76 1597.8 1659.78C1597.96 1659.62 1597.57 1657.48 1596.96 1655.01C1594.92 1646.95 1595.18 1646.77 1616.58 1641.47C1633.05 1637.38 1635.48 1636.99 1636.69 1638.22C1638.94 1640.51 1647.12 1674.57 1646.01 1677.01C1645.24 1678.69 1642.01 1679.81 1627.14 1683.59C1606.19 1688.91 1605.59 1688.85 1603.66 1681.33C1602.73 1677.69 1602.05 1676.58 1600.94 1676.91C1593.56 1679.1 1576.44 1682.47 1572.45 1682.47C1566.29 1682.52 1563.45 1681.16 1537.85 1665.98L1518.38 1654.45L1496.22 1665.48C1470.08 1678.48 1452.94 1685.45 1424.26 1694.75C1412.68 1698.51 1402.63 1701.75 1401.92 1701.97C1400.62 1702.35 1416.28 1719.57 1430.66 1733.57L1437.68 1740.39L1453.22 1741.01L1468.77 1741.64V1735.53C1468.77 1726.05 1468.19 1726.26 1493.94 1726.26C1514.38 1726.26 1515.67 1726.36 1516.6 1728.11C1517.2 1729.23 1517.6 1738.47 1517.6 1751.45C1517.6 1769.73 1517.37 1773.11 1516.1 1774.17C1514.26 1775.7 1471.88 1775.51 1470.02 1773.96C1469.38 1773.43 1468.73 1770.13 1468.58 1766.62L1468.31 1760.24L1452.42 1759.64C1435.65 1759.01 1431.15 1758.12 1425.71 1754.31C1423.87 1753.02 1412.62 1742 1400.71 1729.83L1379.05 1707.7L1367.69 1709.77C1342.13 1714.43 1307.93 1717.65 1283.89 1717.65H1269.52L1273.54 1725.06C1283.3 1743.09 1292.92 1760.37 1294.02 1761.87C1294.72 1762.83 1300.72 1765.12 1308.54 1767.4C1315.87 1769.54 1322.53 1771.5 1323.35 1771.75C1324.48 1772.1 1325.28 1770.85 1326.57 1766.71C1328.63 1760.12 1329.58 1758.81 1332.27 1758.81C1333.39 1758.81 1343.11 1761.32 1353.87 1764.39C1368.05 1768.44 1373.76 1770.48 1374.67 1771.84C1375.73 1773.45 1375.09 1776.59 1370.14 1794.25C1366.63 1806.75 1363.76 1815.27 1362.8 1816H1362.74C1360.52 1817.68 1360.04 1817.59 1341.9 1812.32C1332.95 1809.72 1324.12 1807.18 1322.28 1806.67C1317.25 1805.29 1316.38 1803.2 1318.1 1796.62C1318.88 1793.61 1319.29 1790.91 1318.99 1790.61C1318.7 1790.32 1312.33 1788.18 1304.82 1785.86C1286.86 1780.32 1283.64 1778.7 1279.38 1773.01C1277.44 1770.42 1269.39 1756.8 1261.48 1742.74L1247.1 1717.17L1237.56 1716.89C1226.66 1716.57 1217.16 1718.19 1205.25 1722.41L1197.4 1725.19L1189.73 1717.83C1185.51 1713.78 1181.94 1710.22 1181.8 1709.91C1181.38 1709.04 1195.68 1702.69 1203.07 1700.46C1217.6 1696.06 1225.6 1695.45 1260.55 1696.06C1278.45 1696.37 1297.34 1696.3 1302.53 1695.89L1311.98 1695.15L1320.34 1669.17C1324.93 1654.87 1329.82 1641.24 1331.21 1638.88C1334.62 1633.06 1337.54 1630.78 1351.38 1623.17L1363.23 1616.67L1363.79 1611.94C1365.42 1598.29 1380.43 1588.87 1393.62 1593.22C1400.95 1595.64 1407.48 1603.71 1408.88 1612.08C1410.37 1621.06 1403.94 1632.31 1395.19 1636.02C1389.69 1638.36 1381.96 1637.99 1376.22 1635.11L1371.33 1632.65L1359.49 1639.3C1352.98 1642.95 1347.16 1646.47 1346.55 1647.1C1345.62 1648.06 1339.7 1666.8 1333.39 1688.75L1331.93 1693.82L1336.44 1693.22C1352.57 1691.06 1372.53 1687.45 1384.08 1684.61C1395.84 1681.72 1433.32 1670.18 1433.32 1669.45C1433.32 1669.3 1435.01 1657.21 1437.08 1642.58C1441.89 1608.61 1441.69 1609.08 1457.3 1596.3L1468.68 1586.99L1468.74 1581.94C1468.85 1563.08 1489.59 1552.55 1504.39 1563.86C1510.48 1568.52 1512.9 1574.01 1512.56 1582.39C1512.32 1588.24 1511.86 1589.87 1509.4 1593.38C1503.94 1601.14 1495.9 1604.67 1487.43 1603.03C1484.8 1602.52 1482 1601.82 1481.21 1601.47C1479.53 1600.74 1458.7 1617.02 1457.84 1619.74C1457.06 1622.2 1452.44 1661.44 1452.88 1661.88C1453.5 1662.5 1479.1 1650.88 1492.22 1644.02C1499.06 1640.44 1509.83 1634.39 1516.14 1630.58C1528.26 1623.29 1558.25 1603.46 1562.94 1599.64L1565.7 1597.39L1561.74 1574.95C1557.69 1551.98 1557.01 1543.7 1558.79 1538.96C1559.35 1537.48 1562.81 1531.47 1566.47 1525.62L1573.14 1515L1571.72 1509.51C1569.76 1501.98 1571.1 1495.79 1575.84 1490.54C1582.77 1482.84 1591.77 1481.13 1600.92 1485.77C1608.19 1489.45 1611.88 1495.51 1611.82 1503.65C1611.73 1515.76 1603.44 1524.3 1591.78 1524.3H1587.43L1580.74 1534.44C1573.85 1544.9 1573.73 1545.16 1574.03 1549.18C1574.26 1552.34 1580.77 1584.93 1581.27 1585.42C1581.76 1585.91 1596.53 1573.58 1604.57 1565.97C1611.98 1558.96 1646.76 1517.77 1658.98 1501.55L1667.82 1489.83L1655.4 1464.88C1640.69 1435.35 1640.78 1435.83 1646.27 1416.19L1649.57 1404.39L1647.34 1401.41C1642.11 1394.4 1641.6 1383.85 1646.17 1376.95C1656.09 1361.96 1678.8 1365.32 1683.79 1382.51C1686.12 1390.51 1684.42 1397.03 1678.51 1402.74C1676.05 1405.11 1672.15 1407.69 1669.83 1408.48L1665.6 1409.92L1662.44 1420.93C1660.7 1426.98 1659.26 1432.94 1659.26 1434.17C1659.26 1436.33 1676.7 1470.13 1678.36 1471.16C1679.54 1471.89 1684.17 1463.17 1699.41 1431.53C1722.84 1382.85 1736.06 1350.85 1741.54 1329.57C1743.92 1320.33 1750.17 1282.59 1750.17 1277.47C1750.17 1275.85 1749.14 1275.54 1741.35 1274.82C1732.97 1274.04 1732.46 1273.86 1731.62 1271.46C1730.81 1269.15 1732.22 1266.81 1747.39 1245.36C1763.06 1223.2 1764.22 1221.81 1766.82 1222.05H1766.82ZM564.063 1224.22C566.874 1224.22 568.023 1225.59 583.364 1247.19C592.335 1259.83 599.674 1270.89 599.676 1271.78C599.676 1274.89 597.111 1276.09 589.097 1276.7C584.764 1277.04 580.979 1277.54 580.697 1277.82C580.059 1278.46 584.836 1311.51 587.315 1323.65C591.956 1346.36 605.599 1380.28 631.785 1434.21C638.332 1447.7 645.48 1462.16 647.679 1466.34C651.662 1473.92 651.685 1473.94 653.198 1471.69C657.876 1464.75 671.461 1437.75 671.408 1435.5C671.307 1431.25 665.216 1412.01 663.739 1411.27C662.99 1410.9 660.521 1409.82 658.24 1408.88C652.962 1406.69 648.058 1400.99 646.648 1395.39C643.266 1381.96 653.148 1369.2 666.892 1369.25C683.842 1369.32 693.272 1387.03 684.158 1401.69L681.19 1406.45L684.538 1418.24C687.31 1428.01 687.812 1431.16 687.477 1436.71C687.1 1443.05 686.426 1444.73 674.98 1467.57L662.872 1491.71L671.379 1502.98C676.062 1509.17 682.637 1517.5 685.979 1521.47C689.319 1525.44 698.539 1536.42 706.476 1545.88C714.413 1555.33 724.545 1566.31 728.979 1570.28C741.237 1581.25 749.044 1587.76 749.437 1587.36C749.751 1587.04 755.649 1558.16 756.932 1550.68C757.325 1548.39 756.139 1545.86 750.576 1537.15L743.744 1526.43L737.641 1525.94C726.342 1525.04 718.886 1516.96 718.886 1505.63C718.886 1494.22 726.592 1485.95 737.923 1485.23C743.258 1484.89 744.681 1485.18 749.048 1487.57C757.919 1492.4 761.636 1501.28 759.005 1511.38L757.574 1516.9L763.803 1526.67C767.23 1532.05 770.686 1538 771.483 1539.91C773.739 1545.31 773.241 1552.71 769.04 1576.32C766.899 1588.36 765.359 1598.75 765.614 1599.42C766.278 1601.15 808.5 1629.11 822.698 1637.22C840.35 1647.3 876.865 1664.77 877.971 1663.67C878.327 1663.31 873.514 1623.7 872.871 1621.67C872.016 1618.97 851.399 1602.59 849.687 1603.24C837.508 1607.92 826 1603.97 820.488 1593.22C818.178 1588.67 817.821 1587.08 818.113 1581.53C818.39 1576.26 818.972 1574.38 821.335 1571.02C822.918 1568.77 825.657 1565.94 827.428 1564.75C842.074 1554.88 861.808 1565.59 861.999 1583.52L862.058 1588.91L873.388 1598.15C888.927 1610.85 888.798 1610.57 893.583 1644.09C895.637 1658.49 897.34 1670.55 897.34 1670.91C897.393 1671.83 928.105 1681.64 943.318 1685.58C954.621 1688.5 982.686 1693.64 994.835 1695.01C998.16 1695.38 998.871 1695.2 998.446 1694.09C998.153 1693.34 996.572 1688.1 994.942 1682.45C988.448 1659.95 985.162 1650.09 983.652 1648.59C982.78 1647.73 976.972 1644.21 970.746 1640.77L959.426 1634.53L954.482 1636.83C943.507 1641.94 931.306 1638.53 925.4 1628.7C921.462 1622.14 920.669 1616.92 922.597 1610.29C928.092 1591.39 954.025 1588.27 964.011 1605.31C965.342 1607.58 966.726 1611.43 967.076 1613.86L967.729 1618.28L980.08 1625.36C986.873 1629.25 993.288 1633.19 994.338 1634.12C998.902 1638.15 1002.12 1645.54 1010.33 1670.84L1018.91 1697.29L1037.34 1697.98C1048.88 1698.41 1063.11 1698.22 1075.39 1697.49C1103.06 1695.86 1115.8 1697.17 1133.78 1703.5C1150.42 1709.36 1164.04 1718.25 1176.81 1731.61C1189.8 1745.2 1198.94 1759.81 1204.3 1775.55C1207.87 1786.03 1212.28 1807.08 1212.28 1813.67C1212.28 1826.38 1207.32 1837.64 1197.48 1847.34C1190.81 1853.9 1184.44 1857.64 1176.34 1859.75C1160.13 1863.97 1142.7 1858.83 1131.06 1846.38C1120.53 1835.12 1117.03 1823.43 1118.49 1804.27C1119.77 1787.46 1125.03 1772.19 1134.72 1757.08L1138.57 1751.07L1144.08 1754.91C1147.11 1757.03 1150.82 1759.79 1152.33 1761.06L1155.09 1763.37L1152.67 1768.5C1140.86 1793.61 1139.14 1817.03 1148.28 1828.08C1156.33 1837.78 1172.24 1839.09 1181.01 1830.77C1186.71 1825.36 1187.86 1821.68 1187.81 1809.05C1187.75 1795.27 1185.55 1785.78 1179.28 1772.51C1172.45 1758.02 1165.05 1748.31 1153.12 1738.12C1137.01 1724.38 1110.65 1716.08 1090.25 1718.34L1083.54 1719.08L1078.68 1727.69C1075.99 1732.43 1069.1 1744.63 1063.36 1754.82C1057.63 1765 1051.51 1774.8 1049.76 1776.6C1045.39 1781.09 1041.62 1782.83 1026.1 1787.54C1018.73 1789.77 1012.36 1791.91 1011.93 1792.3C1011.5 1792.68 1011.79 1795.48 1012.58 1798.51C1013.66 1802.66 1013.75 1804.43 1012.95 1805.73C1011.38 1808.25 971.073 1819.68 968.539 1818.32C967.166 1817.59 965.224 1812.14 960.791 1796.55C955.418 1777.66 955.013 1775.57 956.285 1773.74C958.223 1770.94 997.353 1759.58 1000.36 1760.94C1001.7 1761.55 1002.95 1763.81 1004.18 1767.87L1006.01 1773.89L1020.25 1769.78C1028.38 1767.44 1035.21 1764.92 1036.17 1763.92C1037.71 1762.3 1044.96 1749.56 1056.63 1727.93L1061.15 1719.55H1051.15C1026.45 1719.55 993.53 1716.68 966.864 1712.2L951.652 1709.65L929.052 1732.75C901.013 1761.4 902.913 1760.32 879.18 1761.39L862.43 1762.14L861.951 1768.37C861.691 1771.8 861.131 1775.13 860.705 1775.79C859.619 1777.47 815.965 1777.52 814.289 1775.85C813.464 1775.02 813.14 1768.52 813.14 1752.6C813.14 1736.68 813.459 1730.16 814.289 1729.33C815.919 1727.7 859.173 1727.7 860.803 1729.33C861.452 1729.98 861.951 1733.09 861.951 1736.51V1742.54H877.67H893.389L911.132 1724.12C920.89 1713.98 928.918 1705.26 928.982 1704.75C929.046 1704.23 921.42 1701.39 912.037 1698.44C880.498 1688.52 856.147 1678.62 829.336 1664.81L812.518 1656.16L793.441 1667.42C768.893 1681.93 764.186 1684.14 758.1 1684.14C755.468 1684.14 747.743 1682.85 740.932 1681.27C734.12 1679.7 728.458 1678.41 728.347 1678.41C728.235 1678.41 727.618 1680.58 726.984 1683.22C725.175 1690.76 724.751 1690.8 703.839 1685.52C689.887 1681.99 685.494 1680.51 684.733 1679.09C683.981 1677.69 684.818 1672.96 688.237 1659.25C693.959 1636.3 691.955 1637.49 715.003 1643.37C724.338 1645.76 732.625 1648.24 733.418 1648.9C734.82 1650.06 734.716 1654.29 733.163 1659.77C732.663 1661.55 733.7 1661.97 745.543 1664.88L758.468 1668.06L764.055 1664.85C777.082 1657.41 794.887 1646.31 794.685 1645.75C794.563 1645.42 785.845 1639.37 775.316 1632.32C736.491 1606.31 711.646 1585.63 695.359 1565.73L692.051 1561.68L670.034 1565.11C657.925 1567 644.57 1568.61 640.359 1568.68C631.861 1568.83 630.612 1568.25 614.215 1556.67L607.208 1551.73L603.451 1555.83C600.895 1558.63 599.13 1559.81 597.933 1559.49C594.374 1558.56 568.091 1538.5 567.537 1536.29C567.106 1534.58 569.287 1531 577.678 1519.64C584.675 1510.16 589.136 1504.97 590.594 1504.6C592.355 1504.16 595.5 1505.99 605.583 1513.35C624.724 1527.32 624.777 1527.39 620.26 1533.31C618.944 1535.04 617.866 1536.93 617.866 1537.5C617.866 1538.07 621.416 1541.08 625.759 1544.19C639.491 1554.04 635.992 1553.37 656.671 1550.13C666.653 1548.57 675.794 1547.06 676.984 1546.78C678.975 1546.32 678.48 1545.51 670.872 1536.5C649.212 1510.84 636.644 1491.67 621.165 1460.72C615.128 1448.65 610.036 1438.63 609.856 1438.45C609.675 1438.26 598.801 1437.26 585.698 1436.22C559.197 1434.11 553.883 1433.26 549.277 1430.42C547.539 1429.34 542.173 1423.98 537.345 1418.5L528.566 1408.56L524.984 1411.39C518.828 1416.26 518.006 1415.82 505.041 1400.65C496.731 1390.93 493.43 1386.39 493.43 1384.62C493.43 1381.19 519.052 1359.2 523.047 1359.2C525.25 1359.2 527.587 1361.42 537.316 1372.75C550.643 1388.27 551.081 1389.46 545.151 1394.23L541.345 1397.28L545.384 1402.12C547.607 1404.79 551.58 1409.28 554.212 1412.11L559.001 1417.26L579.382 1418.74C590.591 1419.55 600.013 1419.95 600.327 1419.64C600.641 1419.33 597.974 1412.71 594.4 1404.93C586.24 1387.16 576.913 1363.99 572.919 1351.53C568.215 1336.85 565.604 1324.71 562.31 1302.24C560.651 1290.92 559.129 1281.12 558.932 1280.45C558.688 1279.62 557.421 1279.41 554.951 1279.77C552.964 1280.06 548.567 1280.4 545.17 1280.51C535.097 1280.84 535.109 1280.68 549.18 1250.07C561.026 1224.31 561.072 1224.23 564.052 1224.23L564.063 1224.22ZM1102.08 1245.4V1296.92H1228.67V1245.4H1102.08ZM2088.36 1246.13C2083.61 1246.38 2079.14 1247.09 2074.94 1248.24C2066.6 1250.57 2059.78 1254.87 2054.49 1261.17C2049.25 1267.52 2045.97 1276.04 2044.64 1286.71C2043.96 1292.23 2043.77 1297.27 2044.07 1301.81C2044.32 1306.35 2045.1 1311.02 2046.42 1315.84L2064.84 1318.13C2063.71 1312.95 2062.94 1308.18 2062.52 1303.81C2062.1 1299.49 2062.14 1295.23 2062.67 1291.03C2063.41 1284.99 2065.37 1280.21 2068.53 1276.72C2071.75 1273.24 2076.05 1270.89 2081.42 1269.69C2086.84 1268.53 2093.2 1268.42 2100.52 1269.33C2105.95 1270 2110.77 1271.17 2114.97 1272.84C2119.18 1274.51 2122.68 1276.62 2125.48 1279.18C2128.28 1281.78 2130.27 1284.78 2131.48 1288.19C2132.73 1291.65 2133.1 1295.49 2132.58 1299.69C2132.11 1303.47 2130.94 1307.23 2129.08 1310.98C2127.23 1314.73 2125.15 1318.42 2122.82 1322.07L2139.8 1331.37C2142.65 1326.93 2145.03 1322.19 2146.95 1317.15C2148.91 1312.17 2150.21 1307.11 2150.85 1301.96C2151.82 1294.12 2151.38 1287.01 2149.53 1280.65C2147.68 1274.28 2144.63 1268.75 2140.37 1264.05C2136.11 1259.35 2130.85 1255.54 2124.6 1252.6C2118.34 1249.67 2111.31 1247.72 2103.47 1246.75C2098.15 1246.09 2093.12 1245.88 2088.36 1246.13ZM284.767 1285.8L266.75 1288.86L273.116 1326.3L246.584 1330.81L240.667 1295.97L222.796 1299.01L228.714 1333.85L206.124 1337.68L199.769 1300.25L181.889 1303.28L191.952 1362.53L294.83 1345.06L284.767 1285.8ZM1038.83 1290C1043.01 1290 1047.15 1290.82 1051.01 1292.42C1054.88 1294.02 1058.39 1296.36 1061.35 1299.32C1064.3 1302.28 1066.65 1305.79 1068.25 1309.65C1069.85 1313.51 1070.67 1317.65 1070.67 1321.84C1070.67 1326.02 1069.85 1330.16 1068.25 1334.02C1066.65 1337.88 1064.3 1341.39 1061.35 1344.35C1058.39 1347.31 1054.88 1349.65 1051.01 1351.25C1047.15 1352.85 1043.01 1353.67 1038.83 1353.67C1030.38 1353.67 1022.29 1350.32 1016.32 1344.35C1010.35 1338.38 1006.99 1330.28 1006.99 1321.84C1006.99 1313.39 1010.35 1305.29 1016.32 1299.32C1022.29 1293.35 1030.38 1290 1038.83 1290ZM1102.08 1321.84V1371.87H1228.67V1321.84H1102.08ZM2037.88 1337.11L2033.42 1358.78L2135.63 1379.81L2140.09 1358.15L2037.88 1337.11ZM299.872 1370.98L199.516 1399.55L205.549 1420.76L244.88 1409.56L256.2 1449.31L216.869 1460.51L222.923 1481.79L323.289 1453.21L317.225 1431.93L273.914 1444.27L262.594 1404.52L305.916 1392.18L299.872 1370.98ZM1277.33 1371.51C1278.92 1371.56 1280.49 1372.2 1281.7 1373.56L1388.81 1483.71C1393.13 1487.92 1389.93 1495.43 1384.1 1495.43H1344.15L1365.17 1546.65C1366.64 1550.2 1364.97 1554.17 1361.62 1555.68L1343.1 1563.75C1339.65 1565.25 1335.79 1563.53 1334.32 1560.09L1314.34 1511.46L1281.7 1545.03C1277.36 1549.5 1270.31 1546.05 1270.31 1540.18V1378.39C1270.31 1374.15 1273.85 1371.4 1277.33 1371.51ZM2027.78 1384.45L2011.39 1442.27L2028.96 1447.25L2039.32 1410.73L2065.21 1418.06L2055.57 1452.05L2073.01 1457L2082.65 1423.01L2104.7 1429.26L2094.33 1465.8L2111.77 1470.74L2128.17 1412.92L2027.78 1384.45ZM2004.99 1463.17L1997.49 1481.47L2042.92 1500.1C2046.06 1501.24 2049.17 1502.36 2052.26 1503.47L2061.67 1506.87C2064.8 1508 2067.93 1509.1 2071.04 1510.17L2070.79 1510.76L1980.53 1522.8L1969.85 1548.82L2066.4 1588.42L2073.96 1570L2028.26 1551.25C2025.28 1550.13 2022.28 1549.01 2019.3 1547.88C2016.29 1546.81 2013.3 1545.73 2010.29 1544.65C2007.29 1543.57 2004.27 1542.46 2001.24 1541.32L2001.43 1540.87L2090.94 1528.59L2101.53 1502.78L2004.99 1463.17ZM327.27 1475.65L310.13 1482.76C313.669 1486.7 316.693 1490.47 319.211 1494.06C321.711 1497.61 323.771 1501.34 325.391 1505.25C327.722 1510.88 328.378 1515.99 327.348 1520.59C326.274 1525.21 323.692 1529.37 319.61 1533.07C315.467 1536.74 309.985 1539.99 303.171 1542.81C298.116 1544.91 293.355 1546.26 288.873 1546.88C284.392 1547.5 280.295 1547.39 276.6 1546.55C272.887 1545.67 269.668 1544.04 266.935 1541.67C264.142 1539.28 261.928 1536.13 260.307 1532.22V1532.21C258.852 1528.7 258.003 1524.85 257.767 1520.68C257.533 1516.5 257.528 1512.25 257.767 1507.94L238.418 1508.23C238.131 1513.5 238.364 1518.8 239.205 1524.12C239.96 1529.43 241.328 1534.47 243.313 1539.26C246.336 1546.56 250.224 1552.52 254.973 1557.15C259.722 1561.77 265.115 1565.08 271.139 1567.07C277.164 1569.05 283.613 1569.77 290.499 1569.24C297.385 1568.7 304.477 1566.93 311.775 1563.9C321.666 1559.8 329.69 1554.68 335.845 1548.52C341.955 1542.39 345.76 1535.28 347.252 1527.19C348.681 1519.08 347.337 1510.05 343.222 1500.11C341.092 1494.97 338.766 1490.49 336.263 1486.69C333.804 1482.87 330.814 1479.19 327.289 1475.65L327.27 1475.65ZM362.932 1552.01L288.864 1634.84L301.886 1658.55L411.46 1640.42L399.985 1619.53L374.572 1624.84L356.264 1591.5L374.398 1572.91L362.932 1552.01ZM1978.44 1584.18C1969.84 1583.19 1961.9 1584.62 1954.63 1588.47C1947.38 1592.38 1941.14 1599.03 1935.91 1608.42C1933.19 1613.28 1931.12 1617.88 1929.69 1622.2C1928.22 1626.5 1927.19 1631.13 1926.6 1636.09L1942.82 1645.14C1943.71 1639.91 1944.78 1635.2 1946.04 1630.99C1947.27 1626.83 1948.92 1622.91 1950.98 1619.21C1953.95 1613.89 1957.55 1610.2 1961.8 1608.16C1966.08 1606.14 1970.94 1605.57 1976.38 1606.48C1981.83 1607.45 1987.77 1609.73 1994.22 1613.32C1999 1615.98 2003.02 1618.88 2006.29 1622.01C2009.55 1625.14 2012.01 1628.41 2013.64 1631.83C2015.26 1635.29 2015.98 1638.83 2015.81 1642.45C2015.67 1646.13 2014.57 1649.82 2012.5 1653.52C2010.65 1656.84 2008.16 1659.89 2005.03 1662.66C2001.9 1665.44 1998.58 1668.08 1995.06 1670.59L2007.29 1685.58C2011.6 1682.53 2015.6 1679.04 2019.27 1675.09C2022.96 1671.21 2026.07 1667.01 2028.59 1662.48C2032.44 1655.58 2034.7 1648.84 2035.38 1642.24C2036.06 1635.65 2035.31 1629.37 2033.13 1623.41C2030.95 1617.45 2027.51 1611.94 2022.82 1606.87C2018.13 1601.81 2012.34 1597.35 2005.44 1593.5C1996.09 1588.29 1987.08 1585.18 1978.44 1584.18ZM342.541 1605.05L355.622 1628.89L330.745 1634C329.625 1634.23 327.757 1634.64 325.138 1635.21C322.519 1635.78 319.767 1636.39 316.875 1637.06C313.919 1637.7 311.466 1638.29 309.527 1638.81C311.008 1637.45 312.735 1635.79 314.705 1633.84C316.61 1631.88 318.503 1629.94 320.389 1628.03C322.21 1626.11 323.716 1624.56 324.905 1623.36L342.541 1605.05ZM1911 1652.79L1876.71 1702.15L1891.71 1712.57L1913.37 1681.39L1935.48 1696.75L1915.32 1725.76L1930.2 1736.11L1950.36 1707.1L1969.18 1720.17L1947.52 1751.35L1962.4 1761.69L1996.69 1712.33L1911 1652.79ZM407.255 1658.62C401.779 1658.7 396.456 1660.57 391.284 1664.21C386.811 1667.36 383.724 1670.58 382.028 1673.88C380.265 1677.16 379.494 1680.44 379.711 1683.73C379.892 1687.04 380.688 1690.32 382.105 1693.57L381.521 1693.98C379.042 1691.53 376.283 1689.92 373.239 1689.16C370.196 1688.39 367.019 1688.42 363.7 1689.24C360.354 1690.03 357.069 1691.56 353.842 1693.84C345.83 1699.49 342.279 1706.35 343.203 1714.43C344.126 1722.52 348.59 1732.24 356.596 1743.59L375.312 1770.14L460.602 1710.02L438.099 1678.1C433.548 1671.64 428.656 1666.77 423.422 1663.47C418.121 1660.16 412.732 1658.55 407.255 1658.62ZM413.436 1681.52C417.044 1682.18 420.772 1685.22 424.61 1690.67L432.912 1702.45L410.692 1718.12L402.788 1706.92C400.074 1703.07 398.397 1699.74 397.756 1696.93C397.088 1694.09 397.23 1691.63 398.166 1689.58C399.102 1687.52 400.62 1685.75 402.721 1684.27C406.26 1681.78 409.828 1680.86 413.436 1681.52ZM374.095 1708.46C375.677 1708.1 377.247 1708.13 378.796 1708.56C381.855 1709.43 385.237 1712.49 388.938 1717.74L396.335 1728.24L377.376 1741.61L370.679 1732.1C367.033 1726.93 365.093 1722.65 364.859 1719.26C364.561 1715.86 366.04 1713.01 369.307 1710.71C370.92 1709.57 372.514 1708.82 374.095 1708.46ZM569.252 1857.78C562.544 1857.78 556.112 1860.45 551.37 1865.19C546.628 1869.94 543.964 1876.37 543.965 1883.08C543.966 1889.78 546.631 1896.21 551.373 1900.96C556.115 1905.7 562.546 1908.36 569.252 1908.36C575.959 1908.36 582.392 1905.7 587.136 1900.96C591.879 1896.22 594.545 1889.78 594.547 1883.08C594.547 1879.75 593.894 1876.47 592.622 1873.4C591.351 1870.33 589.489 1867.54 587.14 1865.19C584.791 1862.84 582.001 1860.98 578.932 1859.71C575.863 1858.43 572.574 1857.78 569.252 1857.78ZM1761.5 1857.78C1754.79 1857.78 1748.36 1860.45 1743.62 1865.19C1738.88 1869.94 1736.21 1876.37 1736.22 1883.08C1736.22 1889.78 1738.88 1896.21 1743.62 1900.96C1748.36 1905.7 1754.8 1908.36 1761.5 1908.36C1768.21 1908.36 1774.64 1905.7 1779.39 1900.96C1784.13 1896.22 1786.8 1889.78 1786.8 1883.08C1786.8 1879.75 1786.14 1876.47 1784.87 1873.4C1783.6 1870.33 1781.74 1867.54 1779.39 1865.19C1777.04 1862.84 1774.25 1860.98 1771.18 1859.71C1768.11 1858.43 1764.82 1857.78 1761.5 1857.78ZM1535.65 1966.99L1515.3 1975.49L1539.87 2034.31C1541.93 2039.27 1542.97 2043.62 1543.01 2047.38C1543.01 2051.13 1541.96 2054.37 1539.79 2057.08C1537.67 2059.78 1534.36 2062.05 1529.89 2063.93C1523.52 2066.58 1518.04 2066.99 1513.46 2065.14C1508.87 2063.29 1504.91 2058.4 1501.59 2050.45L1476.97 1991.5L1456.62 2000.01L1482.54 2062.05C1487.01 2072.76 1493.95 2079.97 1503.33 2083.68C1512.72 2087.39 1523.78 2086.59 1536.51 2081.27C1545.47 2077.53 1552.24 2072.87 1556.82 2067.29C1561.44 2061.7 1564.1 2055.64 1564.78 2049.12C1565.48 2042.54 1564.44 2035.93 1561.67 2029.3L1535.65 1966.99ZM816.04 1987.37C809.413 1987.54 803.281 1989.09 797.655 1992.02C792.029 1994.95 787.011 1999.06 782.589 2004.37C778.166 2009.67 774.489 2016 771.561 2023.34C767.593 2033.28 765.666 2042.6 765.779 2051.3C765.912 2059.96 768.348 2067.65 773.098 2074.36C777.91 2081.04 785.311 2086.38 795.299 2090.37C800.47 2092.43 805.291 2093.9 809.763 2094.76C814.217 2095.67 818.941 2096.09 823.934 2096.03L830.805 2078.8C825.512 2078.58 820.702 2078.12 816.371 2077.42C812.085 2076.73 807.983 2075.6 804.049 2074.03C798.392 2071.77 794.273 2068.67 791.698 2064.72C789.141 2060.73 787.967 2055.99 788.166 2050.48C788.426 2044.95 789.919 2038.75 792.653 2031.9C794.681 2026.82 797.035 2022.47 799.718 2018.82C802.401 2015.18 805.337 2012.33 808.517 2010.27C811.74 2008.23 815.151 2007.05 818.756 2006.74C822.423 2006.41 826.22 2007.03 830.153 2008.6C833.689 2010.01 837.041 2012.1 840.198 2014.84C843.354 2017.59 846.401 2020.54 849.337 2023.71L862.633 2009.65C859.059 2005.77 855.075 2002.26 850.69 1999.12C846.366 1995.96 841.803 1993.42 836.986 1991.5C829.65 1988.57 822.667 1987.19 816.04 1987.37ZM875.363 2006.85L843.711 2106.28L864.793 2112.99L896.455 2013.56L875.363 2006.85ZM1441.55 2007.49C1438.82 2007.39 1436.17 2007.4 1433.63 2007.54C1428.56 2007.76 1423.44 2008.67 1418.26 2010.27C1411.35 2012.4 1405.69 2015.39 1401.3 2019.23C1396.94 2023.02 1394.05 2027.45 1392.63 2032.52C1391.21 2037.59 1391.42 2043.1 1393.25 2049.05C1394.66 2053.6 1396.64 2057.27 1399.19 2060.07C1401.78 2062.81 1404.65 2064.93 1407.8 2066.45C1410.96 2067.96 1414.14 2069.1 1417.36 2069.85C1420.57 2070.56 1423.51 2071.09 1426.16 2071.47C1430.39 2072.1 1434.2 2072.75 1437.59 2073.39C1441.02 2074.03 1443.85 2074.97 1446.07 2076.23C1448.3 2077.48 1449.81 2079.36 1450.58 2081.86C1451.21 2083.91 1451.29 2085.87 1450.83 2087.76C1450.36 2089.65 1449.21 2091.37 1447.35 2092.94C1445.54 2094.49 1442.9 2095.8 1439.45 2096.87C1434.45 2098.41 1429.14 2099.13 1423.52 2099.02C1417.91 2098.91 1412.42 2098.53 1407.05 2097.9L1413.11 2117.54C1416.25 2118 1419.45 2118.23 1422.74 2118.23C1426.05 2118.16 1429.41 2117.85 1432.83 2117.29C1436.29 2116.72 1439.74 2115.9 1443.2 2114.84C1451.02 2112.42 1457.29 2109.19 1462.02 2105.14C1466.79 2101.08 1469.93 2096.43 1471.45 2091.18C1472.97 2085.93 1472.83 2080.35 1471 2074.44C1469.39 2069.21 1467.07 2065.15 1464.03 2062.25C1460.99 2059.31 1457.24 2057.1 1452.8 2055.63C1448.4 2054.1 1443.28 2052.92 1437.44 2052.08C1432.64 2051.37 1428.6 2050.7 1425.32 2050.06C1422.08 2049.42 1419.51 2048.52 1417.61 2047.37C1415.74 2046.15 1414.45 2044.36 1413.72 2042C1413.1 2040 1413.04 2038.1 1413.53 2036.3C1414.01 2034.46 1415.05 2032.85 1416.66 2031.46C1418.26 2030.02 1420.38 2028.88 1423.02 2028.07C1426.79 2026.9 1430.65 2026.29 1434.61 2026.21C1438.56 2026.09 1443.12 2026.25 1448.28 2026.7L1450.04 2008.15C1447.12 2007.81 1444.29 2007.6 1441.56 2007.49L1441.55 2007.49ZM1386.33 2022.44L1364.49 2027.12L1358.14 2091.98C1358.04 2093.12 1357.93 2095.18 1357.79 2098.18C1357.69 2101.12 1357.59 2104.23 1357.52 2107.51C1357.46 2110.78 1357.57 2113.46 1357.71 2115.57C1357 2113.58 1355.91 2111.11 1354.45 2108.16C1353.03 2105.16 1351.65 2102.34 1350.31 2099.7C1348.96 2097.02 1348.01 2095.21 1347.46 2094.25L1315.29 2037.64L1293.44 2042.31L1293.81 2042.92L1284.13 2043.81L1276.1 2101.74C1275.79 2104.06 1275.44 2106.93 1275.03 2110.36C1274.68 2113.79 1274.34 2117.24 1274.04 2120.71C1273.78 2124.12 1273.59 2127.03 1273.48 2129.43C1273.12 2127.69 1272.63 2125.66 1271.99 2123.33C1271.39 2120.94 1270.73 2118.52 1270.03 2116.06C1269.33 2113.59 1268.65 2111.31 1267.98 2109.22C1267.35 2107.08 1266.81 2105.38 1266.36 2104.13L1245.89 2047.31L1225.06 2049.22L1215.25 2108.81C1215 2110.18 1214.74 2111.94 1214.46 2114.12C1214.18 2116.29 1213.91 2118.66 1213.67 2121.21C1213.47 2123.72 1213.29 2126.2 1213.13 2128.65C1212.97 2131.05 1212.85 2133.16 1212.78 2134.99C1212.43 2133.25 1211.94 2131.21 1211.29 2128.88C1210.69 2126.5 1210.01 2124.06 1209.26 2121.54C1208.55 2118.98 1207.82 2116.55 1207.08 2114.23C1206.39 2111.9 1205.77 2109.9 1205.24 2108.23L1186.75 2052.72L1165.08 2054.71L1201.1 2156.19L1226.12 2153.91L1235.14 2098.18C1235.32 2097.01 1235.55 2095.32 1235.82 2093.09C1236.09 2090.87 1236.35 2088.49 1236.6 2085.93C1236.89 2083.37 1237.12 2080.96 1237.3 2078.7C1237.51 2076.43 1237.63 2074.63 1237.67 2073.29C1237.94 2074.6 1238.36 2076.38 1238.95 2078.62C1239.58 2080.81 1240.26 2083.16 1241.02 2085.67C1241.77 2088.13 1242.48 2090.41 1243.15 2092.5C1243.82 2094.59 1244.35 2096.14 1244.73 2097.15L1263.79 2150.45L1288.89 2148.15L1303.14 2058.58L1349.88 2136.95L1373.47 2131.91L1386.33 2022.44ZM941.489 2026.67C939.784 2026.76 938.119 2026.95 936.486 2027.23C929.951 2028.35 924.109 2030.75 918.957 2034.45C913.805 2038.15 909.42 2042.95 905.798 2048.83C902.176 2054.71 899.437 2061.48 897.584 2069.16C895.073 2079.57 894.489 2089.07 895.841 2097.67C897.204 2106.22 900.714 2113.49 906.372 2119.45C912.088 2125.38 920.172 2129.61 930.626 2132.13C936.038 2133.44 941.018 2134.2 945.567 2134.41C950.105 2134.67 954.843 2134.43 959.777 2133.66L964.127 2115.62C958.857 2116.15 954.03 2116.39 949.645 2116.31C945.304 2116.24 941.079 2115.71 936.963 2114.72C931.042 2113.29 926.525 2110.81 923.414 2107.27C920.315 2103.68 918.473 2099.15 917.886 2093.67C917.354 2088.16 917.955 2081.81 919.687 2074.64C920.97 2069.32 922.68 2064.67 924.817 2060.68C926.953 2056.7 929.448 2053.45 932.301 2050.96C935.201 2048.48 938.411 2046.83 941.936 2046.02C945.518 2045.17 949.363 2045.25 953.479 2046.24V2046.23C957.18 2047.12 960.797 2048.71 964.312 2050.98C967.828 2053.25 971.262 2055.73 974.62 2058.45L984.859 2043.95L983.243 2054.84L1011.27 2059L998.69 2144.01L1020.58 2147.25L1033.16 2062.24L1061.19 2066.39L1063.89 2048.17L985.939 2036.63L985.121 2042.17C981.206 2039.05 977.002 2036.28 972.459 2033.93C967.73 2031.42 962.843 2029.55 957.801 2028.33C952.042 2026.94 946.604 2026.39 941.489 2026.67ZM1095.82 2106.56L1095.07 2124.39L1133.36 2125.99L1134.11 2108.17L1095.82 2106.56Z" fill="#4DA754"/>
</svg>
