<?xml version="1.0" encoding="UTF-8" standalone="no"?>
<svg
   width="2331"
   height="2331"
   viewBox="0 0 2331 2331"
   fill="none"
   version="1.1"
   id="svg2"
   sodipodi:docname="bscs-emblem.svg"
   xml:space="preserve"
   inkscape:version="1.3.2 (091e20e, 2023-11-25, custom)"
   xmlns:inkscape="http://www.inkscape.org/namespaces/inkscape"
   xmlns:sodipodi="http://sodipodi.sourceforge.net/DTD/sodipodi-0.dtd"
   xmlns="http://www.w3.org/2000/svg"
   xmlns:svg="http://www.w3.org/2000/svg"><defs
     id="defs2" /><sodipodi:namedview
     id="namedview2"
     pagecolor="#ffffff"
     bordercolor="#000000"
     borderopacity="0.25"
     inkscape:showpageshadow="2"
     inkscape:pageopacity="0.0"
     inkscape:pagecheckerboard="0"
     inkscape:deskcolor="#d1d1d1"
     inkscape:zoom="0.23570226"
     inkscape:cx="924.89567"
     inkscape:cy="1287.6414"
     inkscape:window-width="1920"
     inkscape:window-height="991"
     inkscape:window-x="-9"
     inkscape:window-y="-9"
     inkscape:window-maximized="1"
     inkscape:current-layer="svg2" /><circle
     cx="1211"
     cy="1165"
     r="1120"
     fill="white"
     id="circle1" /><circle
     cx="1211"
     cy="1165"
     r="1120"
     fill="white"
     id="circle2" /><path
     d="M1154.05 0.0872273C1108.98 0.668211 1058.72 4.10203 1017.01 9.69367C909.73 24.0762 820.829 47.7166 720.293 88.5794C667.985 109.84 604.635 142.079 556.614 171.874C499.781 207.137 460.472 235.729 406.814 280.864C384.365 299.746 373.875 309.552 342.196 341.228C300.169 383.249 278.496 407.806 241.859 454.919C181.627 532.375 125.42 629.659 88.565 720.269C63.7963 781.163 49.3508 825.472 33.1454 890.216C9.67326 983.996 -2.7373 1100.04 0.510475 1195.4C4.22282 1304.41 18.4179 1394.02 48.2899 1497.02C63.126 1548.17 90.2707 1618.77 113.608 1666.93C160.921 1764.55 210.968 1841.32 282.407 1925.83C312.361 1961.27 368.518 2017.45 404.176 2047.65C457.032 2092.43 499.778 2123.61 556.614 2158.85C638.176 2209.42 741.466 2255.52 832.456 2281.98C933.694 2311.42 1026.06 2326.43 1128.52 2330.08C1161.79 2331.27 1163.97 2331.27 1195.52 2330.24C1261.13 2328.09 1311.94 2322.8 1375.48 2311.52C1469.93 2294.76 1580.41 2259.06 1665.98 2217.66C1763.45 2170.49 1840.58 2120.28 1925.35 2048.81C1960.36 2019.3 2017.58 1962.11 2047.7 1926.53C2119.46 1841.8 2168.85 1766.16 2216.65 1667.87C2240.28 1619.28 2266.84 1550.46 2281.84 1498.94C2312.14 1394.87 2326.49 1305.06 2330.23 1195.99C2333.44 1102.47 2321.61 988.714 2299.02 895.91C2273.72 791.987 2240.71 705.62 2189.85 610.199C2153.55 542.117 2105.99 473.093 2048.36 404.882C2018.71 369.795 1961.46 312.53 1926.08 282.567C1842.2 211.516 1766.38 162.027 1668.02 114.119C1619.7 90.5846 1550.39 63.8239 1499 48.8689C1395.08 18.6307 1305.51 4.28686 1196.89 0.486279C1183.53 0.0190467 1169.08 -0.105778 1154.05 0.0872273ZM1175.06 77.221C1426.24 79.3559 1668.8 167.455 1863.63 330.599C1887.28 350.394 1906.58 368.257 1934.54 396.209C1973.23 434.882 1998.24 463.215 2029.11 503.34C2149.52 659.872 2225.12 847.64 2246.92 1044.28C2265.1 1208.34 2245.77 1376.35 2191.03 1529.79C2148 1650.43 2084.97 1761.12 2002.88 1860.26C1949.04 1925.29 1879.76 1990.8 1812.03 2040.7C1634.98 2171.17 1430.27 2243.17 1209.4 2252.69C1115.34 2256.74 1016.39 2247.65 922.729 2226.36C751.83 2187.5 591.629 2106.82 458.029 1992.34C417.2 1957.35 373.426 1913.58 338.449 1872.76C223.842 1739.01 143.251 1579.01 104.371 1408C55.7887 1194.32 72.5613 969.816 152.199 767.649C200.005 646.29 266.606 538.333 355.015 438.869C369.842 422.188 422.204 369.817 438.884 354.99C536.424 268.289 642.57 202.31 760.967 154.793C836.926 124.307 919.803 101.731 1000.26 89.6111C1058.66 80.8139 1117.09 76.7283 1175.06 77.221ZM1184 89.6889C1027.6 87.0295 871.881 118.436 728.965 181.841C585.99 245.272 456.499 341.063 353.574 459.532C147.613 696.595 56.2058 1007.25 100.566 1319.46C128.032 1512.77 209.357 1696.69 334.614 1848.76C443.671 1981.16 583.909 2086.61 740.392 2153.86C863.516 2206.77 992.566 2235.57 1129 2240.58C1163.44 2241.84 1212.34 2240.74 1250.09 2237.84C1467.39 2221.19 1676.68 2137.13 1845.73 1998.61C1979.27 1889.18 2084.76 1749.85 2152.69 1593.18C2246.56 1376.69 2266.42 1133.57 2209.04 903.638C2129.24 583.898 1903.92 316.06 1601.85 181.86C1490.83 132.538 1372.75 102.6 1251.04 92.9203C1228.71 91.144 1206.34 90.0688 1184 89.6889ZM1145.9 109.223C1359.14 105.303 1567.78 165.563 1746.22 283.745C2015.27 461.943 2188.58 750.932 2217.25 1069.17C2220.44 1104.58 2221.41 1126.92 2221.41 1165.36C2221.41 1203.92 2220.43 1226.41 2217.23 1261.56C2201.3 1436.54 2142.5 1602.94 2044.91 1749.24C2003.86 1810.78 1965.01 1858.06 1911.54 1911.53C1858.11 1964.96 1811.7 2003.1 1749.73 2044.55C1592.68 2149.57 1413.33 2209.33 1222.81 2220.11C1204.25 2221.16 1155.17 2221.98 1139.53 2221.5C1134 2221.33 1120.66 2220.73 1109.86 2220.17C881.954 2208.24 665.237 2122.97 489.213 1975.99C463.256 1954.31 447.447 1939.76 419.213 1911.53C390.98 1883.29 376.417 1867.47 354.742 1841.52C220.057 1680.22 136.521 1483.43 114.873 1276.44C89.1536 1030.51 149.588 785.19 286.183 581.009C327.679 518.983 365.791 472.621 419.213 419.199C447.447 390.965 463.256 376.402 489.213 354.727C650.511 220.039 847.306 136.496 1054.3 114.849C1084.88 111.651 1115.43 109.783 1145.9 109.223ZM1099.78 174.619L1039.97 180.498L1050.17 284.339L1109.98 278.47L1108.2 260.279L1070.41 263.997L1067.78 237.212L1102.94 233.756L1101.16 215.721L1066.01 219.176L1063.76 196.372L1101.55 192.654L1099.78 174.619ZM1298.54 182.026L1283.32 285.253L1305.21 288.485L1320.43 185.247L1298.54 182.026ZM996.982 187.437C991.635 187.143 986.418 187.505 981.331 188.518C973.585 190.06 966.978 192.704 961.515 196.46C956.052 200.216 951.76 204.856 948.638 210.378C945.517 215.9 943.548 222.09 942.73 228.948C941.912 235.806 942.268 243.11 943.811 250.857C945.901 261.357 949.369 270.231 954.206 277.467C959.033 284.657 965.263 289.767 972.903 292.806C980.58 295.79 989.696 296.229 1000.24 294.13C1005.7 293.043 1010.54 291.648 1014.76 289.935C1018.99 288.268 1023.18 286.046 1027.34 283.278L1023.72 265.087C1019.16 267.789 1014.88 270.023 1010.86 271.793C1006.89 273.553 1002.83 274.84 998.676 275.667C992.702 276.855 987.559 276.503 983.249 274.596C978.93 272.642 975.356 269.295 972.523 264.571C969.728 259.791 967.617 253.789 966.177 246.555C965.109 241.188 964.705 236.248 964.97 231.732C965.236 227.216 966.143 223.221 967.686 219.76C969.275 216.29 971.495 213.443 974.353 211.225C977.248 208.95 980.769 207.409 984.923 206.582V206.571C988.656 205.829 992.596 205.755 996.739 206.338C1000.88 206.92 1005.05 207.742 1009.24 208.8L1012.73 189.763C1007.62 188.451 1002.37 187.675 996.982 187.437ZM1356.2 190.561L1331.34 291.911L1350.53 296.622L1362.23 248.93C1362.89 245.661 1363.53 242.42 1364.18 239.197C1364.83 235.928 1365.49 232.655 1366.14 229.386C1366.8 226.117 1367.43 222.868 1368.02 219.634L1368.65 219.79L1393.93 307.269L1421.24 313.966L1446.1 212.616L1426.76 207.876L1414.99 255.84C1414.33 258.96 1413.67 262.085 1413 265.204C1412.38 268.334 1411.75 271.466 1411.13 274.596C1410.51 277.726 1409.86 280.872 1409.18 284.037L1408.69 283.92L1383.3 197.219L1356.2 190.561ZM900.431 207.73L881.5 213.911L896.839 260.863L900.081 269.866C901.206 272.852 902.332 275.834 903.458 278.82C904.584 281.806 905.701 284.826 906.796 287.872L906.318 288.027L838.956 227.81L812.433 236.482L844.844 335.67L863.639 329.529L848.387 282.849C847.217 279.728 846.049 276.631 844.893 273.554C843.723 270.433 842.559 267.304 841.389 264.182C840.219 261.06 839.027 257.978 837.827 254.916L838.44 254.711L906.104 315.649L932.84 306.919L900.431 207.73ZM781.397 249.446L726.736 274.44L770.126 369.337L824.786 344.352L817.185 327.738L782.652 343.525L771.469 319.056L803.598 304.359L796.064 287.872L763.926 302.559L754.397 281.73L788.94 265.934L781.397 249.446ZM1620.13 286.353C1613.52 285.808 1607.25 286.688 1601.34 288.991C1595.43 291.294 1590 294.844 1585.03 299.639C1580.06 304.434 1575.71 310.318 1572.01 317.294C1566.98 326.75 1564.07 335.814 1563.24 344.479C1562.43 353.101 1564.02 361.002 1568.02 368.188C1572.08 375.355 1578.86 381.462 1588.36 386.506C1593.27 389.117 1597.9 391.092 1602.26 392.433C1606.59 393.816 1611.23 394.752 1616.2 395.236L1624.9 378.846C1619.67 378.058 1614.93 377.075 1610.7 375.906C1606.52 374.761 1602.56 373.192 1598.82 371.205C1593.44 368.349 1589.68 364.819 1587.55 360.616C1585.44 356.371 1584.78 351.526 1585.57 346.075C1586.43 340.604 1588.6 334.612 1592.06 328.098C1594.62 323.265 1597.43 319.185 1600.49 315.854C1603.56 312.523 1606.78 310.006 1610.16 308.301C1613.58 306.619 1617.11 305.818 1620.73 305.907C1624.41 305.975 1628.11 307.006 1631.85 308.992C1635.22 310.778 1638.32 313.201 1641.16 316.272C1644 319.343 1646.71 322.614 1649.29 326.083L1664.03 313.547C1660.9 309.298 1657.32 305.379 1653.3 301.79C1649.34 298.181 1645.08 295.161 1640.5 292.728C1633.52 289.024 1626.73 286.898 1620.13 286.353ZM696.7 290.217L677.303 300.865L727.525 392.336L746.923 381.688L696.7 290.217ZM657.097 318.443C651.867 319.15 646.71 320.407 641.631 322.21C636.566 323.947 631.871 326.24 627.538 329.091C620.939 333.432 615.81 338.371 612.16 343.904C608.51 349.438 606.281 355.348 605.464 361.638C604.646 367.928 605.145 374.412 606.962 381.075C608.782 387.737 611.868 394.36 616.209 400.959C622.092 409.904 628.628 416.822 635.83 421.71C643.006 426.556 650.714 428.956 658.937 428.902C667.172 428.782 675.773 425.761 684.758 419.851C689.409 416.791 693.376 413.681 696.642 410.507C699.934 407.373 702.981 403.743 705.791 399.616L695.591 384.111C692.385 388.328 689.253 392.01 686.199 395.158C683.183 398.281 679.906 401.006 676.368 403.334C671.28 406.682 666.382 408.281 661.671 408.132C656.935 407.945 652.368 406.19 647.967 402.876C643.58 399.497 639.358 394.731 635.305 388.569C632.297 383.997 630.07 379.568 628.618 375.283C627.167 370.999 626.504 366.963 626.633 363.176C626.803 359.363 627.797 355.891 629.611 352.761C631.439 349.566 634.122 346.806 637.66 344.479C640.84 342.387 644.455 340.834 648.512 339.817C652.57 338.799 656.74 337.987 661.019 337.393L657.097 318.443ZM1704.25 337.977C1695.67 337.412 1687.61 339.416 1680.1 343.992C1672.65 348.556 1665.85 355.272 1659.7 364.149C1655.09 370.797 1651.72 377.41 1649.6 383.985C1647.47 390.559 1646.72 396.954 1647.33 403.168C1647.98 409.411 1650.13 415.366 1653.79 421.028C1657.48 426.652 1662.82 431.885 1669.82 436.737C1676.82 441.589 1683.6 444.758 1690.16 446.237C1696.75 447.677 1703.06 447.59 1709.09 445.984C1715.17 444.404 1720.9 441.492 1726.28 437.234C1731.69 432.936 1736.69 427.482 1741.27 420.873C1747.45 411.956 1751.37 403.178 1753.02 394.535C1754.71 385.92 1753.8 377.703 1750.29 369.891C1746.83 362.107 1740.45 354.989 1731.14 348.537C1721.79 342.059 1712.83 338.541 1704.25 337.977ZM1165.08 341.714V341.725C1140.63 341.726 1116.27 342.14 1106.51 342.971C1062.5 346.713 1032.8 350.831 997.673 358.047C864.757 385.356 740.178 445.481 636.064 532.579C601.015 561.9 561.675 601.238 532.603 636.04C427.53 761.822 362.867 914.603 345.642 1077.78C342.334 1109.13 341.729 1122.6 341.729 1165.36C341.729 1208.12 342.334 1221.6 345.642 1252.94C362.857 1416.03 427.765 1569.4 532.593 1694.68C561.922 1729.73 601.142 1768.94 636.064 1798.15C740.231 1885.26 864.711 1945.33 997.673 1972.67C1039.27 1981.22 1076.08 1985.86 1126.62 1988.9C1141.66 1989.81 1214.79 1988.58 1231.42 1987.14C1282.69 1982.71 1320.64 1976.45 1368.29 1964.59C1480.67 1936.62 1588.66 1883.09 1680.04 1810.05C1852.7 1672.05 1961.93 1472.57 1985.11 1252.94C1988.42 1221.59 1989.01 1208.12 1989.01 1165.36C1989.01 1122.6 1988.42 1109.13 1985.11 1077.78C1968.14 917.02 1905.08 766.248 1802.55 641.306C1764.32 594.719 1716.56 548.542 1667.66 510.904C1579.82 443.282 1475.4 392.787 1368.29 366.126C1319.14 353.891 1278.99 347.43 1224.25 342.961C1214.09 342.128 1189.53 341.714 1165.08 341.714ZM1705.66 358.494C1710.53 358.398 1715.52 360.121 1720.65 363.672C1728.35 369.012 1732.09 375.43 1731.88 382.924C1731.67 390.417 1728.44 398.661 1722.21 407.655C1718.06 413.639 1713.74 418.282 1709.24 421.593C1704.81 424.891 1700.19 426.608 1695.35 426.732C1690.55 426.816 1685.56 425.064 1680.4 421.486C1675.32 417.962 1671.96 413.937 1670.36 409.407C1668.78 404.838 1668.72 399.875 1670.17 394.516C1671.69 389.145 1674.53 383.467 1678.68 377.483C1682.85 371.461 1687.17 366.817 1691.64 363.545C1696.18 360.262 1700.85 358.579 1705.66 358.494ZM1155.42 362.562C1176.09 362.355 1197.06 362.509 1207.99 363.156C1252.97 365.771 1291.01 370.704 1330.49 379.04C1496.98 414.197 1646.31 499.922 1760.69 625.995C1873.83 750.701 1945.51 909.288 1963.61 1074.93C1967.46 1110.15 1967.94 1120.3 1967.94 1165.36C1967.94 1210.42 1967.46 1220.57 1963.61 1255.79C1938.08 1489.5 1807.72 1702.86 1610.15 1834.34C1490.19 1914.18 1356.83 1958.54 1209.88 1967.49C1196.13 1968.33 1137.73 1968.53 1125.65 1967.78C1078.85 1964.89 1046.54 1960.87 1006.97 1952.99C863.587 1924.44 728.989 1855.82 621.241 1756.31C478.481 1624.48 387.936 1446.11 367.142 1255.79C363.276 1220.42 362.801 1210.43 362.801 1165.36C362.801 1120.29 363.28 1110.3 367.142 1074.93C383.326 926.8 443.335 781.817 536.759 665.131C633.805 543.921 760.693 454.495 905.979 404.92C969.963 383.087 1031.38 370.487 1104.6 364.178C1114.36 363.337 1134.74 362.768 1155.42 362.562ZM571.038 376.724C565.361 378.253 560.209 380.095 555.582 382.243C550.962 384.324 546.545 387.068 542.326 390.477C536.7 395.022 532.556 399.896 529.907 405.096C527.264 410.229 526.232 415.412 526.792 420.649C527.353 425.885 529.59 430.925 533.508 435.774C536.498 439.475 539.693 442.146 543.104 443.794C546.523 445.373 549.986 446.282 553.48 446.519C556.974 446.756 560.355 446.629 563.622 446.13C566.859 445.594 569.776 445.005 572.381 444.368C576.545 443.389 580.325 442.571 583.71 441.916C587.133 441.232 590.109 441.063 592.645 441.4C595.181 441.737 597.268 442.917 598.913 444.952C600.259 446.618 601.067 448.411 601.337 450.334C601.608 452.258 601.172 454.301 600.033 456.447C598.929 458.563 596.966 460.754 594.154 463.026C590.082 466.316 585.42 468.949 580.168 470.929C574.916 472.909 569.684 474.602 564.459 476.01L577.374 492.001C580.463 491.28 583.531 490.305 586.572 489.072C589.62 487.771 592.621 486.222 595.585 484.439C598.586 482.626 601.492 480.59 604.305 478.317C610.671 473.173 615.298 467.839 618.185 462.325C621.108 456.782 622.296 451.294 621.757 445.857C621.218 440.42 619.006 435.3 615.119 430.489V430.478C611.68 426.222 608.015 423.311 604.12 421.748C600.196 420.146 595.9 419.488 591.234 419.772C586.576 419.988 581.382 420.788 575.651 422.176C570.931 423.299 566.933 424.181 563.651 424.814C560.406 425.416 557.689 425.532 555.494 425.164C553.308 424.729 551.434 423.546 549.879 421.621C548.563 419.992 547.801 418.254 547.591 416.404C547.352 414.518 547.719 412.632 548.701 410.74C549.65 408.81 551.197 406.975 553.344 405.241C556.415 402.758 559.778 400.747 563.427 399.206C567.046 397.628 571.339 396.086 576.304 394.583L571.038 376.724ZM1175.26 377.59C1013.5 375.505 856.419 422.554 721.724 514.251C598.061 598.438 499.279 718.555 440.519 856.19C354.107 1058.59 356.675 1289.93 447.546 1490.5C522.344 1655.59 654.31 1791.97 816.484 1871.75C874.401 1900.24 927.498 1919.17 989.254 1933.35C1035.9 1944.06 1071.84 1948.96 1129.49 1952.47C1141.69 1953.22 1190.63 1953.02 1206.53 1952.16C1293.5 1947.44 1376.81 1929.34 1455.52 1898.06C1685.4 1806.69 1860.26 1611.65 1925.3 1374.03C1982.93 1163.51 1950.41 936.312 1836.28 752.134C1706.3 542.396 1488.28 405.772 1244.82 381.513C1221.57 379.196 1198.37 377.898 1175.26 377.6V377.59ZM1799.79 400.784L1728.72 477.188L1743.2 490.658L1776.25 455.113C1778.68 452.5 1781.33 449.509 1784.2 446.139C1787.08 442.769 1789.76 439.581 1792.24 436.562C1794.79 433.541 1796.7 431.281 1797.96 429.788L1798.42 430.226L1761.07 507.282L1775.91 521.093L1851.27 479.572L1851.74 480.01C1850.34 481.374 1848.25 483.415 1845.45 486.142C1842.69 488.835 1839.79 491.708 1836.77 494.746C1833.79 497.817 1831.17 500.556 1828.94 502.961L1795.3 539.119L1810.41 553.173L1881.48 476.76L1859.42 456.252L1785.89 496.839L1785.58 496.547L1821.84 421.301L1799.79 400.784ZM1907.76 506.747L1827.44 573.359L1841.56 590.392L1870.13 566.702L1876.19 574.011C1881.05 579.872 1885.85 584.206 1890.59 587.014C1895.36 589.792 1899.98 591.332 1904.45 591.647C1908.94 591.999 1913.23 591.388 1917.29 589.808C1921.4 588.197 1925.2 585.93 1928.72 583.014C1936.52 576.545 1940.67 569.094 1941.15 560.658C1941.67 552.19 1937.64 542.778 1929.04 532.413L1907.76 506.747ZM787.976 514.124H938.935C945.747 514.124 951.65 516.61 956.629 521.589C961.609 526.569 964.094 532.47 964.094 539.284C964.094 546.36 961.609 552.388 956.629 557.368C951.65 562.085 945.747 564.444 938.935 564.444H787.976C780.9 564.444 774.882 562.085 769.902 557.368C765.185 552.388 762.816 546.36 762.816 539.284C762.816 532.47 765.185 526.569 769.902 521.589C774.882 516.61 780.9 514.124 787.976 514.124ZM1089.89 514.124C1096.71 514.124 1102.61 516.61 1107.59 521.589C1112.57 526.569 1115.05 532.47 1115.05 539.284C1115.05 546.36 1112.57 552.388 1107.59 557.368C1102.61 562.085 1096.71 564.444 1089.89 564.444C1082.82 564.444 1076.79 562.085 1071.81 557.368C1067.09 552.388 1064.73 546.36 1064.73 539.284C1064.73 532.47 1067.09 526.569 1071.81 521.589C1076.79 516.61 1082.82 514.124 1089.89 514.124ZM1240.85 514.124H1391.81C1398.62 514.124 1404.52 516.61 1409.5 521.589C1414.48 526.569 1416.97 532.47 1416.97 539.284C1416.97 546.36 1414.48 552.388 1409.5 557.368C1404.52 562.085 1398.62 564.444 1391.81 564.444H1240.85C1233.78 564.444 1227.75 562.085 1222.77 557.368C1218.05 552.388 1215.69 546.36 1215.69 539.284C1215.69 532.47 1218.05 526.569 1222.77 521.589C1227.75 516.61 1233.78 514.124 1240.85 514.124ZM1542.77 514.124C1549.58 514.124 1555.48 516.61 1560.46 521.589C1565.44 526.569 1567.93 532.47 1567.93 539.284C1567.93 546.36 1565.44 552.388 1560.46 557.368C1555.48 562.085 1549.58 564.444 1542.77 564.444C1535.69 564.444 1529.66 562.085 1524.68 557.368C1519.97 552.388 1517.61 546.36 1517.61 539.284C1517.61 532.47 1519.97 526.569 1524.68 521.589C1529.66 516.61 1535.69 514.124 1542.77 514.124ZM1907.93 535.352L1914.35 543.099C1918.18 547.714 1920.03 551.925 1919.91 555.733C1919.83 559.51 1917.81 563.042 1913.86 566.322C1911.04 568.662 1908.2 569.932 1905.34 570.137C1902.48 570.344 1899.66 569.622 1896.87 567.977C1894.09 566.331 1891.37 563.922 1888.73 560.735L1884.08 555.129L1907.93 535.352ZM381.888 554.506L346.664 602.85L431 664.304L443.828 646.707L410.483 622.413L431.331 593.798L416.732 583.16L395.884 611.775L374.14 595.93L396.545 565.183L381.888 554.506ZM1972.3 587.024L1916.01 623.786C1906.29 630.133 1900.45 638.26 1898.51 648.167C1896.57 658.073 1899.36 668.809 1906.91 680.363C1912.21 688.491 1918.02 694.293 1924.34 697.785C1930.68 701.317 1937.12 702.829 1943.66 702.311C1950.26 701.807 1956.57 699.592 1962.59 695.664L2019.13 658.746L2007.07 640.273L1953.7 675.127C1949.2 678.067 1945.1 679.883 1941.41 680.587C1937.72 681.291 1934.35 680.825 1931.29 679.186C1928.26 677.586 1925.42 674.753 1922.76 670.689C1918.99 664.912 1917.59 659.603 1918.58 654.756C1919.56 649.908 1923.66 645.128 1930.87 640.419L1984.36 605.497L1972.3 587.024ZM1014.41 613.469C1021.23 613.469 1027.13 615.964 1032.11 620.944C1037.09 625.923 1039.57 631.814 1039.57 638.628C1039.57 645.704 1037.09 651.733 1032.11 656.712C1027.13 661.43 1021.23 663.788 1014.41 663.788C1007.34 663.788 1001.31 661.43 996.33 656.712C991.612 651.733 989.254 645.704 989.254 638.628C989.254 631.814 991.612 625.923 996.33 620.944C1001.31 615.964 1007.34 613.469 1014.41 613.469ZM1165.37 613.469C1172.19 613.469 1178.09 615.964 1183.07 620.944C1188.05 625.923 1190.53 631.814 1190.53 638.628C1190.53 645.704 1188.05 651.733 1183.07 656.712C1178.09 661.43 1172.19 663.788 1165.37 663.788C1158.3 663.788 1152.27 661.43 1147.29 656.712C1142.57 651.733 1140.21 645.704 1140.21 638.628C1140.21 631.814 1142.57 625.923 1147.29 620.944C1152.27 615.964 1158.3 613.469 1165.37 613.469ZM1316.33 613.469C1323.14 613.469 1329.05 615.964 1334.03 620.944C1339 625.923 1341.49 631.814 1341.49 638.628C1341.49 645.704 1339 651.733 1334.03 656.712C1329.05 661.43 1323.14 663.788 1316.33 663.788C1309.25 663.788 1303.23 661.43 1298.25 656.712C1293.53 651.733 1291.17 645.704 1291.17 638.628C1291.17 631.814 1293.53 625.923 1298.25 620.944C1303.23 615.964 1309.25 613.469 1316.33 613.469ZM345.476 646.473C336.747 645.542 328.641 647.162 321.163 651.33C313.71 655.457 307.179 662.432 301.561 672.266C295.92 682.14 293.191 691.386 293.376 699.985C293.562 708.584 296.261 716.422 301.474 723.51C306.669 730.532 313.955 736.722 323.334 742.08C330.358 746.093 337.234 748.876 343.968 750.421C350.702 751.967 357.14 752.157 363.278 751.005C369.44 749.812 375.182 747.152 380.505 743.014C385.787 738.853 390.539 733.076 394.764 725.68C398.989 718.284 401.551 711.252 402.453 704.589C403.314 697.902 402.682 691.618 400.555 685.746C398.453 679.832 395.046 674.377 390.336 669.385C385.584 664.369 379.721 659.874 372.739 655.885C363.318 650.504 354.23 647.363 345.476 646.473ZM335.753 668.538C343.237 668.1 351.731 670.594 361.234 676.022C367.556 679.634 372.553 683.532 376.242 687.721C379.914 691.847 382.025 696.31 382.569 701.114C383.074 705.894 381.762 711.019 378.646 716.473C375.578 721.844 371.856 725.524 367.483 727.52C363.069 729.492 358.135 729.984 352.669 728.999C347.186 727.949 341.286 725.622 334.965 722.011C328.602 718.376 323.595 714.478 319.947 710.312C316.281 706.081 314.191 701.573 313.689 696.793C313.168 691.947 314.461 686.817 317.553 681.405C322.203 673.265 328.27 668.975 335.753 668.538ZM2032.4 682.115L2015.98 690.437L2028.77 715.713L1952.1 754.529L1962.09 774.267L2038.76 735.462L2051.56 760.738L2067.99 752.426L2032.4 682.115ZM1165.37 710.594C1186.2 710.594 1203.18 726.419 1217.15 749.769C1231.12 773.12 1243.07 805.547 1253.12 845.289C1260.88 875.937 1267.31 911.301 1272.46 949.655H1301.7C1331.1 937.475 1358.97 927.309 1384.48 919.61C1423.73 907.767 1457.67 901.311 1484.88 901.263C1493.22 901.247 1501.03 901.934 1508.25 903.278L1519.99 887.647C1522.56 884.225 1526.59 882.199 1530.86 882.167C1535.15 882.14 1539.2 884.11 1541.81 887.501L1607.59 972.586C1614.57 981.608 1608.14 994.714 1596.73 994.709H1535.37C1522.32 1017.54 1501.92 1042.8 1474.85 1070.05C1454.68 1090.36 1430.76 1111.7 1403.95 1133.49V1173.64C1430.74 1195.44 1454.66 1216.8 1474.84 1237.12C1503.73 1266.2 1525.38 1293.13 1538.2 1317.13C1551.03 1341.13 1555.85 1363.85 1545.12 1381.7C1534.4 1399.55 1512.09 1405.96 1484.88 1405.91C1457.66 1405.86 1423.72 1399.4 1384.47 1387.56C1351.08 1377.48 1313.73 1363.24 1274.08 1345.69C1268.74 1388.78 1261.69 1428.06 1253.12 1461.88C1245.94 1490.28 1237.67 1514.42 1228.49 1534.61L1240.15 1546.27C1242.72 1548.84 1244.17 1552.33 1244.17 1555.97C1244.17 1559.61 1242.72 1563.1 1240.15 1565.67L1173.62 1632.21C1171.04 1634.78 1167.55 1636.23 1163.91 1636.23C1160.27 1636.23 1156.78 1634.78 1154.21 1632.21L1089.13 1567.13C1086.56 1564.56 1085.11 1561.07 1085.11 1557.43C1085.11 1553.79 1086.56 1550.3 1089.13 1547.73L1102.25 1534.61C1093.07 1514.42 1084.8 1490.27 1077.62 1461.88C1069.06 1428.07 1062.04 1388.72 1056.66 1345.7C1017.02 1363.24 979.676 1377.49 946.283 1387.56C907.036 1399.4 873.089 1405.86 845.878 1405.91C818.666 1405.96 796.355 1399.56 785.631 1381.7C774.906 1363.85 779.729 1341.13 792.551 1317.13C805.372 1293.13 827.023 1266.2 855.912 1237.12C877.252 1215.63 902.906 1192.98 931.635 1169.87V1137.36C902.925 1114.23 877.262 1091.55 855.912 1070.05C832.514 1046.49 814.16 1024.45 801.106 1004.13C800.448 1004.15 799.792 1004.18 799.13 1004.18C759.816 1004.18 727.651 972.013 727.651 932.699C727.651 893.385 759.816 861.22 799.13 861.221C827.58 861.22 852.275 878.067 863.757 902.274C887.506 904.38 915.131 910.221 946.273 919.618C971.787 927.317 999.64 937.479 1029.03 949.654H1058.29C1063.42 911.261 1069.86 875.95 1077.62 845.288C1087.67 805.546 1099.63 773.122 1113.59 749.768C1127.56 726.418 1144.55 710.594 1165.37 710.594ZM1165.37 732.016C1155.99 732.016 1144.18 740.373 1131.99 760.777C1119.78 781.175 1108.15 812.07 1098.41 850.554C1091.08 879.503 1084.91 913.067 1079.93 949.655H1250.8C1245.81 913.085 1239.67 879.485 1232.34 850.554C1222.6 812.07 1210.97 781.176 1198.77 760.777C1186.56 740.379 1174.76 732.016 1165.37 732.016ZM2078.09 776.262L1980.99 814.464L2002.99 870.39L2019.99 863.703L2006.09 828.363L2031.13 818.513L2044.06 851.391L2060.93 844.753L2048 811.875L2069.32 803.486L2083.22 838.826L2100.09 832.188L2078.09 776.262ZM1015.58 856.657C1020.91 856.911 1026.08 858.498 1030.64 861.274C1035.19 864.049 1038.97 867.923 1041.64 872.541C1045.86 879.853 1047 888.541 1044.82 896.697C1042.63 904.852 1037.3 911.805 1029.99 916.028C1026.37 918.119 1022.37 919.477 1018.22 920.023C1014.08 920.57 1009.86 920.294 1005.83 919.212C1001.79 918.13 997.999 916.264 994.682 913.718C991.364 911.173 988.581 907.999 986.49 904.378C984.399 900.756 983.042 896.758 982.496 892.612C981.95 888.466 982.227 884.253 983.31 880.214C984.393 876.175 986.261 872.388 988.807 869.071C991.353 865.754 994.528 862.971 998.15 860.881C1003.44 857.831 1009.49 856.365 1015.58 856.657ZM1315.17 856.657C1321.27 856.365 1327.32 857.831 1332.6 860.881C1336.23 862.972 1339.4 865.755 1341.94 869.073C1344.49 872.39 1346.36 876.177 1347.44 880.216C1348.52 884.255 1348.8 888.468 1348.25 892.613C1347.7 896.759 1346.35 900.757 1344.25 904.378C1340.03 911.689 1333.08 917.023 1324.92 919.208C1316.77 921.392 1308.08 920.249 1300.77 916.028C1293.46 911.805 1288.12 904.852 1285.94 896.697C1283.75 888.541 1284.9 879.853 1289.12 872.541C1291.78 867.923 1295.57 864.049 1300.12 861.274C1304.67 858.498 1309.85 856.911 1315.17 856.657ZM2110.52 862.75L2010.08 891.024L2016.07 912.329L2054.62 901.477L2057.81 912.806L2026.02 947.641L2032.67 971.272L2068.11 929.411C2070.55 932.283 2073.37 934.804 2076.55 936.973C2079.73 939.142 2083.29 940.609 2087.21 941.382C2091.14 942.156 2095.39 941.903 2099.97 940.613C2106.75 938.705 2111.95 935.679 2115.58 931.542C2119.21 927.406 2121.29 922.056 2121.81 915.483C2122.35 908.955 2121.33 901.131 2118.77 892.017L2110.52 862.75ZM799.072 888.659C796.465 888.691 793.865 888.955 791.305 889.447C790.425 889.603 789.576 889.805 788.716 890.012C787.1 890.411 785.508 890.902 783.947 891.481C783.006 891.824 782.053 892.119 781.144 892.523C779.1 893.432 777.128 894.496 775.245 895.705C774.196 896.38 773.252 897.175 772.267 897.934C771.288 898.673 770.34 899.452 769.425 900.27C768.454 901.159 767.534 902.082 766.651 903.054C765.89 903.908 765.163 904.791 764.471 905.701C763.662 906.742 762.821 907.741 762.106 908.855C760.917 910.71 759.87 912.653 758.972 914.665C758.547 915.615 758.239 916.61 757.882 917.595C757.316 919.118 756.835 920.671 756.441 922.247C756.223 923.145 756.016 924.034 755.857 924.953C755.373 927.508 755.115 930.1 755.089 932.7C755.096 934.923 755.272 937.142 755.615 939.338C755.785 940.489 756.088 941.588 756.345 942.706C756.555 943.697 756.798 944.681 757.075 945.655C757.501 947.044 758.033 948.369 758.584 949.694C758.827 950.303 759.083 950.907 759.353 951.505C760.026 952.937 760.793 954.3 761.611 955.641C761.894 956.117 762.186 956.587 762.487 957.052C763.384 958.406 764.349 959.695 765.387 960.936C765.705 961.314 766.03 961.687 766.361 962.055C767.457 963.279 768.608 964.437 769.835 965.53C770.222 965.868 770.615 966.199 771.013 966.523C772.234 967.536 773.489 968.496 774.819 969.374C775.341 969.707 775.869 970.028 776.405 970.338C777.688 971.109 778.981 971.849 780.346 972.489C781.068 972.81 781.798 973.112 782.536 973.394C783.526 973.794 784.471 974.281 785.496 974.611C785.496 974.568 785.5 974.527 785.442 974.484C789.85 975.95 794.462 976.708 799.107 976.732C802.577 976.698 806.03 976.254 809.395 975.409C809.395 975.451 809.448 975.484 809.448 975.526C809.836 975.434 810.185 975.257 810.568 975.156C811.711 974.832 812.841 974.462 813.955 974.046C815.042 973.661 816.142 973.315 817.186 972.849C817.837 972.524 818.479 972.183 819.113 971.827C823.893 969.4 828.138 966.166 831.698 962.24C831.991 961.939 832.28 961.634 832.564 961.325C833.598 960.117 834.518 958.827 835.416 957.51C835.791 956.976 836.154 956.434 836.505 955.884C837.283 954.627 837.978 953.33 838.628 951.991C838.979 951.267 839.31 950.534 839.621 949.792C840.131 948.569 840.61 947.342 841.012 946.064C841.361 944.928 841.662 943.779 841.918 942.618C842.146 941.621 842.401 940.644 842.559 939.621C842.939 937.333 843.138 935.019 843.153 932.7C843.148 929.508 842.796 926.327 842.103 923.211C842.103 923.123 842.107 923.026 842.049 922.938C842.049 922.938 842.044 922.938 841.991 922.938C840.204 915.087 836.299 907.876 830.701 902.09C830.754 902.086 830.764 902.074 830.796 902.069C830.621 901.885 830.392 901.753 830.213 901.572V901.562C828.558 899.911 826.775 898.394 824.879 897.026C824.454 896.721 824.038 896.421 823.604 896.131C821.583 894.779 819.454 893.598 817.239 892.598C816.867 892.431 816.505 892.259 816.129 892.101C813.651 891.061 811.085 890.25 808.46 889.678C808.305 889.646 808.156 889.612 808.002 889.58C805.079 888.972 802.102 888.662 799.116 888.656L799.072 888.659ZM2099.08 888.96L2100.89 895.423C2102.82 902.294 2103.24 907.634 2102.14 911.453C2101.05 915.319 2098.13 917.918 2093.36 919.259C2088.78 920.548 2084.87 919.993 2081.62 917.595C2078.44 915.229 2075.85 910.526 2073.87 903.472L2071.93 896.601L2099.08 888.96ZM227.094 910.976C224.086 911.047 221.292 911.557 218.705 912.495C213.53 914.371 209.131 918.062 205.507 923.571C201.894 929.033 199.015 936.373 196.873 945.597L189.992 975.224L291.643 998.826L296.646 977.268L257.636 968.216L260.303 956.741L304.939 941.528L310.496 917.614L259.262 937.226C258.508 933.534 257.267 929.973 255.524 926.539C253.781 923.106 251.37 920.105 248.302 917.536C245.235 914.968 241.385 913.143 236.749 912.067C233.319 911.27 230.103 910.906 227.094 910.976ZM1531.13 918.52L1521.69 931.095L1494.51 967.262H1525.04H1547.77H1568.78L1550.73 943.893L1531.13 918.52ZM1484.92 922.695C1461.14 922.737 1428.67 928.669 1390.66 940.136C1381.34 942.949 1371.6 946.171 1361.63 949.655H1377.61C1392.14 949.655 1403.95 962.225 1403.95 977.686V1105.66C1424.68 1088.22 1443.54 1071.17 1459.64 1054.96C1481.39 1033.06 1498.45 1012.61 1510.3 994.709H1467.05C1455.73 994.71 1449.28 981.788 1456.08 972.742L1493.36 923.094C1490.64 922.912 1487.99 922.69 1484.92 922.695ZM870.122 924.544C870.425 927.225 870.607 929.941 870.607 932.7C870.607 963.314 851.104 989.59 823.908 999.722C835.56 1016.41 851.35 1035.06 871.113 1054.96C888.432 1072.39 908.952 1090.8 931.632 1109.64V977.686C931.632 962.225 943.452 949.655 957.979 949.655H969.114C959.14 946.172 949.409 942.948 940.09 940.136C913.66 932.16 890.139 927.045 870.122 924.544ZM225.78 933.771C227.689 933.335 229.842 933.396 232.253 933.956C236.887 935.032 240.054 937.406 241.742 941.071C243.397 944.679 243.39 950.051 241.742 957.189L240.126 964.148L212.669 957.763L214.188 951.232C215.803 944.28 218.003 939.392 220.807 936.574C222.214 935.142 223.881 934.207 225.79 933.771H225.78ZM957.982 967.145C953.102 967.145 949.125 971.875 949.125 977.686V1273.35H1106.57C1108.88 1273.35 1111.11 1274.27 1112.75 1275.91L1127.68 1290.84H1207.91L1222.84 1275.91C1224.47 1274.27 1226.7 1273.35 1229.02 1273.35H1386.46V977.686C1386.46 971.875 1382.49 967.145 1377.61 967.145H957.982ZM1167.8 984.645C1169.29 984.645 1170.78 985.023 1172.13 985.794L1233.36 1020.79C1236.09 1022.35 1237.77 1025.25 1237.77 1028.39V1093.3L1294.59 1125.77C1297.32 1127.33 1298.99 1130.23 1298.99 1133.37V1203.35C1298.99 1206.49 1297.32 1209.41 1294.59 1210.96L1233.36 1245.95C1232.01 1246.72 1230.51 1247.1 1229.02 1247.1C1227.52 1247.1 1226.02 1246.72 1224.68 1245.95L1167.8 1213.44L1110.91 1245.95C1109.56 1246.72 1108.06 1247.1 1106.57 1247.1C1105.07 1247.1 1103.57 1246.72 1102.22 1245.95L1041 1210.96C1038.28 1209.41 1036.6 1206.49 1036.6 1203.35V1133.37C1036.6 1130.23 1038.28 1127.33 1041 1125.77L1097.82 1093.3V1028.39C1097.82 1025.25 1099.5 1022.35 1102.22 1020.79L1163.45 985.794C1164.8 985.023 1166.3 984.645 1167.8 984.645ZM1167.8 1003.47L1115.32 1033.46V1093.3L1136.31 1105.3L1167.8 1123.29L1199.28 1105.3L1220.28 1093.3V1033.46L1167.8 1003.47ZM219.853 1014.12C215.062 1014.49 210.573 1015.35 206.383 1016.69C198.007 1019.32 191.223 1024.04 186.031 1030.85C180.845 1037.61 177.639 1046.61 176.415 1057.87C175.185 1069.17 176.361 1078.74 179.977 1086.55C183.579 1094.36 189.187 1100.47 196.796 1104.89C204.362 1109.25 213.514 1112.02 224.252 1113.19C232.294 1114.06 239.711 1113.87 246.502 1112.59C253.293 1111.32 259.271 1108.93 264.44 1105.42C269.612 1101.87 273.806 1097.13 277.034 1091.21C280.216 1085.29 282.274 1078.09 283.195 1069.62C284.116 1061.16 283.658 1053.69 281.823 1047.22C279.942 1040.74 276.86 1035.24 272.567 1030.7C268.279 1026.12 262.975 1022.49 256.663 1019.79C250.304 1017.09 243.128 1015.3 235.134 1014.43C229.741 1013.84 224.644 1013.74 219.853 1014.12ZM217.877 1037.43C222.269 1036.88 227.183 1036.9 232.623 1037.5C239.86 1038.28 246.011 1039.86 251.067 1042.23C256.08 1044.54 259.794 1047.79 262.211 1051.98C264.58 1056.16 265.421 1061.37 264.741 1067.62C264.073 1073.77 262.134 1078.63 258.921 1082.21C255.661 1085.78 251.332 1088.2 245.928 1089.48C240.481 1090.71 234.137 1090.93 226.9 1090.14C219.615 1089.35 213.464 1087.77 208.456 1085.41C203.405 1082.99 199.7 1079.69 197.331 1075.51C194.92 1071.28 194.048 1066.06 194.722 1059.86C195.736 1050.54 199.589 1044.18 206.276 1040.79C209.618 1039.1 213.486 1037.98 217.877 1037.43ZM2126.43 1088.38C2121.68 1088.6 2117.64 1089.6 2114.29 1091.38C2110.99 1093.2 2108.21 1095.44 2105.96 1098.12C2103.7 1100.8 2101.8 1103.6 2100.27 1106.53C2098.79 1109.46 2097.53 1112.16 2096.51 1114.64C2094.83 1118.58 2093.26 1122.1 2091.79 1125.22C2090.31 1128.38 2088.69 1130.89 2086.92 1132.73C2085.15 1134.58 2082.95 1135.56 2080.34 1135.68C2078.2 1135.78 2076.28 1135.38 2074.57 1134.46C2072.86 1133.53 2071.48 1131.97 2070.42 1129.78C2069.37 1127.64 2068.76 1124.77 2068.59 1121.16C2068.35 1115.93 2068.98 1110.61 2070.49 1105.21C2072 1099.8 2073.73 1094.57 2075.69 1089.53L2055.16 1090.48C2053.91 1093.4 2052.89 1096.45 2052.09 1099.63C2051.33 1102.86 2050.79 1106.19 2050.48 1109.64C2050.17 1113.13 2050.09 1116.68 2050.26 1120.29C2050.64 1128.47 2052.19 1135.35 2054.93 1140.94C2057.67 1146.57 2061.39 1150.79 2066.09 1153.57C2070.79 1156.35 2076.23 1157.6 2082.41 1157.31C2087.88 1157.05 2092.4 1155.82 2095.96 1153.61C2099.57 1151.39 2102.65 1148.32 2105.18 1144.39C2107.76 1140.51 2110.19 1135.85 2112.46 1130.41C2114.35 1125.94 2116.01 1122.18 2117.44 1119.16C2118.88 1116.19 2120.39 1113.93 2121.99 1112.38C2123.63 1110.88 2125.69 1110.07 2128.16 1109.96C2130.25 1109.86 2132.1 1110.27 2133.72 1111.19C2135.38 1112.12 2136.68 1113.54 2137.63 1115.45C2138.62 1117.35 2139.18 1119.68 2139.31 1122.43C2139.49 1126.38 2139.13 1130.28 2138.21 1134.13C2137.34 1137.99 2136.04 1142.36 2134.32 1147.25L2151.84 1153.58C2153.97 1148.1 2155.53 1142.85 2156.54 1137.85C2157.6 1132.9 2158 1127.72 2157.75 1122.3C2157.41 1115.07 2155.92 1108.85 2153.3 1103.64C2150.72 1098.47 2147.16 1094.57 2142.61 1091.92C2138.06 1089.27 2132.66 1088.09 2126.43 1088.38ZM1106.57 1108.45L1054.09 1138.45V1198.28L1106.57 1228.27L1159.05 1198.28V1138.45L1138.05 1126.45L1106.57 1108.45ZM1229.02 1108.45L1197.53 1126.45L1176.54 1138.45V1198.28L1229.02 1228.27L1281.5 1198.28V1138.45L1229.02 1108.45ZM862.755 1118.7C871.198 1118.7 879.296 1122.05 885.266 1128.02C891.237 1133.99 894.591 1142.09 894.591 1150.53C894.591 1158.98 891.237 1167.07 885.266 1173.05C879.296 1179.02 871.198 1182.37 862.755 1182.37C854.311 1182.37 846.213 1179.02 840.243 1173.05C834.272 1167.07 830.918 1158.98 830.918 1150.53C830.918 1142.09 834.272 1133.99 840.243 1128.02C846.213 1122.05 854.311 1118.7 862.755 1118.7ZM1468 1118.7C1476.44 1118.7 1484.54 1122.05 1490.51 1128.02C1496.48 1133.99 1499.84 1142.09 1499.84 1150.53C1499.84 1158.98 1496.48 1167.07 1490.51 1173.05C1484.54 1179.02 1476.44 1182.37 1468 1182.37C1459.56 1182.37 1451.46 1179.02 1445.49 1173.05C1439.52 1167.07 1436.16 1158.98 1436.16 1150.53C1436.16 1142.09 1439.52 1133.99 1445.49 1128.02C1451.46 1122.05 1459.56 1118.7 1468 1118.7ZM276.44 1132.45L258.172 1132.52L258.316 1174.85L172.247 1175.16L172.327 1197.29L276.673 1196.9L276.44 1132.45ZM2105.58 1175.65C2094.88 1175.11 2085.44 1176.28 2077.23 1179.2C2069.08 1182.11 2062.59 1186.9 2057.77 1193.56C2052.99 1200.27 2050.33 1209.01 2049.78 1219.75C2049.49 1225.31 2049.67 1230.34 2050.29 1234.85C2050.87 1239.36 2052 1243.96 2053.66 1248.67L2072.19 1249.63C2070.69 1244.55 2069.58 1239.84 2068.84 1235.51C2068.11 1231.23 2067.85 1226.98 2068.07 1222.75C2068.38 1216.67 2069.99 1211.78 2072.89 1208.07C2075.85 1204.36 2079.96 1201.71 2085.24 1200.12C2090.56 1198.59 2096.9 1198 2104.26 1198.38C2109.73 1198.66 2114.62 1199.49 2118.93 1200.85C2123.24 1202.22 2126.89 1204.07 2129.87 1206.41C2132.85 1208.8 2135.06 1211.66 2136.51 1214.98C2138 1218.34 2138.63 1222.13 2138.42 1226.36C2138.22 1230.17 2137.34 1234 2135.76 1237.88C2134.18 1241.75 2132.36 1245.59 2130.31 1249.39L2147.91 1257.44C2150.43 1252.81 2152.47 1247.91 2154.02 1242.74C2155.61 1237.63 2156.55 1232.49 2156.81 1227.31C2157.22 1219.42 2156.27 1212.36 2153.97 1206.15C2151.67 1199.93 2148.22 1194.63 2143.63 1190.25C2139.05 1185.87 2133.53 1182.45 2127.08 1179.98C2120.63 1177.5 2113.47 1176.06 2105.58 1175.65ZM931.635 1197.5C908.955 1216.35 888.464 1234.77 871.125 1252.22C843.15 1280.39 822.663 1306.28 811.462 1327.25C800.261 1348.21 799.174 1362.63 804.006 1370.67C808.839 1378.72 822.078 1384.53 845.848 1384.49C869.619 1384.44 902.092 1378.52 940.093 1367.05C960.704 1360.83 983.175 1352.74 1006.74 1343.34H935.314C918.817 1343.34 905.395 1329.91 905.395 1313.41V1282.09C905.395 1277.27 909.316 1273.35 914.145 1273.35H931.635V1197.5ZM1403.95 1201.57V1273.35H1421.45C1426.28 1273.35 1430.19 1277.27 1430.19 1282.09V1313.41C1430.19 1329.91 1416.76 1343.34 1400.27 1343.34H1324.04C1347.6 1352.73 1370.06 1360.83 1390.66 1367.04C1428.67 1378.51 1461.13 1384.43 1484.91 1384.48C1508.68 1384.52 1521.92 1378.71 1526.76 1370.66C1531.59 1362.62 1530.49 1348.2 1519.29 1327.24C1508.09 1306.27 1487.6 1280.39 1459.63 1252.22C1443.55 1236.03 1424.68 1219 1403.95 1201.57ZM277.57 1218.69L259.388 1220.45L263.038 1258.25L236.253 1260.83L232.856 1225.66L214.811 1227.41L218.208 1262.57L195.404 1264.77L191.754 1226.98L173.709 1228.72L179.481 1288.54L283.351 1278.51L277.57 1218.69ZM1766.85 1222.05C1769.48 1222.3 1770.17 1223.52 1781.45 1248.09C1787.96 1262.27 1793.28 1274.36 1793.28 1274.95C1793.28 1275.54 1792.72 1276.79 1792.03 1277.73C1790.89 1279.29 1789.89 1279.37 1781.39 1278.59C1774.98 1278 1771.93 1278.05 1771.74 1278.74C1771.58 1279.29 1770.29 1287.7 1768.88 1297.44C1765.52 1320.68 1763.33 1331.47 1759.24 1344.96C1755.03 1358.85 1745.84 1382.32 1736.84 1402.1C1733.05 1410.44 1730.19 1417.49 1730.48 1417.78C1731.09 1418.4 1765.83 1416.24 1770.07 1415.32C1772.14 1414.87 1775.23 1412.05 1781.21 1405.13L1789.48 1395.55L1785.63 1392.37C1783.06 1390.23 1781.8 1388.4 1781.8 1386.82C1781.8 1383.37 1804.44 1356.94 1807.48 1356.85C1808.99 1356.8 1814.1 1360.53 1823.48 1368.51C1834.78 1378.14 1837.28 1380.71 1837.28 1382.81C1837.33 1386.11 1815.43 1412 1812.17 1412.52C1810.89 1412.72 1808.6 1411.76 1806.44 1410.11C1804.47 1408.6 1802.51 1407.5 1802.08 1407.68C1801.66 1407.85 1797.28 1412.44 1792.37 1417.86C1787.46 1423.28 1781.82 1428.55 1779.84 1429.56C1775.84 1431.6 1768.26 1432.61 1740.17 1434.85C1729.65 1435.69 1720.98 1436.46 1720.91 1436.55C1720.84 1436.64 1715.79 1446.62 1709.68 1458.73C1693.83 1490.12 1682.75 1507.14 1661.82 1532.29C1656.63 1538.53 1652.75 1543.97 1653.2 1544.37C1653.64 1544.77 1662.72 1546.49 1673.36 1548.19L1692.68 1551.29L1695.85 1549.08C1704.65 1542.92 1712.88 1536.4 1712.88 1535.6C1712.88 1535.1 1711.8 1533.29 1710.49 1531.56C1706.24 1526 1706.69 1525.34 1723.04 1513.21C1734.81 1504.49 1738.46 1502.25 1740.17 1502.68C1741.57 1503.03 1745.93 1508.13 1752.32 1516.87C1764.44 1533.47 1763.86 1532.52 1763.14 1534.79C1762.39 1537.15 1734.52 1557.8 1732.08 1557.8C1731.08 1557.8 1728.8 1556.02 1726.99 1553.85L1723.71 1549.91L1711.69 1558.08C1702.3 1564.48 1698.66 1566.42 1695.03 1566.97C1691.6 1567.49 1683.63 1566.66 1664.55 1563.81L1638.7 1559.95L1635.87 1563.42C1630.36 1570.2 1613.68 1586.81 1605.2 1593.97C1592.35 1604.81 1571.89 1619.8 1552.82 1632.33C1543.5 1638.45 1535.84 1643.69 1535.84 1643.98C1535.79 1644.72 1569.53 1664.99 1571.8 1665.58C1573.37 1665.99 1596.84 1660.76 1597.82 1659.78C1597.98 1659.62 1597.6 1657.48 1596.98 1655.01C1594.95 1646.95 1595.21 1646.77 1616.6 1641.47C1633.08 1637.38 1635.5 1636.99 1636.72 1638.22C1638.96 1640.51 1647.15 1674.57 1646.03 1677.01C1645.27 1678.69 1642.03 1679.81 1627.16 1683.59C1606.21 1688.91 1605.61 1688.85 1603.69 1681.33C1602.75 1677.69 1602.07 1676.58 1600.95 1676.91C1593.58 1679.1 1576.45 1682.47 1572.46 1682.47C1566.31 1682.52 1563.48 1681.16 1537.87 1665.98L1518.4 1654.45L1496.23 1665.48C1470.1 1678.48 1452.97 1685.45 1424.29 1694.75C1412.71 1698.51 1402.66 1701.75 1401.94 1701.97C1400.65 1702.35 1416.3 1719.57 1430.68 1733.57L1437.69 1740.39L1453.24 1741.01L1468.8 1741.64V1735.53C1468.8 1726.05 1468.22 1726.26 1493.97 1726.26C1514.41 1726.26 1515.69 1726.36 1516.63 1728.11C1517.22 1729.23 1517.62 1738.47 1517.62 1751.45C1517.62 1769.73 1517.4 1773.11 1516.13 1774.16C1514.28 1775.7 1471.91 1775.51 1470.04 1773.96C1469.4 1773.43 1468.76 1770.13 1468.6 1766.62L1468.32 1760.25L1452.44 1759.65C1435.67 1759.02 1431.17 1758.12 1425.73 1754.31C1423.89 1753.02 1412.64 1742 1400.73 1729.83L1379.07 1707.7L1367.7 1709.77C1342.15 1714.43 1307.95 1717.65 1283.9 1717.65H1269.54L1273.55 1725.06C1283.32 1743.08 1292.93 1760.38 1294.03 1761.88C1294.74 1762.84 1300.73 1765.12 1308.55 1767.4C1315.88 1769.54 1322.54 1771.5 1323.37 1771.75C1324.49 1772.1 1325.3 1770.85 1326.59 1766.71C1328.65 1760.12 1329.6 1758.81 1332.28 1758.81C1333.4 1758.81 1343.12 1761.32 1353.88 1764.39C1368.06 1768.44 1373.78 1770.49 1374.68 1771.85C1375.75 1773.46 1375.11 1776.59 1370.15 1794.25C1366.65 1806.75 1363.78 1815.28 1362.82 1816.01H1362.76C1360.54 1817.69 1360.06 1817.59 1341.92 1812.32C1332.97 1809.72 1324.14 1807.18 1322.3 1806.67C1317.27 1805.29 1316.4 1803.2 1318.12 1796.62C1318.9 1793.61 1319.31 1790.92 1319.01 1790.62C1318.72 1790.33 1312.34 1788.18 1304.83 1785.86C1286.87 1780.32 1283.66 1778.7 1279.4 1773.01C1277.46 1770.42 1269.41 1756.8 1261.5 1742.74L1247.13 1717.17L1237.57 1716.9C1226.67 1716.58 1217.18 1718.2 1205.27 1722.41L1197.42 1725.2L1189.74 1717.84C1185.52 1713.79 1181.95 1710.23 1181.81 1709.92C1181.39 1709.05 1195.7 1702.7 1203.09 1700.47C1217.62 1696.07 1225.62 1695.46 1260.57 1696.07C1278.47 1696.38 1297.35 1696.31 1302.54 1695.9L1312 1695.16L1320.35 1669.17C1324.94 1654.88 1329.83 1641.25 1331.22 1638.89C1334.63 1633.06 1337.55 1630.79 1351.39 1623.18L1363.24 1616.68L1363.8 1611.94C1365.43 1598.3 1380.45 1588.88 1393.64 1593.23C1400.97 1595.65 1407.5 1603.72 1408.9 1612.09C1410.39 1621.07 1403.96 1632.32 1395.21 1636.03C1389.71 1638.37 1381.98 1638 1376.24 1635.12L1371.34 1632.66L1359.51 1639.3C1353 1642.96 1347.18 1646.48 1346.57 1647.11C1345.64 1648.07 1339.72 1666.81 1333.41 1688.76L1331.94 1693.83L1336.45 1693.22C1352.58 1691.07 1372.54 1687.46 1384.09 1684.62C1395.85 1681.73 1433.33 1670.19 1433.33 1669.46C1433.33 1669.31 1435.02 1657.22 1437.09 1642.58C1441.9 1608.62 1441.71 1609.09 1457.32 1596.31L1468.7 1587L1468.75 1581.95C1468.86 1563.08 1489.6 1552.56 1504.4 1563.87C1510.5 1568.53 1512.92 1574.02 1512.58 1582.4C1512.34 1588.25 1511.87 1589.88 1509.41 1593.38C1503.95 1601.15 1495.92 1604.68 1487.45 1603.04C1484.81 1602.53 1482.02 1601.83 1481.23 1601.48C1479.55 1600.75 1458.72 1617.03 1457.86 1619.75C1457.08 1622.21 1452.46 1661.45 1452.89 1661.88C1453.52 1662.51 1479.11 1650.89 1492.24 1644.02C1499.08 1640.45 1509.84 1634.4 1516.16 1630.59C1528.27 1623.29 1558.27 1603.47 1562.95 1599.65L1565.72 1597.4L1561.76 1574.96C1557.7 1551.99 1557.02 1543.71 1558.81 1538.97C1559.37 1537.49 1562.82 1531.48 1566.49 1525.63L1573.16 1515L1571.73 1509.52C1569.77 1501.99 1571.11 1495.8 1575.85 1490.55C1582.79 1482.85 1591.78 1481.14 1600.93 1485.78C1608.2 1489.46 1611.89 1495.52 1611.83 1503.66C1611.74 1515.77 1603.45 1524.31 1591.79 1524.31H1587.44L1580.76 1534.45C1573.86 1544.91 1573.74 1545.17 1574.04 1549.19C1574.27 1552.35 1580.79 1584.94 1581.28 1585.43C1581.77 1585.92 1596.54 1573.58 1604.58 1565.98C1611.99 1558.96 1646.78 1517.78 1659 1501.56L1667.84 1489.84L1655.42 1464.89C1640.7 1435.35 1640.79 1435.84 1646.29 1416.2L1649.59 1404.4L1647.36 1401.42C1642.12 1394.4 1641.62 1383.86 1646.18 1376.96C1656.1 1361.97 1678.81 1365.32 1683.81 1382.52C1686.13 1390.51 1684.43 1397.04 1678.52 1402.74C1676.07 1405.12 1672.17 1407.7 1669.84 1408.49L1665.62 1409.93L1662.46 1420.94C1660.71 1426.99 1659.27 1432.95 1659.27 1434.18C1659.27 1436.34 1676.72 1470.14 1678.38 1471.17C1679.56 1471.89 1684.19 1463.18 1699.42 1431.53C1722.85 1382.86 1736.08 1350.86 1741.55 1329.58C1743.93 1320.34 1750.19 1282.6 1750.19 1277.48C1750.19 1275.85 1749.16 1275.55 1741.36 1274.82C1732.98 1274.05 1732.48 1273.87 1731.64 1271.47C1730.83 1269.16 1732.24 1266.82 1747.4 1245.37C1763.07 1223.21 1764.23 1221.82 1766.83 1222.06L1766.85 1222.05ZM564.06 1224.22C566.87 1224.22 568.019 1225.59 583.36 1247.19C592.331 1259.83 599.68 1270.89 599.682 1271.78C599.682 1274.88 597.107 1276.08 589.093 1276.7C584.76 1277.04 580.985 1277.54 580.703 1277.82C580.065 1278.46 584.832 1311.51 587.312 1323.64C591.953 1346.36 605.595 1380.28 631.782 1434.21C638.328 1447.69 645.486 1462.16 647.685 1466.34C651.668 1473.92 651.691 1473.94 653.204 1471.69C657.882 1464.75 671.467 1437.75 671.414 1435.5C671.313 1431.25 665.222 1412.01 663.745 1411.27C662.996 1410.9 660.518 1409.82 658.236 1408.88C652.958 1406.69 648.054 1400.99 646.644 1395.39C643.262 1381.96 653.154 1369.19 666.898 1369.25C683.848 1369.32 693.268 1387.03 684.155 1401.69L681.196 1406.45L684.534 1418.24C687.306 1428.01 687.808 1431.16 687.474 1436.71C687.096 1443.05 686.422 1444.73 674.976 1467.57L662.869 1491.71L671.385 1502.97C676.068 1509.17 682.633 1517.5 685.975 1521.47C689.315 1525.44 698.545 1536.42 706.482 1545.88C714.419 1555.33 724.541 1566.31 728.975 1570.28C741.234 1581.25 749.04 1587.76 749.434 1587.36C749.747 1587.04 755.655 1558.16 756.938 1550.68C757.331 1548.39 756.145 1545.86 750.582 1537.15L743.75 1526.43L737.647 1525.94C726.348 1525.04 718.882 1516.96 718.882 1505.63C718.882 1494.22 726.598 1485.95 737.929 1485.23C743.264 1484.89 744.687 1485.18 749.054 1487.57C757.925 1492.4 761.642 1501.28 759.011 1511.38L757.58 1516.9L763.809 1526.67C767.236 1532.05 770.692 1538 771.489 1539.91C773.744 1545.31 773.247 1552.71 769.046 1576.32C766.905 1588.36 765.364 1598.75 765.62 1599.42C766.284 1601.15 808.506 1629.11 822.703 1637.22C840.356 1647.3 876.862 1664.77 877.967 1663.67C878.323 1663.31 873.52 1623.7 872.877 1621.67C872.022 1618.97 851.405 1602.59 849.693 1603.24C837.513 1607.92 825.997 1603.97 820.484 1593.22C818.174 1588.67 817.827 1587.08 818.119 1581.53C818.396 1576.26 818.978 1574.38 821.341 1571.02C822.924 1568.77 825.663 1565.94 827.434 1564.75C842.079 1554.88 861.814 1565.59 862.005 1583.52L862.064 1588.91L873.383 1598.15C888.923 1610.85 888.804 1610.57 893.589 1644.09C895.643 1658.49 897.346 1670.55 897.346 1670.91C897.399 1671.83 928.101 1681.64 943.314 1685.58C954.617 1688.5 982.681 1693.64 994.831 1695.01C998.155 1695.38 998.867 1695.2 998.442 1694.09C998.15 1693.34 996.578 1688.1 994.948 1682.45C988.454 1659.95 985.168 1650.09 983.658 1648.59C982.786 1647.73 976.978 1644.21 970.752 1640.77L959.432 1634.53L954.488 1636.83C943.513 1641.94 931.312 1638.53 925.406 1628.7C921.468 1622.14 920.666 1616.92 922.593 1610.29C928.088 1591.39 954.031 1588.27 964.016 1605.31C965.348 1607.58 966.732 1611.43 967.082 1613.86L967.725 1618.28L980.076 1625.36C986.87 1629.25 993.284 1633.19 994.335 1634.12C998.898 1638.15 1002.12 1645.54 1010.33 1670.84L1018.91 1697.29L1037.34 1697.98C1048.89 1698.41 1063.11 1698.23 1075.4 1697.5C1103.07 1695.87 1115.8 1697.18 1133.79 1703.51C1150.42 1709.37 1164.04 1718.26 1176.81 1731.62C1189.8 1745.21 1198.94 1759.82 1204.3 1775.56C1207.88 1786.04 1212.28 1807.09 1212.28 1813.68C1212.28 1826.39 1207.33 1837.65 1197.48 1847.35C1190.81 1853.91 1184.44 1857.65 1176.35 1859.76C1160.13 1863.98 1142.7 1858.84 1131.06 1846.39C1120.53 1835.14 1117.04 1823.44 1118.5 1804.28C1119.78 1787.47 1125.03 1772.2 1134.71 1757.09L1138.57 1751.08L1144.08 1754.92C1147.1 1757.03 1150.82 1759.8 1152.33 1761.07L1155.08 1763.38L1152.67 1768.51C1140.86 1793.62 1139.13 1817.04 1148.28 1828.09C1156.32 1837.79 1172.25 1839.1 1181.01 1830.78C1186.72 1825.37 1187.87 1821.69 1187.82 1809.06C1187.76 1795.28 1185.54 1785.79 1179.28 1772.52C1172.44 1758.03 1165.05 1748.32 1153.12 1738.13C1137.01 1724.39 1110.65 1716.09 1090.24 1718.35L1083.55 1719.09L1078.67 1727.7C1075.99 1732.44 1069.11 1744.64 1063.37 1754.83C1057.63 1765.01 1051.5 1774.81 1049.75 1776.61C1045.39 1781.1 1041.63 1782.84 1026.1 1787.55C1018.73 1789.78 1012.35 1791.92 1011.92 1792.31C1011.49 1792.69 1011.78 1795.49 1012.57 1798.52C1013.66 1802.67 1013.75 1804.44 1012.95 1805.74C1011.37 1808.26 971.069 1819.69 968.534 1818.33C967.161 1817.6 965.221 1812.15 960.788 1796.56C955.415 1777.67 955.008 1775.58 956.281 1773.75C958.218 1770.95 997.348 1759.59 1000.35 1760.95C1001.7 1761.56 1002.95 1763.82 1004.18 1767.88L1006.01 1773.9L1020.25 1769.79C1028.38 1767.45 1035.21 1764.93 1036.17 1763.93C1037.71 1762.31 1044.95 1749.57 1056.63 1727.94L1061.14 1719.56H1051.15C1026.45 1719.56 993.526 1716.69 966.86 1712.21L951.648 1709.66L929.048 1732.76C901.009 1761.41 902.91 1760.34 879.177 1761.41L862.426 1762.15L861.947 1768.38C861.687 1771.81 861.127 1775.14 860.702 1775.8C859.615 1777.48 815.961 1777.53 814.285 1775.86C813.461 1775.03 813.137 1768.53 813.137 1752.61C813.137 1736.69 813.456 1730.17 814.285 1729.34C815.915 1727.71 859.169 1727.71 860.799 1729.34C861.448 1729.99 861.947 1733.1 861.947 1736.52V1742.55H877.666H893.385L911.128 1724.13C920.886 1713.99 928.915 1705.27 928.978 1704.76C929.042 1704.24 921.416 1701.41 912.033 1698.45C880.494 1688.53 856.144 1678.63 829.332 1664.82L812.514 1656.17L793.437 1667.43C768.89 1681.94 764.182 1684.15 758.097 1684.15C755.464 1684.15 747.74 1682.86 740.928 1681.28C734.116 1679.71 728.455 1678.42 728.343 1678.42C728.231 1678.42 727.614 1680.59 726.98 1683.23C725.171 1690.77 724.748 1690.81 703.835 1685.53C689.883 1682 685.49 1680.52 684.73 1679.1C683.977 1677.7 684.815 1672.97 688.233 1659.26C693.955 1636.31 691.951 1637.5 714.999 1643.38C724.334 1645.77 732.621 1648.25 733.414 1648.91C734.817 1650.07 734.721 1654.3 733.169 1659.78C732.67 1661.56 733.706 1661.98 745.55 1664.89L758.476 1668.07L764.062 1664.86C777.089 1657.42 794.893 1646.32 794.691 1645.76C794.569 1645.43 785.852 1639.38 775.323 1632.33C736.497 1606.32 711.653 1585.64 695.366 1565.74L692.057 1561.69L670.041 1565.12C657.932 1567.01 644.577 1568.62 640.365 1568.69C631.868 1568.84 630.619 1568.26 614.223 1556.68L607.215 1551.74L603.459 1555.84C600.902 1558.64 599.136 1559.82 597.939 1559.5C594.38 1558.57 568.098 1538.51 567.544 1536.3C567.113 1534.59 569.293 1531.01 577.685 1519.65C584.682 1510.17 589.142 1504.98 590.601 1504.61C592.361 1504.17 595.508 1506 605.59 1513.36C624.731 1527.33 624.784 1527.4 620.267 1533.32C618.951 1535.05 617.872 1536.94 617.872 1537.51C617.872 1538.08 621.423 1541.09 625.766 1544.2C639.497 1554.05 635.999 1553.38 656.678 1550.14C666.66 1548.58 675.801 1547.07 676.991 1546.79C678.981 1546.33 678.486 1545.52 670.878 1536.51C649.218 1510.85 636.65 1491.68 621.172 1460.73C615.135 1448.66 610.043 1438.64 609.862 1438.46C609.681 1438.27 598.808 1437.27 585.705 1436.23C559.202 1434.12 553.89 1433.27 549.284 1430.43C547.547 1429.35 542.179 1423.99 537.352 1418.51L528.572 1408.57L524.991 1411.4C518.835 1416.27 518.014 1415.83 505.049 1400.66C496.738 1390.94 493.436 1386.4 493.436 1384.63C493.436 1381.2 519.058 1359.21 523.054 1359.21C525.258 1359.21 527.593 1361.43 537.322 1372.76C550.649 1388.28 551.087 1389.47 545.157 1394.24L541.352 1397.29L545.391 1402.13C547.613 1404.8 551.587 1409.29 554.219 1412.12L559.007 1417.27L579.389 1418.75C590.598 1419.56 600.02 1419.96 600.334 1419.65C600.647 1419.34 597.981 1412.72 594.406 1404.94C586.246 1387.17 576.919 1364 572.926 1351.54C568.221 1336.86 565.611 1324.72 562.317 1302.25C560.657 1290.93 559.136 1281.13 558.939 1280.46C558.695 1279.63 557.428 1279.42 554.959 1279.78C552.971 1280.07 548.574 1280.41 545.177 1280.52C535.105 1280.85 535.116 1280.69 549.187 1250.08C561.032 1224.32 561.079 1224.24 564.059 1224.24L564.06 1224.22ZM2046.66 1270.5L2043.77 1292.44L2147.23 1306.07L2150.12 1284.13L2046.66 1270.5ZM922.885 1290.84V1313.41C922.885 1320.26 928.456 1325.84 935.314 1325.84H1400.27C1407.13 1325.84 1412.7 1320.26 1412.7 1313.41V1290.84H1395.21H1232.64L1217.71 1305.78C1216.07 1307.42 1213.84 1308.34 1211.53 1308.34H1124.06C1121.74 1308.34 1119.51 1307.42 1117.88 1305.78L1102.94 1290.84H940.385H922.885ZM286.504 1304.73L184.347 1326L188.844 1347.6L228.885 1339.26L237.314 1379.72L197.273 1388.06L201.779 1409.71L303.936 1388.45L299.43 1366.78L255.339 1375.96L246.911 1335.51L291.001 1326.32L286.504 1304.73ZM2040 1318.45L2027.81 1377.3L2045.7 1381L2053.4 1343.82L2079.75 1349.28L2072.58 1383.88L2090.34 1387.56L2097.5 1352.96L2119.93 1357.61L2112.23 1394.79L2129.99 1398.47L2142.18 1339.62L2040 1318.45ZM1078.07 1343.34C1083.33 1385.5 1090.15 1423.98 1098.41 1456.63C1104.45 1480.49 1111.24 1501.16 1118.43 1518.43L1155.68 1481.19C1158.25 1478.62 1161.74 1477.18 1165.38 1477.18C1169.01 1477.18 1172.5 1478.62 1175.08 1481.19L1212.31 1518.43C1219.5 1501.16 1226.3 1480.5 1232.34 1456.63C1240.61 1423.96 1247.45 1385.54 1252.71 1343.34H1078.07ZM1012.55 1380.83C1018.64 1380.53 1024.7 1382 1029.99 1385.05C1033.61 1387.14 1036.78 1389.92 1039.33 1393.24C1041.87 1396.56 1043.74 1400.35 1044.82 1404.39C1045.9 1408.42 1046.18 1412.64 1045.63 1416.78C1045.09 1420.93 1043.73 1424.93 1041.64 1428.55C1037.41 1435.86 1030.46 1441.19 1022.31 1443.38C1014.15 1445.56 1005.46 1444.42 998.15 1440.2C994.528 1438.11 991.353 1435.32 988.807 1432.01C986.261 1428.69 984.393 1424.9 983.31 1420.86C982.227 1416.82 981.95 1412.61 982.496 1408.47C983.042 1404.32 984.399 1400.32 986.49 1396.7C989.157 1392.08 992.94 1388.21 997.492 1385.44C1002.04 1382.67 1007.22 1381.08 1012.55 1380.83ZM1318.2 1380.83C1323.52 1381.08 1328.7 1382.67 1333.25 1385.44C1337.8 1388.21 1341.59 1392.08 1344.25 1396.7C1346.35 1400.32 1347.7 1404.32 1348.25 1408.46C1348.8 1412.61 1348.52 1416.82 1347.44 1420.86C1346.36 1424.9 1344.49 1428.69 1341.94 1432.01C1339.4 1435.32 1336.23 1438.11 1332.6 1440.2C1325.29 1444.42 1316.6 1445.56 1308.45 1443.38C1300.29 1441.19 1293.34 1435.86 1289.12 1428.55C1287.03 1424.93 1285.67 1420.93 1285.12 1416.78C1284.57 1412.64 1284.85 1408.42 1285.93 1404.39C1287.01 1400.35 1288.88 1396.56 1291.43 1393.24C1293.97 1389.92 1297.15 1387.14 1300.77 1385.05C1306.05 1382 1312.1 1380.53 1318.2 1380.83ZM2022.93 1398.61L2016.77 1417.39L2063.42 1432.71C2066.63 1433.62 2069.82 1434.51 2072.98 1435.4L2082.61 1438.1C2085.82 1439.01 2089.02 1439.89 2092.19 1440.73L2091.99 1441.34L2002.83 1459.84L1994.06 1486.56L2093.2 1519.11L2099.41 1500.19L2052.49 1484.78C2049.43 1483.88 2046.37 1482.97 2043.31 1482.07C2040.23 1481.21 2037.16 1480.35 2034.09 1479.49C2031.02 1478.63 2027.93 1477.74 2024.83 1476.82L2024.98 1476.35L2113.37 1457.68L2122.08 1431.16L2022.93 1398.61ZM306.301 1411.11L288.685 1416.96C291.93 1421.15 294.685 1425.12 296.938 1428.89C299.176 1432.61 300.966 1436.48 302.301 1440.5C304.221 1446.28 304.497 1451.42 303.138 1455.94C301.734 1460.46 298.862 1464.42 294.524 1467.82C290.127 1471.18 284.433 1474.03 277.433 1476.35C272.24 1478.08 267.387 1479.09 262.873 1479.39C258.358 1479.69 254.283 1479.28 250.658 1478.18C247.017 1477.03 243.919 1475.18 241.363 1472.62C238.748 1470.03 236.78 1466.72 235.445 1462.7C234.246 1459.09 233.678 1455.19 233.742 1451.01C233.806 1446.83 234.098 1442.59 234.628 1438.3L215.317 1437.2C214.65 1442.44 214.527 1447.74 214.956 1453.11C215.328 1458.45 216.328 1463.59 217.964 1468.51C220.453 1476.01 223.906 1482.23 228.31 1487.19C232.713 1492.14 237.841 1495.82 243.707 1498.23C249.573 1500.65 255.964 1501.84 262.871 1501.8C269.778 1501.76 276.972 1500.5 284.469 1498.01C294.629 1494.64 303.007 1490.1 309.589 1484.4C316.126 1478.72 320.426 1471.9 322.496 1463.95C324.505 1455.96 323.812 1446.86 320.422 1436.65C318.667 1431.37 316.678 1426.74 314.456 1422.77C312.278 1418.78 309.563 1414.9 306.301 1411.11ZM336.376 1489.84L256.537 1567.11L267.817 1591.71L378.403 1581.51L368.475 1559.84L342.742 1563.32L326.886 1528.74L346.304 1511.51L336.376 1489.84ZM1165.37 1510.3L1118.25 1557.43L1163.91 1603.09L1211.04 1555.96L1165.37 1510.3ZM2005.16 1521.2C1996.51 1520.84 1988.7 1522.85 1981.72 1527.21C1974.78 1531.63 1969.04 1538.71 1964.49 1548.46C1962.13 1553.5 1960.4 1558.23 1959.28 1562.65C1958.12 1567.04 1957.42 1571.73 1957.2 1576.72L1974.02 1584.57C1974.53 1579.29 1975.27 1574.52 1976.22 1570.24C1977.14 1566 1978.5 1561.96 1980.29 1558.12C1982.87 1552.6 1986.2 1548.67 1990.29 1546.33C1994.42 1544 1999.23 1543.09 2004.71 1543.6C2010.22 1544.18 2016.32 1546.03 2023 1549.15C2027.96 1551.46 2032.18 1554.06 2035.67 1556.94C2039.15 1559.83 2041.83 1562.92 2043.7 1566.21C2045.56 1569.54 2046.54 1573.02 2046.63 1576.63C2046.76 1580.31 2045.92 1584.08 2044.13 1587.91C2042.52 1591.36 2040.26 1594.58 2037.34 1597.58C2034.42 1600.57 2031.29 1603.45 2027.96 1606.2L2041.24 1620.28C2045.32 1616.93 2049.05 1613.16 2052.43 1608.96C2055.83 1604.82 2058.63 1600.4 2060.82 1595.7C2064.17 1588.54 2065.93 1581.65 2066.14 1575.03C2066.34 1568.4 2065.14 1562.19 2062.54 1556.41C2059.93 1550.63 2056.11 1545.38 2051.06 1540.66C2046.02 1535.94 2039.91 1531.91 2032.75 1528.57C2023.05 1524.04 2013.86 1521.59 2005.16 1521.2ZM312.219 1541.27L323.548 1566L298.369 1569.3C297.235 1569.45 295.338 1569.71 292.685 1570.09C290.032 1570.47 287.237 1570.88 284.305 1571.34C281.309 1571.77 278.831 1572.18 276.859 1572.56C278.434 1571.31 280.273 1569.79 282.378 1567.99C284.419 1566.16 286.452 1564.36 288.47 1562.6C290.426 1560.81 292.035 1559.37 293.308 1558.27L312.219 1541.27ZM1942.83 1594.5L1912.18 1646.21L1927.9 1655.52L1947.27 1622.86L1970.42 1636.58L1952.4 1666.98L1967.99 1676.22L1986.01 1645.83L2005.72 1657.51L1986.35 1690.17L2001.95 1699.42L2032.6 1647.72L1942.83 1594.5ZM372.904 1599.37C367.436 1599.05 361.994 1600.52 356.572 1603.79C351.884 1606.61 348.574 1609.6 346.644 1612.76C344.648 1615.91 343.645 1619.13 343.627 1622.42C343.569 1625.73 344.132 1629.06 345.311 1632.4L344.698 1632.76C342.401 1630.15 339.765 1628.35 336.785 1627.37C333.805 1626.39 330.626 1626.18 327.256 1626.77C323.862 1627.31 320.469 1628.6 317.085 1630.64C308.688 1635.7 304.668 1642.29 305.007 1650.42C305.347 1658.55 309.091 1668.56 316.258 1680.46L333.018 1708.28L422.406 1654.46L402.268 1621.02C398.194 1614.25 393.664 1609.03 388.681 1605.37C383.632 1601.69 378.372 1599.69 372.904 1599.37ZM372.038 1622.45C373.853 1622.12 375.645 1622.18 377.42 1622.64C380.971 1623.56 384.466 1626.87 387.902 1632.58L395.338 1644.93L372.047 1658.96L364.981 1647.22C362.551 1643.18 361.116 1639.74 360.679 1636.89C360.217 1634 360.52 1631.57 361.604 1629.58C362.686 1627.6 364.328 1625.94 366.529 1624.62C368.383 1623.5 370.223 1622.78 372.038 1622.45ZM336.25 1646.68C337.853 1646.44 339.407 1646.59 340.921 1647.12C343.91 1648.21 347.068 1651.51 350.382 1657.01L357 1668.02L337.135 1679.98L331.13 1670.01C327.866 1664.59 326.243 1660.18 326.254 1656.78C326.201 1653.37 327.881 1650.64 331.305 1648.58C332.997 1647.56 334.646 1646.93 336.25 1646.68ZM538.958 1844.43C535.636 1844.43 532.346 1845.08 529.277 1846.35C526.208 1847.62 523.419 1849.49 521.07 1851.83C518.721 1854.18 516.858 1856.97 515.587 1860.04C514.316 1863.11 513.662 1866.4 513.662 1869.72C513.664 1876.43 516.33 1882.86 521.074 1887.6C525.817 1892.35 532.251 1895.01 538.958 1895.01C545.664 1895.01 552.095 1892.34 556.836 1887.6C561.578 1882.86 564.243 1876.43 564.244 1869.72C564.245 1863.02 561.582 1856.58 556.84 1851.84C552.098 1847.09 545.666 1844.43 538.958 1844.43ZM1791.8 1844.43C1788.47 1844.43 1785.18 1845.08 1782.11 1846.35C1779.05 1847.62 1776.26 1849.49 1773.91 1851.83C1771.56 1854.18 1769.7 1856.97 1768.42 1860.04C1767.15 1863.11 1766.5 1866.4 1766.5 1869.72C1766.5 1876.43 1769.17 1882.86 1773.91 1887.6C1778.66 1892.35 1785.09 1895.01 1791.8 1895.01C1798.5 1895.01 1804.94 1892.35 1809.68 1887.6C1814.42 1882.86 1817.09 1876.43 1817.09 1869.72C1817.09 1866.4 1816.44 1863.11 1815.17 1860.04C1813.9 1856.97 1812.03 1854.18 1809.68 1851.83C1807.34 1849.49 1804.55 1847.62 1801.48 1846.35C1798.41 1845.08 1795.12 1844.43 1791.8 1844.43ZM1535.64 1963.61L1515.29 1972.1L1539.87 2030.92C1541.93 2035.88 1542.97 2040.24 1543 2043.99C1543 2047.75 1541.96 2050.98 1539.79 2053.7C1537.67 2056.39 1534.36 2058.67 1529.88 2060.54C1523.51 2063.2 1518.04 2063.6 1513.45 2061.75C1508.86 2059.91 1504.91 2055.01 1501.59 2047.07L1476.96 1988.11L1456.61 1996.62L1482.53 2058.66C1487.01 2069.37 1493.94 2076.59 1503.33 2080.3C1512.72 2084.01 1523.78 2083.2 1536.51 2077.88C1545.47 2074.14 1552.23 2069.48 1556.81 2063.91C1561.44 2058.31 1564.1 2052.26 1564.77 2045.73C1565.48 2039.15 1564.44 2032.54 1561.67 2025.91L1535.64 1963.61ZM816.036 1983.98C809.41 1984.15 803.277 1985.7 797.651 1988.63C792.024 1991.56 787.007 1995.68 782.584 2000.98C778.162 2006.29 774.484 2012.61 771.557 2019.95C767.588 2029.89 765.662 2039.21 765.775 2047.91C765.908 2056.57 768.344 2064.26 773.095 2070.97C777.907 2077.66 785.308 2083 795.295 2086.98C800.466 2089.05 805.287 2090.51 809.759 2091.37C814.212 2092.28 818.937 2092.7 823.93 2092.65L830.801 2075.41C825.509 2075.19 820.697 2074.73 816.367 2074.03C812.081 2073.34 807.978 2072.21 804.045 2070.64C798.389 2068.38 794.269 2065.28 791.694 2061.34C789.137 2057.34 787.962 2052.6 788.161 2047.1C788.422 2041.56 789.914 2035.37 792.648 2028.52C794.676 2023.43 797.031 2019.08 799.714 2015.43C802.397 2011.79 805.334 2008.94 808.513 2006.88C811.737 2004.84 815.147 2003.66 818.752 2003.36C822.418 2003.03 826.216 2003.65 830.149 2005.22C833.685 2006.63 837.037 2008.71 840.194 2011.45C843.35 2014.2 846.397 2017.15 849.333 2020.32L862.628 2006.27C859.055 2002.38 855.071 1998.87 850.686 1995.74C846.362 1992.58 841.799 1990.04 836.982 1988.11C829.645 1985.19 822.664 1983.8 816.036 1983.98ZM875.359 2003.46L843.707 2102.9L864.789 2109.6L896.45 2010.17L875.359 2003.46ZM1441.54 2004.11C1438.8 2004 1436.17 2004.02 1433.62 2004.15C1428.56 2004.37 1423.44 2005.28 1418.25 2006.88C1411.34 2009.01 1405.69 2012 1401.3 2015.84C1396.94 2019.63 1394.05 2024.06 1392.63 2029.13C1391.2 2034.2 1391.4 2039.71 1393.24 2045.66C1394.64 2050.21 1396.63 2053.89 1399.19 2056.68C1401.77 2059.42 1404.64 2061.54 1407.8 2063.06C1410.96 2064.57 1414.14 2065.71 1417.36 2066.46C1420.56 2067.17 1423.5 2067.7 1426.16 2068.08C1430.39 2068.72 1434.2 2069.36 1437.58 2070.01C1441.02 2070.64 1443.84 2071.59 1446.07 2072.84C1448.3 2074.09 1449.81 2075.97 1450.58 2078.47C1451.21 2080.52 1451.28 2082.49 1450.82 2084.37C1450.36 2086.26 1449.2 2087.98 1447.35 2089.55C1445.54 2091.11 1442.9 2092.42 1439.44 2093.48C1434.44 2095.02 1429.13 2095.74 1423.52 2095.63C1417.91 2095.52 1412.42 2095.15 1407.04 2094.51L1413.11 2114.16C1416.24 2114.62 1419.45 2114.85 1422.73 2114.85C1426.05 2114.77 1429.41 2114.46 1432.83 2113.9C1436.29 2113.33 1439.74 2112.52 1443.19 2111.45C1451.01 2109.04 1457.29 2105.8 1462.01 2101.76C1466.79 2097.69 1469.93 2093.04 1471.45 2087.79C1472.97 2082.54 1472.82 2076.96 1471 2071.05C1469.39 2065.82 1467.07 2061.76 1464.03 2058.86C1460.98 2055.92 1457.24 2053.71 1452.8 2052.24C1448.39 2050.72 1443.28 2049.53 1437.44 2048.69C1432.64 2047.98 1428.59 2047.31 1425.31 2046.68C1422.08 2046.03 1419.5 2045.14 1417.6 2043.98C1415.74 2042.76 1414.44 2040.97 1413.71 2038.61C1413.09 2036.61 1413.03 2034.71 1413.53 2032.91C1414 2031.07 1415.05 2029.46 1416.66 2028.07C1418.26 2026.63 1420.38 2025.49 1423.01 2024.68C1426.79 2023.52 1430.65 2022.9 1434.61 2022.82C1438.55 2022.7 1443.11 2022.86 1448.28 2023.31L1450.03 2004.77C1447.11 2004.42 1444.28 2004.21 1441.55 2004.1L1441.54 2004.11ZM1386.33 2019.06L1364.49 2023.73L1358.13 2088.59C1358.04 2089.73 1357.92 2091.79 1357.78 2094.79C1357.68 2097.73 1357.59 2100.84 1357.51 2104.12C1357.46 2107.39 1357.57 2110.07 1357.71 2112.18C1356.99 2110.19 1355.91 2107.72 1354.45 2104.77C1353.03 2101.77 1351.64 2098.95 1350.3 2096.32C1348.95 2093.64 1348 2091.82 1347.46 2090.87L1315.28 2034.25L1293.43 2038.92L1293.8 2039.53L1284.13 2040.42L1276.1 2098.35C1275.79 2100.67 1275.43 2103.54 1275.03 2106.97C1274.67 2110.4 1274.34 2113.85 1274.04 2117.32C1273.78 2120.74 1273.58 2123.64 1273.47 2126.04C1273.12 2124.3 1272.63 2122.27 1271.98 2119.94C1271.38 2117.56 1270.73 2115.14 1270.03 2112.67C1269.32 2110.2 1268.64 2107.92 1267.97 2105.83C1267.35 2103.69 1266.81 2101.99 1266.36 2100.74L1245.89 2043.92L1225.06 2045.83L1215.25 2105.43C1214.99 2106.79 1214.73 2108.55 1214.45 2110.73C1214.17 2112.91 1213.91 2115.27 1213.66 2117.83C1213.46 2120.33 1213.29 2122.81 1213.13 2125.26C1212.96 2127.67 1212.85 2129.78 1212.78 2131.6C1212.43 2129.86 1211.93 2127.83 1211.29 2125.5C1210.69 2123.11 1210.01 2120.67 1209.25 2118.16C1208.54 2115.59 1207.81 2113.16 1207.07 2110.84C1206.38 2108.51 1205.77 2106.51 1205.23 2104.84L1186.75 2049.33L1165.08 2051.32L1201.1 2152.81L1226.12 2150.52L1235.13 2094.79C1235.31 2093.62 1235.54 2091.93 1235.81 2089.71C1236.09 2087.48 1236.35 2085.1 1236.59 2082.54C1236.89 2079.98 1237.12 2077.57 1237.29 2075.31C1237.5 2073.05 1237.63 2071.24 1237.67 2069.9C1237.93 2071.21 1238.35 2072.99 1238.94 2075.23C1239.57 2077.42 1240.26 2079.77 1241.01 2082.28C1241.77 2084.74 1242.48 2087.02 1243.15 2089.11C1243.81 2091.2 1244.34 2092.75 1244.72 2093.77L1263.79 2147.06L1288.88 2144.77L1303.14 2055.19L1349.88 2133.56L1373.47 2128.52L1386.33 2019.06ZM941.485 2023.28C939.779 2023.37 938.116 2023.57 936.482 2023.84C929.947 2024.96 924.104 2027.37 918.953 2031.07C913.802 2034.77 909.416 2039.56 905.794 2045.44C902.172 2051.32 899.432 2058.1 897.579 2065.77C895.068 2076.18 894.486 2085.68 895.837 2094.28C897.2 2102.83 900.71 2110.1 906.368 2116.06C912.084 2122 920.169 2126.22 930.623 2128.75C936.035 2130.05 941.014 2130.81 945.563 2131.02C950.101 2131.29 954.84 2131.04 959.773 2130.27L964.124 2112.23C958.854 2112.77 954.027 2113 949.641 2112.92C945.301 2112.85 941.076 2112.33 936.959 2111.33C931.038 2109.91 926.521 2107.42 923.41 2103.88C920.312 2100.29 918.469 2095.76 917.882 2090.28C917.351 2084.77 917.952 2078.42 919.683 2071.25C920.966 2065.93 922.675 2061.28 924.812 2057.3C926.949 2053.31 929.443 2050.07 932.297 2047.57C935.196 2045.09 938.408 2043.44 941.932 2042.63C945.514 2041.78 949.359 2041.86 953.476 2042.85V2042.84C957.176 2043.74 960.793 2045.32 964.308 2047.59C967.824 2049.86 971.258 2052.35 974.616 2055.07L984.855 2040.56L983.239 2051.46L1011.27 2055.61L998.685 2140.62L1020.57 2143.86L1033.16 2058.85L1061.19 2063L1063.89 2044.78L985.935 2033.25L985.118 2038.78C981.203 2035.66 976.998 2032.89 972.455 2030.54C967.726 2028.03 962.839 2026.16 957.797 2024.94C952.038 2023.55 946.6 2023 941.485 2023.28ZM1095.81 2103.17L1095.06 2121L1133.36 2122.6L1134.11 2104.78L1095.81 2103.17Z"
     fill="#B74848"
     id="path2"
     style="fill:#940101;fill-opacity:1" /></svg>
