<svg width="2331" height="2331" viewBox="0 0 2331 2331" fill="none" xmlns="http://www.w3.org/2000/svg">
<circle cx="1165" cy="1165" r="1120" fill="white"/>
<circle cx="1165" cy="1165" r="1120" fill="white"/>
<path d="M1154.05 0.0927999C1108.98 0.673843 1058.72 4.1075 1017.01 9.69941C909.731 24.0816 820.829 47.7223 720.293 88.5852C667.985 109.846 604.635 142.086 556.614 171.88C499.781 207.143 460.472 235.735 406.814 280.87C384.365 299.752 373.875 309.558 342.197 341.233C300.169 383.255 278.496 407.812 241.859 454.925C181.626 532.381 125.42 629.664 88.5653 720.274C63.7967 781.169 49.3513 825.478 33.146 890.222C9.67376 984.001 -2.73734 1100.04 0.51047 1195.41C4.22274 1304.42 18.4183 1394.02 48.2903 1497.02C63.1264 1548.18 90.2708 1618.78 113.608 1666.93C160.921 1764.56 210.968 1841.32 282.407 1925.84C312.361 1961.27 368.518 2017.45 404.176 2047.66C457.032 2092.43 499.779 2123.62 556.614 2158.86C638.177 2209.42 741.467 2255.53 832.456 2281.99C933.694 2311.43 1026.06 2326.44 1128.52 2330.09C1161.79 2331.27 1163.97 2331.28 1195.53 2330.24C1261.13 2328.09 1311.94 2322.8 1375.48 2311.52C1469.93 2294.76 1580.41 2259.06 1665.98 2217.66C1763.45 2170.49 1840.58 2120.28 1925.35 2048.81C1960.36 2019.3 2017.58 1962.11 2047.7 1926.53C2119.46 1841.8 2168.85 1766.16 2216.65 1667.87C2240.28 1619.28 2266.84 1550.46 2281.84 1498.94C2312.14 1394.88 2326.49 1305.06 2330.23 1195.99C2333.44 1102.47 2321.61 988.715 2299.02 895.91C2273.72 791.987 2240.71 705.62 2189.84 610.199C2153.55 542.117 2105.99 473.094 2048.36 404.882C2018.71 369.795 1961.46 312.53 1926.08 282.568C1842.2 211.517 1766.38 162.027 1668.02 114.119C1619.7 90.5851 1550.39 63.8241 1499 48.8695C1395.08 18.6312 1305.51 4.2874 1196.89 0.486813C1183.53 0.0191534 1169.08 -0.10176 1154.05 0.0927999ZM1175.06 77.2271C1426.23 79.3623 1668.8 167.46 1863.64 330.605C1887.28 350.4 1906.58 368.263 1934.54 396.215C1973.23 434.887 1998.24 463.222 2029.1 503.346C2149.52 659.876 2225.12 847.646 2246.92 1044.28C2265.1 1208.35 2245.77 1376.36 2191.03 1529.79C2147.99 1650.44 2084.97 1761.13 2002.88 1860.27C1949.04 1925.29 1879.76 1990.8 1812.03 2040.71C1634.98 2171.17 1430.27 2243.18 1209.4 2252.69C1115.34 2256.74 1016.39 2247.66 922.729 2226.36C751.831 2187.51 591.629 2106.83 458.029 1992.34C417.201 1957.36 373.426 1913.58 338.449 1872.76C223.842 1739.02 143.251 1579.02 104.371 1408.01C55.7887 1194.32 72.5615 969.82 152.199 767.655C200.004 646.295 266.606 538.338 355.015 438.875C369.842 422.194 422.205 369.823 438.884 354.996C536.424 268.295 642.571 202.317 760.967 154.799C836.926 124.313 919.803 101.736 1000.26 89.6169C1058.66 80.8198 1117.09 76.7343 1175.06 77.2271ZM1184 89.6945C1027.6 87.0352 871.881 118.442 728.965 181.847C585.99 245.278 456.499 341.069 353.575 459.538C147.613 696.599 56.2061 1007.26 100.566 1319.46C128.032 1512.78 209.358 1696.69 334.615 1848.76C443.671 1981.17 583.909 2086.61 740.392 2153.86C863.515 2206.78 992.566 2235.58 1129 2240.58C1163.44 2241.85 1212.34 2240.73 1250.09 2237.85C1467.39 2221.19 1676.68 2137.13 1845.73 1998.61C1979.27 1889.19 2084.76 1749.85 2152.69 1593.19C2246.56 1376.7 2266.42 1133.57 2209.04 903.644C2129.24 583.903 1903.92 316.066 1601.85 181.866C1490.83 132.543 1372.75 102.605 1251.04 92.9258C1228.71 91.1493 1206.35 90.0746 1184 89.6945ZM1145.9 109.229C1359.14 105.309 1567.78 165.568 1746.22 283.751C2015.27 461.949 2188.58 750.939 2217.25 1069.17C2220.44 1104.58 2221.41 1126.93 2221.41 1165.36C2221.41 1203.93 2220.43 1226.42 2217.23 1261.56C2201.3 1436.55 2142.5 1602.95 2044.91 1749.24C2003.86 1810.79 1965.01 1858.06 1911.54 1911.53C1858.11 1964.96 1811.7 2003.11 1749.73 2044.55C1592.68 2149.58 1413.33 2209.34 1222.81 2220.12C1204.25 2221.17 1155.17 2221.99 1139.53 2221.51C1134 2221.34 1120.66 2220.74 1109.86 2220.17C881.954 2208.24 665.237 2122.98 489.213 1975.99C463.257 1954.32 447.447 1939.76 419.214 1911.53C390.98 1883.3 376.417 1867.48 354.743 1841.52C220.057 1680.23 136.52 1483.43 114.873 1276.45C89.1541 1030.52 149.588 785.194 286.183 581.015C327.679 518.988 365.791 472.626 419.214 419.204C447.447 390.971 463.257 376.407 489.213 354.733C650.511 220.045 847.307 136.502 1054.3 114.854C1084.87 111.656 1115.43 109.789 1145.9 109.229ZM1172.26 181.798L1167.55 268.139L1183.91 269.035L1186.1 228.876C1186.25 225.923 1186.37 222.609 1186.42 218.939C1186.47 215.268 1186.47 211.812 1186.47 208.573C1186.47 205.296 1186.53 202.853 1186.53 201.234L1187.06 201.293L1204.16 270.163L1220.94 271.01L1246.88 204.602L1247.42 204.655C1247.25 206.265 1247 208.686 1246.67 211.906C1246.34 215.087 1246.02 218.443 1245.7 221.98C1245.43 225.519 1245.22 228.646 1245.07 231.362L1242.84 272.231L1259.9 273.165L1264.62 186.824L1239.7 185.462L1214.42 250.303H1214.06L1197.23 183.165L1172.26 181.798ZM1140.19 182.489L1123.72 183.54L1126.33 224.38C1126.58 227.011 1126.83 229.641 1127.07 232.273C1127.36 234.902 1127.64 237.538 1127.93 240.166C1128.22 242.795 1128.49 245.438 1128.74 248.109H1128.33L1086.72 185.876L1063.63 187.345L1069.14 273.638L1085.5 272.596L1082.91 231.991C1082.61 229.244 1082.32 226.513 1082.03 223.805C1081.74 221.058 1081.44 218.308 1081.15 215.561C1080.85 212.814 1080.54 210.091 1080.21 207.386L1080.74 207.333L1122.45 270.218L1145.7 268.729L1140.19 182.489ZM1294.84 191.229L1281.44 276.655L1330.64 284.383L1332.98 269.424L1301.9 264.538L1305.35 242.512L1334.28 247.057L1336.6 232.215L1307.69 227.67L1310.63 208.914L1341.71 213.79L1344.04 198.957L1294.84 191.229ZM1035.46 191.346L1017.3 193.915L1029.43 279.536L1047.59 276.967L1035.46 191.346ZM970.479 201.78L948.551 206.441L936.764 297.717L956.084 293.61L957.934 272.169L988.768 265.608L999.182 284.441L1018.5 280.334L970.479 201.78ZM1369.7 203.658L1348.46 287.478L1364.33 291.508L1374.33 252.06C1374.89 249.356 1375.45 246.668 1376 244.001C1376.57 241.297 1377.13 238.588 1377.7 235.884C1378.26 233.179 1378.8 230.491 1379.31 227.815L1379.83 227.943L1400.23 300.6L1422.82 306.323L1444.06 222.503L1428.06 218.444L1418.01 258.125C1417.44 260.705 1416.86 263.283 1416.29 265.863C1415.75 268.453 1415.23 271.04 1414.69 273.63C1414.16 276.22 1413.6 278.827 1413.02 281.445L1412.61 281.349L1392.11 209.345L1369.7 203.658ZM909.327 215.97L846.851 234.959L851.289 249.559L873.753 242.726L894.455 310.866L911.994 305.533L891.292 237.402L913.765 230.569L909.327 215.97ZM962.391 217.225C963.112 218.725 964.011 220.482 965.087 222.511C966.195 224.493 967.278 226.457 968.338 228.409C969.429 230.314 970.311 231.881 970.976 233.11L981.293 251.476L959.247 256.167L961.136 235.202C961.211 234.259 961.354 232.686 961.524 230.472C961.693 228.258 961.864 225.918 962.028 223.465C962.22 220.964 962.338 218.889 962.391 217.225ZM1464.51 228.993L1459.4 243.369L1481.52 251.242L1457.64 318.332L1474.92 324.473L1498.79 257.384L1520.91 265.258L1526.03 250.882L1464.51 228.993ZM815.9 249.549C810.474 249.671 804.125 251.176 796.834 254.075L773.415 263.389L805.359 343.744L822.402 336.97L810.138 306.136L819.209 302.525L850.647 325.739L869.558 318.215L832.009 292.608C834.166 290.349 835.994 287.815 837.508 285.006C839.022 282.198 839.933 279.139 840.233 275.838C840.53 272.536 839.956 269.058 838.5 265.394C836.344 259.972 833.403 255.942 829.682 253.306C825.96 250.668 821.363 249.412 815.9 249.549ZM814.275 266.105C817.554 266.668 819.952 268.863 821.468 272.675C822.924 276.339 822.805 279.604 821.106 282.485C819.43 285.315 815.77 287.853 810.127 290.097L804.638 292.286L796.005 270.572L801.173 268.518C806.669 266.333 811.033 265.526 814.275 266.105ZM750.465 273.726L705.86 295.858L744.285 373.323L788.901 351.19L782.166 337.623L753.979 351.609L744.071 331.637L770.301 318.624L763.625 305.163L737.394 318.176L728.956 301.172L757.142 287.186L750.465 273.726ZM1594.55 281.035L1528.51 345.137L1546.18 353.945L1560.98 338.314L1589.19 352.378L1585.63 373.596L1603.31 382.404L1614.61 291.03L1594.55 281.035ZM1598.67 298.087C1598.31 299.709 1597.91 301.649 1597.49 303.907C1597.12 306.147 1596.74 308.358 1596.36 310.545C1596.03 312.715 1595.74 314.493 1595.49 315.869L1592.13 336.659L1571.97 326.615L1586.5 311.383C1587.15 310.693 1588.23 309.542 1589.74 307.917C1591.25 306.294 1592.84 304.568 1594.5 302.749C1596.21 300.913 1597.6 299.358 1598.67 298.087ZM688.145 305.095L632.054 338.508L639.86 351.619L660.037 339.598L696.476 400.78L712.234 391.397L675.784 330.216L695.961 318.195L688.145 305.095ZM1658.95 314.828L1612.77 387.932L1626.62 396.682L1648.35 362.276C1649.72 359.88 1651.09 357.505 1652.44 355.142C1653.81 352.746 1655.19 350.346 1656.57 347.949C1657.94 345.553 1659.29 343.161 1660.61 340.776L1661.05 341.068L1657.92 416.459L1677.62 428.908L1723.8 355.804L1709.85 346.986L1687.99 381.587L1683.95 388.419C1682.64 390.715 1681.33 393.013 1680.02 395.31C1678.71 397.607 1677.38 399.902 1676.01 402.211L1675.66 401.998L1678.5 327.181L1658.95 314.828ZM1165.08 341.71C1140.63 341.711 1116.27 342.124 1106.51 342.955C1062.5 346.697 1032.8 350.816 997.673 358.032C864.757 385.34 740.178 445.465 636.064 532.563C601.015 561.885 561.675 601.223 532.603 636.025C427.53 761.806 362.866 914.587 345.642 1077.77C342.333 1109.11 341.73 1122.58 341.73 1165.34C341.73 1208.1 342.334 1221.59 345.642 1252.93C362.857 1416.02 427.766 1569.38 532.593 1694.66C561.922 1729.71 601.143 1768.93 636.064 1798.13C740.231 1885.24 864.711 1945.32 997.673 1972.65C1039.27 1981.21 1076.09 1985.84 1126.62 1988.89C1141.66 1989.79 1214.79 1988.56 1231.42 1987.13C1282.69 1982.69 1320.64 1976.44 1368.29 1964.58C1480.67 1936.6 1588.66 1883.08 1680.04 1810.04C1852.7 1672.03 1961.93 1472.55 1985.11 1252.92C1988.42 1221.58 1989.01 1208.11 1989.01 1165.34C1989.01 1122.58 1988.42 1109.11 1985.11 1077.77C1968.14 917.005 1905.08 766.233 1802.55 641.291C1764.32 594.704 1716.56 548.527 1667.66 510.889C1579.82 443.268 1475.4 392.772 1368.29 366.111C1319.14 353.876 1278.99 347.415 1224.25 342.946C1214.09 342.114 1189.53 341.708 1165.08 341.71ZM614 350.12L600.675 359.853L624.822 392.906C626.444 394.993 628.067 397.077 629.689 399.164C631.343 401.227 632.999 403.291 634.653 405.354C636.306 407.418 637.961 409.504 639.607 411.622L639.266 411.867L570.736 381.733L552.059 395.379L603.078 465.193L616.306 455.529L592.295 422.671C590.571 420.511 588.866 418.374 587.165 416.247L581.987 409.774C580.264 407.615 578.543 405.483 576.81 403.38L577.241 403.065L646.208 433.685L665.022 419.942L614 350.12ZM1155.42 362.568C1176.09 362.361 1197.06 362.512 1207.99 363.162C1252.97 365.777 1291.01 370.709 1330.49 379.046C1496.98 414.203 1646.31 499.927 1760.69 626C1873.83 750.707 1945.51 909.293 1963.61 1074.93C1967.46 1110.15 1967.94 1120.3 1967.94 1165.36C1967.94 1210.42 1967.46 1220.57 1963.61 1255.79C1938.08 1489.5 1807.72 1702.87 1610.15 1834.35C1490.19 1914.18 1356.83 1958.54 1209.88 1967.5C1196.13 1968.33 1137.73 1968.53 1125.65 1967.79C1078.85 1964.9 1046.54 1960.87 1006.97 1952.99C863.588 1924.45 728.989 1855.82 621.241 1756.32C478.482 1624.48 387.936 1446.12 367.142 1255.79C363.276 1220.42 362.801 1210.43 362.801 1165.36C362.801 1120.29 363.28 1110.3 367.142 1074.93C383.326 926.805 443.336 781.823 536.758 665.137C633.805 543.926 760.693 454.501 905.979 404.926C969.963 383.093 1031.38 370.492 1104.6 364.183C1114.36 363.341 1134.74 362.775 1155.42 362.568ZM1748.86 373.82L1695.29 441.697L1714.52 456.871C1722.32 463.026 1730.01 467 1737.57 468.804C1745.17 470.576 1752.44 470.058 1759.38 467.246C1766.37 464.428 1772.88 459.201 1778.91 451.556C1784.65 444.282 1788.03 437.045 1789.03 429.852C1790.06 422.627 1788.94 415.697 1785.69 409.062C1782.46 402.396 1777.3 396.256 1770.18 390.638L1748.86 373.82ZM1175.26 377.596C1013.5 375.51 856.419 422.56 721.724 514.257C598.061 598.444 499.279 718.56 440.519 856.195C354.107 1058.6 356.675 1289.94 447.546 1490.5C522.344 1655.59 654.31 1791.97 816.484 1871.75C874.401 1900.24 927.498 1919.17 989.254 1933.35C1035.9 1944.06 1071.84 1948.97 1129.49 1952.48C1141.69 1953.22 1190.63 1953.01 1206.53 1952.16C1293.5 1947.44 1376.81 1929.33 1455.52 1898.05C1685.4 1806.69 1860.26 1611.65 1925.3 1374.03C1982.93 1163.51 1950.41 936.31 1836.28 752.133C1706.3 542.395 1488.28 405.771 1244.82 381.511C1221.57 379.194 1198.37 377.893 1175.26 377.596ZM1753.95 396.974L1761.61 403.019C1765.82 406.34 1768.74 409.9 1770.36 413.695C1772.02 417.515 1772.3 421.619 1771.19 426.017C1770.14 430.409 1767.62 435.116 1763.67 440.13C1757.83 447.528 1751.72 451.739 1745.33 452.773C1738.97 453.832 1732.27 451.592 1725.24 446.048L1719.07 441.171L1753.95 396.974ZM532.077 412.138L494.751 445.103L552.001 509.915L589.327 476.95L579.302 465.601L555.719 486.43L540.954 469.718L562.902 450.33L552.954 439.069L531.006 458.457L518.441 444.227L542.024 423.39L532.077 412.138ZM1851.53 459.917L1788.52 519.142L1799.74 531.075L1829.04 503.531C1831.2 501.505 1833.56 499.188 1836.12 496.562C1838.68 493.935 1841.08 491.436 1843.3 489.077C1845.58 486.721 1847.28 484.966 1848.4 483.802L1848.76 484.19L1813.59 545.819L1825.09 558.053L1889.71 527.92L1890.08 528.308C1888.85 529.357 1887 530.939 1884.53 533.038C1882.1 535.111 1879.55 537.312 1876.88 539.656C1874.24 542.03 1871.94 544.149 1869.95 546.012L1840.12 574.043L1851.83 586.501L1914.84 527.276L1897.75 509.095L1834.7 538.557L1834.46 538.302L1868.62 478.104L1851.53 459.917ZM448.685 489.953L437.803 502.363L468.579 529.343C470.618 531.026 472.653 532.712 474.692 534.394C476.756 536.047 478.817 537.695 480.882 539.348C482.946 541.001 485.014 542.681 487.082 544.389L486.81 544.702L413.355 530.249L398.104 547.632L463.12 604.648L473.923 592.326L443.323 565.502C441.17 563.771 439.033 562.048 436.909 560.343C434.756 558.612 432.61 556.886 430.456 555.156C428.303 553.425 426.153 551.721 424.003 550.046L424.353 549.647L498.333 564.49L513.703 546.97L448.685 489.953ZM831.872 549.539C838.686 549.539 844.584 552.034 849.566 557.013C854.543 561.992 857.032 567.884 857.032 574.698C857.032 581.775 854.543 587.802 849.566 592.782C844.584 597.499 838.686 599.858 831.872 599.858C824.795 599.858 818.768 597.499 813.789 592.782C809.073 587.802 806.712 581.775 806.712 574.698C806.712 567.884 809.073 561.992 813.789 557.013C818.768 552.034 824.795 549.539 831.872 549.539ZM1046.01 549.539H1196.97C1203.78 549.539 1209.67 552.034 1214.65 557.013C1219.63 561.992 1222.12 567.884 1222.12 574.698C1222.12 581.775 1219.63 587.802 1214.65 592.782C1209.67 597.499 1203.78 599.858 1196.97 599.858H1046.01C1038.93 599.858 1032.91 597.499 1027.92 592.782C1023.2 587.802 1020.85 581.775 1020.85 574.698C1020.85 567.884 1023.2 561.992 1027.92 557.013C1032.91 552.034 1038.93 549.539 1046.01 549.539ZM1347.92 549.539H1498.88C1505.7 549.539 1511.59 552.034 1516.57 557.013C1521.55 561.992 1524.03 567.884 1524.03 574.698C1524.03 581.775 1521.55 587.802 1516.57 592.782C1511.59 597.499 1505.7 599.858 1498.88 599.858H1347.92C1340.85 599.858 1334.82 597.499 1329.84 592.782C1325.12 587.802 1322.76 581.775 1322.76 574.698C1322.76 567.884 1325.12 561.992 1329.84 557.013C1334.82 552.034 1340.85 549.539 1347.92 549.539ZM1934.36 551.543L1889.67 584.82C1881.95 590.566 1877.54 597.59 1876.44 605.883C1875.34 614.175 1878.21 622.902 1885.04 632.074C1889.84 638.525 1894.95 643.037 1900.35 645.603C1905.77 648.2 1911.17 649.119 1916.55 648.358C1921.99 647.604 1927.1 645.45 1931.87 641.894L1976.75 608.472L1965.84 593.814L1923.47 625.358C1919.9 628.019 1916.6 629.737 1913.58 630.507C1910.57 631.277 1907.76 631.065 1905.15 629.865C1902.56 628.697 1900.06 626.502 1897.66 623.276C1894.25 618.689 1892.82 614.361 1893.39 610.302C1893.96 606.242 1897.1 602.086 1902.82 597.824L1945.28 566.211L1934.36 551.543ZM381.061 570.435L370.072 585.113L439.283 636.95L450.271 622.273L381.061 570.435ZM337.009 632.434L311.061 674.948L384.876 719.992L410.824 677.478L397.898 669.585L381.508 696.448L362.47 684.836L377.722 659.842L364.894 652.017L349.642 677.011L333.437 667.122L349.827 640.259L337.009 632.434ZM1992.51 632.699L1918.84 677.977L1946.81 723.478L1959.71 715.556L1941.34 685.676L2002.12 648.321L1992.51 632.699ZM787.976 646.608H938.944C945.756 646.608 951.65 649.093 956.629 654.073C961.612 659.052 964.094 664.953 964.094 671.767C964.094 678.843 961.612 684.872 956.629 689.851C951.65 694.568 945.756 696.927 938.944 696.927H787.976C780.898 696.927 774.872 694.568 769.893 689.851C765.174 684.872 762.826 678.843 762.826 671.767C762.826 664.953 765.174 659.052 769.893 654.073C774.872 649.093 780.898 646.608 787.976 646.608ZM1089.89 646.608C1096.71 646.608 1102.61 649.093 1107.59 654.073C1112.57 659.052 1115.05 664.953 1115.05 671.767C1115.05 678.843 1112.57 684.872 1107.59 689.851C1102.61 694.568 1096.71 696.927 1089.89 696.927C1082.82 696.927 1076.79 694.568 1071.81 689.851C1067.09 684.872 1064.73 678.843 1064.73 671.767C1064.73 664.953 1067.09 659.052 1071.81 654.073C1076.79 649.093 1082.82 646.608 1089.89 646.608ZM1240.85 646.608H1391.81C1398.62 646.608 1404.53 649.093 1409.5 654.073C1414.48 659.052 1416.97 664.953 1416.97 671.767C1416.97 678.843 1414.48 684.872 1409.5 689.851C1404.53 694.568 1398.62 696.927 1391.81 696.927H1240.85C1233.78 696.927 1227.75 694.568 1222.77 689.851C1218.05 684.872 1215.69 678.843 1215.69 671.767C1215.69 664.953 1218.05 659.052 1222.77 654.073C1227.75 649.093 1233.78 646.608 1240.85 646.608ZM1542.77 646.608C1549.58 646.608 1555.48 649.093 1560.46 654.073C1565.44 659.052 1567.93 664.953 1567.93 671.767C1567.93 678.843 1565.44 684.872 1560.46 689.851C1555.48 694.568 1549.58 696.927 1542.77 696.927C1535.69 696.927 1529.67 694.568 1524.68 689.851C1519.97 684.872 1517.61 678.843 1517.61 671.767C1517.61 664.953 1519.97 659.052 1524.68 654.073C1529.67 649.093 1535.69 646.608 1542.77 646.608ZM2027.07 689.705L2013.49 696.674L2024.21 717.561L1960.85 750.069L1969.22 766.381L2032.58 733.873L2043.3 754.77L2056.87 747.801L2027.07 689.705ZM304.238 696.256C300.772 698.924 297.584 701.953 294.68 705.346C291.758 708.686 289.326 712.283 287.39 716.121C284.442 721.964 282.803 727.621 282.466 733.104C282.13 738.588 282.965 743.762 284.977 748.619C286.987 753.475 290.018 757.918 294.077 761.953C298.136 765.988 303.085 769.477 308.929 772.426C316.85 776.422 324.414 778.692 331.607 779.229C338.764 779.751 345.286 778.295 351.17 774.859C357.038 771.371 361.97 765.646 365.984 757.69C368.062 753.571 369.62 749.698 370.656 746.069C371.728 742.457 372.425 738.593 372.739 734.467L359.006 727.537C358.443 731.891 357.719 735.829 356.825 739.353C355.949 742.842 354.717 746.148 353.137 749.281C350.863 753.787 348.007 756.96 344.562 758.799C341.081 760.621 337.071 761.251 332.541 760.688C327.994 760.072 322.99 758.39 317.534 755.636C313.485 753.594 310.058 751.332 307.246 748.853C304.433 746.374 302.293 743.752 300.821 740.979C299.367 738.169 298.65 735.265 298.661 732.268C298.661 729.217 299.435 726.125 301.017 722.992C302.437 720.175 304.4 717.564 306.895 715.157C309.39 712.75 312.047 710.45 314.876 708.256L304.238 696.256ZM2064.21 764.931L1985 799.62L1992.36 816.409L2071.57 781.721L2064.21 764.931ZM259.194 776.893L253.228 792.281L291.39 807.065L298.875 809.713L306.389 812.244C308.895 813.087 311.413 813.957 313.942 814.852L313.791 815.24L239.83 826.861L231.47 848.429L312.108 879.663L318.025 864.391L280.076 849.685C277.459 848.798 274.86 847.92 272.28 847.047L264.436 844.39C261.819 843.503 259.213 842.637 256.619 841.802L256.815 841.312L331.4 829.866L339.818 808.132L259.194 776.893ZM1413.03 802.978C1472.53 802.978 1521.05 851.487 1521.05 910.994C1521.05 970.5 1472.53 1019 1413.03 1019C1353.52 1019 1305.01 970.5 1305.01 910.994C1305.01 851.487 1353.52 802.978 1413.03 802.978ZM2083.61 808.379L2001.72 836.157L2006.98 851.672L2045.07 838.756C2047.87 837.807 2050.98 836.667 2054.4 835.339C2057.82 834.013 2061.04 832.74 2064.04 831.514C2067.09 830.315 2069.36 829.413 2070.87 828.818L2071.04 829.323L2013.49 870.834L2018.88 886.728L2090.17 886.095L2090.34 886.6C2088.79 887.046 2086.45 887.705 2083.34 888.595C2080.26 889.471 2077.02 890.429 2073.62 891.456C2070.24 892.522 2067.26 893.493 2064.69 894.367L2025.92 907.506L2031.41 923.702L2113.3 895.924L2105.28 872.282L2035.69 872.974L2035.58 872.633L2091.63 832.018L2083.61 808.379ZM917.717 816.029C926.161 816.03 934.258 819.384 940.229 825.354C946.199 831.325 949.553 839.423 949.553 847.866C949.553 856.309 946.199 864.407 940.229 870.377C934.258 876.348 926.161 879.702 917.717 879.703C913.536 879.704 909.394 878.881 905.531 877.282C901.667 875.682 898.156 873.338 895.199 870.381C892.242 867.425 889.895 863.915 888.295 860.051C886.694 856.188 885.87 852.048 885.87 847.866C885.87 843.684 886.694 839.544 888.295 835.68C889.895 831.817 892.242 828.307 895.199 825.351C898.156 822.394 901.667 820.05 905.531 818.45C909.394 816.851 913.536 816.028 917.717 816.029ZM1121.67 823.961H1209.08C1212.39 823.962 1215.56 825.274 1217.89 827.611C1220.23 829.947 1221.54 833.116 1221.54 836.42V898.322C1221.54 900.124 1221.15 901.905 1220.4 903.542C1219.64 905.179 1218.54 906.632 1217.17 907.803C1215.8 908.973 1214.2 909.832 1212.46 910.321C1210.73 910.81 1208.91 910.917 1207.13 910.634C1193.33 908.44 1179.38 907.315 1165.4 907.315C1151.42 907.39 1137.48 908.571 1123.69 910.829C1121.9 911.12 1120.08 911.021 1118.34 910.538C1116.6 910.055 1114.98 909.198 1113.61 908.029C1112.23 906.86 1111.12 905.405 1110.37 903.766C1109.61 902.127 1109.21 900.342 1109.21 898.536V836.42C1109.21 833.116 1110.53 829.947 1112.86 827.611C1115.2 825.275 1118.37 823.962 1121.67 823.961ZM1413.03 827.894C1366.99 827.894 1329.93 864.953 1329.93 910.994C1329.93 957.035 1366.99 994.084 1413.03 994.084C1459.07 994.084 1496.14 957.035 1496.14 910.994C1496.14 864.953 1459.07 827.894 1413.03 827.894ZM1134.13 848.878V885.027C1144.5 883.853 1154.85 882.457 1165.29 882.399C1165.32 882.399 1165.34 882.399 1165.37 882.399C1175.83 882.399 1186.22 883.753 1196.61 884.88V848.878H1134.13ZM1377.91 852.45C1380.39 852.241 1382.87 852.777 1385.04 853.989L1468.8 900.775C1470.74 901.863 1472.36 903.453 1473.48 905.379C1474.6 907.305 1475.19 909.496 1475.18 911.725C1475.16 913.954 1474.55 916.138 1473.41 918.05C1472.26 919.963 1470.62 921.533 1468.67 922.597L1384.9 968.069C1383.01 969.097 1380.87 969.615 1378.72 969.571C1376.56 969.528 1374.45 968.925 1372.6 967.821C1370.74 966.717 1369.2 965.15 1368.14 963.274C1367.07 961.399 1366.51 959.278 1366.51 957.119V864.861C1366.51 861.739 1367.68 858.732 1369.8 856.434C1371.91 854.136 1374.8 852.714 1377.91 852.45ZM223.698 873.318L210.072 921.223L293.239 944.885L306.876 896.979L292.305 892.842L283.701 923.102L262.25 916.999L270.26 888.842L255.816 884.734L247.797 912.892L229.537 907.695L238.151 877.435L223.698 873.318ZM1391.42 886.097V936.173L1436.89 911.49L1391.42 886.097ZM845.956 887.79C854.399 887.791 862.497 891.145 868.467 897.115C874.437 903.086 877.792 911.183 877.792 919.627C877.792 928.07 874.437 936.168 868.467 942.139C862.497 948.109 854.399 951.463 845.956 951.464C837.512 951.463 829.415 948.109 823.444 942.139C817.474 936.168 814.119 928.07 814.119 919.627C814.119 911.183 817.474 903.086 823.444 897.115C829.415 891.145 837.512 887.791 845.956 887.79ZM989.468 887.79C997.912 887.791 1006.01 891.145 1011.98 897.115C1017.95 903.086 1021.3 911.183 1021.3 919.627C1021.3 928.07 1017.95 936.168 1011.98 942.139C1006.01 948.109 997.912 951.463 989.468 951.464C981.025 951.463 972.927 948.109 966.957 942.139C960.987 936.168 957.632 928.07 957.632 919.627C957.632 911.183 960.987 903.086 966.957 897.115C972.927 891.145 981.025 887.791 989.468 887.79ZM2120.52 925.652L2036.24 945.01L2047.39 993.548L2062.15 990.161L2055.1 959.493L2076.84 954.5L2083.39 983.037L2098.03 979.67L2091.47 951.142L2109.98 946.889L2117.02 977.557L2131.67 974.19L2120.52 925.652ZM1165.22 944.475C1165.27 944.475 1165.33 944.475 1165.39 944.475C1180.91 944.475 1196.38 946.059 1211.59 949.176C1214.4 949.753 1216.93 951.282 1218.74 953.506C1220.55 955.729 1221.54 958.511 1221.54 961.381V1050.76C1221.55 1051.04 1221.55 1051.33 1221.54 1051.62C1221.54 1051.62 1219.87 1077.87 1240.21 1096.8C1267.41 1122.09 1291.04 1122.14 1291.04 1122.14C1293.17 1122.2 1295.26 1122.8 1297.1 1123.89C1298.93 1124.99 1300.46 1126.53 1301.52 1128.38C1302.59 1130.24 1303.16 1132.33 1303.18 1134.47C1303.2 1136.61 1302.67 1138.71 1301.65 1140.59L1183.61 1355.43H1211.38C1213.19 1355.43 1214.97 1355.78 1216.64 1356.47C1218.3 1357.16 1219.82 1358.17 1221.09 1359.45C1222.37 1360.72 1223.38 1362.23 1224.07 1363.9C1224.76 1365.57 1225.12 1367.35 1225.12 1369.15V1402.66C1321.88 1377.38 1394.21 1292.17 1400.13 1188.91H1367.02C1363.39 1188.91 1359.9 1187.46 1357.33 1184.89C1354.75 1182.31 1353.31 1178.82 1353.31 1175.19V1081.1C1353.31 1077.46 1354.75 1073.97 1357.33 1071.4C1359.9 1068.82 1363.39 1067.38 1367.02 1067.37H1459.05C1462.69 1067.37 1466.18 1068.82 1468.75 1071.39C1471.33 1073.97 1472.77 1077.46 1472.77 1081.1V1175.19C1472.77 1178.83 1471.33 1182.32 1468.75 1184.89C1466.18 1187.46 1462.69 1188.91 1459.05 1188.91H1425.01C1420.23 1280.38 1368.13 1359.4 1292.67 1401.88L1408.19 1399.22C1414.69 1370.27 1440.67 1348.47 1471.51 1348.47C1507.2 1348.47 1536.39 1377.67 1536.39 1413.36C1536.39 1449.05 1507.2 1478.25 1471.51 1478.25C1439.5 1478.25 1412.73 1454.76 1407.54 1424.16L1225.12 1428.34V1463.24C1225.12 1465.05 1224.76 1466.83 1224.07 1468.5C1223.38 1470.16 1222.37 1471.68 1221.09 1472.95C1219.82 1474.22 1218.3 1475.24 1216.64 1475.92C1214.97 1476.61 1213.19 1476.97 1211.38 1476.97H1119.36C1115.72 1476.97 1112.23 1475.52 1109.65 1472.95C1107.08 1470.37 1105.63 1466.88 1105.63 1463.24V1428.97L922.558 1433.17C916.061 1462.12 890.083 1483.93 859.245 1483.93C823.554 1483.93 794.355 1454.73 794.355 1419.04C794.355 1383.34 823.554 1354.15 859.245 1354.15C891.255 1354.15 918.026 1377.64 923.21 1408.23L1044.55 1405.46C965.609 1363.93 910.668 1282.99 905.749 1188.91H871.702C868.063 1188.91 864.573 1187.46 861.999 1184.89C859.425 1182.32 857.979 1178.83 857.979 1175.19V1081.1C857.979 1077.46 859.425 1073.97 861.999 1071.39C864.573 1068.82 868.063 1067.37 871.702 1067.37H963.728C967.368 1067.37 970.858 1068.82 973.432 1071.39C976.006 1073.97 977.451 1077.46 977.451 1081.1V1175.19C977.451 1178.83 976.006 1182.32 973.432 1184.89C970.858 1187.46 967.368 1188.91 963.728 1188.91H930.616C936.546 1292.17 1008.86 1377.38 1105.63 1402.66V1369.15C1105.63 1365.51 1107.08 1362.02 1109.65 1359.45C1112.23 1356.88 1115.72 1355.43 1119.36 1355.43H1147.18L1029.14 1140.59C1028.12 1138.71 1027.59 1136.61 1027.61 1134.47C1027.63 1132.33 1028.2 1130.24 1029.27 1128.38C1030.33 1126.53 1031.86 1124.99 1033.69 1123.89C1035.53 1122.8 1037.62 1122.2 1039.75 1122.14C1039.75 1122.14 1063.39 1122.08 1090.59 1096.8C1110.93 1077.87 1109.27 1051.62 1109.27 1051.62C1109.25 1051.33 1109.23 1051.05 1109.22 1050.76V961.887C1109.22 959.044 1110.19 956.288 1111.98 954.075C1113.76 951.862 1116.25 950.325 1119.03 949.721C1134.21 946.421 1149.68 944.666 1165.22 944.475ZM203.881 947.463L199.93 965.372L284.373 984.001L288.325 966.092L203.881 947.463ZM917.717 959.542C926.161 959.542 934.258 962.896 940.229 968.867C946.199 974.837 949.553 982.935 949.553 991.378C949.553 999.822 946.199 1007.92 940.229 1013.89C934.258 1019.86 926.161 1023.21 917.717 1023.21C913.536 1023.22 909.394 1022.39 905.531 1020.79C901.667 1019.19 898.156 1016.85 895.199 1013.89C892.242 1010.94 889.895 1007.43 888.295 1003.56C886.694 999.7 885.87 995.56 885.87 991.378C885.87 987.196 886.694 983.056 888.295 979.192C889.895 975.329 892.242 971.819 895.199 968.863C898.156 965.907 901.667 963.562 905.531 961.962C909.394 960.363 913.536 959.54 917.717 959.542ZM1165.44 969.401C1154.93 969.533 1144.54 971.228 1134.18 972.964V1050.76L1134.12 1049.9C1134.12 1049.9 1136.86 1087.77 1107.56 1115.04C1089.04 1132.27 1071.99 1139.41 1058.95 1143.09L1152.92 1314.11V1204.42C1147.18 1201.98 1142.28 1197.91 1138.84 1192.71C1135.39 1187.52 1133.55 1181.42 1133.54 1175.19C1133.54 1166.74 1136.89 1158.64 1142.86 1152.67C1148.83 1146.7 1156.93 1143.35 1165.37 1143.35C1173.82 1143.35 1181.91 1146.7 1187.89 1152.67C1193.86 1158.64 1197.21 1166.74 1197.21 1175.19C1197.2 1181.42 1195.36 1187.52 1191.91 1192.71C1188.47 1197.91 1183.57 1201.98 1177.83 1204.42V1314.18L1271.84 1143.09C1258.81 1139.41 1241.75 1132.27 1223.24 1115.04C1193.94 1087.77 1196.68 1049.9 1196.68 1049.9L1196.62 1050.76V972.565C1186.3 970.967 1175.94 969.406 1165.48 969.401H1165.44ZM200.105 986.395C197.637 990.006 195.546 993.871 193.837 997.996C192.095 1002.08 190.896 1006.25 190.245 1010.49C189.255 1016.96 189.449 1022.85 190.829 1028.17C192.208 1033.49 194.604 1038.14 198.022 1042.14C201.439 1046.13 205.71 1049.42 210.821 1052C215.931 1054.57 221.714 1056.36 228.184 1057.35C236.954 1058.69 244.841 1058.5 251.845 1056.78C258.811 1055.06 264.563 1051.65 269.092 1046.56C273.589 1041.43 276.512 1034.46 277.862 1025.65C278.56 1021.09 278.839 1016.92 278.698 1013.15C278.604 1009.38 278.052 1005.49 277.072 1001.47L261.869 999.145C262.685 1003.46 263.212 1007.42 263.455 1011.05C263.706 1014.64 263.569 1018.17 263.036 1021.64C262.271 1026.63 260.533 1030.53 257.828 1033.35C255.084 1036.16 251.467 1038 246.986 1038.86C242.472 1039.69 237.201 1039.64 231.16 1038.71C226.677 1038.03 222.709 1036.94 219.266 1035.45C215.824 1033.97 212.979 1032.14 210.721 1029.95C208.468 1027.73 206.881 1025.2 205.962 1022.34C205.009 1019.44 204.798 1016.26 205.329 1012.8C205.807 1009.68 206.856 1006.59 208.481 1003.53C210.107 1000.47 211.923 997.451 213.932 994.488L200.105 986.395ZM2136.62 999.349L2050.98 1011.27L2054.34 1035.53C2055.71 1045.37 2058.51 1053.55 2062.72 1060.09C2066.98 1066.63 2072.58 1071.29 2079.53 1074.06C2086.53 1076.87 2094.86 1077.6 2104.51 1076.26C2113.68 1074.98 2121.12 1072.09 2126.82 1067.6C2132.57 1063.1 2136.56 1057.32 2138.81 1050.28C2141.09 1043.24 2141.61 1035.22 2140.36 1026.24L2136.62 999.349ZM2124.26 1019.58L2125.61 1029.25C2126.35 1034.56 2125.99 1039.15 2124.54 1043.01C2123.09 1046.92 2120.45 1050.08 2116.61 1052.48C2112.8 1054.92 2107.74 1056.58 2101.41 1057.46C2092.08 1058.75 2084.74 1057.57 2079.42 1053.89C2074.09 1050.25 2070.81 1044 2069.58 1035.14L2068.49 1027.34L2124.26 1019.58ZM188.163 1070.22C185.876 1074.52 184.069 1078.68 182.751 1082.69C181.397 1086.67 180.563 1090.9 180.24 1095.38C179.809 1101.36 180.428 1106.62 182.068 1111.17C183.681 1115.68 186.221 1119.23 189.709 1121.86C193.196 1124.48 197.521 1125.98 202.674 1126.36C206.607 1126.64 210.033 1126.2 212.961 1125.08C215.853 1123.9 218.366 1122.32 220.485 1120.34C222.605 1118.36 224.437 1116.25 225.984 1113.98C227.491 1111.72 228.789 1109.61 229.877 1107.68C231.64 1104.6 233.284 1101.85 234.802 1099.43C236.324 1096.97 237.903 1095.07 239.542 1093.73C241.181 1092.39 243.073 1091.79 245.236 1091.95C247.004 1092.08 248.552 1092.6 249.869 1093.52C251.186 1094.45 252.174 1095.86 252.828 1097.77C253.485 1099.64 253.705 1102.06 253.489 1105.05C253.174 1109.38 252.127 1113.69 250.355 1117.99C248.583 1122.29 246.648 1126.42 244.544 1130.38L261.538 1131.61C262.849 1129.33 263.99 1126.92 264.964 1124.38C265.902 1121.8 266.665 1119.1 267.261 1116.3C267.862 1113.46 268.273 1110.55 268.487 1107.56C268.977 1100.8 268.356 1094.98 266.657 1090.11C264.954 1085.2 262.312 1081.37 258.715 1078.62C255.118 1075.87 250.756 1074.32 245.643 1073.95C241.12 1073.63 237.289 1074.19 234.139 1075.66C230.949 1077.13 228.121 1079.37 225.652 1082.35C223.147 1085.29 220.696 1088.89 218.294 1093.14C216.302 1096.64 214.57 1099.56 213.096 1101.9C211.625 1104.21 210.152 1105.92 208.688 1107.04C207.187 1108.12 205.418 1108.58 203.373 1108.43C201.642 1108.32 200.154 1107.79 198.915 1106.87C197.638 1105.95 196.704 1104.66 196.113 1102.99C195.482 1101.33 195.246 1099.35 195.412 1097.07C195.646 1093.8 196.335 1090.63 197.466 1087.55C198.558 1084.46 200.054 1081 201.953 1077.14L188.163 1070.22ZM2147.94 1094.57L2061.66 1100.28L2062.88 1118.58L2149.15 1112.86L2147.94 1094.57ZM885.423 1094.81V1161.46H950.002V1094.81H885.423ZM1380.74 1094.81V1161.46H1445.32V1094.81H1380.74ZM2064.34 1129.44L2064.28 1149.19L2084.85 1155.52L2084.75 1187.04L2064.16 1193.26L2064.1 1213.01L2151.01 1182.6L2151.06 1160.19L2064.34 1129.44ZM2100.22 1160.17L2120.31 1166.44C2121.22 1166.71 2122.74 1167.17 2124.87 1167.81C2127 1168.45 2129.24 1169.1 2131.6 1169.77C2134.01 1170.49 2136.01 1171.05 2137.63 1171.45C2136.01 1171.84 2134.1 1172.34 2131.89 1172.97C2129.72 1173.63 2127.56 1174.28 2125.43 1174.9C2123.34 1175.57 2121.63 1176.1 2120.28 1176.49L2100.17 1182.7L2100.22 1160.17ZM193.428 1177.63L178.411 1178.19L180.249 1227.72L266.658 1224.51L265.997 1206.49L231.834 1207.75L230.743 1178.44L215.794 1178.99L216.875 1208.31L194.596 1209.14L193.428 1177.63ZM1766.83 1222.06C1769.46 1222.31 1770.15 1223.53 1781.43 1248.1C1787.94 1262.28 1793.27 1274.37 1793.27 1274.96C1793.27 1275.55 1792.7 1276.8 1792.01 1277.74C1790.87 1279.3 1789.87 1279.38 1781.37 1278.6C1774.96 1278.01 1771.91 1278.06 1771.72 1278.75C1771.57 1279.3 1770.28 1287.72 1768.86 1297.46C1765.5 1320.7 1763.31 1331.49 1759.22 1344.97C1755.01 1358.87 1745.82 1382.33 1736.82 1402.12C1733.03 1410.45 1730.17 1417.5 1730.46 1417.8C1731.07 1418.41 1765.81 1416.25 1770.05 1415.33C1772.12 1414.89 1775.21 1412.06 1781.19 1405.14L1789.46 1395.57L1785.61 1392.38C1783.04 1390.24 1781.78 1388.42 1781.78 1386.84C1781.78 1383.38 1804.42 1356.96 1807.46 1356.87C1808.97 1356.81 1814.08 1360.55 1823.46 1368.53C1834.76 1378.15 1837.26 1380.72 1837.26 1382.83C1837.31 1386.12 1815.41 1412.02 1812.15 1412.53C1810.87 1412.73 1808.58 1411.77 1806.42 1410.13C1804.45 1408.62 1802.49 1407.52 1802.06 1407.69C1801.64 1407.86 1797.26 1412.45 1792.35 1417.87C1787.44 1423.3 1781.8 1428.57 1779.82 1429.57C1775.82 1431.61 1768.24 1432.63 1740.15 1434.87C1729.63 1435.71 1720.96 1436.47 1720.89 1436.56C1720.81 1436.66 1715.77 1446.63 1709.66 1458.74C1693.81 1490.13 1682.72 1507.16 1661.8 1532.3C1656.61 1538.54 1652.73 1543.98 1653.18 1544.38C1653.62 1544.79 1662.7 1546.51 1673.34 1548.21L1692.66 1551.3L1695.83 1549.09C1704.63 1542.93 1712.86 1536.42 1712.86 1535.61C1712.86 1535.11 1711.78 1533.3 1710.47 1531.57C1706.22 1526.01 1706.66 1525.35 1723.02 1513.23C1734.79 1504.51 1738.44 1502.27 1740.15 1502.7C1741.55 1503.05 1745.91 1508.14 1752.3 1516.89C1764.42 1533.48 1763.84 1532.54 1763.12 1534.81C1762.37 1537.17 1734.5 1557.81 1732.06 1557.81C1731.06 1557.81 1728.78 1556.03 1726.97 1553.86L1723.69 1549.92L1711.67 1558.1C1702.28 1564.49 1698.64 1566.43 1695.01 1566.98C1691.58 1567.5 1683.61 1566.67 1664.53 1563.82L1638.68 1559.97L1635.85 1563.43C1630.34 1570.21 1613.66 1586.82 1605.17 1593.98C1592.33 1604.83 1571.86 1619.82 1552.8 1632.34C1543.47 1638.47 1535.82 1643.71 1535.82 1643.99C1535.76 1644.73 1569.51 1665 1571.78 1665.6C1573.35 1666.01 1596.82 1660.77 1597.8 1659.8C1597.95 1659.65 1597.58 1657.49 1596.96 1655.03C1594.93 1646.96 1595.19 1646.78 1616.58 1641.48C1633.06 1637.4 1635.48 1637 1636.7 1638.24C1638.94 1640.52 1647.13 1674.59 1646.02 1677.02C1645.25 1678.7 1642.01 1679.83 1627.14 1683.6C1606.19 1688.92 1605.59 1688.86 1603.67 1681.35C1602.74 1677.71 1602.05 1676.6 1600.93 1676.93C1593.56 1679.12 1576.43 1682.48 1572.44 1682.48C1566.29 1682.54 1563.46 1681.17 1537.85 1666L1518.38 1654.46L1496.22 1665.49C1470.08 1678.5 1452.95 1685.47 1424.27 1694.77C1412.69 1698.52 1402.64 1701.77 1401.92 1701.98C1400.63 1702.36 1416.28 1719.58 1430.66 1733.58L1437.67 1740.41L1453.23 1741.03L1468.78 1741.65V1735.55C1468.78 1726.07 1468.2 1726.27 1493.95 1726.27C1514.39 1726.27 1515.67 1726.37 1516.61 1728.12C1517.2 1729.24 1517.6 1738.49 1517.6 1751.46C1517.6 1769.75 1517.38 1773.13 1516.11 1774.18C1514.26 1775.71 1471.89 1775.53 1470.02 1773.98C1469.38 1773.45 1468.74 1770.15 1468.58 1766.65L1468.3 1760.26L1452.42 1759.67C1435.65 1759.04 1431.15 1758.14 1425.71 1754.33C1423.87 1753.04 1412.61 1742.03 1400.7 1729.86L1379.05 1707.72L1367.68 1709.8C1342.13 1714.46 1307.92 1717.67 1283.88 1717.67H1269.51L1273.53 1725.09C1283.3 1743.11 1292.91 1760.39 1294.01 1761.9C1294.71 1762.86 1300.71 1765.14 1308.53 1767.42C1315.86 1769.56 1322.52 1771.52 1323.35 1771.78C1324.47 1772.13 1325.28 1770.87 1326.57 1766.73C1328.63 1760.14 1329.57 1758.83 1332.26 1758.83C1333.38 1758.83 1343.1 1761.35 1353.86 1764.42C1368.04 1768.47 1373.76 1770.51 1374.66 1771.86C1375.73 1773.47 1375.08 1776.62 1370.13 1794.28C1366.63 1806.77 1363.76 1815.29 1362.79 1816.02H1362.74C1360.51 1817.71 1360.03 1817.61 1341.9 1812.34C1332.95 1809.74 1324.12 1807.2 1322.28 1806.7C1317.24 1805.31 1316.37 1803.22 1318.09 1796.64C1318.88 1793.63 1319.28 1790.93 1318.99 1790.64C1318.7 1790.35 1312.31 1788.2 1304.81 1785.89C1286.85 1780.35 1283.64 1778.72 1279.38 1773.03C1277.44 1770.45 1269.39 1756.83 1261.48 1742.76L1247.1 1717.19L1237.54 1716.91C1226.65 1716.59 1217.16 1718.22 1205.25 1722.43L1197.4 1725.21L1189.72 1717.85C1185.5 1713.81 1181.93 1710.24 1181.78 1709.93C1181.37 1709.07 1195.68 1702.72 1203.07 1700.48C1217.59 1696.09 1225.6 1695.47 1260.54 1696.08C1278.44 1696.39 1297.33 1696.32 1302.52 1695.91L1311.98 1695.17L1320.32 1669.18C1324.92 1654.89 1329.81 1641.26 1331.19 1638.9C1334.61 1633.07 1337.53 1630.8 1351.37 1623.19L1363.22 1616.69L1363.78 1611.96C1365.4 1598.31 1380.43 1588.89 1393.61 1593.24C1400.95 1595.66 1407.48 1603.73 1408.87 1612.1C1410.37 1621.08 1403.94 1632.33 1395.19 1636.04C1389.69 1638.38 1381.96 1638.01 1376.22 1635.13L1371.31 1632.67L1359.49 1639.31C1352.98 1642.97 1347.15 1646.49 1346.54 1647.12C1345.62 1648.08 1339.7 1666.81 1333.38 1688.77L1331.92 1693.84L1336.43 1693.24C1352.56 1691.08 1372.52 1687.47 1384.07 1684.63C1395.83 1681.74 1433.3 1670.2 1433.3 1669.47C1433.3 1669.32 1435 1657.23 1437.07 1642.59C1441.88 1608.63 1441.69 1609.1 1457.3 1596.32L1468.67 1587.01L1468.73 1581.96C1468.84 1563.09 1489.58 1552.57 1504.38 1563.88C1510.48 1568.54 1512.9 1574.03 1512.56 1582.41C1512.32 1588.26 1511.86 1589.89 1509.39 1593.39C1503.93 1601.16 1495.9 1604.69 1487.43 1603.05C1484.8 1602.54 1482 1601.84 1481.21 1601.49C1479.53 1600.76 1458.7 1617.04 1457.84 1619.76C1457.06 1622.22 1452.44 1661.46 1452.88 1661.89C1453.5 1662.52 1479.09 1650.9 1492.22 1644.03C1499.06 1640.46 1509.82 1634.41 1516.14 1630.6C1528.25 1623.3 1558.25 1603.47 1562.94 1599.66L1565.7 1597.41L1561.74 1574.97C1557.68 1552 1557 1543.72 1558.79 1538.98C1559.35 1537.49 1562.8 1531.49 1566.47 1525.64L1573.14 1515.01L1571.71 1509.52C1569.75 1502 1571.09 1495.81 1575.83 1490.56C1582.77 1482.86 1591.76 1481.15 1600.91 1485.79C1608.18 1489.47 1611.87 1495.53 1611.81 1503.67C1611.72 1515.78 1603.43 1524.32 1591.77 1524.32H1587.42L1580.74 1534.46C1573.84 1544.92 1573.72 1545.18 1574.02 1549.2C1574.25 1552.36 1580.77 1584.95 1581.26 1585.44C1581.75 1585.93 1596.52 1573.59 1604.56 1565.99C1611.97 1558.97 1646.76 1517.79 1658.98 1501.57L1667.82 1489.85L1655.4 1464.9C1640.68 1435.36 1640.77 1435.85 1646.27 1416.21L1649.57 1404.41L1647.34 1401.43C1642.1 1394.42 1641.6 1383.87 1646.16 1376.97C1656.08 1361.98 1678.79 1365.33 1683.79 1382.53C1686.11 1390.52 1684.41 1397.05 1678.5 1402.75C1676.05 1405.13 1672.15 1407.71 1669.82 1408.5L1665.6 1409.94L1662.44 1420.95C1660.69 1427 1659.25 1432.96 1659.25 1434.19C1659.25 1436.35 1676.7 1470.15 1678.36 1471.18C1679.54 1471.9 1684.17 1463.19 1699.4 1431.54C1722.84 1382.87 1736.06 1350.87 1741.54 1329.59C1743.91 1320.35 1750.17 1282.61 1750.17 1277.49C1750.17 1275.86 1749.14 1275.56 1741.34 1274.83C1732.96 1274.06 1732.46 1273.88 1731.62 1271.48C1730.81 1269.17 1732.22 1266.83 1747.38 1245.38C1763.05 1223.22 1764.21 1221.83 1766.81 1222.07L1766.83 1222.06ZM564.059 1224.23C566.87 1224.23 568.019 1225.6 583.36 1247.2C592.331 1259.84 599.68 1270.9 599.682 1271.79C599.682 1274.89 597.107 1276.09 589.093 1276.71C584.76 1277.05 580.985 1277.55 580.703 1277.83C580.065 1278.47 584.832 1311.52 587.311 1323.65C591.952 1346.37 605.595 1380.29 631.782 1434.22C638.328 1447.7 645.486 1462.17 647.685 1466.35C651.668 1473.92 651.691 1473.95 653.204 1471.7C657.882 1464.76 671.468 1437.76 671.415 1435.5C671.32 1431.26 665.222 1412.01 663.745 1411.28C662.995 1410.91 660.517 1409.83 658.235 1408.88C652.958 1406.7 648.055 1401 646.644 1395.4C643.262 1381.97 653.155 1369.2 666.899 1369.26C683.848 1369.34 693.268 1387.04 684.155 1401.7L681.196 1406.46L684.534 1418.25C687.305 1428.02 687.808 1431.17 687.473 1436.72C687.097 1443.06 686.422 1444.73 674.976 1467.57L662.869 1491.72L671.385 1502.98C676.068 1509.18 682.633 1517.51 685.974 1521.48C689.315 1525.44 698.545 1536.43 706.482 1545.89C714.419 1555.34 724.541 1566.32 728.975 1570.29C741.234 1581.26 749.04 1587.77 749.434 1587.37C749.746 1587.05 755.655 1558.16 756.938 1550.68C757.332 1548.4 756.145 1545.87 750.582 1537.16L743.75 1526.44L737.647 1525.96C726.348 1525.05 718.882 1516.97 718.882 1505.64C718.882 1494.23 726.598 1485.96 737.93 1485.24C743.264 1484.9 744.688 1485.19 749.054 1487.58C757.925 1492.41 761.643 1501.29 759.011 1511.39L757.58 1516.91L763.809 1526.69C767.235 1532.06 770.692 1538.01 771.489 1539.92C773.745 1545.32 773.247 1552.72 769.045 1576.33C766.904 1588.37 765.365 1598.76 765.62 1599.43C766.284 1601.16 808.506 1629.12 822.703 1637.23C840.356 1647.31 876.861 1664.78 877.967 1663.68C878.323 1663.32 873.519 1623.71 872.877 1621.68C872.022 1618.98 851.404 1602.6 849.692 1603.25C837.512 1607.93 825.996 1603.98 820.484 1593.23C818.174 1588.68 817.827 1587.09 818.119 1581.54C818.396 1576.27 818.976 1574.39 821.34 1571.03C822.922 1568.78 825.662 1565.95 827.433 1564.76C842.079 1554.89 861.813 1565.6 862.005 1583.53L862.062 1588.92L873.381 1598.16C888.921 1610.86 888.802 1610.58 893.587 1644.1C895.641 1658.5 897.343 1670.56 897.343 1670.92C897.4 1671.84 928.099 1681.65 943.312 1685.59C954.614 1688.51 982.679 1693.65 994.829 1695.02C998.153 1695.39 998.865 1695.21 998.44 1694.1C998.148 1693.34 996.575 1688.11 994.945 1682.46C988.452 1659.96 985.165 1650.1 983.655 1648.6C982.783 1647.74 976.976 1644.22 970.749 1640.78L959.43 1634.54L954.485 1636.84C943.511 1641.95 931.31 1638.54 925.404 1628.71C921.466 1622.15 920.663 1616.93 922.59 1610.3C928.086 1591.4 954.029 1588.28 964.014 1605.32C965.346 1607.59 966.729 1611.44 967.08 1613.87L967.723 1618.29L980.074 1625.37C986.867 1629.26 993.281 1633.2 994.332 1634.13C998.896 1638.16 1002.11 1645.56 1010.32 1670.85L1018.91 1697.3L1037.34 1697.99C1048.89 1698.42 1063.11 1698.24 1075.4 1697.51C1103.06 1695.87 1115.8 1697.19 1133.79 1703.52C1150.42 1709.38 1164.04 1718.27 1176.81 1731.63C1189.8 1745.22 1198.94 1759.83 1204.3 1775.57C1207.87 1786.05 1212.27 1807.1 1212.27 1813.69C1212.27 1826.4 1207.33 1837.66 1197.48 1847.36C1190.81 1853.92 1184.44 1857.66 1176.35 1859.77C1160.13 1863.99 1142.7 1858.85 1131.06 1846.4C1120.53 1835.14 1117.04 1823.44 1118.5 1804.29C1119.78 1787.48 1125.03 1772.2 1134.71 1757.1L1138.56 1751.09L1144.07 1754.93C1147.1 1757.04 1150.81 1759.81 1152.33 1761.08L1155.08 1763.39L1152.67 1768.52C1140.86 1793.63 1139.13 1817.05 1148.28 1828.09C1156.32 1837.8 1172.24 1839.11 1181.01 1830.79C1186.71 1825.38 1187.87 1821.7 1187.81 1809.07C1187.76 1795.29 1185.54 1785.8 1179.28 1772.53C1172.44 1758.04 1165.05 1748.32 1153.12 1738.14C1137 1724.4 1110.65 1716.1 1090.24 1718.36L1083.55 1719.1L1078.67 1727.71C1075.99 1732.45 1069.11 1744.65 1063.37 1754.84C1057.63 1765.02 1051.5 1774.82 1049.75 1776.62C1045.39 1781.11 1041.63 1782.85 1026.1 1787.56C1018.73 1789.79 1012.35 1791.93 1011.92 1792.32C1011.49 1792.7 1011.79 1795.5 1012.57 1798.53C1013.66 1802.68 1013.74 1804.45 1012.94 1805.75C1011.37 1808.27 971.067 1819.7 968.532 1818.34C967.159 1817.61 965.219 1812.16 960.786 1796.57C955.413 1777.68 955.006 1775.59 956.279 1773.76C958.216 1770.96 997.346 1759.6 1000.35 1760.96C1001.7 1761.57 1002.94 1763.83 1004.17 1767.89L1006.01 1773.91L1020.24 1769.8C1028.37 1767.46 1035.21 1764.94 1036.17 1763.94C1037.7 1762.32 1044.95 1749.58 1056.63 1727.95L1061.14 1719.57H1051.15C1026.45 1719.57 993.525 1716.7 966.859 1712.22L951.647 1709.67L929.047 1732.77C901.007 1761.41 902.908 1760.34 879.175 1761.41L862.424 1762.16L861.946 1768.39C861.686 1771.82 861.125 1775.15 860.699 1775.81C859.612 1777.49 815.958 1777.53 814.282 1775.87C813.457 1775.04 813.133 1768.54 813.133 1752.61C813.133 1736.69 813.452 1730.18 814.282 1729.35C815.913 1727.72 859.166 1727.72 860.797 1729.35C861.446 1730 861.946 1733.11 861.946 1736.53V1742.56H877.664H893.383L911.126 1724.14C920.883 1714 928.913 1705.28 928.977 1704.77C929.033 1704.25 921.413 1701.41 912.031 1698.46C880.491 1688.53 856.142 1678.63 829.33 1664.83L812.511 1656.18L793.435 1667.44C768.888 1681.94 764.181 1684.16 758.095 1684.16C755.463 1684.16 747.738 1682.86 740.926 1681.29C734.115 1679.72 728.453 1678.43 728.341 1678.43C728.228 1678.43 727.612 1680.6 726.979 1683.24C725.169 1690.78 724.746 1690.82 703.833 1685.54C689.881 1682.01 685.489 1680.53 684.728 1679.11C683.977 1677.71 684.822 1672.98 688.232 1659.27C693.953 1636.32 691.949 1637.51 714.997 1643.39C724.333 1645.77 732.619 1648.26 733.412 1648.92C734.815 1650.08 734.719 1654.3 733.167 1659.79C732.668 1661.57 733.704 1661.99 745.548 1664.9L758.473 1668.07L764.06 1664.87C777.087 1657.43 794.891 1646.32 794.689 1645.77C794.576 1645.44 785.85 1639.39 775.321 1632.33C736.495 1606.33 711.651 1585.64 695.365 1565.75L692.055 1561.7L670.04 1565.13C657.931 1567.01 644.575 1568.63 640.364 1568.7C631.866 1568.85 630.617 1568.27 614.221 1556.69L607.213 1551.75L603.456 1555.85C600.9 1558.65 599.134 1559.83 597.937 1559.51C594.378 1558.58 568.096 1538.52 567.542 1536.31C567.11 1534.6 569.291 1531.02 577.683 1519.66C584.68 1510.18 589.14 1504.99 590.599 1504.62C592.36 1504.18 595.506 1506.01 605.588 1513.37C624.729 1527.34 624.782 1527.41 620.265 1533.33C618.949 1535.06 617.87 1536.94 617.87 1537.52C617.87 1538.09 621.421 1541.1 625.764 1544.21C639.496 1554.06 635.997 1553.39 656.676 1550.15C666.658 1548.58 675.799 1547.08 676.989 1546.8C678.979 1546.34 678.484 1545.52 670.877 1536.51C649.216 1510.86 636.648 1491.69 621.17 1460.74C615.133 1448.67 610.041 1438.64 609.861 1438.46C609.672 1438.28 598.806 1437.28 585.703 1436.23C559.201 1434.13 553.889 1433.28 549.283 1430.43C547.544 1429.36 542.177 1424 537.35 1418.52L528.57 1408.57L524.989 1411.41C518.833 1416.28 518.011 1415.84 505.046 1400.67C496.736 1390.95 493.435 1386.4 493.435 1384.64C493.435 1381.21 519.056 1359.22 523.052 1359.22C525.256 1359.22 527.592 1361.44 537.32 1372.77C550.647 1388.29 551.086 1389.48 545.156 1394.25L541.35 1397.3L545.389 1402.14C547.612 1404.8 551.585 1409.3 554.217 1412.13L559.006 1417.27L579.387 1418.75C590.596 1419.57 600.018 1419.97 600.332 1419.66C600.646 1419.35 597.98 1412.72 594.405 1404.94C586.245 1387.18 576.917 1364.01 572.923 1351.55C568.219 1336.87 565.609 1324.73 562.315 1302.26C560.656 1290.94 559.134 1281.13 558.937 1280.47C558.692 1279.64 557.427 1279.42 554.957 1279.79C552.969 1280.08 548.572 1280.41 545.175 1280.53C535.103 1280.86 535.114 1280.7 549.185 1250.09C561.031 1224.33 561.079 1224.23 564.059 1224.23ZM233.84 1247.4C230.776 1247.4 227.596 1247.58 224.291 1248C215.374 1249.14 207.798 1251.61 201.565 1255.39C195.326 1259.13 190.775 1264.25 187.91 1270.74C185.04 1277.19 184.204 1285.07 185.399 1294.38C186.597 1303.72 189.403 1311.19 193.818 1316.78C198.233 1322.38 203.932 1326.22 210.919 1328.31C217.86 1330.36 225.769 1330.82 234.647 1329.68C241.296 1328.83 247.233 1327.23 252.459 1324.89C257.684 1322.55 262.036 1319.46 265.52 1315.63C269 1311.77 271.473 1307.14 272.927 1301.75C274.343 1296.36 274.603 1290.17 273.705 1283.16C272.806 1276.16 270.984 1270.23 268.254 1265.37C265.485 1260.52 261.934 1256.69 257.597 1253.87C253.254 1251.01 248.284 1249.1 242.676 1248.15C239.853 1247.67 236.904 1247.42 233.84 1247.4ZM2091.25 1256.37C2087.31 1256.56 2083.6 1257.13 2080.12 1258.07C2073.19 1259.97 2067.54 1263.53 2063.14 1268.73C2058.77 1273.98 2056.03 1281.01 2054.9 1289.85C2054.31 1294.43 2054.14 1298.6 2054.37 1302.37C2054.57 1306.13 2055.2 1310.01 2056.28 1314L2071.54 1315.95C2070.62 1311.66 2069.99 1307.7 2069.65 1304.08C2069.32 1300.5 2069.37 1296.97 2069.82 1293.49C2070.46 1288.48 2072.09 1284.54 2074.73 1281.66C2077.4 1278.78 2080.97 1276.85 2085.42 1275.86C2089.92 1274.93 2095.2 1274.85 2101.26 1275.62C2105.76 1276.19 2109.74 1277.18 2113.22 1278.58C2116.7 1279.98 2119.6 1281.74 2121.91 1283.86C2124.22 1286.03 2125.87 1288.52 2126.86 1291.35C2127.88 1294.22 2128.17 1297.41 2127.72 1300.89C2127.32 1304.01 2126.35 1307.13 2124.8 1310.23C2123.26 1313.33 2121.51 1316.39 2119.58 1319.4L2133.61 1327.16C2135.99 1323.48 2137.98 1319.56 2139.59 1315.39C2141.23 1311.27 2142.31 1307.08 2142.86 1302.81C2143.69 1296.32 2143.35 1290.43 2141.84 1285.15C2140.32 1279.87 2137.81 1275.27 2134.29 1271.37C2130.78 1267.46 2126.43 1264.29 2121.26 1261.84C2116.09 1259.39 2110.25 1257.75 2103.76 1256.92C2099.36 1256.36 2095.19 1256.18 2091.25 1256.37ZM226.734 1267.07C232.718 1266.3 237.979 1266.38 242.511 1267.31C246.999 1268.21 250.615 1270.11 253.373 1273.01C256.092 1275.93 257.782 1279.96 258.444 1285.12C259.096 1290.21 258.5 1294.5 256.585 1298C254.649 1301.51 251.63 1304.3 247.524 1306.38C243.373 1308.42 238.305 1309.83 232.321 1310.59C226.298 1311.37 221.036 1311.29 216.543 1310.36C212.007 1309.39 208.381 1307.45 205.662 1304.54C202.899 1301.59 201.19 1297.56 200.533 1292.43C199.545 1284.73 201.418 1278.86 206.149 1274.83C210.88 1270.81 217.739 1268.22 226.734 1267.07ZM2075.01 1336.06C2069.29 1336.46 2064.15 1337.86 2059.56 1340.26C2054.96 1342.69 2051.05 1346.19 2047.83 1350.75C2044.65 1355.32 2042.28 1361.06 2040.72 1367.94C2039.15 1374.82 2038.81 1381.01 2039.71 1386.51C2040.64 1392.02 2042.66 1396.84 2045.76 1400.98C2048.85 1405.16 2052.87 1408.66 2057.81 1411.48C2062.79 1414.31 2068.53 1416.47 2075.03 1417.95C2083.79 1419.94 2091.75 1420.23 2098.9 1418.82C2106.05 1417.45 2112.08 1414.22 2117 1409.11C2121.92 1404.04 2125.41 1396.93 2127.49 1387.78C2129.57 1378.59 2129.51 1370.6 2127.29 1363.83C2125.07 1357.06 2121.04 1351.5 2115.19 1347.14C2109.38 1342.83 2102.11 1339.67 2093.38 1337.69C2086.84 1336.21 2080.72 1335.66 2075.01 1336.06ZM2073.28 1355.14C2077.88 1354.65 2083.13 1355.07 2089.01 1356.41C2094.93 1357.75 2099.84 1359.64 2103.74 1362.06C2107.66 1364.53 2110.4 1367.6 2111.95 1371.27C2113.53 1374.98 2113.76 1379.36 2112.61 1384.4C2110.89 1391.97 2107.11 1396.83 2101.28 1398.99C2095.46 1401.14 2088.12 1401.21 2079.28 1399.2C2073.39 1397.86 2068.49 1395.99 2064.55 1393.56C2060.65 1391.17 2057.9 1388.13 2056.31 1384.46C2054.76 1380.79 2054.56 1376.42 2055.71 1371.35C2056.85 1366.35 2058.91 1362.53 2061.9 1359.89C2064.92 1357.26 2068.71 1355.68 2073.28 1355.14ZM285.287 1362L255.436 1396.28C253.447 1393.87 251.147 1391.76 248.536 1389.93C245.925 1388.09 243 1386.83 239.756 1386.14C236.513 1385.45 232.987 1385.62 229.176 1386.63C223.538 1388.14 219.191 1390.59 216.135 1393.97C213.079 1397.36 211.299 1401.77 210.791 1407.21C210.27 1412.61 211.019 1419.1 213.04 1426.68L219.532 1451.04L303.089 1428.75L298.359 1411.03L266.298 1419.59L263.788 1410.16L290.533 1381.66L285.287 1362ZM1471.5 1373.39C1449.28 1373.39 1431.53 1391.14 1431.53 1413.36C1431.53 1435.59 1449.28 1453.34 1471.5 1453.34C1493.73 1453.34 1511.47 1435.59 1511.47 1413.36C1511.47 1391.14 1493.73 1373.39 1471.5 1373.39ZM859.241 1379.06C837.016 1379.06 819.267 1396.81 819.267 1419.04C819.267 1441.26 837.016 1459.01 859.241 1459.01C881.465 1459.01 899.214 1441.26 899.214 1419.04C899.214 1396.81 881.465 1379.06 859.241 1379.06ZM1133.09 1382.88V1449.52H1197.66V1382.88H1133.09ZM239.689 1404.02C241.307 1404.27 242.776 1404.9 244.107 1405.92C246.721 1407.91 248.811 1411.85 250.376 1417.71L251.903 1423.43L229.322 1429.45L227.891 1424.08C226.367 1418.36 226.09 1413.93 227.043 1410.77C227.988 1407.58 230.439 1405.46 234.401 1404.41C236.306 1403.9 238.071 1403.76 239.689 1404.02ZM2028.01 1425.72L2022.54 1441.17L2060.45 1454.6C2063.24 1455.59 2066.39 1456.62 2069.9 1457.7C2073.4 1458.77 2076.72 1459.75 2079.83 1460.65C2082.97 1461.59 2085.32 1462.3 2086.87 1462.77L2086.68 1463.26L2015.79 1460.23L2010.18 1476.06L2066.56 1519.7L2066.39 1520.2C2064.9 1519.59 2062.64 1518.66 2059.65 1517.44C2056.69 1516.22 2053.56 1514.97 2050.26 1513.67C2046.94 1512.41 2043.99 1511.33 2041.43 1510.42L2002.86 1496.74L1997.14 1512.86L2078.65 1541.74L2086.99 1518.21L2031.91 1475.66L2032.02 1475.33L2101.18 1478.13L2109.52 1454.6L2028.01 1425.72ZM285.336 1457.2C279.623 1457.57 273.647 1458.93 267.407 1461.27C258.989 1464.42 252.18 1468.56 246.978 1473.67C241.762 1478.74 238.499 1484.76 237.196 1491.73C235.88 1498.67 236.872 1506.53 240.165 1515.32C243.473 1524.14 247.92 1530.77 253.499 1535.21C259.078 1539.65 265.503 1542.08 272.781 1542.51C280.007 1542.92 287.816 1541.55 296.198 1538.4C302.474 1536.05 307.881 1533.14 312.432 1529.66C316.983 1526.19 320.516 1522.19 323.032 1517.67C325.534 1513.11 326.881 1508.03 327.061 1502.45C327.212 1496.88 326.035 1490.79 323.557 1484.18C321.08 1477.57 317.955 1472.21 314.185 1468.11C310.378 1464.02 306.04 1461.11 301.172 1459.35C296.289 1457.56 291.013 1456.84 285.336 1457.2ZM289.56 1475.9C294.134 1475.75 298.093 1476.76 301.444 1478.95C304.757 1481.16 307.336 1484.71 309.162 1489.58C310.961 1494.38 311.335 1498.7 310.293 1502.55C309.211 1506.4 306.914 1509.81 303.392 1512.78C299.82 1515.71 295.21 1518.25 289.561 1520.37C283.875 1522.5 278.731 1523.62 274.144 1523.73C269.506 1523.83 265.534 1522.78 262.221 1520.57C258.857 1518.34 256.267 1514.8 254.454 1509.96C251.727 1502.69 252.211 1496.55 255.895 1491.55C259.578 1486.55 265.662 1482.45 274.154 1479.26C279.803 1477.15 284.936 1476.03 289.56 1475.9ZM1987.85 1532.63L1979.93 1549.17L2007.67 1562.44L2004.28 1569.54C2001.55 1575.23 1999.96 1580.35 1999.49 1584.89C1999.06 1589.44 1999.49 1593.46 2000.81 1596.93C2002.11 1600.43 2004.06 1603.44 2006.66 1605.95C2009.3 1608.48 2012.32 1610.56 2015.73 1612.2C2023.31 1615.82 2030.35 1616.35 2036.87 1613.78C2043.42 1611.24 2049.11 1604.94 2053.92 1594.87L2065.85 1569.96L1987.85 1532.63ZM341.787 1533.26L328.151 1539.85L343.413 1571.44L279.195 1602.47L287.175 1618.98L365.03 1581.35L341.787 1533.26ZM2021.22 1568.93L2044.38 1580.01L2040.78 1587.53C2038.64 1592.02 2036.11 1594.87 2033.2 1596.1C2030.33 1597.35 2026.98 1597.05 2023.14 1595.21C2020.4 1593.9 2018.46 1592.21 2017.31 1590.13C2016.16 1588.05 2015.72 1585.69 2015.99 1583.02C2016.26 1580.35 2017.14 1577.46 2018.62 1574.37L2021.22 1568.93ZM373.381 1597.36L360.29 1604.97L376.087 1632.18L356.806 1643.37L342.108 1618.06L329.115 1625.6L343.811 1650.92L327.392 1660.44L311.596 1633.24L298.602 1640.78L323.606 1683.85L398.394 1640.43L373.381 1597.36ZM1962.67 1611.14C1960.64 1611.23 1958.62 1611.55 1956.59 1612.08C1948.51 1614.23 1941.52 1620.2 1935.65 1630.01C1931.52 1636.91 1929.29 1643.35 1928.98 1649.32C1928.65 1655.32 1929.86 1660.68 1932.62 1665.36C1935.39 1670.1 1939.33 1673.99 1944.44 1677.05L1992.45 1705.79L2001.83 1690.11L1956.52 1662.98C1952.69 1660.7 1949.85 1658.3 1947.99 1655.81C1946.13 1653.32 1945.25 1650.63 1945.36 1647.75C1945.46 1644.91 1946.54 1641.77 1948.6 1638.32C1951.54 1633.42 1954.99 1630.45 1958.96 1629.42C1962.93 1628.4 1967.97 1629.72 1974.09 1633.39L2019.52 1660.58L2028.9 1644.9L1981.1 1616.28C1974.91 1612.57 1968.76 1610.86 1962.67 1611.14ZM409.733 1659.12L339.12 1709.03L349.671 1723.95L377.342 1704.4L397.11 1732.36L369.428 1751.92L380.018 1766.89L450.631 1716.98L440.041 1702.01L409.568 1723.55L389.8 1695.59L420.284 1674.05L409.733 1659.12ZM1897.29 1690.92L1886.5 1705.74L1944.07 1747.65L1930.24 1766.64L1942.58 1775.62L1981.01 1722.83L1968.67 1713.85L1954.85 1732.83L1897.29 1690.92ZM459.663 1733.52L448.003 1743.53C451.807 1745.72 455.166 1747.91 458.077 1750.09C460.962 1752.23 463.547 1754.64 465.834 1757.31C469.122 1761.14 470.947 1764.99 471.323 1768.88C471.668 1772.79 470.721 1776.73 468.462 1780.7C466.148 1784.66 462.674 1788.64 458.038 1792.62C454.598 1795.57 451.187 1797.87 447.818 1799.52C444.45 1801.16 441.202 1802.13 438.076 1802.43C434.924 1802.69 431.973 1802.24 429.209 1801.09C426.389 1799.92 423.836 1798.01 421.549 1795.34C419.494 1792.95 417.831 1790.14 416.566 1786.91C415.3 1783.69 414.197 1780.34 413.257 1776.89L398.102 1782.12C399.236 1786.34 400.804 1790.44 402.823 1794.43C404.786 1798.41 407.166 1802.03 409.967 1805.29C414.231 1810.26 418.834 1813.94 423.768 1816.36C428.702 1818.78 433.803 1819.99 439.059 1819.99C444.315 1819.99 449.581 1818.91 454.864 1816.71C460.149 1814.51 465.277 1811.27 470.243 1807C476.973 1801.22 481.966 1795.11 485.222 1788.68C488.449 1782.27 489.601 1775.69 488.687 1768.94C487.717 1762.18 484.332 1755.42 478.525 1748.66C475.519 1745.16 472.534 1742.24 469.581 1739.9C466.658 1737.52 463.352 1735.39 459.663 1733.52ZM1863.94 1734.8L1852.26 1748.94L1918.92 1804.02L1930.6 1789.88L1863.94 1734.8ZM1838.58 1765.93L1827.2 1777.72L1856.49 1805.97C1858.56 1807.8 1860.61 1809.63 1862.65 1811.43C1864.72 1813.26 1866.78 1815.09 1868.85 1816.92C1870.92 1818.75 1872.98 1820.56 1875.05 1822.33L1874.68 1822.72L1801.49 1804.35L1785.31 1821.12L1847.52 1881.18L1858.99 1869.3L1829.54 1840.87C1827.58 1839.09 1825.62 1837.32 1823.67 1835.54C1821.68 1833.79 1819.7 1832.04 1817.72 1830.29C1815.74 1828.54 1813.76 1826.76 1811.77 1824.96L1812.05 1824.67L1884.74 1842.61L1900.8 1825.98L1838.58 1765.93ZM507.462 1784.38L468.871 1867.98L484.94 1883.61L567.358 1842.67L553.207 1828.89L534.354 1839.28L511.764 1817.29L521.623 1798.17L507.462 1784.38ZM504.172 1831.36L520.329 1847.07L501.845 1857.16C501.015 1857.61 499.636 1858.39 497.7 1859.47C495.763 1860.56 493.727 1861.72 491.597 1862.95C489.411 1864.18 487.615 1865.23 486.205 1866.11C487.051 1864.68 488.018 1862.96 489.105 1860.93C490.137 1858.91 491.168 1856.91 492.201 1854.95C493.178 1852.98 493.992 1851.39 494.644 1850.15L504.172 1831.36ZM1770.71 1847.86C1767.36 1847.41 1763.99 1847.5 1760.6 1848.13C1753.83 1849.4 1747.16 1852.8 1740.58 1858.33C1735.84 1862.32 1731.89 1866.22 1728.71 1870.03C1725.55 1873.88 1722.72 1877.83 1720.22 1881.9L1749.09 1916.2L1775.33 1894.1L1765.51 1882.43L1752.97 1892.98L1741.35 1879.18C1742.38 1877.96 1743.5 1876.65 1744.71 1875.27C1745.91 1873.94 1747.51 1872.45 1749.51 1870.77C1753.58 1867.34 1757.67 1865.5 1761.78 1865.23C1765.91 1865 1769.97 1866.05 1773.94 1868.38C1777.93 1870.74 1781.74 1874.07 1785.37 1878.38C1789.21 1882.94 1791.72 1887.58 1792.9 1892.3C1794.09 1897.08 1793.98 1901.65 1792.56 1906.04C1791.12 1910.44 1788.36 1914.36 1784.29 1917.79C1781.46 1920.18 1778.45 1922.12 1775.27 1923.61C1772.09 1925.1 1769.06 1926.18 1766.18 1926.85L1770.96 1942C1774.75 1940.87 1778.67 1939.25 1782.71 1937.13C1786.76 1935.02 1790.52 1932.5 1794.02 1929.55C1801.45 1923.3 1806.57 1916.62 1809.39 1909.5C1812.19 1902.41 1812.79 1895.2 1811.21 1887.87C1809.6 1880.57 1805.87 1873.45 1800.03 1866.51C1793.81 1859.12 1787.38 1853.89 1780.73 1850.83C1777.4 1849.3 1774.07 1848.31 1770.71 1847.86ZM574.862 1857.2C572.532 1857.14 570.282 1857.47 568.108 1858.12C563.759 1859.42 559.931 1862.11 556.633 1866.19C553.781 1869.72 552.052 1872.98 551.445 1875.99C550.782 1879 550.908 1881.79 551.822 1884.36C552.712 1886.96 554.092 1889.39 555.958 1891.66L555.585 1892.12C553.056 1890.73 550.495 1890.08 547.896 1890.16C545.297 1890.24 542.764 1890.98 540.305 1892.39C537.816 1893.78 535.54 1895.74 533.482 1898.29C528.374 1904.6 527.111 1910.88 529.677 1917.11C532.242 1923.35 538 1930.08 546.953 1937.32L567.879 1954.24L622.247 1887.01L597.097 1866.67C592.007 1862.55 586.997 1859.77 582.079 1858.33C579.592 1857.61 577.193 1857.23 574.862 1857.2ZM578.211 1874.97C581.236 1874.68 584.897 1876.27 589.189 1879.74L598.475 1887.25L584.313 1904.77L575.476 1897.63C572.441 1895.17 570.355 1892.9 569.208 1890.8C568.031 1888.69 567.584 1886.71 567.865 1884.86C568.147 1883.01 568.95 1881.25 570.288 1879.59C572.545 1876.8 575.186 1875.26 578.211 1874.97ZM556.72 1904.37C559.356 1904.37 562.743 1906.05 566.882 1909.39L575.154 1916.09L563.067 1931.03L555.572 1924.97C551.495 1921.67 548.982 1918.7 548.029 1916.05C547.021 1913.41 547.562 1910.8 549.645 1908.23C551.702 1905.69 554.06 1904.41 556.72 1904.37ZM679.979 1950.69C673.271 1950.69 666.839 1953.36 662.097 1958.1C657.355 1962.85 654.692 1969.28 654.692 1975.99C654.692 1982.69 657.355 1989.13 662.097 1993.87C666.839 1998.62 673.271 2001.28 679.979 2001.28C683.301 2001.28 686.59 2000.63 689.659 1999.36C692.729 1998.09 695.518 1996.22 697.867 1993.87C700.216 1991.53 702.079 1988.74 703.35 1985.67C704.621 1982.6 705.275 1979.31 705.274 1975.99C705.275 1972.66 704.621 1969.38 703.35 1966.31C702.079 1963.24 700.216 1960.45 697.867 1958.1C695.518 1955.75 692.729 1953.89 689.659 1952.62C686.59 1951.34 683.301 1950.69 679.979 1950.69ZM1650.76 1950.69C1647.44 1950.69 1644.15 1951.34 1641.08 1952.62C1638.01 1953.89 1635.23 1955.75 1632.88 1958.1C1630.53 1960.45 1628.66 1963.24 1627.39 1966.31C1626.12 1969.38 1625.47 1972.66 1625.47 1975.99C1625.47 1979.31 1626.12 1982.6 1627.39 1985.67C1628.66 1988.74 1630.53 1991.53 1632.88 1993.87C1635.23 1996.22 1638.01 1998.09 1641.08 1999.36C1644.15 2000.63 1647.44 2001.28 1650.76 2001.28C1654.09 2001.28 1657.38 2000.63 1660.45 1999.36C1663.51 1998.09 1666.3 1996.22 1668.65 1993.87C1671 1991.53 1672.86 1988.74 1674.14 1985.67C1675.41 1982.6 1676.06 1979.31 1676.06 1975.99C1676.06 1972.66 1675.41 1969.38 1674.14 1966.31C1672.86 1963.24 1671 1960.45 1668.65 1958.1C1666.3 1955.75 1663.51 1953.89 1660.45 1952.62C1657.38 1951.34 1654.09 1950.69 1650.76 1950.69ZM1535.64 1966.24L1515.29 1974.74L1539.86 2033.56C1541.92 2038.52 1542.97 2042.87 1543 2046.63C1543 2050.38 1541.95 2053.62 1539.78 2056.33C1537.66 2059.02 1534.36 2061.3 1529.88 2063.17C1523.51 2065.83 1518.03 2066.24 1513.44 2064.39C1508.85 2062.54 1504.91 2057.64 1501.59 2049.69L1476.96 1990.75L1456.61 1999.26L1482.53 2061.3C1487.01 2072.01 1493.93 2079.22 1503.32 2082.93C1512.71 2086.64 1523.78 2085.84 1536.51 2080.52C1545.47 2076.78 1552.23 2072.12 1556.81 2066.54C1561.44 2060.95 1564.09 2054.88 1564.76 2048.36C1565.47 2041.78 1564.44 2035.17 1561.67 2028.54L1535.64 1966.24ZM816.026 1986.62C809.399 1986.78 803.276 1988.34 797.65 1991.27C792.024 1994.2 786.996 1998.31 782.574 2003.62C778.151 2008.92 774.484 2015.24 771.556 2022.58C767.587 2032.52 765.661 2041.85 765.775 2050.55C765.907 2059.21 768.343 2066.9 773.094 2073.61C777.906 2080.29 785.307 2085.63 795.294 2089.62C800.465 2091.68 805.286 2093.14 809.758 2094C814.212 2094.9 818.937 2095.33 823.929 2095.27L830.8 2078.05C825.508 2077.83 820.697 2077.37 816.367 2076.66C812.081 2075.98 807.969 2074.85 804.035 2073.28C798.378 2071.02 794.268 2067.92 791.694 2063.97C789.137 2059.98 787.952 2055.23 788.151 2049.72C788.411 2044.19 789.914 2038 792.648 2031.15C794.676 2026.07 797.031 2021.7 799.713 2018.06C802.397 2014.42 805.333 2011.57 808.512 2009.51C811.736 2007.46 815.147 2006.3 818.751 2005.99C822.418 2005.66 826.215 2006.28 830.149 2007.85C833.684 2009.26 837.036 2011.34 840.193 2014.08C843.35 2016.83 846.396 2019.79 849.333 2022.96L862.628 2008.89C859.055 2005.01 855.071 2001.51 850.686 1998.37C846.362 1995.21 841.789 1992.66 836.971 1990.74C829.635 1987.81 822.653 1986.44 816.026 1986.62ZM875.358 2006.09L843.707 2105.52L864.788 2112.24L896.44 2012.81L875.358 2006.09ZM1441.53 2006.73C1438.8 2006.64 1436.17 2006.66 1433.62 2006.79C1428.56 2007.01 1423.44 2007.92 1418.25 2009.52C1411.34 2011.65 1405.69 2014.63 1401.3 2018.48C1396.94 2022.26 1394.04 2026.68 1392.62 2031.75C1391.19 2036.82 1391.4 2042.34 1393.24 2048.3C1394.64 2052.85 1396.62 2056.52 1399.18 2059.32C1401.76 2062.06 1404.64 2064.18 1407.8 2065.69C1410.96 2067.21 1414.14 2068.34 1417.36 2069.09C1420.56 2069.8 1423.49 2070.34 1426.15 2070.72C1430.38 2071.35 1434.19 2071.99 1437.57 2072.64C1441.01 2073.28 1443.84 2074.22 1446.07 2075.48C1448.3 2076.73 1449.8 2078.61 1450.57 2081.11C1451.2 2083.16 1451.29 2085.11 1450.82 2087C1450.36 2088.89 1449.2 2090.62 1447.34 2092.19C1445.53 2093.74 1442.9 2095.05 1439.45 2096.12C1434.44 2097.66 1429.13 2098.37 1423.52 2098.26C1417.91 2098.15 1412.42 2097.78 1407.04 2097.15L1413.11 2116.79C1416.24 2117.26 1419.45 2117.48 1422.73 2117.48C1426.05 2117.41 1429.4 2117.09 1432.82 2116.54C1436.28 2115.97 1439.74 2115.15 1443.19 2114.08C1451.01 2111.67 1457.29 2108.44 1462.02 2104.39C1466.79 2100.33 1469.93 2095.67 1471.45 2090.42C1472.97 2085.18 1472.81 2079.59 1470.99 2073.68C1469.38 2068.45 1467.06 2064.4 1464.02 2061.5C1460.97 2058.55 1457.23 2056.35 1452.79 2054.88C1448.38 2053.35 1443.26 2052.17 1437.42 2051.33C1432.62 2050.62 1428.59 2049.94 1425.3 2049.31C1422.07 2048.67 1419.5 2047.76 1417.59 2046.61C1415.73 2045.39 1414.43 2043.61 1413.7 2041.24C1413.09 2039.24 1413.03 2037.35 1413.51 2035.55C1413.99 2033.71 1415.03 2032.09 1416.65 2030.69C1418.24 2029.25 1420.36 2028.13 1422.99 2027.32C1426.77 2026.15 1430.63 2025.53 1434.59 2025.46C1438.54 2025.34 1443.1 2025.51 1448.27 2025.95L1450.01 2007.41C1447.09 2007.06 1444.27 2006.84 1441.53 2006.73ZM1386.33 2021.69L1364.49 2026.36L1358.13 2091.22C1358.04 2092.35 1357.92 2094.43 1357.78 2097.43C1357.69 2100.37 1357.59 2103.47 1357.51 2106.75C1357.45 2110.02 1357.57 2112.71 1357.71 2114.82C1356.99 2112.83 1355.91 2110.36 1354.45 2107.41C1353.03 2104.41 1351.64 2101.59 1350.3 2098.95C1348.95 2096.27 1348 2094.46 1347.46 2093.5L1315.28 2036.89L1293.43 2041.56L1293.8 2042.17L1284.12 2043.06L1276.1 2100.99C1275.78 2103.31 1275.42 2106.18 1275.02 2109.61C1274.66 2113.04 1274.34 2116.48 1274.04 2119.95C1273.78 2123.36 1273.58 2126.28 1273.47 2128.68C1273.12 2126.94 1272.62 2124.91 1271.98 2122.58C1271.38 2120.19 1270.73 2117.77 1270.03 2115.3C1269.32 2112.84 1268.63 2110.55 1267.96 2108.46C1267.34 2106.32 1266.81 2104.63 1266.36 2103.38L1245.89 2046.55L1225.06 2048.46L1215.25 2108.06C1214.99 2109.43 1214.72 2111.19 1214.44 2113.37C1214.16 2115.54 1213.91 2117.91 1213.66 2120.46C1213.46 2122.97 1213.29 2125.44 1213.13 2127.89C1212.96 2130.29 1212.84 2132.41 1212.77 2134.24C1212.42 2132.5 1211.92 2130.46 1211.28 2128.13C1210.68 2125.75 1210 2123.3 1209.24 2120.79C1208.53 2118.23 1207.81 2115.79 1207.07 2113.46C1206.38 2111.14 1205.77 2109.14 1205.23 2107.47L1186.75 2051.97L1165.07 2053.96L1201.1 2155.44L1226.11 2153.16L1235.13 2097.43C1235.32 2096.26 1235.54 2094.57 1235.82 2092.34C1236.09 2090.12 1236.35 2087.74 1236.59 2085.18C1236.89 2082.62 1237.12 2080.21 1237.29 2077.95C1237.5 2075.68 1237.62 2073.88 1237.66 2072.54C1237.92 2073.85 1238.35 2075.63 1238.94 2077.87C1239.57 2080.06 1240.26 2082.41 1241.01 2084.92C1241.76 2087.38 1242.47 2089.65 1243.14 2091.74C1243.81 2093.83 1244.34 2095.39 1244.72 2096.4L1263.79 2149.7L1288.88 2147.4L1303.14 2057.83L1349.88 2136.19L1373.47 2131.15L1386.33 2021.69ZM941.484 2025.92C939.78 2026.01 938.115 2026.19 936.481 2026.47C929.946 2027.59 924.104 2030 918.952 2033.7C913.801 2037.4 909.406 2042.19 905.784 2048.07C902.162 2053.95 899.432 2060.73 897.579 2068.41C895.068 2078.82 894.485 2088.32 895.836 2096.92C897.2 2105.47 900.71 2112.74 906.368 2118.7C912.083 2124.63 920.169 2128.86 930.622 2131.38C936.034 2132.69 941.014 2133.45 945.562 2133.66C950.1 2133.92 954.839 2133.66 959.772 2132.9L964.123 2114.87C958.853 2115.41 954.026 2115.64 949.641 2115.56C945.301 2115.48 941.066 2114.96 936.949 2113.96C931.028 2112.53 926.521 2110.05 923.41 2106.51C920.311 2102.92 918.459 2098.39 917.872 2092.91C917.341 2087.4 917.948 2081.06 919.673 2073.89C920.958 2068.57 922.666 2063.92 924.803 2059.94C926.939 2055.95 929.443 2052.71 932.297 2050.21C935.196 2047.73 938.407 2046.08 941.932 2045.27C945.515 2044.42 949.359 2044.49 953.476 2045.48C957.176 2046.37 960.783 2047.95 964.299 2050.22C967.814 2052.49 971.258 2054.99 974.615 2057.71L984.855 2043.19L983.239 2054.09L1011.27 2058.24L998.685 2143.25L1020.57 2146.49L1033.16 2061.48L1061.19 2065.64L1063.89 2047.42L985.935 2035.87L985.118 2041.41C981.203 2038.29 976.997 2035.52 972.455 2033.17C967.726 2030.66 962.839 2028.8 957.797 2027.58C952.038 2026.19 946.599 2025.64 941.484 2025.92ZM1095.81 2105.8L1095.06 2123.63L1133.35 2125.24L1134.11 2107.41L1095.81 2105.8Z" fill="#874CCC"/>
</svg>
