<svg width="2331" height="2331" viewBox="0 0 2331 2331" fill="none" xmlns="http://www.w3.org/2000/svg">
<circle cx="1165" cy="1165" r="1120" fill="white"/>
<circle cx="1165" cy="1165" r="1120" fill="white"/>
<path d="M1154.05 0.0920809C1108.98 0.673124 1058.72 4.10693 1017.01 9.69884C909.73 24.0815 820.829 47.7216 720.293 88.5845C667.985 109.844 604.634 142.084 556.613 171.879C499.781 207.141 460.472 235.734 406.813 280.869C384.364 299.751 373.876 309.557 342.196 341.233C300.169 383.253 278.495 407.812 241.859 454.923C181.626 532.38 125.419 629.664 88.5646 720.274C63.7959 781.168 49.3503 825.477 33.145 890.221C9.6731 984.001 -2.73718 1100.04 0.510442 1195.41C4.22271 1304.42 18.4178 1394.02 48.2896 1497.02C63.1257 1548.18 90.2701 1618.78 113.608 1666.93C160.92 1764.56 210.967 1841.32 282.406 1925.84C312.36 1961.27 368.517 2017.45 404.175 2047.66C457.031 2092.43 499.778 2123.62 556.613 2158.86C638.176 2209.42 741.466 2255.53 832.455 2281.99C933.693 2311.43 1026.06 2326.44 1128.52 2330.09C1161.79 2331.27 1163.97 2331.28 1195.52 2330.24C1261.13 2328.09 1311.94 2322.8 1375.48 2311.52C1469.93 2294.76 1580.41 2259.06 1665.98 2217.66C1763.45 2170.49 1840.58 2120.28 1925.35 2048.81C1960.35 2019.3 2017.58 1962.11 2047.7 1926.53C2119.46 1841.79 2168.85 1766.16 2216.65 1667.87C2240.28 1619.28 2266.84 1550.46 2281.84 1498.94C2312.14 1394.87 2326.49 1305.06 2330.23 1195.99C2333.44 1102.47 2321.61 988.714 2299.02 895.91C2273.72 791.986 2240.71 705.619 2189.84 610.198C2153.55 542.116 2105.99 473.093 2048.36 404.881C2018.71 369.794 1961.46 312.53 1926.08 282.567C1842.2 211.516 1766.38 162.027 1668.02 114.119C1619.7 90.5845 1550.39 63.8236 1499 48.8685C1395.08 18.6307 1305.5 4.28682 1196.89 0.486237C1183.53 0.0183898 1169.08 -0.101349 1154.05 0.0920809ZM1175.06 77.2258C1426.23 79.361 1668.79 167.46 1863.63 330.604C1887.27 350.399 1906.57 368.262 1934.54 396.214C1973.23 434.887 1998.24 463.22 2029.1 503.345C2149.52 659.876 2225.12 847.645 2246.92 1044.28C2265.1 1208.35 2245.77 1376.36 2191.03 1529.79C2147.99 1650.44 2084.97 1761.13 2002.88 1860.27C1949.04 1925.29 1879.76 1990.8 1812.03 2040.71C1634.98 2171.17 1430.27 2243.18 1209.4 2252.69C1115.34 2256.74 1016.39 2247.66 922.729 2226.36C751.829 2187.51 591.628 2106.83 458.028 1992.34C417.2 1957.36 373.425 1913.58 338.449 1872.76C223.841 1739.01 143.251 1579.02 104.371 1408.01C55.7886 1194.32 72.5613 969.82 152.199 767.654C200.004 646.295 266.604 538.338 355.014 438.874C369.841 422.193 422.202 369.822 438.883 354.995C536.423 268.295 642.57 202.315 760.967 154.798C836.926 124.312 919.803 101.736 1000.26 89.6162C1058.66 80.8191 1117.09 76.733 1175.06 77.2258ZM1184 89.6938C1027.6 87.0344 871.879 118.441 728.965 181.846C585.99 245.277 456.5 341.068 353.574 459.537C147.613 696.599 56.2056 1007.26 100.565 1319.46C128.031 1512.77 209.357 1696.69 334.614 1848.76C443.672 1981.17 583.909 2086.61 740.391 2153.86C863.517 2206.78 992.566 2235.57 1129 2240.58C1163.44 2241.85 1212.34 2240.73 1250.09 2237.85C1467.39 2221.19 1676.68 2137.13 1845.73 1998.61C1979.27 1889.19 2084.76 1749.85 2152.69 1593.18C2246.56 1376.7 2266.42 1133.57 2209.04 903.643C2129.24 583.903 1903.92 316.065 1601.85 181.865C1490.82 132.543 1372.75 102.605 1251.04 92.9252C1228.7 91.1487 1206.34 90.0739 1184 89.6938ZM1145.9 109.228C1359.13 105.308 1567.78 165.568 1746.22 283.75C2015.27 461.948 2188.58 750.937 2217.25 1069.17C2220.44 1104.58 2221.41 1126.93 2221.41 1165.36C2221.41 1203.93 2220.43 1226.42 2217.23 1261.56C2201.3 1436.55 2142.5 1602.94 2044.91 1749.24C2003.86 1810.79 1965.01 1858.06 1911.54 1911.53C1858.11 1964.96 1811.7 2003.11 1749.73 2044.55C1592.68 2149.58 1413.33 2209.34 1222.81 2220.11C1204.25 2221.17 1155.17 2221.98 1139.53 2221.51C1134 2221.34 1120.66 2220.74 1109.86 2220.17C881.952 2208.24 665.236 2122.98 489.213 1975.99C463.256 1954.32 447.447 1939.76 419.213 1911.53C390.979 1883.3 376.416 1867.48 354.742 1841.52C220.056 1680.23 136.52 1483.43 114.873 1276.44C89.1532 1030.52 149.586 785.195 286.183 581.014C327.678 518.988 365.791 472.625 419.213 419.204C447.447 390.97 463.256 376.406 489.213 354.732C650.511 220.044 847.305 136.501 1054.3 114.854C1084.87 111.656 1115.43 109.788 1145.9 109.228ZM1130.04 166.935L1128.9 271.272L1148.67 271.496L1149.21 222.393C1149.1 219.06 1148.99 215.75 1148.88 212.465L1148.57 202.469C1148.47 199.137 1148.33 195.826 1148.17 192.541H1148.82L1193.34 271.972L1221.47 272.286L1222.61 167.938L1202.7 167.726L1202.15 217.111L1202.34 226.678C1202.44 229.868 1202.55 233.056 1202.66 236.246C1202.77 239.436 1202.85 242.655 1202.91 245.891H1202.41L1157.94 167.249L1130.04 166.935ZM1094 169.884L1071.95 171.723L1080.63 275.72L1102.67 273.881L1094 169.884ZM1384.21 191.715L1360.08 293.24L1381.61 298.359L1405.74 196.835L1384.21 191.715ZM917.599 198.275L859.922 215.161L889.247 315.314L946.925 298.427L941.786 280.888L905.346 291.556L897.783 265.734L931.693 255.806L926.593 238.404L892.693 248.332L886.249 226.345L922.699 215.678L917.599 198.275ZM1440.9 205.234L1407.33 304.043L1426.06 310.399L1441.86 263.905C1442.79 260.705 1443.72 257.53 1444.64 254.375C1445.58 251.176 1446.52 247.979 1447.45 244.779C1448.39 241.579 1449.29 238.391 1450.17 235.221L1450.77 235.428L1468.36 324.777L1494.99 333.829L1528.56 235.02L1509.7 228.615L1493.81 275.382C1492.88 278.432 1491.94 281.482 1491.01 284.531L1488.34 293.719C1487.45 296.784 1486.53 299.862 1485.58 302.956L1485.1 302.805L1467.33 214.226L1440.9 205.234ZM834.879 229.333C829.612 228.992 824.31 229.21 818.975 229.975C813.667 230.679 808.602 232.006 803.792 233.946C796.466 236.901 790.475 240.726 785.805 245.431C781.135 250.136 777.773 255.495 775.732 261.5C773.69 267.506 772.906 273.949 773.376 280.84C773.846 287.73 775.561 294.839 778.515 302.164C782.52 312.094 787.563 320.168 793.66 326.38C799.739 332.548 806.816 336.414 814.887 337.982C822.985 339.487 832.02 338.227 841.994 334.206C847.157 332.123 851.656 329.85 855.484 327.383C859.329 324.959 863.04 322.008 866.608 318.516L859.669 301.299C855.694 304.8 851.897 307.797 848.281 310.282C844.71 312.748 840.957 314.771 837.03 316.355C831.381 318.633 826.26 319.239 821.671 318.165C817.065 317.047 812.932 314.427 809.271 310.311C805.637 306.132 802.443 300.624 799.684 293.784C797.638 288.709 796.321 283.925 795.743 279.438C795.164 274.951 795.317 270.871 796.19 267.184C797.107 263.479 798.758 260.268 801.154 257.558C803.576 254.785 806.755 252.601 810.682 251.017C814.213 249.595 818.066 248.783 822.245 248.584C826.424 248.388 830.673 248.42 834.986 248.68L834.879 229.333ZM1563.41 250.249L1519 344.678L1538.7 353.944L1556.26 316.608L1588.3 331.675L1595.98 315.333L1563.95 300.267L1575.39 275.915L1609.82 292.11L1617.54 275.701L1563.41 250.249ZM727.875 267.846L710.423 277.443L734.211 320.726C735.83 323.473 737.458 326.221 739.077 328.97C740.738 331.694 742.399 334.42 744.06 337.145C745.721 339.87 747.372 342.628 749.015 345.418L748.577 345.651L671.2 299.002L646.75 312.443L697.021 403.884L714.346 394.365L690.685 351.336C688.955 348.485 687.243 345.657 685.536 342.849C683.806 339.998 682.078 337.143 680.349 334.293C678.619 331.443 676.871 328.63 675.122 325.845L675.686 325.53L753.502 372.832L778.145 359.284L727.875 267.846ZM1657.97 303.498C1649.37 303.404 1641.45 305.868 1634.2 310.856C1627.02 315.829 1620.61 322.916 1614.96 332.123C1610.73 339.018 1607.73 345.811 1605.97 352.494C1604.22 359.177 1603.83 365.604 1604.79 371.774C1605.79 377.97 1608.27 383.796 1612.24 389.246C1616.24 394.655 1621.86 399.586 1629.12 404.04C1636.38 408.493 1643.32 411.271 1649.96 412.381C1656.61 413.449 1662.91 413.017 1668.85 411.076C1674.82 409.16 1680.38 405.924 1685.52 401.372C1690.68 396.779 1695.36 391.057 1699.57 384.203C1705.24 374.956 1708.66 365.964 1709.82 357.243C1711.03 348.547 1709.66 340.397 1705.73 332.794C1701.83 325.215 1695.07 318.471 1685.41 312.549C1675.72 306.603 1666.57 303.583 1657.97 303.498ZM1660.53 323.908C1665.39 323.541 1670.46 324.98 1675.78 328.239C1683.77 333.141 1687.87 339.345 1688.07 346.839C1688.27 354.333 1685.52 362.738 1679.8 372.067C1675.99 378.272 1671.93 383.158 1667.63 386.715C1663.39 390.255 1658.86 392.22 1654.04 392.613C1649.25 392.963 1644.18 391.498 1638.82 388.214C1633.55 384.979 1629.98 381.152 1628.13 376.719C1626.29 372.245 1625.96 367.289 1627.11 361.857C1628.33 356.409 1630.84 350.582 1634.65 344.376C1638.48 338.13 1642.53 333.254 1646.81 329.738C1651.16 326.208 1655.73 324.263 1660.53 323.908ZM618.661 330.955L569.597 365.662L629.864 450.855L678.928 416.147L668.367 401.227L637.368 423.155L621.834 401.188L650.673 380.788L640.21 365.984L611.361 386.394L598.134 367.687L629.134 345.758L618.661 330.955ZM1165.08 341.719C1140.63 341.72 1116.27 342.134 1106.51 342.966C1062.5 346.708 1032.8 350.826 997.673 358.043C864.757 385.351 740.177 445.475 636.063 532.574C601.014 561.895 561.674 601.233 532.602 636.036C427.53 761.817 362.866 914.598 345.641 1077.78C342.333 1109.12 341.729 1122.59 341.729 1165.35C341.729 1208.12 342.333 1221.6 345.641 1252.94C362.856 1416.03 427.764 1569.39 532.592 1694.67C561.921 1729.72 601.142 1768.94 636.063 1798.14C740.23 1885.25 864.71 1945.33 997.673 1972.66C1039.27 1981.22 1076.08 1985.86 1126.61 1988.9C1141.66 1989.81 1214.79 1988.58 1231.42 1987.14C1282.69 1982.71 1320.64 1976.45 1368.29 1964.59C1480.67 1936.61 1588.66 1883.09 1680.04 1810.05C1852.7 1672.04 1961.93 1472.56 1985.11 1252.93C1988.42 1221.59 1989.01 1208.12 1989.01 1165.35C1989.01 1122.59 1988.42 1109.12 1985.11 1077.78C1968.14 917.016 1905.08 766.244 1802.55 641.302C1764.32 594.715 1716.56 548.538 1667.66 510.899C1579.82 443.278 1475.4 392.782 1368.29 366.122C1319.14 353.887 1278.99 347.426 1224.25 342.957C1214.09 342.123 1189.53 341.719 1165.08 341.719ZM1754.31 360.163L1689.51 441.949L1706.86 455.692L1731.72 424.314L1740.95 431.623L1735.61 478.477L1754.85 493.729L1759.03 439.03C1762.69 439.926 1766.45 440.323 1770.3 440.216C1774.14 440.103 1777.88 439.224 1781.52 437.549C1785.15 435.875 1788.45 433.171 1791.41 429.441C1795.78 423.922 1798.22 418.424 1798.73 412.944C1799.25 407.465 1797.79 401.903 1794.36 396.272C1790.97 390.669 1785.57 384.935 1778.15 379.054L1754.31 360.163ZM1155.41 362.568C1176.09 362.36 1197.06 362.511 1207.99 363.161C1252.97 365.776 1291.01 370.708 1330.49 379.045C1496.98 414.202 1646.31 499.927 1760.69 626C1873.83 750.706 1945.51 909.293 1963.61 1074.93C1967.46 1110.15 1967.94 1120.3 1967.94 1165.36C1967.94 1210.43 1967.46 1220.57 1963.61 1255.79C1938.08 1489.5 1807.72 1702.87 1610.15 1834.35C1490.19 1914.18 1356.83 1958.54 1209.88 1967.5C1196.13 1968.33 1137.72 1968.53 1125.65 1967.79C1078.85 1964.9 1046.54 1960.87 1006.97 1952.99C863.586 1924.45 728.987 1855.82 621.24 1756.32C478.48 1624.48 387.935 1446.12 367.142 1255.79C363.276 1220.42 362.801 1210.43 362.801 1165.36C362.801 1120.29 363.277 1110.3 367.142 1074.93C383.325 926.805 443.334 781.823 536.758 665.136C633.805 543.927 760.693 454.501 905.978 404.926C969.962 383.093 1031.38 370.492 1104.6 364.183C1114.36 363.341 1134.74 362.775 1155.41 362.568ZM1175.26 377.595C1013.5 375.51 856.418 422.559 721.723 514.255C598.061 598.443 499.278 718.56 440.518 856.194C354.107 1058.6 356.675 1289.94 447.546 1490.5C522.343 1655.59 654.31 1791.97 816.484 1871.75C874.402 1900.24 927.497 1919.17 989.254 1933.35C1035.9 1944.06 1071.84 1948.96 1129.49 1952.48C1141.69 1953.22 1190.63 1953.01 1206.53 1952.16C1293.5 1947.44 1376.81 1929.33 1455.52 1898.05C1685.4 1806.69 1860.26 1611.65 1925.3 1374.03C1982.93 1163.51 1950.41 936.31 1836.27 752.132C1706.3 542.394 1488.28 405.78 1244.82 381.52C1221.57 379.203 1198.37 377.893 1175.26 377.595ZM543.007 386.744L525.925 400.818L592.275 481.358L609.346 467.294L543.007 386.744ZM1760.4 388.117L1765.65 392.283C1771.25 396.715 1774.72 400.807 1776.07 404.546C1777.45 408.315 1776.61 412.133 1773.54 416.012C1770.58 419.74 1767.09 421.589 1763.05 421.549C1759.09 421.493 1754.23 419.2 1748.48 414.649L1742.89 410.211L1760.4 388.117ZM509.34 421.842C504.332 423.507 499.504 425.696 494.848 428.411C490.194 431.059 486.001 434.188 482.273 437.794C476.595 443.285 472.48 449.091 469.922 455.206C467.363 461.322 466.267 467.542 466.632 473.874C466.997 480.206 468.687 486.479 471.713 492.688C474.738 498.897 479.001 504.841 484.492 510.519C491.935 518.215 499.652 523.795 507.637 527.259C515.589 530.69 523.599 531.614 531.668 530.034C539.738 528.384 547.637 523.825 555.367 516.349C559.369 512.479 562.675 508.677 565.295 504.951C567.948 501.261 570.269 497.129 572.264 492.552L559.368 479.217C557 483.957 554.611 488.15 552.195 491.812C549.812 495.44 547.092 498.727 544.048 501.672C539.67 505.905 535.156 508.387 530.5 509.117C525.811 509.812 520.996 508.947 516.056 506.509C511.117 504.003 506.088 500.092 500.96 494.79C497.156 490.857 494.141 486.925 491.918 482.984C489.696 479.043 488.29 475.196 487.714 471.451C487.171 467.673 487.505 464.079 488.706 460.667C489.909 457.187 492.028 453.975 495.072 451.031C497.808 448.384 501.075 446.186 504.873 444.432C508.671 442.679 512.623 441.109 516.718 439.731L509.34 421.842ZM1840.02 429.725L1765.02 502.275L1778.77 516.485L1813.66 482.741C1816.22 480.26 1819.03 477.409 1822.07 474.195C1825.12 470.982 1827.96 467.939 1830.6 465.056C1833.31 462.173 1835.33 460.018 1836.66 458.593L1837.11 459.051L1795.74 534.034L1809.83 548.594L1887.29 511.123L1887.72 511.58C1886.25 512.869 1884.06 514.805 1881.12 517.381C1878.22 519.924 1875.18 522.633 1872 525.508C1868.86 528.417 1866.1 531.012 1863.74 533.295L1828.25 567.632L1842.58 582.456L1917.58 509.906L1896.65 488.26L1821.08 524.914L1820.78 524.602L1860.97 451.371L1840.02 429.725ZM435.613 495.092C430.318 497.649 425.589 500.415 421.442 503.385C417.289 506.287 413.46 509.811 409.947 513.945C405.264 519.457 402.105 525.006 400.467 530.608C398.823 536.143 398.759 541.431 400.279 546.472C401.803 551.514 404.941 556.052 409.691 560.089C413.317 563.17 416.963 565.206 420.621 566.192C424.274 567.109 427.841 567.359 431.318 566.941C434.794 566.521 438.088 565.77 441.206 564.674C444.288 563.545 447.047 562.426 449.489 561.316C453.399 559.581 456.961 558.073 460.166 556.8C463.402 555.489 466.294 554.768 468.848 554.629C471.402 554.497 473.676 555.262 475.671 556.956C477.302 558.342 478.426 559.962 479.048 561.802C479.67 563.642 479.625 565.721 478.901 568.041C478.209 570.326 476.688 572.848 474.346 575.604C470.957 579.593 466.865 583.039 462.073 585.959C457.28 588.881 452.453 591.519 447.58 593.873L463.241 607.187C466.141 605.904 468.969 604.38 471.728 602.603C474.481 600.759 477.157 598.677 479.738 596.374C482.35 594.035 484.823 591.489 487.164 588.734C492.464 582.496 496.02 576.409 497.832 570.455C499.674 564.466 499.829 558.85 498.289 553.607C496.749 548.365 493.621 543.733 488.907 539.728C484.737 536.185 480.595 534.011 476.478 533.197C472.325 532.354 467.977 532.501 463.445 533.644C458.908 534.721 453.956 536.471 448.583 538.899C444.153 540.88 440.38 542.486 437.273 543.717C434.197 544.911 431.546 545.54 429.322 545.586C427.092 545.586 425.036 544.745 423.151 543.142C421.556 541.786 420.488 540.22 419.939 538.442C419.353 536.634 419.357 534.711 419.958 532.67C420.532 530.598 421.713 528.515 423.501 526.412C426.058 523.402 428.991 520.798 432.289 518.606C435.552 516.383 439.477 514.075 444.076 511.676L435.613 495.092ZM831.871 532.622C838.686 532.622 844.586 535.108 849.566 540.088C854.544 545.067 857.031 550.968 857.031 557.782C857.031 564.859 854.544 570.886 849.566 575.866C844.586 580.583 838.686 582.942 831.871 582.942C824.796 582.942 818.768 580.583 813.788 575.866C809.071 570.886 806.712 564.859 806.712 557.782C806.712 550.968 809.071 545.067 813.788 540.088C818.768 535.108 824.796 532.622 831.871 532.622ZM982.83 532.622C989.642 532.622 995.544 535.108 1000.52 540.088C1005.5 545.067 1007.99 550.968 1007.99 557.782C1007.99 564.859 1005.5 570.886 1000.52 575.866C995.544 580.583 989.642 582.942 982.83 582.942C975.754 582.942 969.726 580.583 964.746 575.866C960.027 570.886 957.67 564.859 957.67 557.782C957.67 550.968 960.027 545.067 964.746 540.088C969.726 535.108 975.754 532.622 982.83 532.622ZM1196.96 532.622C1203.78 532.622 1209.67 535.108 1214.65 540.088C1219.63 545.067 1222.12 550.968 1222.12 557.782C1222.12 564.859 1219.63 570.886 1214.65 575.866C1209.67 580.583 1203.78 582.942 1196.96 582.942C1189.89 582.942 1183.86 580.583 1178.88 575.866C1174.16 570.886 1171.81 564.859 1171.81 557.782C1171.81 550.968 1174.16 545.067 1178.88 540.088C1183.86 535.108 1189.89 532.622 1196.96 532.622ZM1347.92 532.622C1354.74 532.622 1360.63 535.108 1365.61 540.088C1370.59 545.067 1373.08 550.968 1373.08 557.782C1373.08 564.859 1370.59 570.886 1365.61 575.866C1360.63 580.583 1354.74 582.942 1347.92 582.942C1340.85 582.942 1334.82 580.583 1329.84 575.866C1325.12 570.886 1322.76 564.859 1322.76 557.782C1322.76 550.968 1325.12 545.067 1329.84 540.088C1334.82 535.108 1340.85 532.622 1347.92 532.622ZM1498.88 532.622C1505.7 532.622 1511.59 535.108 1516.57 540.088C1521.54 545.067 1524.04 550.968 1524.04 557.782C1524.04 564.859 1521.54 570.886 1516.57 575.866C1511.59 580.583 1505.7 582.942 1498.88 582.942C1491.81 582.942 1485.78 580.583 1480.8 575.866C1476.08 570.886 1473.72 564.859 1473.72 557.782C1473.72 550.968 1476.08 545.067 1480.8 540.088C1485.78 535.108 1491.81 532.622 1498.88 532.622ZM1957.11 560.4L1850.88 592.84L1865.02 612.034L1889.5 603.41L1912.06 634.05L1896.53 654.869L1910.66 674.062L1973.14 582.183L1957.11 560.4ZM1952.14 580.976C1950.85 582.514 1949.35 584.389 1947.66 586.582C1946.03 588.785 1944.41 590.948 1942.79 593.084C1941.24 595.23 1939.95 596.977 1938.93 598.32L1923.87 618.798L1907.75 596.889L1931.74 588.548C1932.81 588.166 1934.62 587.522 1937.14 586.611C1939.66 585.701 1942.31 584.722 1945.09 583.682C1947.93 582.652 1950.28 581.748 1952.14 580.976ZM2001.87 624.141L1985.99 633.456L2000.3 657.905L1926.16 701.344L1937.34 720.43L2011.49 676.992L2025.81 701.441L2041.71 692.136L2001.87 624.141ZM303.031 667.609L275.116 720.508L367.405 769.212L377.566 749.96L341.077 730.698L357.594 699.397L341.631 690.968L325.105 722.269L301.308 709.714L319.061 676.067L303.031 667.609ZM762.913 673.896H943.012C946.316 673.897 949.485 675.209 951.821 677.546C954.157 679.882 955.47 683.05 955.47 686.354V865.393C955.47 868.697 954.157 871.865 951.821 874.202C949.485 876.538 946.316 877.851 943.012 877.851H865.431V937.621H929.211C956.141 937.621 979.287 958.025 979.287 984.349C979.287 1010.67 956.141 1031.08 929.211 1031.08H865.431V1252.33H894.036C900.637 1111.81 1011.32 998.559 1149.67 990.442V877.851H1072.09C1068.79 877.851 1065.62 876.538 1063.28 874.202C1060.95 871.865 1059.63 868.697 1059.63 865.393V686.354C1059.63 683.05 1060.95 679.882 1063.28 677.546C1065.62 675.209 1068.79 673.897 1072.09 673.896H1252.18C1255.48 673.897 1258.65 675.209 1260.99 677.546C1263.33 679.882 1264.64 683.05 1264.64 686.354V865.393C1264.64 868.697 1263.33 871.865 1260.99 874.202C1258.65 876.538 1255.48 877.851 1252.18 877.851H1174.59V990.15C1316.13 994.853 1430.38 1109.5 1437.09 1252.33H1465.25V969.448H1387.36C1385.72 969.448 1384.1 969.125 1382.59 968.499C1381.08 967.872 1379.71 966.953 1378.55 965.796C1377.39 964.638 1376.47 963.263 1375.85 961.751C1375.22 960.238 1374.9 958.617 1374.9 956.98C1374.91 953.678 1376.22 950.511 1378.56 948.177C1380.89 945.843 1384.06 944.531 1387.36 944.531H1566.15C1569.45 944.531 1572.62 945.843 1574.95 948.177C1577.29 950.511 1578.6 953.678 1578.6 956.98C1578.61 958.617 1578.28 960.238 1577.66 961.751C1577.03 963.263 1576.12 964.638 1574.96 965.796C1573.8 966.953 1572.43 967.872 1570.92 968.499C1569.4 969.125 1567.78 969.448 1566.15 969.448H1490.17V1277.24H1437.15C1431.54 1413.71 1327.79 1524.84 1195.53 1539.59L1194.65 1565.8C1194.61 1566.8 1194.33 1567.77 1193.81 1568.63C1193.3 1569.49 1192.57 1570.21 1191.71 1570.71C1190.84 1571.21 1189.87 1571.49 1188.86 1571.51C1187.86 1571.53 1186.87 1571.3 1185.99 1570.84L1113.3 1532.91C1112.31 1532.39 1111.48 1531.6 1110.92 1530.63C1110.35 1529.66 1110.08 1528.55 1110.12 1527.43C1110.17 1526.31 1110.53 1525.22 1111.16 1524.3C1111.8 1523.38 1112.69 1522.65 1113.72 1522.21L1188.76 1490.25C1189.68 1489.86 1190.68 1489.7 1191.67 1489.8C1192.66 1489.9 1193.61 1490.25 1194.43 1490.81C1195.25 1491.37 1195.92 1492.13 1196.37 1493.02C1196.82 1493.91 1197.04 1494.9 1197 1495.89L1196.38 1514.37C1318.24 1498.99 1412.5 1393.73 1412.5 1265.61C1412.5 1126.87 1301.99 1014.84 1165.57 1014.84C1029.14 1014.84 918.621 1126.87 918.621 1265.61C918.621 1334.98 946.297 1397.62 991.015 1443C1013.37 1465.68 1039.98 1484.03 1069.5 1496.7C1071.01 1497.35 1072.37 1498.28 1073.51 1499.45C1074.65 1500.62 1075.55 1502.01 1076.16 1503.53C1076.77 1505.05 1077.07 1506.67 1077.05 1508.31C1077.03 1509.94 1076.69 1511.56 1076.04 1513.06C1074.74 1516.1 1072.28 1518.49 1069.21 1519.72C1066.15 1520.94 1062.72 1520.9 1059.68 1519.59C1027.14 1505.63 997.845 1485.43 973.262 1460.49C926.621 1413.16 896.928 1348.63 893.997 1277.24H840.514V1031.08H776.714C749.785 1031.08 726.638 1010.67 726.638 984.349C726.638 958.025 749.785 937.621 776.714 937.621H840.514V877.851H762.913C759.609 877.851 756.44 876.538 754.104 874.202C751.768 871.865 750.455 868.697 750.455 865.393V686.354C750.455 683.05 751.768 679.882 754.104 677.546C756.441 675.209 759.609 673.897 762.913 673.896ZM1387.75 673.896H1567.84C1571.14 673.897 1574.31 675.209 1576.65 677.546C1578.98 679.882 1580.3 683.05 1580.3 686.354V865.393C1580.3 868.697 1578.99 871.865 1576.65 874.202C1574.31 876.538 1571.14 877.851 1567.84 877.851H1387.75C1384.45 877.851 1381.28 876.538 1378.94 874.202C1376.61 871.865 1375.29 868.697 1375.29 865.393V686.354C1375.29 683.05 1376.61 679.882 1378.94 677.546C1381.28 675.209 1384.45 673.897 1387.75 673.896ZM775.372 698.813V852.935H930.554V698.813H775.372ZM1084.55 698.813V852.935H1239.72V698.813H1084.55ZM1400.21 698.813V852.935H1555.38V698.813H1400.21ZM1160.85 703.835C1162.79 703.526 1164.78 703.682 1166.65 704.289C1168.52 704.897 1170.22 705.939 1171.61 707.329L1230.68 766.409C1233.02 768.745 1234.33 771.913 1234.33 775.217C1234.33 778.52 1233.02 781.689 1230.68 784.025L1170.28 844.428C1167.94 846.764 1164.77 848.076 1161.47 848.076C1158.17 848.076 1155 846.764 1152.66 844.428L1093.59 785.349C1091.26 783.012 1089.94 779.844 1089.94 776.54C1089.94 773.237 1091.26 770.068 1093.59 767.732L1153.99 707.329C1155.85 705.471 1158.25 704.248 1160.85 703.835ZM852.953 710.989C888.644 710.989 917.852 740.178 917.852 775.869C917.852 811.56 888.644 840.769 852.953 840.769C817.262 840.769 788.073 811.56 788.073 775.869C788.073 740.178 817.262 710.989 852.953 710.989ZM2052.06 713.685L1958.34 759.557L1968.06 779.431L2061.8 733.56L2052.06 713.685ZM1418.93 731.934H1536.67C1538.99 731.937 1541.27 732.592 1543.25 733.823C1545.22 735.055 1546.81 736.815 1547.83 738.904C1548.86 740.993 1549.28 743.327 1549.05 745.642C1548.81 747.957 1547.94 750.161 1546.51 752.003L1486.81 829.264C1485.64 830.782 1484.13 832.008 1482.41 832.847C1480.68 833.686 1478.78 834.115 1476.87 834.101C1474.95 834.089 1473.06 833.633 1471.34 832.771C1469.63 831.908 1468.14 830.661 1466.99 829.128L1408.97 751.867C1407.58 750.017 1406.74 747.817 1406.53 745.514C1406.32 743.211 1406.76 740.895 1407.79 738.826C1408.82 736.757 1410.41 735.017 1412.38 733.799C1414.35 732.582 1416.61 731.936 1418.93 731.934ZM1162.79 733.754L1120.01 776.54L1161.48 818.002L1204.25 775.206L1162.79 733.754ZM852.953 735.904C830.728 735.904 812.989 753.643 812.989 775.868C812.989 798.093 830.728 815.851 852.953 815.851C875.178 815.851 892.936 798.093 892.936 775.868C892.936 753.643 875.178 735.904 852.953 735.904ZM1443.87 756.85L1477.09 801.087L1511.28 756.85H1443.87ZM280.197 763.848C271.425 764.177 263.639 766.952 256.838 772.15C250.054 777.304 244.585 785.146 240.438 795.684C236.273 806.267 234.904 815.796 236.321 824.28C237.737 832.764 241.532 840.137 247.708 846.403C253.858 852.607 261.96 857.69 272.012 861.645C279.539 864.607 286.742 866.367 293.628 866.93C300.515 867.493 306.913 866.779 312.822 864.75C318.748 862.684 324.052 859.214 328.726 854.355C333.355 849.478 337.228 843.077 340.347 835.152C343.466 827.226 344.995 819.898 344.931 813.174C344.818 806.433 343.294 800.315 340.347 794.808C337.417 789.258 333.267 784.346 327.888 780.082C322.466 775.801 316.013 772.195 308.53 769.25C298.434 765.277 288.987 763.472 280.197 763.848ZM2055.61 774.944C2046.88 774.486 2037.47 776.176 2027.37 780.005C2019.81 782.872 2013.29 786.41 2007.81 790.623C2002.33 794.836 1998.08 799.676 1995.07 805.145C1992.07 810.658 1990.47 816.782 1990.28 823.521C1990.13 830.244 1991.57 837.592 1994.59 845.556C1997.61 853.521 2001.4 859.971 2005.97 864.906C2010.58 869.823 2015.83 873.332 2021.72 875.427C2027.62 877.566 2033.98 878.406 2040.83 877.948C2047.73 877.469 2054.93 875.805 2062.45 872.955C2072.59 869.109 2080.8 864.095 2087.05 857.908C2093.33 851.765 2097.23 844.478 2098.77 836.057C2100.33 827.681 2099.1 818.197 2095.08 807.608C2091.05 796.974 2085.66 788.992 2078.91 783.665C2072.16 778.336 2064.39 775.43 2055.61 774.944ZM285.823 786.886C290.205 787.511 294.941 788.824 300.033 790.828C306.807 793.494 312.316 796.642 316.569 800.259C320.795 803.814 323.527 807.924 324.755 812.6C325.937 817.26 325.38 822.514 323.08 828.358C320.815 834.114 317.661 838.291 313.62 840.894C309.534 843.481 304.716 844.677 299.166 844.485C293.589 844.235 287.409 842.781 280.635 840.116C273.816 837.432 268.307 834.283 264.098 830.684C259.863 827.023 257.155 822.866 255.971 818.207C254.76 813.486 255.295 808.23 257.578 802.429C261.011 793.707 266.401 788.588 273.744 787.081C277.416 786.327 281.441 786.263 285.823 786.886ZM2054.04 797.602C2059.64 797.47 2064.44 798.726 2068.45 801.378C2072.51 804.06 2075.66 808.31 2077.87 814.138C2081.19 822.903 2080.63 830.315 2076.21 836.368C2071.79 842.422 2064.47 847.381 2054.24 851.26C2047.43 853.841 2041.23 855.225 2035.65 855.406C2030.14 855.613 2025.35 854.402 2021.3 851.766C2017.29 849.113 2014.17 844.85 2011.95 838.977C2009.75 833.193 2009.27 827.979 2010.51 823.336C2011.8 818.675 2014.56 814.546 2018.8 810.956C2023.1 807.392 2028.65 804.319 2035.46 801.738C2042.31 799.139 2048.51 797.765 2054.04 797.602ZM2121.28 888.585L2019.66 912.373L2024.17 931.625L2071.99 920.432C2075.2 919.534 2078.38 918.643 2081.55 917.755C2084.76 916.857 2087.97 915.958 2091.18 915.059C2094.39 914.161 2097.58 913.238 2100.73 912.305L2100.88 912.938L2034.36 975.132L2040.77 1002.51L2142.37 978.723L2137.83 959.335L2089.74 970.587L2080.5 973.048C2077.42 973.915 2074.35 974.781 2071.28 975.647C2068.21 976.514 2065.1 977.358 2061.97 978.188L2061.87 977.704L2127.63 915.763L2121.28 888.585ZM1387.36 898.727H1566.15C1567.78 898.727 1569.4 899.05 1570.91 899.676C1572.43 900.302 1573.8 901.22 1574.96 902.376C1576.11 903.533 1577.03 904.907 1577.66 906.418C1578.28 907.93 1578.6 909.55 1578.6 911.186C1578.6 914.49 1577.29 917.659 1574.96 919.995C1572.62 922.332 1569.45 923.644 1566.15 923.644H1387.36C1384.06 923.644 1380.89 922.331 1378.55 919.995C1376.22 917.659 1374.9 914.49 1374.9 911.186C1374.9 909.55 1375.23 907.93 1375.85 906.418C1376.48 904.907 1377.39 903.533 1378.55 902.376C1379.71 901.22 1381.08 900.302 1382.59 899.676C1384.11 899.05 1385.73 898.727 1387.36 898.727ZM776.715 962.537C761.968 962.537 751.555 972.704 751.555 984.348C751.555 995.992 761.968 1006.16 776.715 1006.16H929.211C943.958 1006.16 954.371 995.992 954.371 984.348C954.371 972.704 943.958 962.537 929.211 962.537H776.715ZM290.563 999.668L241.586 1024.36C240.462 1020.76 238.86 1017.34 236.778 1014.1C234.697 1010.86 231.992 1008.12 228.681 1005.88C225.369 1003.63 221.361 1002.21 216.641 1001.61C209.655 1000.71 203.68 1001.45 198.722 1003.85C193.765 1006.24 189.76 1010.37 186.712 1016.21C183.67 1022.01 181.554 1029.61 180.356 1039L176.512 1069.16L280.022 1082.36L282.815 1060.41L243.095 1055.35L244.594 1043.66L287.458 1024.02L290.563 999.668ZM214.383 1023.84C219.103 1024.44 222.483 1026.48 224.534 1029.96C226.544 1033.38 227.086 1038.73 226.16 1046L225.254 1053.07L197.291 1049.51L198.138 1042.85C199.041 1035.77 200.744 1030.69 203.248 1027.6C205.758 1024.47 209.474 1023.21 214.383 1023.84ZM1130.07 1062.85H1200.68L1203.63 1071.13C1208.57 1085.03 1211.72 1095.86 1215.32 1102.9C1218.91 1109.92 1221.91 1113.32 1229.75 1116.58L1229.8 1116.64C1237.69 1119.91 1242.29 1119.61 1249.84 1117.17C1257.4 1114.73 1267.27 1109.3 1280.51 1103L1288.46 1099.22L1338.39 1149.18L1334.61 1157.13C1328.38 1170.21 1322.96 1180.04 1320.5 1187.62C1318.04 1195.19 1317.7 1199.89 1320.97 1207.81C1324.24 1215.69 1327.69 1218.71 1334.74 1222.32C1341.8 1225.93 1352.62 1229.07 1366.45 1233.99L1374.75 1236.93V1307.54L1366.46 1310.49C1352.61 1315.42 1341.77 1318.57 1334.73 1322.18C1327.68 1325.78 1324.24 1328.8 1320.97 1336.68C1317.7 1344.58 1317.99 1349.13 1320.43 1356.67C1322.86 1364.21 1328.29 1374.09 1334.61 1387.38L1338.39 1395.32L1288.45 1445.25L1280.52 1441.47C1267.18 1435.13 1257.29 1429.69 1249.77 1427.26C1242.24 1424.84 1237.71 1424.55 1229.81 1427.83L1229.76 1427.89C1221.92 1431.15 1218.91 1434.58 1215.31 1441.61C1211.71 1448.66 1208.56 1459.49 1203.62 1473.35L1200.67 1481.63L1130.06 1481.57L1127.12 1473.29C1122.17 1459.37 1119.02 1448.55 1115.42 1441.51C1111.83 1434.5 1108.83 1431.09 1101 1427.83L1100.94 1427.77C1093.04 1424.5 1088.44 1424.82 1080.89 1427.26C1073.34 1429.7 1063.47 1435.13 1050.23 1441.42L1042.29 1445.19L992.368 1395.27L996.135 1387.33C1002.46 1374 1007.89 1364.11 1010.32 1356.58C1012.74 1349.05 1013.04 1344.5 1009.77 1336.61C1006.51 1328.74 1003.14 1325.77 996.125 1322.18C989.109 1318.58 978.267 1315.42 964.288 1310.45L956.006 1307.51V1245.68L955.889 1236.91L964.288 1233.93C978.13 1229.01 988.954 1225.85 996.018 1222.24C1003.08 1218.63 1006.54 1215.61 1009.81 1207.73C1013.08 1199.84 1012.76 1195.25 1010.32 1187.71C1007.89 1180.17 1002.46 1170.29 996.154 1157.04L992.377 1149.1L1042.3 1099.15L1050.24 1102.92C1063.61 1109.28 1073.52 1114.71 1081.03 1117.14C1088.53 1119.58 1092.99 1119.87 1100.8 1116.63H1100.85C1108.76 1113.32 1111.81 1109.85 1115.42 1102.83C1119.04 1095.78 1122.19 1084.98 1127.12 1071.12L1130.07 1062.85ZM1147.49 1087.8C1144.39 1097.1 1141.69 1106.27 1137.58 1114.26C1132.2 1124.76 1123.38 1134.3 1110.39 1139.72H1110.35L1108.09 1140.67H1105.75C1094.42 1144.17 1083.18 1144.1 1073.35 1140.92C1064.83 1138.16 1056.4 1133.57 1047.59 1129.17L1022.33 1154.44C1026.71 1163.19 1031.27 1171.56 1034.04 1180.11C1037.66 1191.34 1038.2 1204.33 1032.82 1217.33C1027.44 1230.31 1017.87 1239.11 1007.37 1244.48C999.371 1248.57 990.217 1251.27 980.923 1254.36V1290.13C990.294 1293.26 999.505 1295.98 1007.48 1300.07C1017.95 1305.43 1027.44 1314.21 1032.79 1327.13C1038.17 1340.09 1037.64 1353.07 1034.03 1364.29C1031.27 1372.83 1026.7 1381.24 1022.31 1390.03L1047.57 1415.31C1056.31 1410.94 1064.68 1406.37 1073.23 1403.61C1083.13 1400.41 1094.47 1400.33 1105.91 1403.87H1108.21L1110.5 1404.81C1123.44 1410.18 1132.23 1419.71 1137.6 1430.19C1141.68 1438.17 1144.39 1447.36 1147.5 1456.69H1183.24C1186.34 1447.4 1189.05 1438.25 1193.13 1430.27C1198.49 1419.78 1207.28 1410.21 1220.25 1404.83L1222.55 1403.88H1224.84C1236.24 1400.34 1247.53 1400.38 1257.41 1403.57C1265.96 1406.32 1274.37 1410.91 1283.17 1415.32L1308.44 1390.04C1304.05 1381.27 1299.49 1372.88 1296.73 1364.33C1293.11 1353.11 1292.57 1340.12 1297.96 1327.13C1303.33 1314.16 1312.89 1305.38 1323.38 1300.01C1331.37 1295.92 1340.53 1293.22 1349.83 1290.12V1254.37C1340.55 1251.28 1331.4 1248.59 1323.41 1244.5C1312.91 1239.13 1303.34 1230.35 1297.96 1217.38C1292.54 1204.28 1293.14 1191.19 1296.8 1179.94C1299.58 1171.39 1304.11 1163.12 1308.44 1154.48L1283.17 1129.19C1274.42 1133.56 1266.06 1138.13 1257.51 1140.89C1247.62 1144.09 1236.31 1144.16 1224.88 1140.63H1222.55L1220.27 1139.67C1207.31 1134.3 1198.5 1124.76 1193.14 1114.27C1189.06 1106.28 1186.35 1097.12 1183.24 1087.8L1147.49 1087.8ZM225.381 1103.61C214.532 1103.53 205.076 1105.24 197.009 1108.76C188.943 1112.22 182.672 1117.61 178.195 1124.9C173.719 1132.15 171.442 1141.43 171.363 1152.76C171.288 1164.13 173.433 1173.52 177.806 1180.93C182.18 1188.33 188.37 1193.86 196.386 1197.48C204.356 1201.06 213.743 1202.88 224.544 1202.95C232.633 1203.01 239.99 1202.06 246.618 1200.11C253.246 1198.16 258.952 1195.18 263.738 1191.16C268.525 1187.11 272.231 1181.97 274.844 1175.76C277.409 1169.54 278.716 1162.17 278.776 1153.65C278.832 1145.14 277.635 1137.75 275.155 1131.5C272.629 1125.25 268.994 1120.08 264.264 1116.01C259.535 1111.88 253.901 1108.8 247.348 1106.76C240.748 1104.72 233.422 1103.66 225.381 1103.61ZM225.23 1126.8C232.51 1126.86 238.785 1127.8 244.054 1129.64C249.275 1131.44 253.295 1134.31 256.123 1138.23C258.903 1142.15 260.274 1147.25 260.23 1153.53C260.192 1159.71 258.742 1164.75 255.909 1168.63C253.026 1172.51 248.96 1175.36 243.713 1177.18C238.419 1178.95 232.131 1179.81 224.851 1179.76C217.523 1179.7 211.248 1178.76 206.027 1176.92C200.758 1175.02 196.738 1172.12 193.958 1168.19C191.131 1164.23 189.739 1159.13 189.783 1152.89C189.839 1143.52 193.041 1136.81 199.35 1132.76C205.66 1128.71 214.286 1126.72 225.23 1126.8ZM2058.76 1135.75C2057.35 1138.59 2056.15 1141.57 2055.16 1144.7C2054.23 1147.88 2053.5 1151.18 2052.98 1154.6C2052.47 1158.07 2052.2 1161.61 2052.16 1165.23C2052.07 1173.41 2053.24 1180.37 2055.65 1186.1C2058.06 1191.89 2061.54 1196.3 2066.08 1199.35C2070.61 1202.39 2075.97 1203.95 2082.15 1204.02C2087.63 1204.08 2092.21 1203.1 2095.9 1201.09C2099.63 1199.09 2102.87 1196.2 2105.62 1192.42C2108.42 1188.69 2111.11 1184.17 2113.69 1178.87C2115.83 1174.52 2117.69 1170.86 2119.3 1167.93C2120.9 1165.05 2122.54 1162.88 2124.22 1161.42C2125.95 1160 2128.05 1159.31 2130.53 1159.35C2132.62 1159.35 2134.45 1159.89 2136.01 1160.9C2137.61 1161.92 2138.83 1163.41 2139.67 1165.37C2140.55 1167.33 2140.98 1169.69 2140.95 1172.45C2140.91 1176.4 2140.32 1180.27 2139.19 1184.06C2138.1 1187.86 2136.56 1192.15 2134.56 1196.94L2151.68 1204.26C2154.11 1198.9 2155.97 1193.76 2157.26 1188.82C2158.6 1183.93 2159.3 1178.78 2159.36 1173.35C2159.43 1166.12 2158.31 1159.84 2155.99 1154.48C2153.71 1149.18 2150.38 1145.07 2145.98 1142.17C2141.59 1139.27 2136.27 1137.78 2130.04 1137.71C2125.28 1137.65 2121.18 1138.43 2117.74 1140.01C2114.34 1141.64 2111.44 1143.73 2109.04 1146.28C2106.63 1148.82 2104.58 1151.51 2102.89 1154.35C2101.24 1157.18 2099.83 1159.8 2098.66 1162.22C2096.77 1166.05 2094.99 1169.49 2093.34 1172.52C2091.69 1175.59 2089.93 1178 2088.05 1179.74C2086.18 1181.49 2083.93 1182.34 2081.32 1182.31C2079.18 1182.31 2077.28 1181.77 2075.62 1180.75C2073.97 1179.73 2072.68 1178.1 2071.75 1175.85C2070.82 1173.66 2070.38 1170.75 2070.42 1167.13C2070.47 1161.9 2071.4 1156.63 2073.22 1151.32C2075.04 1146.01 2077.07 1140.89 2079.31 1135.97L2058.76 1135.75ZM1165.39 1194.16C1208.37 1194.16 1243.47 1229.27 1243.47 1272.25C1243.47 1315.23 1208.37 1350.35 1165.39 1350.35C1122.4 1350.35 1087.28 1315.23 1087.28 1272.25C1087.28 1229.27 1122.4 1194.16 1165.39 1194.16ZM278.421 1216.84L260.249 1218.76L264.688 1260.85L179.086 1269.87L181.403 1291.88L285.176 1280.94L278.421 1216.84ZM1165.39 1219.08C1135.87 1219.08 1112.2 1242.74 1112.2 1272.25C1112.2 1301.76 1135.87 1325.43 1165.39 1325.43C1194.9 1325.43 1218.56 1301.76 1218.56 1272.25C1218.56 1242.74 1194.9 1219.08 1165.39 1219.08ZM2157.13 1220.74L2089.34 1248.27L2049.67 1243.99L2047.32 1265.85L2087.69 1270.2L2147.37 1311.43L2149.92 1287.74L2109.52 1261.5L2154.56 1244.59L2157.13 1220.74ZM1766.85 1222.06C1769.49 1222.3 1770.18 1223.53 1781.45 1248.09C1787.96 1262.27 1793.29 1274.36 1793.29 1274.95C1793.29 1275.55 1792.72 1276.79 1792.03 1277.74C1790.9 1279.29 1789.89 1279.37 1781.4 1278.6C1774.98 1278.01 1771.93 1278.06 1771.74 1278.75C1771.59 1279.3 1770.3 1287.71 1768.89 1297.45C1765.52 1320.69 1763.33 1331.48 1759.24 1344.97C1755.03 1358.86 1745.84 1382.33 1736.85 1402.11C1733.06 1410.45 1730.19 1417.5 1730.48 1417.79C1731.1 1418.41 1765.83 1416.25 1770.08 1415.33C1772.15 1414.88 1775.23 1412.06 1781.21 1405.14L1789.48 1395.56L1785.64 1392.38C1783.06 1390.24 1781.8 1388.41 1781.8 1386.83C1781.8 1383.38 1804.44 1356.95 1807.48 1356.86C1809 1356.81 1814.1 1360.54 1823.48 1368.52C1834.79 1378.15 1837.28 1380.72 1837.28 1382.82C1837.32 1386.12 1815.44 1412.01 1812.17 1412.53C1810.89 1412.73 1808.6 1411.77 1806.45 1410.12C1804.47 1408.61 1802.51 1407.51 1802.09 1407.69C1801.66 1407.86 1797.29 1412.45 1792.37 1417.87C1787.46 1423.29 1781.82 1428.56 1779.85 1429.57C1775.85 1431.61 1768.26 1432.62 1740.18 1434.86C1729.65 1435.7 1720.98 1436.47 1720.92 1436.56C1720.85 1436.65 1715.8 1446.63 1709.68 1458.74C1693.83 1490.13 1682.75 1507.15 1661.83 1532.3C1656.64 1538.54 1652.76 1543.97 1653.2 1544.38C1653.65 1544.78 1662.72 1546.5 1673.36 1548.2L1692.69 1551.3L1695.85 1549.09C1704.66 1542.93 1712.89 1536.41 1712.89 1535.61C1712.89 1535.11 1711.81 1533.3 1710.49 1531.57C1706.25 1526.01 1706.69 1525.35 1723.05 1513.22C1734.81 1504.5 1738.46 1502.26 1740.18 1502.69C1741.57 1503.04 1745.94 1508.14 1752.32 1516.88C1764.44 1533.48 1763.87 1532.53 1763.15 1534.8C1762.4 1537.16 1734.53 1557.81 1732.09 1557.81C1731.09 1557.81 1728.8 1556.03 1727 1553.86L1723.72 1549.92L1711.7 1558.09C1702.3 1564.49 1698.67 1566.43 1695.04 1566.98C1691.61 1567.5 1683.63 1566.67 1664.55 1563.82L1638.7 1559.96L1635.88 1563.43C1630.36 1570.2 1613.69 1586.82 1605.2 1593.98C1592.35 1604.82 1571.89 1619.81 1552.83 1632.34C1543.5 1638.46 1535.84 1643.7 1535.84 1643.99C1535.8 1644.73 1569.54 1665 1571.81 1665.59C1573.37 1666 1596.85 1660.77 1597.82 1659.79C1597.98 1659.64 1597.61 1657.49 1596.99 1655.02C1594.95 1646.96 1595.21 1646.78 1616.61 1641.47C1633.08 1637.39 1635.51 1636.99 1636.73 1638.23C1638.97 1640.51 1647.15 1674.58 1646.04 1677.02C1645.27 1678.7 1642.04 1679.82 1627.17 1683.6C1606.22 1688.92 1605.62 1688.86 1603.69 1681.34C1602.76 1677.7 1602.07 1676.59 1600.96 1676.92C1593.58 1679.11 1576.46 1682.48 1572.47 1682.48C1566.31 1682.54 1563.48 1681.16 1537.88 1665.99L1518.4 1654.46L1496.24 1665.49C1470.1 1678.49 1452.97 1685.46 1424.29 1694.76C1412.71 1698.52 1402.66 1701.76 1401.95 1701.97C1400.65 1702.36 1416.31 1719.57 1430.69 1733.58L1437.7 1740.4L1453.25 1741.02L1468.8 1741.65V1735.54C1468.8 1726.06 1468.22 1726.27 1493.97 1726.27C1514.41 1726.27 1515.7 1726.36 1516.63 1728.12C1517.23 1729.24 1517.62 1738.48 1517.62 1751.46C1517.62 1769.74 1517.4 1773.12 1516.13 1774.18C1514.29 1775.71 1471.91 1775.51 1470.05 1773.97C1469.41 1773.44 1468.76 1770.14 1468.61 1766.63L1468.33 1760.25L1452.44 1759.66C1435.67 1759.03 1431.17 1758.14 1425.73 1754.32C1423.89 1753.03 1412.64 1742.02 1400.73 1729.84L1379.07 1707.71L1367.71 1709.79C1342.15 1714.45 1307.95 1717.66 1283.9 1717.66H1269.54L1273.56 1725.08C1283.32 1743.1 1292.94 1760.38 1294.04 1761.89C1294.74 1762.85 1300.74 1765.13 1308.56 1767.41C1315.89 1769.55 1322.55 1771.51 1323.37 1771.77C1324.5 1772.12 1325.3 1770.86 1326.59 1766.72C1328.65 1760.13 1329.6 1758.82 1332.29 1758.82C1333.41 1758.82 1343.13 1761.34 1353.88 1764.41C1368.07 1768.46 1373.78 1770.5 1374.68 1771.85C1375.75 1773.46 1375.11 1776.61 1370.16 1794.27C1366.65 1806.76 1363.78 1815.28 1362.82 1816.01H1362.79C1360.57 1817.69 1360.09 1817.6 1341.95 1812.33C1333.01 1809.73 1324.18 1807.19 1322.33 1806.69C1317.3 1805.3 1316.43 1803.21 1318.15 1796.63C1318.94 1793.62 1319.34 1790.92 1319.04 1790.63C1318.75 1790.34 1312.38 1788.19 1304.87 1785.88C1286.91 1780.34 1283.69 1778.71 1279.43 1773.02C1277.5 1770.44 1269.44 1756.82 1261.53 1742.75L1247.16 1717.18L1237.61 1716.9C1226.71 1716.58 1217.21 1718.2 1205.3 1722.42L1197.45 1725.2L1189.78 1717.84C1185.56 1713.8 1181.99 1710.23 1181.85 1709.92C1181.43 1709.05 1195.73 1702.71 1203.12 1700.47C1217.65 1696.08 1225.66 1695.46 1260.6 1696.07C1278.5 1696.38 1297.39 1696.31 1302.59 1695.9L1312.04 1695.16L1320.39 1669.17C1324.98 1654.88 1329.87 1641.25 1331.26 1638.89C1334.67 1633.06 1337.59 1630.79 1351.44 1623.18L1363.28 1616.67L1363.84 1611.94C1365.47 1598.3 1380.48 1588.88 1393.67 1593.23C1401 1595.65 1407.53 1603.72 1408.93 1612.09C1410.42 1621.07 1403.99 1632.32 1395.24 1636.03C1389.74 1638.37 1382.01 1638 1376.27 1635.12L1371.38 1632.66L1359.54 1639.3C1353.03 1642.96 1347.21 1646.47 1346.6 1647.11C1345.67 1648.07 1339.75 1666.8 1333.44 1688.76L1331.98 1693.83L1336.49 1693.22C1352.62 1691.07 1372.58 1687.46 1384.13 1684.62C1395.89 1681.73 1433.37 1670.19 1433.37 1669.46C1433.37 1669.31 1435.06 1657.22 1437.13 1642.58C1441.94 1608.62 1441.75 1609.09 1457.35 1596.31L1468.73 1587L1468.77 1581.95C1468.88 1563.08 1489.63 1552.56 1504.43 1563.87C1510.52 1568.53 1512.94 1574.02 1512.6 1582.4C1512.36 1588.25 1511.9 1589.88 1509.44 1593.38C1503.98 1601.15 1495.94 1604.68 1487.47 1603.04C1484.84 1602.53 1482.04 1601.83 1481.25 1601.48C1479.57 1600.75 1458.74 1617.03 1457.88 1619.75C1457.1 1622.21 1452.48 1661.45 1452.92 1661.88C1453.54 1662.51 1479.14 1650.88 1492.26 1644.02C1499.1 1640.45 1509.87 1634.4 1516.18 1630.59C1528.3 1623.29 1558.29 1603.46 1562.98 1599.65L1565.74 1597.4L1561.78 1574.96C1557.73 1551.99 1557.05 1543.71 1558.83 1538.97C1559.39 1537.48 1562.85 1531.48 1566.51 1525.63L1573.18 1515L1571.76 1509.51C1569.8 1501.98 1571.14 1495.8 1575.88 1490.54C1582.81 1482.85 1591.81 1481.14 1600.96 1485.78C1608.23 1489.46 1611.92 1495.52 1611.86 1503.65C1611.77 1515.76 1603.48 1524.31 1591.82 1524.31H1587.47L1580.78 1534.45C1573.89 1544.91 1573.77 1545.17 1574.07 1549.19C1574.3 1552.35 1580.81 1584.94 1581.31 1585.43C1581.8 1585.92 1596.57 1573.58 1604.61 1565.98C1612.01 1558.96 1646.8 1517.78 1659.02 1501.56L1667.86 1489.83L1655.44 1464.89C1640.73 1435.35 1640.82 1435.84 1646.31 1416.19L1649.61 1404.4L1647.38 1401.42C1642.15 1394.4 1641.64 1383.86 1646.21 1376.96C1656.13 1361.97 1678.83 1365.32 1683.83 1382.52C1686.16 1390.51 1684.45 1397.04 1678.55 1402.74C1676.09 1405.12 1672.19 1407.69 1669.87 1408.49L1665.64 1409.93L1662.48 1420.93C1660.74 1426.99 1659.3 1432.95 1659.3 1434.18C1659.28 1436.34 1676.74 1470.14 1678.4 1471.17C1679.58 1471.89 1684.21 1463.18 1699.45 1431.53C1722.88 1382.86 1736.1 1350.86 1741.58 1329.58C1743.96 1320.34 1750.21 1282.6 1750.21 1277.48C1750.21 1275.85 1749.18 1275.54 1741.38 1274.82C1733.01 1274.05 1732.5 1273.87 1731.66 1271.47C1730.85 1269.16 1732.26 1266.82 1747.43 1245.37C1763.1 1223.21 1764.26 1221.81 1766.85 1222.06ZM564.064 1224.23C566.875 1224.23 568.023 1225.59 583.364 1247.2C592.336 1259.83 599.684 1270.9 599.687 1271.78C599.697 1274.89 597.111 1276.09 589.097 1276.71C584.765 1277.04 580.989 1277.54 580.707 1277.83C580.07 1278.46 584.837 1311.51 587.316 1323.65C591.957 1346.37 605.599 1380.29 631.786 1434.22C638.333 1447.7 645.49 1462.16 647.69 1466.34C651.672 1473.92 651.696 1473.94 653.208 1471.7C657.887 1464.76 671.472 1437.75 671.419 1435.5C671.319 1431.26 665.227 1412.01 663.749 1411.27C663 1410.9 660.522 1409.82 658.24 1408.88C652.963 1406.7 648.059 1400.99 646.648 1395.39C643.267 1381.96 653.159 1369.2 666.903 1369.26C683.852 1369.33 693.273 1387.04 684.159 1401.7L681.2 1406.46L684.539 1418.24C687.31 1428.01 687.813 1431.16 687.478 1436.72C687.099 1443.05 686.427 1444.73 674.981 1467.57L662.873 1491.72L671.39 1502.98C676.073 1509.18 682.638 1517.5 685.979 1521.47C689.32 1525.44 698.549 1536.43 706.487 1545.88C714.424 1555.34 724.545 1566.31 728.98 1570.28C741.238 1581.25 749.045 1587.77 749.438 1587.36C749.752 1587.04 755.659 1558.16 756.942 1550.68C757.335 1548.39 756.15 1545.87 750.587 1537.15L743.754 1526.43L737.652 1525.95C726.352 1525.04 718.886 1516.96 718.886 1505.64C718.886 1494.22 726.603 1485.96 737.934 1485.24C743.268 1484.9 744.692 1485.18 749.058 1487.57C757.929 1492.4 761.647 1501.29 759.015 1511.39L757.585 1516.91L763.814 1526.68C767.24 1532.06 770.696 1538.01 771.493 1539.92C773.749 1545.32 773.252 1552.71 769.05 1576.33C766.909 1588.36 765.369 1598.76 765.624 1599.42C766.289 1601.16 808.51 1629.12 822.708 1637.23C840.36 1647.31 876.866 1664.78 877.972 1663.67C878.326 1663.32 873.524 1623.7 872.881 1621.67C872.027 1618.98 851.41 1602.59 849.698 1603.25C837.517 1607.92 826.001 1603.97 820.489 1593.22C818.178 1588.68 817.831 1587.08 818.124 1581.54C818.399 1576.26 818.982 1574.39 821.345 1571.02C822.928 1568.77 825.667 1565.95 827.438 1564.76C842.084 1554.89 861.818 1565.6 862.01 1583.52L862.068 1588.91L873.388 1598.16C888.928 1610.86 888.808 1610.57 893.593 1644.1C895.647 1658.49 897.35 1670.56 897.35 1670.91C897.382 1671.84 928.106 1681.64 943.319 1685.58C954.621 1688.51 982.686 1693.65 994.836 1695.01C998.16 1695.39 998.872 1695.2 998.446 1694.1C998.156 1693.34 996.582 1688.1 994.952 1682.46C988.459 1659.96 985.172 1650.1 983.662 1648.6C982.791 1647.73 976.983 1644.21 970.756 1640.78L959.437 1634.53L954.493 1636.84C943.518 1641.95 931.316 1638.53 925.41 1628.7C921.473 1622.14 920.67 1616.93 922.597 1610.3C928.093 1591.39 954.036 1588.27 964.021 1605.31C965.353 1607.58 966.736 1611.43 967.087 1613.87L967.729 1618.29L980.08 1625.36C986.874 1629.25 993.289 1633.19 994.339 1634.12C998.903 1638.16 1002.12 1645.55 1010.33 1670.84L1018.92 1697.3L1037.35 1697.98C1048.89 1698.41 1063.12 1698.23 1075.41 1697.5C1103.07 1695.87 1115.81 1697.18 1133.79 1703.52C1150.43 1709.37 1164.04 1718.27 1176.81 1731.63C1189.8 1745.21 1198.95 1759.83 1204.31 1775.56C1207.88 1786.04 1212.28 1807.09 1212.28 1813.68C1212.28 1826.39 1207.34 1837.65 1197.49 1847.35C1190.82 1853.92 1184.45 1857.65 1176.36 1859.76C1160.14 1863.98 1142.71 1858.84 1131.07 1846.4C1120.54 1835.14 1117.04 1823.44 1118.5 1804.28C1119.78 1787.48 1125.03 1772.2 1134.72 1757.1L1138.57 1751.08L1144.08 1754.93C1147.11 1757.04 1150.82 1759.81 1152.33 1761.08L1155.09 1763.39L1152.68 1768.51C1140.86 1793.63 1139.14 1817.05 1148.29 1828.09C1156.33 1837.8 1172.25 1839.11 1181.02 1830.79C1186.72 1825.37 1187.87 1821.69 1187.82 1809.06C1187.76 1795.28 1185.55 1785.8 1179.29 1772.52C1172.45 1758.04 1165.06 1748.32 1153.12 1738.14C1137.01 1724.39 1110.65 1716.09 1090.25 1718.35L1083.55 1719.09L1078.68 1727.7C1075.99 1732.44 1069.11 1744.65 1063.38 1754.83C1057.64 1765.01 1051.51 1774.81 1049.76 1776.61C1045.39 1781.11 1041.63 1782.85 1026.11 1787.55C1018.74 1789.79 1012.36 1791.93 1011.93 1792.31C1011.5 1792.69 1011.79 1795.49 1012.58 1798.52C1013.67 1802.68 1013.76 1804.45 1012.95 1805.74C1011.37 1808.27 971.072 1819.69 968.537 1818.34C967.164 1817.6 965.223 1812.16 960.79 1796.57C955.417 1777.67 955.011 1775.59 956.283 1773.75C958.221 1770.96 997.351 1759.59 1000.35 1760.95C1001.7 1761.56 1002.95 1763.82 1004.18 1767.88L1006.01 1773.91L1020.25 1769.8C1028.38 1767.46 1035.21 1764.94 1036.17 1763.93C1037.71 1762.32 1044.96 1749.58 1056.63 1727.95L1061.15 1719.57H1051.15C1026.45 1719.57 993.529 1716.7 966.863 1712.22L951.651 1709.67L929.051 1732.77C901.012 1761.41 902.912 1760.34 879.179 1761.41L862.428 1762.16L861.951 1768.39C861.688 1771.81 861.131 1775.15 860.706 1775.81C859.619 1777.49 815.965 1777.52 814.289 1775.86C813.465 1775.04 813.14 1768.53 813.14 1752.61C813.14 1736.69 813.462 1730.18 814.289 1729.35C815.919 1727.72 859.173 1727.72 860.803 1729.35C861.452 1730 861.951 1733.11 861.951 1736.52V1742.56H877.67H893.389L911.132 1724.13C920.89 1714 928.918 1705.28 928.982 1704.76C929.044 1704.25 921.42 1701.41 912.037 1698.46C880.498 1688.53 856.147 1678.63 829.336 1664.83L812.518 1656.18L793.441 1667.44C768.894 1681.94 764.186 1684.16 758.101 1684.16C755.468 1684.16 747.743 1682.86 740.932 1681.29C734.12 1679.71 728.459 1678.43 728.347 1678.43C728.236 1678.43 727.618 1680.59 726.984 1683.23C725.175 1690.78 724.751 1690.81 703.839 1685.53C689.887 1682.01 685.494 1680.53 684.733 1679.11C683.981 1677.7 684.816 1672.98 688.237 1659.26C693.959 1636.32 691.955 1637.5 715.003 1643.39C724.338 1645.77 732.625 1648.26 733.418 1648.92C734.82 1650.08 734.723 1654.3 733.174 1659.79C732.674 1661.56 733.711 1661.99 745.555 1664.9L758.48 1668.07L764.067 1664.87C777.094 1657.42 794.898 1646.32 794.696 1645.76C794.576 1645.43 785.857 1639.38 775.328 1632.33C736.503 1606.33 711.658 1585.64 695.372 1565.75L692.062 1561.7L670.046 1565.12C657.938 1567.01 644.582 1568.62 640.371 1568.7C631.873 1568.85 630.624 1568.26 614.228 1556.69L607.22 1551.74L603.463 1555.85C600.906 1558.65 599.142 1559.82 597.945 1559.51C594.385 1558.58 568.103 1538.51 567.549 1536.3C567.119 1534.59 569.299 1531.02 577.69 1519.65C584.687 1510.17 589.147 1504.98 590.606 1504.61C592.366 1504.17 595.512 1506.01 605.595 1513.36C624.736 1527.33 624.789 1527.4 620.272 1533.33C618.956 1535.05 617.878 1536.94 617.878 1537.51C617.878 1538.08 621.428 1541.09 625.771 1544.21C639.502 1554.06 636.004 1553.39 656.683 1550.14C666.665 1548.58 675.806 1547.07 676.996 1546.8C678.986 1546.33 678.492 1545.52 670.883 1536.51C649.223 1510.85 636.655 1491.68 621.177 1460.74C615.14 1448.67 610.048 1438.64 609.867 1438.46C609.685 1438.27 598.813 1437.27 585.71 1436.23C559.208 1434.12 553.895 1433.28 549.289 1430.43C547.552 1429.36 542.184 1423.99 537.357 1418.52L528.578 1408.57L524.996 1411.4C518.84 1416.28 518.018 1415.83 505.053 1400.67C496.742 1390.94 493.442 1386.4 493.442 1384.64C493.442 1381.21 519.064 1359.21 523.059 1359.21C525.263 1359.21 527.599 1361.43 537.328 1372.76C550.655 1388.28 551.093 1389.48 545.163 1394.24L541.357 1397.3L545.396 1402.14C547.619 1404.8 551.592 1409.29 554.224 1412.12L559.013 1417.27L579.393 1418.75C590.603 1419.56 600.025 1419.97 600.339 1419.65C600.651 1419.34 597.986 1412.72 594.412 1404.94C586.252 1387.18 576.924 1364 572.931 1351.54C568.227 1336.87 565.616 1324.72 562.322 1302.26C560.662 1290.94 559.141 1281.13 558.945 1280.46C558.698 1279.64 557.433 1279.42 554.964 1279.78C552.976 1280.07 548.579 1280.41 545.182 1280.52C535.11 1280.85 535.121 1280.69 549.192 1250.09C561.038 1224.32 561.084 1224.25 564.064 1224.25L564.064 1224.23ZM288.271 1302.53L270.362 1306.11L277.817 1343.35L251.431 1348.62L244.492 1313.98L226.719 1317.55L233.649 1352.19L211.185 1356.68L203.73 1319.45L185.958 1323.01L197.754 1381.94L300.077 1361.45L288.271 1302.53ZM2046.74 1307.84C2044.81 1310.36 2043.06 1313.06 2041.49 1315.94C2039.96 1318.88 2038.62 1321.99 2037.46 1325.25C2036.29 1328.55 2035.33 1331.97 2034.6 1335.51C2032.94 1343.53 2032.75 1350.58 2034.01 1356.67C2035.27 1362.81 2037.84 1367.81 2041.7 1371.67C2045.57 1375.53 2050.53 1378.09 2056.59 1379.34C2061.94 1380.45 2066.63 1380.38 2070.63 1379.12C2074.68 1377.86 2078.42 1375.65 2081.84 1372.47C2085.31 1369.35 2088.82 1365.43 2092.36 1360.72C2095.3 1356.86 2097.84 1353.65 2099.98 1351.08C2102.1 1348.55 2104.13 1346.73 2106.06 1345.63C2108.02 1344.57 2110.21 1344.3 2112.64 1344.8C2114.69 1345.22 2116.38 1346.08 2117.72 1347.38C2119.1 1348.68 2120.01 1350.38 2120.45 1352.47C2120.94 1354.56 2120.91 1356.96 2120.36 1359.66C2119.56 1363.53 2118.23 1367.21 2116.38 1370.72C2114.59 1374.23 2112.25 1378.15 2109.37 1382.47L2124.76 1392.94C2128.18 1388.15 2131 1383.46 2133.21 1378.86C2135.46 1374.32 2137.15 1369.4 2138.24 1364.09C2139.71 1357.01 2139.82 1350.62 2138.57 1344.91C2137.35 1339.27 2134.87 1334.6 2131.11 1330.91C2127.35 1327.22 2122.42 1324.74 2116.32 1323.47C2111.66 1322.51 2107.48 1322.48 2103.8 1323.36C2100.15 1324.31 2096.91 1325.79 2094.06 1327.83C2091.21 1329.86 2088.68 1332.11 2086.47 1334.57C2084.31 1337.04 2082.42 1339.35 2080.81 1341.49C2078.21 1344.89 2075.82 1347.92 2073.62 1350.57C2071.41 1353.27 2069.21 1355.3 2067.04 1356.65C2064.86 1358 2062.5 1358.4 2059.93 1357.87C2057.84 1357.44 2056.08 1356.56 2054.65 1355.25C2053.22 1353.93 2052.27 1352.08 2051.79 1349.7C2051.3 1347.36 2051.41 1344.42 2052.15 1340.88C2053.21 1335.75 2055.14 1330.76 2057.95 1325.9C2060.75 1321.04 2063.72 1316.4 2066.86 1312L2046.74 1307.84ZM305.868 1387.21L206.387 1418.72L213.044 1439.74L252.035 1427.4L264.512 1466.8L225.522 1479.14L232.199 1500.23L331.68 1468.74L325.003 1447.65L282.061 1461.23L269.593 1421.84L312.525 1408.25L305.868 1387.21ZM2108.43 1407.16L2100.15 1434.25L2017.97 1409.11L2011.5 1430.27L2093.68 1455.41L2085.39 1482.51L2102.99 1487.89L2126.05 1412.55L2108.43 1407.16ZM1997.27 1472.34L1974.38 1527.91L1991.28 1534.87L2005.74 1499.76L2030.62 1510.01L2017.17 1542.68L2033.93 1549.58L2047.38 1516.91L2068.57 1525.64L2054.11 1560.74L2070.87 1567.65L2093.76 1512.08L1997.27 1472.34ZM336.322 1491.03L319.397 1498.63C323.049 1502.46 326.186 1506.15 328.808 1509.67C331.411 1513.14 333.575 1516.8 335.31 1520.66C337.805 1526.22 338.61 1531.32 337.714 1535.94C336.776 1540.59 334.318 1544.82 330.346 1548.64C326.312 1552.43 320.928 1555.84 314.199 1558.87C309.207 1561.11 304.48 1562.6 300.018 1563.35C295.557 1564.12 291.473 1564.13 287.755 1563.41C284.017 1562.63 280.745 1561.1 277.944 1558.81C275.08 1556.5 272.778 1553.42 271.043 1549.56V1549.5C269.484 1546.03 268.531 1542.21 268.172 1538.05C267.814 1533.88 267.679 1529.64 267.773 1525.32L248.443 1526.17C248.311 1531.45 248.726 1536.74 249.7 1542.04C250.609 1547.32 252.12 1552.31 254.245 1557.05C257.48 1564.25 261.548 1570.1 266.431 1574.58C271.313 1579.07 276.789 1582.22 282.869 1584.03C288.949 1585.83 295.419 1586.37 302.287 1585.63C309.154 1584.9 316.192 1582.91 323.398 1579.68C333.164 1575.29 341.038 1569.93 347.01 1563.6C352.938 1557.28 356.53 1550.06 357.784 1541.93C358.975 1533.78 357.362 1524.8 352.957 1514.99C350.676 1509.91 348.231 1505.51 345.618 1501.78C343.048 1498.03 339.949 1494.46 336.322 1491.03ZM1966.13 1548.22L1956.4 1565.43L1998.66 1589.31C2001.76 1591.07 2005.29 1592.94 2009.23 1594.96C2013.18 1596.97 2016.91 1598.83 2020.43 1600.54C2023.96 1602.32 2026.6 1603.65 2028.34 1604.52L2028.03 1605.09L1944.39 1586.68L1934.42 1604.33L1992.34 1667.96L1992.02 1668.52C1990.37 1667.48 1987.88 1665.91 1984.58 1663.83C1981.32 1661.77 1977.86 1659.62 1974.21 1657.38C1970.52 1655.19 1967.25 1653.3 1964.39 1651.68L1921.39 1627.39L1911.24 1645.34L2002.09 1696.68L2016.91 1670.45L1960.33 1608.39L1960.54 1608.02L2042.16 1625.78L2056.98 1599.55L1966.13 1548.22ZM374.203 1566.33L302.598 1651.29L316.302 1674.61L425.301 1653.29L413.222 1632.73L387.975 1638.79L368.704 1605.99L386.282 1586.89L374.203 1566.33ZM355.379 1619.95L369.152 1643.39L344.43 1649.23C343.317 1649.49 341.464 1649.94 338.863 1650.59C336.262 1651.24 333.529 1651.93 330.658 1652.68C327.721 1653.41 325.291 1654.07 323.368 1654.65C324.809 1653.25 326.478 1651.55 328.39 1649.54C330.236 1647.52 332.079 1645.53 333.909 1643.57C335.673 1641.6 337.135 1639.99 338.289 1638.76L355.379 1619.95ZM1903.15 1664.22C1900.34 1665.69 1897.61 1667.41 1894.98 1669.36C1892.36 1671.39 1889.84 1673.63 1887.42 1676.1C1884.97 1678.61 1882.67 1681.32 1880.52 1684.23C1875.65 1690.8 1872.5 1697.12 1871.09 1703.19C1869.66 1709.29 1869.88 1714.9 1871.77 1720.02C1873.65 1725.15 1877.09 1729.56 1882.06 1733.24C1886.46 1736.5 1890.74 1738.39 1894.9 1738.93C1899.1 1739.49 1903.42 1739.04 1907.87 1737.6C1912.32 1736.22 1917.15 1734.15 1922.35 1731.36C1926.64 1729.09 1930.29 1727.23 1933.31 1725.8C1936.3 1724.4 1938.9 1723.6 1941.11 1723.4C1943.34 1723.27 1945.44 1723.94 1947.43 1725.42C1949.11 1726.66 1950.3 1728.16 1950.96 1729.89C1951.67 1731.66 1951.79 1733.59 1951.31 1735.67C1950.88 1737.77 1949.84 1739.93 1948.2 1742.15C1945.85 1745.32 1943.1 1748.11 1939.96 1750.52C1936.85 1752.95 1933.08 1755.52 1928.66 1758.23L1938.23 1774.2C1943.34 1771.29 1947.87 1768.22 1951.81 1764.98C1955.76 1761.81 1959.35 1758.04 1962.57 1753.68C1966.88 1747.87 1969.66 1742.1 1970.92 1736.4C1972.18 1730.77 1971.89 1725.5 1970.03 1720.57C1968.17 1715.64 1964.74 1711.32 1959.73 1707.61C1955.91 1704.78 1952.13 1703 1948.41 1702.26C1944.71 1701.58 1941.14 1701.55 1937.7 1702.21C1934.26 1702.86 1931.02 1703.83 1927.98 1705.13C1924.98 1706.47 1922.3 1707.78 1919.93 1709.05C1916.15 1711.04 1912.7 1712.78 1909.59 1714.26C1906.45 1715.79 1903.61 1716.7 1901.07 1717.01C1898.53 1717.32 1896.22 1716.7 1894.11 1715.14C1892.39 1713.87 1891.16 1712.33 1890.41 1710.54C1889.67 1708.74 1889.58 1706.67 1890.14 1704.31C1890.68 1701.98 1892.03 1699.36 1894.18 1696.45C1897.3 1692.25 1901.14 1688.53 1905.72 1685.29C1910.31 1682.05 1914.96 1679.1 1919.66 1676.42L1903.15 1664.22ZM421.632 1671.59C416.16 1671.83 410.889 1673.85 405.825 1677.65C401.447 1680.93 398.461 1684.24 396.861 1687.58C395.196 1690.91 394.523 1694.21 394.837 1697.48C395.112 1700.78 396.001 1704.05 397.514 1707.25L396.949 1707.69C394.398 1705.32 391.584 1703.79 388.52 1703.11C385.455 1702.44 382.284 1702.57 378.991 1703.49C375.67 1704.37 372.428 1706 369.268 1708.36C361.425 1714.24 358.083 1721.21 359.243 1729.26C360.403 1737.31 365.147 1746.9 373.482 1758.01L392.968 1784L476.457 1721.4L453.04 1690.15C448.301 1683.83 443.263 1679.1 437.934 1675.96C432.538 1672.81 427.104 1671.36 421.632 1671.59ZM428.484 1694.3C432.11 1694.85 435.914 1697.79 439.91 1703.12L448.563 1714.66L426.81 1730.97L418.585 1720C415.759 1716.24 413.984 1712.96 413.261 1710.17C412.51 1707.35 412.57 1704.89 413.45 1702.81C414.326 1700.72 415.793 1698.91 417.849 1697.37C421.313 1694.77 424.858 1693.75 428.484 1694.3ZM394.642 1722.34C397.726 1723.12 401.193 1726.09 405.047 1731.23L412.755 1741.5L394.195 1755.42L387.216 1746.11C383.42 1741.04 381.358 1736.82 381.026 1733.45C380.627 1730.06 382.022 1727.16 385.221 1724.76C388.381 1722.39 391.521 1721.59 394.642 1722.34ZM592.942 1891.77C589.62 1891.77 586.33 1892.43 583.261 1893.7C580.192 1894.97 577.403 1896.83 575.054 1899.18C572.705 1901.53 570.841 1904.32 569.57 1907.39C568.299 1910.46 567.645 1913.75 567.646 1917.07C567.647 1923.78 570.313 1930.21 575.057 1934.95C579.801 1939.69 586.234 1942.36 592.942 1942.35C599.649 1942.36 606.083 1939.69 610.826 1934.95C615.57 1930.21 618.236 1923.78 618.238 1917.07C618.238 1913.75 617.584 1910.46 616.313 1907.39C615.042 1904.32 613.179 1901.53 610.83 1899.18C608.481 1896.83 605.692 1894.97 602.623 1893.7C599.553 1892.43 596.264 1891.77 592.942 1891.77ZM1736.38 1891.77C1729.67 1891.77 1723.24 1894.44 1718.5 1899.18C1713.76 1903.93 1711.09 1910.36 1711.09 1917.07C1711.1 1923.77 1713.76 1930.2 1718.5 1934.95C1723.24 1939.69 1729.67 1942.35 1736.38 1942.35C1743.09 1942.36 1749.52 1939.69 1754.27 1934.95C1759.01 1930.21 1761.68 1923.78 1761.68 1917.07C1761.68 1913.75 1761.02 1910.46 1759.75 1907.39C1758.48 1904.32 1756.62 1901.53 1754.27 1899.18C1751.92 1896.83 1749.13 1894.97 1746.06 1893.7C1742.99 1892.43 1739.7 1891.77 1736.38 1891.77ZM1539.72 1971.79L1519.36 1980.28L1543.93 2039.1C1546 2044.06 1547.05 2048.42 1547.07 2052.17C1547.1 2055.93 1546.02 2059.16 1543.85 2061.88C1541.73 2064.57 1538.43 2066.85 1533.95 2068.72C1527.59 2071.38 1522.1 2071.78 1517.52 2069.93C1512.93 2068.09 1508.98 2063.19 1505.66 2055.25L1481.04 1996.29L1460.68 2004.8L1486.6 2066.84C1491.08 2077.55 1498 2084.77 1507.39 2088.48C1516.78 2092.19 1527.84 2091.38 1540.57 2086.06C1549.53 2082.32 1556.3 2077.66 1560.89 2072.09C1565.51 2066.49 1568.16 2060.44 1568.84 2053.91C1569.54 2047.33 1568.51 2040.72 1565.74 2034.09L1539.72 1971.79ZM820.1 1992.16C813.473 1992.33 807.35 1993.88 801.724 1996.81C796.098 1999.74 791.07 2003.87 786.647 2009.17C782.225 2014.48 778.548 2020.79 775.62 2028.13C771.652 2038.08 769.725 2047.4 769.838 2056.1C769.968 2064.76 772.417 2072.44 777.167 2079.15C781.979 2085.84 789.371 2091.18 799.359 2095.16C804.529 2097.23 809.36 2098.69 813.832 2099.55C818.286 2100.46 823.001 2100.88 827.993 2100.83L834.874 2083.59C829.581 2083.37 824.77 2082.91 820.44 2082.21C816.154 2081.52 812.042 2080.4 808.109 2078.83C802.452 2076.57 798.342 2073.46 795.767 2069.52C793.21 2065.52 792.026 2060.78 792.224 2055.28C792.485 2049.74 793.987 2043.55 796.721 2036.7C798.749 2031.61 801.104 2027.26 803.787 2023.62C806.47 2019.97 809.397 2017.12 812.576 2015.06C815.799 2013.02 819.22 2011.84 822.825 2011.54C826.491 2011.21 830.289 2011.82 834.222 2013.39C837.758 2014.81 841.1 2016.89 844.257 2019.63C847.413 2022.38 850.46 2025.33 853.396 2028.5L866.691 2014.45C863.118 2010.56 859.144 2007.05 854.759 2003.91C850.435 2000.75 845.862 1998.22 841.045 1996.29C833.709 1993.37 826.726 1991.98 820.1 1992.16ZM879.432 2011.64L847.77 2111.08L868.862 2117.78L900.513 2018.35L879.432 2011.64ZM1445.61 2012.29C1442.88 2012.19 1440.23 2012.19 1437.69 2012.34C1432.62 2012.56 1427.5 2013.47 1422.32 2015.07C1415.41 2017.2 1409.76 2020.19 1405.37 2024.03C1401.01 2027.82 1398.11 2032.25 1396.69 2037.32C1395.27 2042.39 1395.48 2047.9 1397.31 2053.85C1398.72 2058.4 1400.69 2062.07 1403.25 2064.87C1405.84 2067.61 1408.71 2069.73 1411.86 2071.25C1415.02 2072.76 1418.21 2073.9 1421.43 2074.65C1424.64 2075.36 1427.56 2075.89 1430.22 2076.27C1434.45 2076.91 1438.26 2077.55 1441.65 2078.2C1445.08 2078.83 1447.91 2079.77 1450.14 2081.03C1452.37 2082.28 1453.87 2084.16 1454.64 2086.66C1455.27 2088.71 1455.36 2090.68 1454.89 2092.56C1454.43 2094.45 1453.27 2096.17 1451.41 2097.74C1449.6 2099.29 1446.97 2100.61 1443.52 2101.67C1438.51 2103.21 1433.2 2103.93 1427.59 2103.82C1421.98 2103.71 1416.49 2103.33 1411.11 2102.7L1417.18 2122.35C1420.31 2122.81 1423.52 2123.04 1426.8 2123.04C1430.12 2122.96 1433.47 2122.65 1436.89 2122.09C1440.35 2121.52 1443.81 2120.71 1447.26 2119.64C1455.08 2117.23 1461.36 2113.99 1466.09 2109.95C1470.86 2105.88 1474 2101.23 1475.52 2095.98C1477.04 2090.73 1476.88 2085.16 1475.06 2079.25C1473.45 2074.02 1471.13 2069.96 1468.09 2067.06C1465.04 2064.12 1461.3 2061.91 1456.86 2060.44C1452.45 2058.91 1447.34 2057.73 1441.5 2056.89C1436.7 2056.18 1432.66 2055.51 1429.37 2054.88C1426.14 2054.23 1423.57 2053.34 1421.66 2052.18C1419.8 2050.96 1418.5 2049.17 1417.77 2046.81C1417.15 2044.81 1417.09 2042.91 1417.58 2041.11C1418.05 2039.27 1419.1 2037.66 1420.71 2036.27C1422.31 2034.83 1424.43 2033.69 1427.07 2032.88C1430.84 2031.72 1434.71 2031.1 1438.67 2031.02C1442.61 2030.91 1447.18 2031.08 1452.34 2031.51L1454.09 2012.97C1451.17 2012.62 1448.34 2012.41 1445.61 2012.31L1445.61 2012.29ZM1390.4 2027.24L1368.55 2031.91L1362.21 2096.77C1362.11 2097.91 1361.99 2099.97 1361.86 2102.97C1361.75 2105.91 1361.66 2109.03 1361.58 2112.3C1361.55 2115.57 1361.62 2118.25 1361.78 2120.36C1361.06 2118.37 1359.98 2115.9 1358.52 2112.95C1357.1 2109.95 1355.71 2107.13 1354.37 2104.5C1353.02 2101.82 1352.07 2100 1351.53 2099.05L1319.35 2042.43L1297.5 2047.1L1297.87 2047.71L1288.2 2048.6L1280.17 2106.53C1279.85 2108.85 1279.5 2111.72 1279.1 2115.15C1278.74 2118.58 1278.41 2122.03 1278.1 2125.5C1277.84 2128.92 1277.65 2131.82 1277.54 2134.22C1277.19 2132.48 1276.69 2130.45 1276.05 2128.12C1275.45 2125.74 1274.8 2123.32 1274.09 2120.85C1273.39 2118.38 1272.7 2116.1 1272.03 2114.02C1271.4 2111.87 1270.87 2110.17 1270.42 2108.93L1249.96 2052.1L1229.13 2054.01L1219.32 2113.61C1219.06 2114.97 1218.79 2116.74 1218.51 2118.91C1218.23 2121.09 1217.97 2123.45 1217.73 2126.01C1217.53 2128.51 1217.35 2130.99 1217.19 2133.44C1217.03 2135.85 1216.92 2137.96 1216.84 2139.78C1216.49 2138.04 1215.99 2136.02 1215.35 2133.69C1214.75 2131.3 1214.07 2128.85 1213.31 2126.34C1212.6 2123.77 1211.88 2121.34 1211.14 2119.02C1210.45 2116.69 1209.84 2114.69 1209.3 2113.02L1190.82 2057.52L1169.13 2059.5L1205.17 2160.99L1230.18 2158.7L1239.2 2102.97C1239.38 2101.8 1239.61 2100.11 1239.88 2097.89C1240.16 2095.66 1240.42 2093.28 1240.66 2090.72C1240.95 2088.17 1241.19 2085.75 1241.36 2083.49C1241.58 2081.23 1241.7 2079.42 1241.72 2078.08C1241.99 2079.4 1242.41 2081.17 1243 2083.41C1243.63 2085.6 1244.32 2087.95 1245.08 2090.46C1245.83 2092.92 1246.54 2095.2 1247.21 2097.29C1247.88 2099.38 1248.4 2100.93 1248.78 2101.95L1267.86 2155.25L1292.95 2152.96L1307.21 2063.37L1353.94 2141.74L1377.53 2136.7L1390.4 2027.24ZM945.558 2031.46C943.852 2031.55 942.179 2031.75 940.545 2032.03C934.01 2033.14 928.168 2035.55 923.016 2039.25C917.864 2042.95 913.479 2047.74 909.857 2053.62C906.235 2059.5 903.505 2066.28 901.652 2073.95C899.141 2084.36 898.558 2093.86 899.91 2102.46C901.273 2111.02 904.783 2118.28 910.441 2124.24C916.156 2130.18 924.242 2134.4 934.695 2136.93C940.107 2138.23 945.087 2139 949.636 2139.21C954.173 2139.47 958.913 2139.21 963.846 2138.46L968.196 2120.41C962.927 2120.95 958.1 2121.18 953.714 2121.1C949.374 2121.03 945.139 2120.51 941.022 2119.52C935.101 2118.09 930.584 2115.6 927.474 2112.06C924.374 2108.47 922.533 2103.94 921.945 2098.46C921.415 2092.95 922.017 2086.61 923.746 2079.44C925.029 2074.12 926.738 2069.47 928.875 2065.48C931.012 2061.49 933.507 2058.25 936.36 2055.76C939.259 2053.27 942.48 2051.62 946.005 2050.81C949.588 2049.96 953.432 2050.04 957.548 2051.03C961.249 2051.93 964.856 2053.52 968.372 2055.78C971.887 2058.05 975.321 2060.54 978.679 2063.26L988.928 2048.75L987.312 2059.65L1015.34 2063.8L1002.76 2148.81L1024.64 2152.05L1037.23 2067.05L1065.25 2071.19L1067.96 2052.97L990.008 2041.44L989.19 2046.98C985.275 2043.85 981.071 2041.08 976.528 2038.73C971.799 2036.22 966.912 2034.35 961.87 2033.14C956.111 2031.75 950.673 2031.18 945.558 2031.46ZM1099.88 2111.35L1099.13 2129.18L1137.42 2130.79L1138.17 2112.96L1099.88 2111.35Z" fill="#E57373"/>
</svg>
