<svg width="2331" height="2331" viewBox="0 0 2331 2331" fill="none" xmlns="http://www.w3.org/2000/svg">
<circle cx="1166" cy="1165" r="1120" fill="white"/>
<circle cx="1166" cy="1165" r="1120" fill="white"/>
<path d="M1154.05 0.0872273C1108.98 0.668211 1058.72 4.10203 1017.01 9.69367C909.73 24.0763 820.829 47.7167 720.293 88.5794C667.985 109.84 604.634 142.079 556.613 171.874C499.781 207.136 460.472 235.729 406.813 280.864C384.364 299.747 373.876 309.552 342.196 341.228C300.169 383.249 278.495 407.806 241.859 454.919C181.626 532.375 125.419 629.659 88.5646 720.268C63.796 781.164 49.3504 825.472 33.1451 890.216C9.67314 983.995 -2.73709 1100.04 0.51041 1195.4C4.22275 1304.41 18.4178 1394.02 48.2896 1497.02C63.1256 1548.17 90.2699 1618.77 113.607 1666.93C160.92 1764.55 210.967 1841.32 282.406 1925.83C312.36 1961.27 368.517 2017.45 404.176 2047.65C457.031 2092.43 499.778 2123.61 556.613 2158.85C638.176 2209.42 741.466 2255.52 832.456 2281.98C933.693 2311.42 1026.06 2326.43 1128.52 2330.08C1161.79 2331.27 1163.97 2331.27 1195.52 2330.24C1261.13 2328.09 1311.94 2322.8 1375.48 2311.52C1469.93 2294.76 1580.41 2259.06 1665.98 2217.66C1763.45 2170.49 1840.58 2120.28 1925.35 2048.81C1960.35 2019.3 2017.58 1962.11 2047.7 1926.53C2119.46 1841.8 2168.85 1766.16 2216.65 1667.87C2240.28 1619.28 2266.84 1550.46 2281.84 1498.94C2312.14 1394.87 2326.49 1305.06 2330.23 1195.99C2333.44 1102.47 2321.61 988.714 2299.02 895.91C2273.72 791.987 2240.71 705.62 2189.84 610.198C2153.55 542.117 2105.99 473.093 2048.36 404.881C2018.71 369.794 1961.46 312.53 1926.08 282.567C1842.2 211.516 1766.38 162.027 1668.02 114.119C1619.7 90.5843 1550.39 63.8238 1499 48.8689C1395.08 18.6306 1305.51 4.28686 1196.89 0.486279C1183.53 0.0190467 1169.08 -0.105778 1154.05 0.0872273ZM1175.06 77.221C1426.23 79.3559 1668.79 167.455 1863.63 330.599C1887.27 350.394 1906.58 368.257 1934.54 396.209C1973.23 434.881 1998.24 463.215 2029.1 503.34C2149.52 659.871 2225.12 847.64 2246.92 1044.28C2265.1 1208.34 2245.77 1376.36 2191.03 1529.79C2147.99 1650.43 2084.97 1761.12 2002.88 1860.26C1949.04 1925.29 1879.76 1990.8 1812.03 2040.7C1634.98 2171.16 1430.27 2243.17 1209.4 2252.69C1115.34 2256.74 1016.39 2247.65 922.729 2226.36C751.829 2187.5 591.628 2106.82 458.028 1992.34C417.2 1957.35 373.425 1913.58 338.449 1872.76C223.842 1739.01 143.251 1579.01 104.371 1408C55.7886 1194.32 72.5612 969.816 152.199 767.649C200.004 646.29 266.604 538.333 355.014 438.869C369.841 422.188 422.203 369.817 438.884 354.99C536.423 268.29 642.571 202.31 760.967 154.793C836.926 124.307 919.803 101.731 1000.26 89.6111C1058.66 80.8139 1117.09 76.7283 1175.06 77.221ZM1184 89.6889C1027.6 87.0295 871.88 118.436 728.965 181.841C585.99 245.272 456.5 341.063 353.574 459.532C147.613 696.594 56.2056 1007.25 100.565 1319.46C128.031 1512.77 209.357 1696.69 334.614 1848.76C443.672 1981.16 583.909 2086.61 740.391 2153.86C863.517 2206.77 992.566 2235.57 1129 2240.58C1163.44 2241.84 1212.34 2240.74 1250.09 2237.84C1467.39 2221.19 1676.68 2137.13 1845.73 1998.61C1979.27 1889.18 2084.76 1749.85 2152.69 1593.18C2246.56 1376.69 2266.42 1133.57 2209.04 903.637C2129.24 583.898 1903.92 316.06 1601.85 181.86C1490.83 132.538 1372.75 102.6 1251.04 92.9203C1228.71 91.144 1206.34 90.0688 1184 89.6889ZM1145.9 109.223C1359.13 105.303 1567.78 165.562 1746.22 283.745C2015.27 461.943 2188.58 750.932 2217.25 1069.17C2220.44 1104.58 2221.41 1126.92 2221.41 1165.36C2221.41 1203.92 2220.43 1226.41 2217.23 1261.56C2201.3 1436.54 2142.5 1602.94 2044.91 1749.24C2003.86 1810.78 1965.01 1858.06 1911.54 1911.53C1858.11 1964.96 1811.7 2003.1 1749.73 2044.55C1592.68 2149.57 1413.33 2209.33 1222.81 2220.11C1204.25 2221.16 1155.17 2221.98 1139.53 2221.5C1134 2221.33 1120.66 2220.73 1109.86 2220.17C881.953 2208.24 665.236 2122.97 489.213 1975.99C463.256 1954.31 447.447 1939.76 419.213 1911.53C390.98 1883.29 376.416 1867.47 354.742 1841.52C220.056 1680.22 136.52 1483.43 114.873 1276.44C89.1534 1030.51 149.586 785.19 286.183 581.009C327.678 518.983 365.791 472.621 419.213 419.199C447.447 390.965 463.256 376.402 489.213 354.727C650.511 220.039 847.305 136.496 1054.3 114.848C1084.87 111.651 1115.43 109.783 1145.9 109.223ZM1176.26 171.981L1170.26 276.163L1190 277.292L1192.83 228.267C1192.88 224.933 1192.92 221.625 1192.96 218.339C1193.01 215.006 1193.06 211.677 1193.11 208.344C1193.16 205.01 1193.19 201.695 1193.19 198.406L1193.83 198.465L1234.6 279.881L1262.68 281.497L1268.69 177.334L1248.8 176.186L1245.96 225.493C1245.87 228.681 1245.79 231.872 1245.7 235.061C1245.66 238.252 1245.61 241.447 1245.57 244.638C1245.53 247.829 1245.47 251.038 1245.38 254.273L1244.88 254.226L1204.13 173.588L1176.26 171.981ZM1140.12 173.276L1118.01 174.083L1121.84 278.363L1143.94 277.555L1140.12 173.276ZM1306.33 182.707L1288.72 285.565L1310.18 289.234L1317.14 248.57L1352.03 254.546L1355.09 236.754L1320.18 230.778L1324.73 204.256L1362.23 210.67L1365.29 192.81L1306.33 182.707ZM997.634 186.201L978.178 190.474L988.777 238.72C989.554 241.813 990.336 244.902 991.113 247.996C991.936 251.079 992.761 254.159 993.585 257.242C994.408 260.325 995.211 263.446 995.999 266.586L995.512 266.683L934.467 200.08L907.215 206.066L929.6 307.98L948.911 303.746L938.379 255.782C937.525 252.559 936.673 249.361 935.829 246.185L933.27 236.511C932.416 233.288 931.542 230.099 930.652 226.933L931.274 226.797L992.554 294.159L1020.02 288.125L997.634 186.201ZM1425.12 207.507C1420.31 207.273 1415.83 207.705 1411.67 208.811C1403.36 211.023 1396.37 215.502 1390.72 222.242C1385.12 228.95 1380.83 237.489 1377.84 247.869C1375.6 255.643 1374.53 262.986 1374.62 269.895C1374.71 276.804 1376.05 283.104 1378.62 288.796C1381.24 294.501 1385.18 299.455 1390.46 303.649C1395.75 307.797 1402.5 311.045 1410.68 313.401C1418.87 315.757 1426.3 316.582 1432.99 315.883C1439.69 315.139 1445.64 313.04 1450.84 309.586C1456.09 306.145 1460.58 301.552 1464.32 295.794C1468.07 289.991 1471.06 283.219 1473.28 275.491C1476.29 265.066 1477.18 255.504 1475.98 246.789C1474.82 238.087 1471.33 230.595 1465.52 224.315C1459.75 218.049 1451.42 213.345 1440.53 210.212C1435.07 208.639 1429.93 207.74 1425.12 207.507ZM872.77 217.064L851.698 223.829L883.573 323.193L904.645 316.428L872.77 217.064ZM1426.97 226.593C1429.62 226.614 1432.44 227.045 1435.43 227.907C1444.44 230.5 1450.05 235.387 1452.24 242.555C1454.44 249.723 1454.02 258.56 1451 269.077C1448.98 276.074 1446.37 281.865 1443.17 286.441C1440.03 290.984 1436.2 294.081 1431.66 295.746C1427.13 297.363 1421.85 297.308 1415.81 295.57C1409.87 293.859 1405.41 291.113 1402.44 287.336C1399.48 283.513 1397.83 278.825 1397.49 273.282C1397.22 267.706 1398.09 261.425 1400.1 254.429C1402.13 247.387 1404.73 241.595 1407.92 237.065C1411.16 232.503 1415.05 229.418 1419.58 227.8C1421.87 226.975 1424.33 226.574 1426.97 226.593ZM1519.64 237.737L1478.99 333.84L1499.37 342.464L1514.97 305.576L1525.81 310.17L1533.16 356.752L1555.77 366.31L1545.22 312.486C1548.99 312.375 1552.7 311.747 1556.38 310.618C1560.07 309.488 1563.44 307.633 1566.5 305.05C1569.55 302.468 1572 298.989 1573.85 294.607C1576.6 288.12 1577.48 282.165 1576.52 276.747C1575.56 271.328 1572.68 266.369 1567.87 261.855C1563.11 257.361 1556.36 253.261 1547.64 249.572L1519.64 237.737ZM1532.96 263.053L1539.14 265.661C1545.71 268.441 1550.15 271.459 1552.44 274.703C1554.78 277.966 1554.98 281.874 1553.06 286.431C1551.2 290.814 1548.33 293.521 1544.43 294.558C1540.59 295.57 1535.3 294.649 1528.55 291.794L1521.98 289.01L1532.96 263.053ZM745.365 265.69L691.766 292.865L738.961 385.941L792.56 358.757L784.297 342.464L750.426 359.633L738.26 335.631L769.775 319.66L761.57 303.483L730.065 319.465L719.699 299.026L753.57 281.857L745.365 265.69ZM1620.8 281.915L1567.86 371.838L1584.89 381.873L1609.52 340.04C1611.33 336.965 1613.28 333.478 1615.36 329.568C1617.44 325.658 1619.36 321.955 1621.14 318.472C1622.98 314.972 1624.35 312.357 1625.25 310.627L1625.81 310.958L1605.93 394.253L1623.4 404.541L1688.04 347.759L1688.6 348.09C1687.52 349.723 1685.92 352.172 1683.78 355.438C1681.66 358.663 1679.45 362.079 1677.15 365.697C1674.9 369.339 1672.94 372.581 1671.27 375.41L1646.22 417.973L1663.99 428.436L1716.93 338.513L1690.97 323.232L1627.92 378.71L1627.55 378.486L1646.75 297.196L1620.8 281.915ZM669.74 311.396C664.5 312.029 659.329 313.207 654.225 314.939C649.136 316.605 644.408 318.837 640.035 321.626C633.375 325.873 628.18 330.734 624.452 336.215C620.725 341.697 618.409 347.573 617.503 353.851C616.597 360.129 617.003 366.62 618.729 373.308C620.455 379.996 623.446 386.669 627.693 393.328C633.451 402.355 639.89 409.363 647.023 414.352C654.13 419.301 661.8 421.805 670.022 421.865C678.259 421.86 686.913 418.966 695.98 413.184C700.674 410.19 704.67 407.123 707.981 403.996C711.317 400.908 714.418 397.328 717.285 393.241L707.309 377.59C704.044 381.761 700.86 385.396 697.761 388.501C694.702 391.581 691.394 394.263 687.824 396.54C682.689 399.814 677.767 401.347 673.059 401.134C668.325 400.88 663.777 399.068 659.423 395.693C655.084 392.253 650.931 387.419 646.965 381.201C644.022 376.588 641.854 372.133 640.463 367.828C639.072 363.523 638.471 359.476 638.653 355.691C638.875 351.881 639.909 348.419 641.767 345.316C643.64 342.146 646.363 339.427 649.933 337.15C653.143 335.103 656.782 333.594 660.854 332.634C664.925 331.673 669.112 330.929 673.399 330.395L669.74 311.396ZM1165.08 341.724C1140.63 341.725 1116.27 342.139 1106.51 342.97C1062.5 346.712 1032.8 350.83 997.673 358.046C864.757 385.355 740.177 445.48 636.064 532.578C601.015 561.899 561.674 601.237 532.602 636.039C427.53 761.82 362.866 914.602 345.642 1077.78C342.333 1109.12 341.729 1122.6 341.729 1165.36C341.729 1208.12 342.333 1221.6 345.642 1252.94C362.857 1416.03 427.764 1569.4 532.593 1694.68C561.922 1729.73 601.142 1768.94 636.064 1798.15C740.23 1885.26 864.711 1945.33 997.673 1972.67C1039.27 1981.22 1076.08 1985.86 1126.62 1988.9V1988.91C1141.66 1989.82 1214.79 1988.59 1231.42 1987.15C1282.69 1982.72 1320.64 1976.46 1368.29 1964.6C1480.67 1936.63 1588.66 1883.1 1680.04 1810.06C1852.7 1672.06 1961.93 1472.58 1985.11 1252.94C1988.42 1221.6 1989.01 1208.13 1989.01 1165.37C1989.01 1122.61 1988.42 1109.13 1985.11 1077.79C1968.14 917.03 1905.08 766.257 1802.55 641.315C1764.32 594.729 1716.56 548.551 1667.66 510.913C1579.82 443.292 1475.4 392.796 1368.29 366.135C1319.14 353.901 1278.99 347.44 1224.25 342.971C1214.09 342.137 1189.53 341.723 1165.08 341.724ZM1155.41 362.562C1176.09 362.357 1197.06 362.52 1207.99 363.156C1252.97 365.771 1291.01 370.704 1330.49 379.04C1496.98 414.197 1646.31 499.922 1760.69 625.995C1873.83 750.701 1945.51 909.288 1963.61 1074.93C1967.46 1110.15 1967.94 1120.3 1967.94 1165.36C1967.94 1210.42 1967.46 1220.57 1963.61 1255.79C1938.08 1489.5 1807.72 1702.86 1610.15 1834.34C1490.19 1914.18 1356.83 1958.54 1209.88 1967.49C1196.13 1968.33 1137.73 1968.53 1125.65 1967.78C1078.85 1964.89 1046.54 1960.87 1006.97 1952.99C863.586 1924.44 728.987 1855.82 621.24 1756.31C478.48 1624.48 387.935 1446.11 367.142 1255.79C363.276 1220.42 362.801 1210.43 362.801 1165.36C362.801 1120.29 363.278 1110.3 367.142 1074.93C383.325 926.8 443.334 781.817 536.758 665.131C633.805 543.921 760.693 454.495 905.978 404.92C969.962 383.087 1031.38 370.487 1104.6 364.178C1114.36 363.337 1134.74 362.768 1155.41 362.562ZM571.612 368.879L556.224 381.503L587.555 419.695C589.65 422.099 591.746 424.503 593.842 426.907C595.975 429.281 598.104 431.648 600.237 434.022C602.369 436.396 604.495 438.803 606.621 441.244L606.242 441.565L521.623 409.894L500.045 427.598L566.239 508.265L581.52 495.729L550.375 457.76C548.151 455.276 545.949 452.811 543.756 450.363L537.079 442.918C534.856 440.433 532.632 437.977 530.403 435.56L530.899 435.151L616.062 467.386L637.806 449.546L571.612 368.879ZM1768.48 376.627L1674.77 436.222L1693.5 450.957L1714.8 436.114L1744.71 459.629L1735.3 483.825L1754.04 498.571L1789.75 393.348L1768.48 376.627ZM1175.26 377.59C1013.5 375.505 856.418 422.554 721.724 514.251C598.061 598.438 499.279 718.555 440.519 856.19C354.107 1058.59 356.675 1289.93 447.546 1490.5C522.343 1655.59 654.31 1791.97 816.484 1871.75C874.402 1900.24 927.497 1919.17 989.254 1933.35C1035.9 1944.06 1071.84 1948.96 1129.49 1952.47C1141.69 1953.22 1190.63 1953.01 1206.53 1952.15C1293.5 1947.43 1376.81 1929.33 1455.52 1898.05C1685.4 1806.68 1860.26 1611.64 1925.3 1374.02C1982.93 1163.51 1950.41 936.303 1836.28 752.125C1706.3 542.386 1488.28 405.763 1244.82 381.503C1221.57 379.186 1198.37 377.888 1175.26 377.59ZM1769.19 397.796C1768.35 399.623 1767.41 401.82 1766.36 404.385C1765.38 406.942 1764.39 409.457 1763.4 411.948C1762.48 414.43 1761.7 416.455 1761.08 418.021L1752.03 441.779L1730.65 424.97L1751.54 410.526C1752.48 409.872 1754.04 408.766 1756.23 407.217C1758.42 405.668 1760.71 404.027 1763.11 402.283C1765.58 400.531 1767.61 399.035 1769.19 397.796ZM1828.62 426.128L1815.8 439.336L1836.12 459.084L1776.25 520.723L1792.12 536.14L1851.99 474.501L1872.32 494.24L1885.15 481.032L1828.62 426.128ZM475.83 450.938L433.968 494.055L508.834 566.75L550.696 523.633L537.586 510.903L511.141 538.145L491.831 519.399L516.446 494.055L503.433 481.431L478.828 506.776L462.389 490.814L488.843 463.571L475.83 450.938ZM896.372 490.677C903.186 490.677 909.087 493.173 914.067 498.152C919.046 503.132 921.532 509.023 921.532 515.837C921.532 522.913 919.046 528.942 914.067 533.921C909.087 538.639 903.186 540.997 896.372 540.997C889.296 540.997 883.268 538.639 878.288 533.921C873.571 528.942 871.212 522.913 871.212 515.837C871.212 509.023 873.571 503.132 878.288 498.152C883.268 493.173 889.296 490.677 896.372 490.677ZM1047.33 490.677C1054.14 490.677 1060.04 493.173 1065.02 498.152C1069.99 503.132 1072.49 509.023 1072.49 515.837C1072.49 522.913 1069.99 528.942 1065.02 533.921C1060.04 538.639 1054.14 540.997 1047.33 540.997C1040.25 540.997 1034.23 538.639 1029.25 533.921C1024.53 528.942 1022.17 522.913 1022.17 515.837C1022.17 509.023 1024.53 503.132 1029.25 498.152C1034.23 493.173 1040.25 490.677 1047.33 490.677ZM1261.47 490.677H1412.41C1419.23 490.677 1425.13 493.173 1430.11 498.152C1435.09 503.132 1437.57 509.023 1437.57 515.837C1437.57 522.913 1435.09 528.942 1430.11 533.921C1425.13 538.639 1419.23 540.997 1412.41 540.997H1261.47C1254.39 540.997 1248.36 538.639 1243.38 533.921C1238.66 528.942 1236.31 522.913 1236.31 515.837C1236.31 509.023 1238.66 503.132 1243.38 498.152C1248.36 493.173 1254.39 490.677 1261.47 490.677ZM1900.89 499.038L1822.79 568.24L1837.46 584.805L1915.56 515.604L1900.89 499.038ZM411.699 519.662L397.489 536.627L477.474 603.638L491.685 586.674L411.699 519.662ZM1933.27 556.278C1929.14 555.913 1924.93 556.207 1920.63 557.144C1912.1 559.028 1903.48 563.16 1894.77 569.544C1888.24 574.324 1882.9 579.469 1878.75 584.99C1874.6 590.511 1871.8 596.318 1870.35 602.393C1868.93 608.506 1869.02 614.835 1870.63 621.382C1872.28 627.9 1875.62 634.59 1880.66 641.461C1885.69 648.331 1891.07 653.534 1896.78 657.072C1902.54 660.582 1908.53 662.568 1914.76 663.019C1921.02 663.508 1927.39 662.611 1933.87 660.343C1940.38 658.046 1946.89 654.525 1953.37 649.773C1962.12 643.361 1968.68 636.342 1973.06 628.71C1977.47 621.118 1979.29 613.051 1978.53 604.524C1977.8 596.036 1974.09 587.225 1967.4 578.089C1960.68 568.915 1953.35 562.668 1945.42 559.334C1941.46 557.667 1937.4 556.643 1933.27 556.278ZM385.041 560.336C380.423 562.893 376.067 565.933 371.988 569.456C367.899 572.913 364.354 576.752 361.351 580.98C356.776 587.42 353.79 593.877 352.396 600.358C351.003 606.839 351.07 613.16 352.591 619.318C354.111 625.476 356.926 631.328 361.039 636.876C365.152 642.425 370.425 647.485 376.865 652.06C385.593 658.26 394.202 662.333 402.686 664.275C411.132 666.189 419.182 665.635 426.824 662.601C434.455 659.5 441.386 653.566 447.614 644.799C450.838 640.26 453.391 635.918 455.283 631.776C457.214 627.661 458.736 623.171 459.858 618.306L444.733 607.561C443.274 612.653 441.697 617.212 439.993 621.255C438.316 625.259 436.245 628.996 433.793 632.448C430.266 637.413 426.284 640.677 421.841 642.249C417.359 643.793 412.466 643.818 407.163 642.327C401.849 640.769 396.182 637.858 390.17 633.586C385.709 630.418 382.03 627.096 379.123 623.63C376.215 620.163 374.128 616.645 372.874 613.069C371.648 609.455 371.317 605.86 371.872 602.285C372.415 598.644 373.916 595.1 376.368 591.647C378.573 588.544 381.375 585.775 384.787 583.354C388.2 580.934 391.789 578.677 395.562 576.571L385.041 560.336ZM1932.9 578.118C1935.39 578.087 1937.77 578.445 1940.06 579.189C1944.69 580.688 1948.86 583.952 1952.55 588.98C1958.08 596.542 1959.52 603.827 1956.88 610.841C1954.23 617.854 1948.49 624.588 1939.66 631.056C1933.79 635.358 1928.19 638.347 1922.86 640.01C1917.6 641.683 1912.66 641.792 1908.06 640.331C1903.49 638.843 1899.34 635.558 1895.63 630.491C1891.97 625.502 1890.12 620.611 1890.08 615.804C1890.08 610.969 1891.64 606.252 1894.77 601.662C1897.96 597.082 1902.49 592.641 1908.37 588.338C1914.28 584.007 1919.88 581.018 1925.17 579.384C1927.84 578.572 1930.42 578.152 1932.9 578.118ZM1046.31 626.005C1052.61 626.006 1058.76 627.876 1064 631.377C1069.23 634.879 1073.31 639.855 1075.72 645.675H1227.7C1229.26 645.675 1230.81 645.982 1232.25 646.58C1233.69 647.178 1235 648.055 1236.1 649.159C1237.2 650.264 1238.08 651.576 1238.67 653.019C1239.27 654.462 1239.57 656.008 1239.57 657.569L1239.04 922.042C1238.97 922.548 1238.87 923.049 1238.74 923.541H1302.69V960.488H1352.99V890.77H1346.89C1344.94 890.77 1343.07 889.995 1341.69 888.615C1340.31 887.235 1339.53 885.364 1339.53 883.413V847.488C1339.53 845.537 1340.31 843.665 1341.69 842.285C1343.07 840.905 1344.94 840.13 1346.89 840.13H1382.83C1384.78 840.133 1386.64 840.909 1388.02 842.289C1389.4 843.669 1390.17 845.538 1390.17 847.488V883.413C1390.17 885.362 1389.4 887.232 1388.02 888.612C1386.64 889.991 1384.78 890.768 1382.83 890.77H1376.71V972.352C1376.71 975.497 1375.46 978.513 1373.24 980.737C1371.01 982.96 1367.99 984.208 1364.85 984.207H1302.69V1018.28H1518.99C1521.35 1012.39 1525.42 1007.35 1530.67 1003.79C1535.92 1000.23 1542.12 998.316 1548.46 998.301C1556.9 998.301 1565 1001.65 1570.97 1007.63C1576.94 1013.6 1580.3 1021.69 1580.3 1030.14C1580.3 1034.32 1579.48 1038.46 1577.88 1042.32C1576.28 1046.19 1573.93 1049.7 1570.98 1052.65C1568.02 1055.61 1564.51 1057.96 1560.65 1059.56C1556.78 1061.16 1552.64 1061.98 1548.46 1061.98C1542.12 1061.97 1535.92 1060.06 1530.67 1056.5C1525.42 1052.94 1521.35 1047.89 1518.99 1042H1302.69V1075.55H1361.73C1363.29 1075.55 1364.84 1075.86 1366.28 1076.45C1367.71 1077.05 1369.02 1077.92 1370.12 1079.03C1371.23 1080.13 1372.1 1081.43 1372.7 1082.87C1373.29 1084.31 1373.6 1085.86 1373.6 1087.42V1297.69C1373.58 1297.88 1373.56 1298.08 1373.54 1298.28H1379.71C1381.66 1298.28 1383.53 1299.06 1384.91 1300.44C1386.29 1301.82 1387.06 1303.7 1387.06 1305.65V1341.57C1387.06 1343.52 1386.28 1345.39 1384.91 1346.77C1383.53 1348.15 1381.66 1348.93 1379.71 1348.93H1343.78C1341.83 1348.93 1339.95 1348.16 1338.57 1346.78C1337.19 1345.4 1336.42 1343.52 1336.42 1341.57V1305.65C1336.42 1304.68 1336.61 1303.72 1336.98 1302.83C1337.35 1301.94 1337.89 1301.12 1338.57 1300.44C1339.25 1299.75 1340.07 1299.21 1340.96 1298.84C1341.85 1298.47 1342.81 1298.28 1343.78 1298.28H1350.04C1349.98 1298.08 1349.93 1297.89 1349.88 1297.69V1099.28H1302.69V1136.73H1239.04L1239.3 1527.57H1332.26C1334.63 1521.68 1338.69 1516.63 1343.95 1513.07C1349.2 1509.51 1355.4 1507.6 1361.74 1507.59C1370.19 1507.59 1378.28 1510.94 1384.26 1516.91C1390.23 1522.88 1393.58 1530.98 1393.58 1539.42C1393.58 1547.87 1390.23 1555.97 1384.26 1561.94C1378.28 1567.91 1370.19 1571.26 1361.74 1571.26C1355.4 1571.25 1349.21 1569.34 1343.96 1565.78C1338.7 1562.22 1334.64 1557.18 1332.27 1551.29H1227.45C1224.3 1551.29 1221.29 1550.04 1219.06 1547.82C1216.84 1545.6 1215.59 1542.58 1215.58 1539.43L1215.32 1136.73H1176.53V1279.91V1354.82H1193.12V1379.72H1061.44C1060.68 1379.63 1059.91 1379.62 1059.15 1379.69C1058.38 1379.77 1057.62 1379.91 1056.89 1380.14C1055.42 1380.6 1054.06 1381.35 1052.89 1382.35C1051.72 1383.36 1050.76 1384.59 1050.09 1385.98C1049.43 1387.37 1049.05 1388.88 1048.99 1390.42C1048.91 1392.12 1049.16 1393.82 1049.74 1395.42C1050.33 1397.02 1051.24 1398.48 1052.4 1399.72C1053.56 1400.97 1054.95 1401.96 1056.51 1402.65C1058.06 1403.35 1059.74 1403.71 1061.44 1403.74H1193.12V1428.65H1058.25C1054.95 1428.65 1051.79 1429.97 1049.45 1432.3C1047.12 1434.64 1045.81 1437.81 1045.81 1441.11C1045.72 1442.81 1045.98 1444.51 1046.56 1446.11C1047.15 1447.71 1048.05 1449.16 1049.21 1450.4C1050.37 1451.65 1051.77 1452.64 1053.33 1453.33C1054.88 1454.03 1056.55 1454.4 1058.25 1454.43H1193.12V1479.33H1058.27C1048.37 1479.33 1038.87 1475.4 1031.86 1468.39C1024.86 1461.39 1020.92 1451.88 1020.92 1441.98C1020.89 1436.85 1021.88 1431.77 1023.84 1427.04C1025.81 1422.3 1028.7 1418.01 1032.35 1414.41C1027.05 1407.87 1024.14 1399.72 1024.11 1391.31C1024 1385.53 1025.3 1379.81 1027.9 1374.65C1030.51 1369.51 1034.33 1365.07 1039.05 1361.74C1036.31 1330.24 1011.16 1293.97 988.562 1261.75C977.881 1246.5 967.789 1232.11 960.045 1218.41C928.205 1162.04 905.364 1098.61 895.564 1042.1L801.096 1041.92V1047.99C801.098 1049.94 800.325 1051.81 798.947 1053.19C797.569 1054.57 795.699 1055.35 793.747 1055.35H757.813C756.846 1055.35 755.889 1055.16 754.995 1054.79C754.102 1054.42 753.291 1053.88 752.607 1053.19C751.924 1052.51 751.382 1051.7 751.013 1050.8C750.643 1049.91 750.454 1048.95 750.455 1047.99V1012.06C750.455 1010.11 751.231 1008.24 752.611 1006.86C753.99 1005.48 755.862 1004.7 757.813 1004.7H793.747C795.697 1004.71 797.566 1005.48 798.944 1006.86C800.321 1008.24 801.096 1010.11 801.096 1012.06V1018.2L892.303 1018.38C891.053 1006.99 890.191 995.859 890.191 985.392C890.191 843.425 1010.5 732.199 1164.08 732.199C1165.71 732.199 1167.34 732.518 1168.85 733.143C1170.36 733.769 1171.73 734.692 1172.89 735.849C1174.04 737.005 1174.96 738.377 1175.58 739.888C1176.21 741.398 1176.53 743.012 1176.53 744.648V772.727V923.539H1215.62C1215.49 923.034 1215.39 922.52 1215.32 922.002L1215.83 669.392H1075.9C1073.58 675.357 1069.51 680.484 1064.23 684.104C1058.95 687.724 1052.71 689.669 1046.31 689.686C1037.86 689.685 1029.77 686.331 1023.8 680.36C1017.83 674.39 1014.47 666.292 1014.47 657.849C1014.47 653.667 1015.29 649.526 1016.89 645.663C1018.49 641.799 1020.84 638.288 1023.79 635.331C1026.75 632.374 1030.26 630.028 1034.12 628.427C1037.99 626.827 1042.13 626.005 1046.31 626.005ZM325.991 645.87C321.255 649.354 317.113 652.934 313.581 656.615C310.031 660.23 306.913 664.394 304.218 669.102C300.625 675.379 298.533 681.418 297.95 687.225C297.35 692.968 298.263 698.18 300.685 702.856C303.107 707.532 307.023 711.419 312.433 714.516C316.562 716.88 320.52 718.209 324.297 718.507C328.056 718.74 331.604 718.329 334.945 717.28C338.286 716.233 341.386 714.882 344.25 713.232C347.072 711.558 349.586 709.952 351.783 708.414C355.308 705.991 358.531 703.858 361.448 702.019C364.389 700.139 367.1 698.897 369.585 698.291C372.07 697.685 374.448 698.033 376.719 699.333C378.577 700.396 379.984 701.775 380.933 703.469C381.883 705.164 382.211 707.216 381.926 709.63C381.665 712.003 380.637 714.765 378.841 717.903C376.241 722.446 372.855 726.591 368.679 730.342C364.504 734.093 360.229 737.568 355.871 740.776L373.712 750.986C376.327 749.193 378.829 747.175 381.215 744.922C383.584 742.604 385.826 740.077 387.941 737.34C390.08 734.562 392.053 731.602 393.849 728.464C397.915 721.361 400.294 714.715 400.983 708.531C401.696 702.304 400.811 696.758 398.336 691.887C395.861 687.016 391.937 683.047 386.568 679.974C381.819 677.257 377.343 675.874 373.147 675.828C368.909 675.76 364.671 676.704 360.426 678.66C356.163 680.551 351.617 683.181 346.78 686.553C342.789 689.313 339.379 691.586 336.551 693.367C333.746 695.105 331.254 696.194 329.076 696.647C326.88 697.034 324.712 696.62 322.565 695.391C320.748 694.351 319.402 693.009 318.535 691.362C317.628 689.691 317.288 687.796 317.513 685.677C317.698 683.535 318.478 681.26 319.849 678.864C321.811 675.437 324.21 672.349 327.051 669.589C329.851 666.805 333.288 663.807 337.369 660.605L325.991 645.87ZM2014.23 649.15L1922.65 699.167L1932.13 716.521L1975.22 692.987C1978.08 691.265 1980.91 689.557 1983.72 687.858L1992.28 682.689C1995.14 680.968 1997.96 679.233 2000.75 677.492L2001.06 678.057L1953.54 755.735L1967.02 780.418L2058.61 730.401L2049.06 712.92L2005.71 736.591L1997.45 741.428C1994.72 743.081 1991.99 744.738 1989.26 746.392C1986.53 748.045 1983.77 749.692 1980.97 751.326L1980.74 750.888L2027.61 673.648L2014.23 649.15ZM1446.95 664.761H1460.75C1461.48 664.762 1462.19 664.939 1462.84 665.276C1463.48 665.614 1464.03 666.102 1464.45 666.7C1464.86 667.298 1465.12 667.987 1465.21 668.709C1465.3 669.431 1465.22 670.163 1464.96 670.844L1422.29 785.382C1421.97 786.243 1421.4 786.986 1420.65 787.512C1419.89 788.037 1419 788.32 1418.08 788.321H1404.28C1403.55 788.321 1402.83 788.144 1402.19 787.807C1401.55 787.469 1400.99 786.98 1400.58 786.382C1400.16 785.785 1399.9 785.095 1399.81 784.374C1399.72 783.652 1399.81 782.919 1400.06 782.238L1442.73 667.701C1443.05 666.839 1443.63 666.096 1444.38 665.571C1445.13 665.046 1446.03 664.763 1446.95 664.761ZM1369.84 681.784C1370.94 681.913 1371.95 682.441 1372.69 683.269C1373.42 684.096 1373.83 685.165 1373.82 686.271V698.788C1373.82 699.643 1373.58 700.481 1373.12 701.203C1372.66 701.926 1372.01 702.502 1371.23 702.866L1319.89 727.101L1371.05 748.543C1371.87 748.884 1372.57 749.459 1373.06 750.197C1373.56 750.934 1373.82 751.801 1373.82 752.689V765.206C1373.82 765.955 1373.64 766.692 1373.28 767.351C1372.92 768.01 1372.41 768.57 1371.78 768.98C1371.15 769.39 1370.44 769.637 1369.69 769.698C1368.94 769.76 1368.19 769.634 1367.51 769.332L1291.93 736.123C1291.13 735.769 1290.45 735.19 1289.98 734.458C1289.5 733.725 1289.25 732.87 1289.25 731.997V723.977C1289.25 723.14 1289.49 722.32 1289.93 721.608C1290.37 720.896 1291 720.321 1291.74 719.947L1367.29 682.242C1367.75 682.011 1368.24 681.859 1368.75 681.794C1369.11 681.747 1369.48 681.744 1369.84 681.784ZM1494.59 681.862C1495.6 681.644 1496.65 681.778 1497.57 682.242L1573.11 719.947C1573.86 720.321 1574.49 720.896 1574.93 721.608C1575.37 722.32 1575.61 723.14 1575.61 723.977V731.997C1575.61 732.873 1575.35 733.731 1574.87 734.464C1574.39 735.197 1573.7 735.774 1572.9 736.124L1497.35 769.333C1496.67 769.634 1495.92 769.76 1495.17 769.698C1494.42 769.637 1493.7 769.39 1493.08 768.98C1492.45 768.57 1491.93 768.011 1491.58 767.352C1491.22 766.693 1491.04 765.955 1491.04 765.206V752.689C1491.04 751.802 1491.3 750.935 1491.8 750.197C1492.29 749.459 1492.99 748.884 1493.81 748.543L1544.97 727.237L1493.61 702.866C1492.84 702.5 1492.19 701.922 1491.73 701.2C1491.28 700.478 1491.03 699.641 1491.04 698.788V686.271C1491.04 685.241 1491.39 684.241 1492.03 683.439C1492.68 682.636 1493.58 682.08 1494.59 681.862ZM1151.63 757.371C1018.01 763.128 915.098 861.274 915.098 985.395C915.098 1047.84 941.252 1134.49 981.75 1206.16C988.883 1218.81 998.64 1232.7 1008.97 1247.45C1032.34 1280.78 1058.52 1318.12 1063.61 1354.81H1151.73V1216.87C1151.72 1216.87 1151.69 1216.87 1151.69 1216.87V1198.74C1148.98 1195.52 1145.73 1193.08 1140.57 1190.95C1140.57 1190.94 1140.57 1190.94 1140.56 1190.93C1140.55 1190.93 1140.55 1190.93 1140.54 1190.93C1131.84 1187.33 1126.32 1187.68 1118.09 1190.33C1109.87 1192.99 1099.5 1198.71 1085.69 1205.28C1083.64 1206.25 1081.34 1206.57 1079.11 1206.18C1076.88 1205.79 1074.82 1204.73 1073.21 1203.12L1033.91 1163.81C1032.31 1162.21 1031.24 1160.15 1030.85 1157.92C1030.47 1155.69 1030.78 1153.39 1031.75 1151.34C1038.24 1137.7 1043.99 1127.37 1046.67 1119.12C1049.35 1110.86 1049.72 1105.23 1046.11 1096.49C1042.51 1087.81 1038.38 1084.17 1030.69 1080.24C1023 1076.31 1011.61 1073.02 997.19 1067.89C995.057 1067.13 993.211 1065.73 991.906 1063.88C990.6 1062.03 989.9 1059.82 989.9 1057.55V1001.97C989.9 999.704 990.6 997.496 991.906 995.645C993.211 993.795 995.057 992.393 997.19 991.633C1011.64 986.488 1023.03 983.199 1030.71 979.272C1038.39 975.344 1042.5 971.707 1046.11 963.018C1049.72 954.311 1049.38 948.823 1046.73 940.612C1044.08 932.402 1038.34 922.025 1031.75 908.163C1030.78 906.116 1030.47 903.818 1030.85 901.586C1031.24 899.354 1032.31 897.296 1033.91 895.695L1073.21 856.393C1074.82 854.791 1076.88 853.725 1079.11 853.342C1081.35 852.959 1083.65 853.276 1085.69 854.252C1099.61 860.869 1109.99 866.589 1118.19 869.231C1126.38 871.873 1131.83 872.203 1140.54 868.588C1140.55 868.588 1140.55 868.588 1140.56 868.588C1140.57 868.585 1140.57 868.582 1140.57 868.578C1145.7 866.449 1148.94 864.014 1151.65 860.811L1151.63 757.371ZM242.073 799.972L221.906 856.277L320.151 891.462L327.49 870.964L288.645 857.056L300.588 823.73L283.584 817.637L271.652 850.973L246.316 841.902L259.144 806.084L242.073 799.972ZM2101.95 834.738L2084.36 840.179L2092.72 867.246L2010.62 892.63L2017.15 913.77L2099.26 888.386L2107.63 915.463L2125.22 910.023L2101.95 834.738ZM1083.34 877.3L1054.81 905.828C1059.67 915.585 1064.65 924.721 1067.6 933.868C1071.3 945.322 1071.84 958.232 1066.38 971.418V971.429C1060.92 984.597 1051.4 993.331 1040.69 998.808C1032.14 1003.18 1022.16 1006.12 1011.83 1009.58V1049.93C1022.15 1053.39 1032.12 1056.33 1040.67 1060.7C1051.39 1066.18 1060.91 1074.91 1066.38 1088.08C1066.38 1088.08 1066.38 1088.09 1066.39 1088.09C1071.89 1101.39 1071.27 1114.4 1067.54 1125.89C1064.56 1135.05 1059.61 1144.09 1054.82 1153.69L1083.34 1182.23C1093.07 1177.38 1102.19 1172.4 1111.34 1169.45C1122.67 1165.79 1135.44 1165.3 1148.47 1170.57L1148.94 1170.67C1148.95 1170.67 1148.96 1170.67 1148.96 1170.67C1150 1171.1 1150.85 1171.68 1151.68 1172.28V1136.73V1135.89C1108.57 1119.47 1079.19 1077.93 1079.11 1030.64C1079.11 1030.63 1079.11 1030.62 1079.11 1030.61C1079.19 983.327 1108.55 941.796 1151.65 925.376V887.281C1150.83 887.875 1149.99 888.443 1148.96 888.867C1148.65 888.943 1148.32 889.005 1148 889.052C1135.18 894.098 1122.61 893.723 1111.44 890.123C1102.3 887.175 1093.14 882.177 1083.34 877.3ZM246.755 897.593C241.954 897.37 237.394 897.662 233.07 898.469C224.432 900.036 217.112 903.877 211.113 909.984C205.125 916.044 200.824 924.582 198.207 935.601C195.577 946.665 195.557 956.299 198.159 964.498C200.76 972.696 205.564 979.46 212.563 984.791C219.527 990.064 228.265 993.945 238.774 996.442C246.644 998.311 254.02 999.037 260.917 998.621C267.814 998.205 274.05 996.581 279.614 993.745C285.189 990.864 289.942 986.69 293.882 981.219C297.777 975.738 300.712 968.853 302.681 960.566C304.649 952.279 305.125 944.818 304.112 938.17C303.052 931.511 300.682 925.656 296.987 920.621C293.303 915.541 288.49 911.275 282.563 907.813C276.59 904.34 269.695 901.671 261.871 899.812C256.593 898.559 251.556 897.817 246.755 897.593ZM241.888 920.485C246.314 920.485 251.183 921.119 256.507 922.383C263.59 924.066 269.49 926.391 274.211 929.372C278.897 932.294 282.185 935.992 284.061 940.448C285.891 944.893 286.077 950.162 284.626 956.273C283.196 962.292 280.667 966.879 277.034 970.026C273.354 973.163 268.754 975.027 263.233 975.622C257.676 976.161 251.356 975.591 244.272 973.909C237.143 972.216 231.243 969.881 226.568 966.911C221.858 963.886 218.587 960.154 216.758 955.709C214.893 951.207 214.675 945.918 216.115 939.854C218.282 930.733 222.899 924.913 229.956 922.383C233.484 921.118 237.462 920.485 241.888 920.485ZM2131.17 935.211L2029.03 956.565L2041.33 1015.39L2059.21 1011.65L2051.44 974.484L2077.78 968.985L2085.01 1003.57L2102.75 999.858L2095.52 965.267L2117.96 960.585L2125.72 997.756L2143.47 994.047L2131.17 935.211ZM1176.53 947.261V968.362V1092.88V1113.01H1278.97V1030.14V947.261H1176.53ZM1151.66 948.838C1121.25 963.805 1101.12 995.192 1101.06 1030.6V1030.61V1030.64C1101.12 1066.06 1121.26 1097.45 1151.68 1112.41L1151.66 948.838ZM1209.29 955.689C1219.75 955.804 1228.52 958.093 1235.18 962.989C1242.03 968.031 1245.52 976.155 1245.52 985.706V1009.13C1245.52 1013.64 1246.63 1015.69 1248.58 1017.09C1250.95 1018.62 1254.86 1019.71 1260.58 1019.71C1261.77 1019.72 1262.91 1020.19 1263.76 1021.03C1264.6 1021.87 1265.07 1023.02 1265.08 1024.21V1035.93C1265.07 1037.11 1264.61 1038.24 1263.78 1039.08C1262.95 1039.92 1261.83 1040.4 1260.65 1040.42C1254.87 1040.52 1250.87 1041.67 1248.48 1043.23C1246.56 1044.54 1245.52 1046.46 1245.52 1050.85V1074.73C1245.52 1084.22 1241.82 1092.31 1234.78 1097.31C1234.77 1097.31 1234.78 1097.33 1234.78 1097.34C1227.98 1102.27 1219.31 1104.59 1209.24 1104.59C1208.05 1104.58 1206.9 1104.11 1206.06 1103.27C1205.22 1102.42 1204.74 1101.28 1204.74 1100.09V1088.53C1204.74 1087.36 1205.19 1086.24 1206 1085.41C1206.81 1084.57 1207.91 1084.07 1209.07 1084.03C1214.03 1083.84 1217.39 1082.71 1219.52 1081.1C1219.56 1081.07 1219.61 1081.03 1219.65 1081C1221.51 1079.7 1222.54 1077.77 1222.54 1073.45V1050.19C1222.54 1043.89 1224.32 1038.24 1228.07 1034.04C1229.94 1031.95 1233.25 1031.42 1235.88 1030.13C1233.26 1028.84 1229.94 1028.32 1228.07 1026.24C1224.32 1022.03 1222.54 1016.39 1222.54 1010.09V986.671C1222.54 982.319 1221.5 980.359 1219.75 979.089C1219.72 979.067 1219.7 979.044 1219.67 979.021C1217.6 977.447 1214.23 976.343 1209.17 976.247C1207.99 976.228 1206.86 975.745 1206.04 974.904C1205.21 974.064 1204.74 972.931 1204.74 971.751V960.188C1204.74 959.594 1204.86 959.005 1205.09 958.457C1205.32 957.909 1205.65 957.411 1206.08 956.993C1206.5 956.575 1207 956.245 1207.55 956.022C1208.1 955.798 1208.69 955.684 1209.29 955.689ZM2107.39 1026.31C2103.73 1026.17 2099.95 1026.32 2096.02 1026.74C2085.37 1027.89 2076.24 1030.55 2068.6 1034.72C2061.01 1038.89 2055.36 1044.65 2051.66 1051.99C2048 1059.37 2046.74 1068.4 2047.9 1079.09C2048.5 1084.63 2049.47 1089.57 2050.8 1093.93C2052.08 1098.29 2053.92 1102.66 2056.31 1107.05L2074.75 1105.06C2072.47 1100.28 2070.62 1095.81 2069.21 1091.66C2067.81 1087.55 2066.88 1083.39 2066.43 1079.18C2065.78 1073.13 2066.59 1068.03 2068.87 1063.91C2071.2 1059.78 2074.86 1056.52 2079.81 1054.12C2084.82 1051.76 2090.99 1050.18 2098.33 1049.39C2103.77 1048.8 2108.72 1048.84 2113.2 1049.51C2117.67 1050.17 2121.57 1051.43 2124.88 1053.27C2128.19 1055.16 2130.82 1057.63 2132.78 1060.67C2134.79 1063.75 2136.01 1067.41 2136.47 1071.62H2136.48C2136.89 1075.4 2136.61 1079.33 2135.66 1083.41C2134.71 1087.48 2133.53 1091.56 2132.1 1095.64L2150.75 1100.8C2152.51 1095.82 2153.75 1090.66 2154.47 1085.32C2155.23 1080.02 2155.34 1074.8 2154.79 1069.64C2153.94 1061.79 2151.88 1054.97 2148.63 1049.19C2145.37 1043.42 2141.14 1038.74 2135.91 1035.14C2130.69 1031.54 2124.7 1029.02 2117.94 1027.6C2114.56 1026.88 2111.04 1026.46 2107.39 1026.31ZM857.966 1080.85C866.409 1080.85 874.507 1084.2 880.477 1090.17C886.447 1096.14 889.802 1104.24 889.802 1112.68C889.794 1117.13 888.855 1121.53 887.044 1125.59C885.234 1129.65 882.593 1133.29 879.291 1136.27C883.341 1149.02 888.614 1164.86 892.722 1174.03C914.036 1221.58 956.562 1263.26 974.839 1319.78C982.991 1344.99 986.762 1380.95 988.942 1411.42C991.123 1441.88 991.424 1466.58 991.424 1466.58C991.466 1469.89 990.194 1473.07 987.889 1475.43C985.584 1477.8 982.434 1479.15 979.131 1479.2C977.495 1479.22 975.871 1478.92 974.352 1478.31C972.832 1477.7 971.447 1476.8 970.276 1475.66C969.105 1474.52 968.17 1473.15 967.525 1471.65C966.88 1470.15 966.538 1468.53 966.517 1466.89C966.517 1466.89 966.218 1442.87 964.094 1413.19C961.97 1383.51 957.738 1347.91 951.12 1327.44C935.357 1278.7 893.925 1237.62 869.986 1184.22C865.001 1173.1 859.638 1157.13 855.601 1144.34C847.604 1143.75 840.126 1140.16 834.662 1134.29C829.199 1128.42 826.151 1120.7 826.129 1112.68C826.129 1104.24 829.484 1096.14 835.454 1090.17C841.424 1084.2 849.522 1080.85 857.966 1080.85ZM278.942 1092.51L232.632 1121.92C231.158 1118.45 229.222 1115.2 226.831 1112.19C224.44 1109.17 221.491 1106.71 217.974 1104.8C214.457 1102.89 210.321 1101.87 205.565 1101.74C198.525 1101.55 192.655 1102.87 187.958 1105.74C183.26 1108.61 179.688 1113.11 177.232 1119.23C174.778 1125.3 173.418 1133.07 173.154 1142.53L172.307 1172.93L276.615 1175.84L277.228 1153.72L237.207 1152.61L237.528 1140.83L278.25 1117.04L278.942 1092.51ZM1494.18 1100.26L1556.48 1127.95L1576.77 1136.97V1191.82C1576.77 1240.82 1543.62 1286.08 1497.14 1297.43L1494.18 1298.15L1491.23 1297.43C1444.75 1286.08 1411.6 1240.82 1411.6 1191.82V1136.97L1489.13 1102.51L1494.18 1100.26ZM205.506 1124.09C210.263 1124.22 213.838 1125.91 216.222 1129.17C218.56 1132.38 219.629 1137.64 219.425 1144.97L219.22 1152.1L191.043 1151.31L191.228 1144.61C191.427 1137.47 192.623 1132.25 194.81 1128.93C196.998 1125.56 200.56 1123.95 205.506 1124.09ZM1494.18 1125.28L1436.51 1153.16V1191.82C1436.51 1228.23 1461.67 1262.86 1494.18 1272.43C1526.7 1262.86 1551.86 1228.23 1551.86 1191.82V1153.16L1494.18 1125.28ZM2053.82 1129.71L2053.64 1151.83L2098.68 1152.19L2098.35 1193.51L2053.32 1193.15L2053.14 1215.21L2157.49 1216.03L2157.67 1193.97L2116.77 1193.65L2117.09 1152.33L2157.99 1152.65L2158.16 1130.52L2053.82 1129.71ZM235.883 1202.06C232.188 1201.9 228.343 1202 224.339 1202.37C213.536 1203.37 204.29 1206.01 196.61 1210.3C188.926 1214.55 183.224 1220.53 179.49 1228.23C175.752 1235.89 174.401 1245.36 175.441 1256.63C176.485 1267.96 179.545 1277.08 184.629 1284.02C189.713 1290.96 196.422 1295.84 204.757 1298.65C213.04 1301.42 222.567 1302.32 233.323 1301.33C241.378 1300.58 248.606 1298.91 255.008 1296.31C261.411 1293.72 266.798 1290.19 271.165 1285.72C275.528 1281.21 278.697 1275.73 280.684 1269.29C282.623 1262.85 283.198 1255.39 282.416 1246.91C281.634 1238.43 279.709 1231.2 276.625 1225.22C273.494 1219.25 269.374 1214.47 264.264 1210.88C259.15 1207.24 253.224 1204.73 246.501 1203.35C243.117 1202.65 239.577 1202.22 235.883 1202.06ZM839.843 1213.31C844.025 1213.31 848.165 1214.14 852.028 1215.74C855.891 1217.34 859.401 1219.68 862.358 1222.64C865.314 1225.6 867.659 1229.11 869.259 1232.97C870.858 1236.84 871.681 1240.98 871.679 1245.16C871.676 1249.68 870.71 1254.14 868.847 1258.26C886.24 1276.6 900.084 1297.07 907.711 1319.62C916.017 1344.19 922.552 1380.7 925.668 1411.58C928.784 1442.46 928.208 1467.02 928.208 1467.02C928.132 1470.32 926.747 1473.46 924.357 1475.74C921.968 1478.02 918.771 1479.26 915.468 1479.19C912.165 1479.11 909.028 1477.73 906.747 1475.34C904.465 1472.95 903.226 1469.75 903.302 1466.45C903.302 1466.45 903.832 1443.36 900.878 1414.08C897.924 1384.81 891.219 1348.67 884.099 1327.61C877.92 1309.33 866.07 1291.57 850.432 1275.1C847.036 1276.32 843.455 1276.97 839.843 1276.99C835.661 1277 831.52 1276.17 827.657 1274.57C823.793 1272.97 820.282 1270.63 817.325 1267.67C814.368 1264.72 812.022 1261.21 810.421 1257.34C808.82 1253.48 807.997 1249.34 807.997 1245.16C807.996 1240.98 808.818 1236.83 810.419 1232.97C812.019 1229.1 814.364 1225.59 817.321 1222.64C820.279 1219.68 823.79 1217.33 827.654 1215.73C831.519 1214.13 835.66 1213.31 839.843 1213.31ZM1766.85 1222.05C1769.48 1222.3 1770.17 1223.52 1781.45 1248.09C1787.96 1262.27 1793.28 1274.36 1793.28 1274.95C1793.28 1275.54 1792.72 1276.79 1792.03 1277.73C1790.89 1279.29 1789.89 1279.37 1781.39 1278.59C1774.98 1278 1771.93 1278.05 1771.74 1278.74C1771.58 1279.29 1770.29 1287.7 1768.88 1297.44C1765.52 1320.68 1763.33 1331.47 1759.24 1344.96C1755.03 1358.85 1745.83 1382.32 1736.84 1402.1C1733.05 1410.44 1730.19 1417.49 1730.48 1417.78C1731.09 1418.4 1765.83 1416.24 1770.07 1415.32C1772.14 1414.87 1775.23 1412.05 1781.21 1405.13L1789.48 1395.55L1785.63 1392.37C1783.06 1390.23 1781.8 1388.4 1781.8 1386.82C1781.8 1383.37 1804.44 1356.94 1807.48 1356.85C1808.99 1356.81 1814.1 1360.53 1823.48 1368.51C1834.78 1378.14 1837.28 1380.71 1837.28 1382.81C1837.31 1386.11 1815.43 1412 1812.17 1412.52C1810.89 1412.72 1808.6 1411.76 1806.44 1410.11C1804.47 1408.6 1802.51 1407.5 1802.08 1407.68C1801.66 1407.86 1797.28 1412.44 1792.37 1417.86C1787.46 1423.28 1781.82 1428.55 1779.84 1429.56C1775.84 1431.6 1768.26 1432.61 1740.17 1434.85C1729.65 1435.69 1720.98 1436.46 1720.91 1436.55C1720.84 1436.64 1715.79 1446.62 1709.68 1458.73C1693.83 1490.12 1682.75 1507.14 1661.82 1532.29C1656.63 1538.53 1652.75 1543.96 1653.2 1544.37C1653.65 1544.77 1662.72 1546.49 1673.35 1548.19L1692.68 1551.29L1695.85 1549.08C1704.65 1542.92 1712.88 1536.4 1712.88 1535.6C1712.88 1535.1 1711.8 1533.29 1710.49 1531.56C1706.24 1526 1706.68 1525.34 1723.04 1513.21C1734.81 1504.49 1738.46 1502.25 1740.17 1502.68C1741.57 1503.03 1745.93 1508.13 1752.32 1516.87C1764.44 1533.47 1763.86 1532.52 1763.14 1534.79C1762.39 1537.15 1734.52 1557.8 1732.08 1557.8C1731.08 1557.8 1728.8 1556.02 1726.99 1553.85L1723.71 1549.91L1711.69 1558.08C1702.3 1564.48 1698.66 1566.42 1695.03 1566.97C1691.6 1567.49 1683.62 1566.65 1664.55 1563.81L1638.7 1559.95L1635.87 1563.42C1630.36 1570.2 1613.68 1586.81 1605.19 1593.97C1592.35 1604.81 1571.88 1619.8 1552.82 1632.33C1543.49 1638.45 1535.84 1643.69 1535.84 1643.98C1535.79 1644.72 1569.53 1664.99 1571.8 1665.58C1573.37 1665.99 1596.84 1660.76 1597.82 1659.78C1597.98 1659.62 1597.6 1657.48 1596.98 1655.01C1594.95 1646.95 1595.21 1646.77 1616.6 1641.46C1633.08 1637.38 1635.5 1636.98 1636.72 1638.22C1638.96 1640.5 1647.14 1674.57 1646.03 1677.01C1645.27 1678.69 1642.03 1679.81 1627.16 1683.59C1606.21 1688.91 1605.61 1688.85 1603.69 1681.33C1602.75 1677.69 1602.07 1676.58 1600.95 1676.91C1593.58 1679.1 1576.45 1682.47 1572.46 1682.47C1566.31 1682.51 1563.48 1681.16 1537.87 1665.98L1518.4 1654.45L1496.23 1665.48C1470.1 1678.48 1452.97 1685.45 1424.29 1694.75C1412.71 1698.51 1402.65 1701.75 1401.94 1701.97C1400.65 1702.35 1416.3 1719.57 1430.68 1733.57L1437.69 1740.39L1453.24 1741.01L1468.8 1741.64V1735.53C1468.8 1726.05 1468.22 1726.26 1493.97 1726.26C1514.41 1726.26 1515.69 1726.36 1516.62 1728.11C1517.22 1729.23 1517.62 1738.47 1517.62 1751.45C1517.62 1769.73 1517.4 1773.11 1516.13 1774.16C1514.28 1775.7 1471.91 1775.51 1470.04 1773.96C1469.4 1773.43 1468.76 1770.13 1468.6 1766.62L1468.32 1760.24L1452.44 1759.64C1435.67 1759.01 1431.17 1758.12 1425.73 1754.31C1423.89 1753.02 1412.63 1742 1400.72 1729.83L1379.07 1707.7L1367.7 1709.77C1342.15 1714.43 1307.94 1717.64 1283.9 1717.64H1269.53L1273.55 1725.06C1283.32 1743.08 1292.93 1760.37 1294.03 1761.87C1294.73 1762.83 1300.73 1765.12 1308.55 1767.4C1315.88 1769.54 1322.54 1771.49 1323.37 1771.75C1324.49 1772.1 1325.3 1770.85 1326.59 1766.71C1328.65 1760.12 1329.59 1758.81 1332.28 1758.81C1333.4 1758.81 1343.12 1761.32 1353.88 1764.39C1368.06 1768.44 1373.78 1770.48 1374.68 1771.84C1375.75 1773.45 1375.11 1776.59 1370.15 1794.25C1366.65 1806.75 1363.78 1815.27 1362.81 1816H1362.79C1360.56 1817.68 1360.08 1817.59 1341.95 1812.32C1333 1809.72 1324.17 1807.18 1322.33 1806.67C1317.29 1805.29 1316.42 1803.2 1318.14 1796.62C1318.93 1793.6 1319.33 1790.91 1319.04 1790.61C1318.75 1790.32 1312.37 1788.18 1304.87 1785.86C1286.91 1780.32 1283.69 1778.7 1279.43 1773.01C1277.49 1770.42 1269.43 1756.8 1261.53 1742.74L1247.15 1717.17L1237.6 1716.89C1226.7 1716.57 1217.21 1718.19 1205.3 1722.4L1197.44 1725.19L1189.77 1717.83C1185.56 1713.78 1181.99 1710.22 1181.84 1709.91C1181.43 1709.04 1195.73 1702.69 1203.12 1700.46C1217.64 1696.06 1225.65 1695.45 1260.59 1696.06C1278.49 1696.37 1297.39 1696.3 1302.58 1695.89L1312.03 1695.15L1320.38 1669.17C1324.98 1654.87 1329.87 1641.24 1331.25 1638.88C1334.66 1633.05 1337.59 1630.78 1351.43 1623.17L1363.27 1616.67L1363.84 1611.94C1365.46 1598.29 1380.47 1588.87 1393.66 1593.22C1400.99 1595.64 1407.53 1603.71 1408.92 1612.08C1410.42 1621.06 1403.99 1632.31 1395.24 1636.02C1389.74 1638.36 1382.01 1637.99 1376.27 1635.11L1371.37 1632.65L1359.54 1639.29C1353.03 1642.95 1347.2 1646.47 1346.59 1647.1C1345.67 1648.06 1339.75 1666.8 1333.43 1688.75L1331.97 1693.82L1336.49 1693.22C1352.62 1691.06 1372.58 1687.45 1384.12 1684.61C1395.89 1681.72 1433.36 1670.18 1433.36 1669.45C1433.36 1669.3 1435.06 1657.21 1437.13 1642.57C1441.94 1608.61 1441.74 1609.08 1457.34 1596.3L1468.72 1586.99L1468.77 1581.94C1468.88 1563.07 1489.62 1552.55 1504.42 1563.86C1510.52 1568.52 1512.94 1574.01 1512.6 1582.39C1512.36 1588.24 1511.89 1589.87 1509.43 1593.37C1503.97 1601.14 1495.94 1604.67 1487.47 1603.03C1484.83 1602.52 1482.04 1601.82 1481.25 1601.47C1479.57 1600.74 1458.74 1617.02 1457.88 1619.74C1457.1 1622.2 1452.48 1661.44 1452.91 1661.88C1453.54 1662.5 1479.13 1650.88 1492.26 1644.02C1499.1 1640.44 1509.86 1634.39 1516.18 1630.58C1528.29 1623.28 1558.29 1603.46 1562.97 1599.64L1565.74 1597.39L1561.78 1574.95C1557.72 1551.98 1557.04 1543.7 1558.83 1538.96C1559.39 1537.48 1562.84 1531.47 1566.51 1525.62L1573.18 1514.99L1571.75 1509.51C1569.79 1501.98 1571.13 1495.79 1575.87 1490.54C1582.81 1482.84 1591.8 1481.13 1600.95 1485.77C1608.22 1489.45 1611.91 1495.51 1611.85 1503.65C1611.76 1515.76 1603.47 1524.3 1591.81 1524.3H1587.46L1580.78 1534.44C1573.88 1544.9 1573.76 1545.16 1574.06 1549.18C1574.3 1552.34 1580.81 1584.93 1581.3 1585.42C1581.79 1585.91 1596.56 1573.57 1604.6 1565.97C1612.01 1558.95 1646.8 1517.77 1659.02 1501.55L1667.86 1489.82L1655.44 1464.88C1640.72 1435.34 1640.81 1435.83 1646.31 1416.19L1649.61 1404.39L1647.38 1401.41C1642.14 1394.39 1641.64 1383.85 1646.2 1376.95C1656.12 1361.96 1678.83 1365.31 1683.83 1382.51C1686.15 1390.5 1684.45 1397.03 1678.54 1402.73C1676.09 1405.11 1672.19 1407.69 1669.86 1408.48L1665.64 1409.92L1662.47 1420.93C1660.73 1426.98 1659.29 1432.94 1659.29 1434.17C1659.28 1436.33 1676.74 1470.13 1678.4 1471.16C1679.57 1471.89 1684.21 1463.17 1699.44 1431.52C1722.87 1382.85 1736.1 1350.85 1741.57 1329.57C1743.95 1320.33 1750.21 1282.59 1750.21 1277.47C1750.21 1275.84 1749.18 1275.54 1741.38 1274.81C1733 1274.04 1732.5 1273.86 1731.66 1271.46C1730.85 1269.15 1732.26 1266.81 1747.42 1245.36C1763.09 1223.2 1764.25 1221.81 1766.85 1222.05ZM564.059 1224.22C566.87 1224.22 568.019 1225.59 583.36 1247.19C592.331 1259.83 599.679 1270.89 599.682 1271.78C599.693 1274.88 597.107 1276.08 589.092 1276.7C584.76 1277.04 580.984 1277.54 580.703 1277.82C580.065 1278.46 584.832 1311.51 587.311 1323.64C591.952 1346.36 605.594 1380.28 631.781 1434.21C638.328 1447.69 645.485 1462.16 647.685 1466.34C651.667 1473.92 651.691 1473.94 653.203 1471.69C657.882 1464.75 671.467 1437.75 671.414 1435.5C671.314 1431.25 665.222 1412.01 663.744 1411.27C662.995 1410.9 660.517 1409.82 658.235 1408.88C652.958 1406.69 648.054 1400.99 646.643 1395.39C643.262 1381.96 653.154 1369.19 666.898 1369.25C683.847 1369.32 693.268 1387.03 684.154 1401.69L681.195 1406.45L684.534 1418.24C687.305 1428.01 687.808 1431.16 687.473 1436.71C687.094 1443.05 686.422 1444.72 674.976 1467.57L662.868 1491.71L671.385 1502.97C676.068 1509.17 682.633 1517.5 685.974 1521.47C689.315 1525.44 698.545 1536.42 706.482 1545.88C714.419 1555.33 724.54 1566.31 728.975 1570.28C741.233 1581.25 749.04 1587.76 749.433 1587.36C749.747 1587.04 755.654 1558.16 756.937 1550.68C757.33 1548.39 756.145 1545.86 750.582 1537.15L743.749 1526.43L737.647 1525.94C726.348 1525.04 718.882 1516.96 718.882 1505.63C718.882 1494.22 726.598 1485.95 737.929 1485.23C743.264 1484.89 744.687 1485.19 749.054 1487.57C757.925 1492.39 761.642 1501.28 759.011 1511.38L757.58 1516.9L763.809 1526.67C767.235 1532.05 770.691 1538 771.488 1539.91C773.744 1545.31 773.247 1552.71 769.045 1576.32C766.904 1588.36 765.364 1598.75 765.619 1599.42C766.284 1601.15 808.505 1629.11 822.703 1637.22C840.355 1647.3 876.861 1664.77 877.967 1663.67C878.321 1663.31 873.519 1623.7 872.877 1621.67C872.022 1618.97 851.405 1602.59 849.693 1603.24C837.512 1607.92 825.996 1603.97 820.484 1593.22C818.173 1588.67 817.827 1587.08 818.119 1581.53C818.394 1576.26 818.977 1574.38 821.341 1571.02C822.923 1568.77 825.662 1565.94 827.433 1564.75C842.079 1554.88 861.814 1565.59 862.005 1583.51L862.063 1588.91L873.383 1598.15C888.923 1610.85 888.803 1610.57 893.588 1644.09C895.642 1658.49 897.345 1670.55 897.345 1670.91C897.377 1671.83 928.101 1681.64 943.314 1685.57C954.616 1688.5 982.681 1693.64 994.831 1695.01C998.155 1695.38 998.867 1695.2 998.442 1694.09C998.151 1693.33 996.577 1688.1 994.948 1682.45C988.454 1659.95 985.167 1650.09 983.657 1648.59C982.786 1647.72 976.978 1644.21 970.751 1640.77L959.432 1634.53L954.488 1636.83C943.513 1641.94 931.311 1638.53 925.405 1628.69C921.468 1622.14 920.665 1616.92 922.593 1610.29C928.088 1591.39 954.031 1588.27 964.016 1605.31C965.348 1607.58 966.731 1611.43 967.082 1613.86L967.724 1618.28L980.076 1625.36C986.869 1629.25 993.283 1633.19 994.334 1634.12C998.898 1638.15 1002.12 1645.54 1010.33 1670.84L1018.91 1697.29L1037.34 1697.97C1048.89 1698.4 1063.11 1698.22 1075.4 1697.5C1103.07 1695.86 1115.8 1697.18 1133.79 1703.51C1150.42 1709.37 1164.04 1718.26 1176.81 1731.62C1189.8 1745.21 1198.94 1759.82 1204.3 1775.56C1207.88 1786.04 1212.27 1807.09 1212.27 1813.68C1212.27 1826.39 1207.33 1837.65 1197.48 1847.35C1190.81 1853.91 1184.44 1857.65 1176.35 1859.76V1859.74C1160.13 1863.97 1142.7 1858.83 1131.06 1846.38C1120.53 1835.12 1117.04 1823.42 1118.5 1804.27C1119.78 1787.46 1125.03 1772.18 1134.71 1757.08L1138.57 1751.07L1144.08 1754.91C1147.1 1757.02 1150.82 1759.79 1152.33 1761.06L1155.08 1763.37L1152.67 1768.5C1140.86 1793.61 1139.13 1817.03 1148.28 1828.07C1156.32 1837.78 1172.25 1839.09 1181.01 1830.77C1186.72 1825.36 1187.87 1821.68 1187.82 1809.05C1187.76 1795.27 1185.54 1785.78 1179.28 1772.51C1172.44 1758.02 1165.05 1748.3 1153.12 1738.12C1137.01 1724.37 1110.65 1716.08 1090.24 1718.33L1083.55 1719.07L1078.67 1727.69C1075.99 1732.43 1069.11 1744.63 1063.37 1754.81C1057.63 1764.99 1051.5 1774.8 1049.75 1776.6C1045.39 1781.09 1041.63 1782.83 1026.1 1787.54C1018.73 1789.77 1012.35 1791.91 1011.92 1792.3C1011.49 1792.68 1011.78 1795.48 1012.57 1798.51C1013.66 1802.66 1013.75 1804.43 1012.94 1805.73C1011.37 1808.25 971.067 1819.68 968.532 1818.32C967.159 1817.59 965.218 1812.14 960.785 1796.55C955.412 1777.66 955.006 1775.57 956.278 1773.73C958.216 1770.94 997.346 1759.58 1000.35 1760.94C1001.7 1761.55 1002.94 1763.81 1004.17 1767.87L1006 1773.89L1020.24 1769.78C1028.37 1767.44 1035.21 1764.92 1036.17 1763.91C1037.7 1762.3 1044.95 1749.56 1056.63 1727.93L1061.14 1719.55H1051.15C1026.45 1719.55 993.524 1716.68 966.858 1712.2L951.646 1709.65L929.046 1732.75C901.007 1761.39 902.907 1760.32 879.174 1761.39L862.423 1762.14L861.947 1768.37C861.684 1771.79 861.126 1775.13 860.701 1775.79C859.615 1777.47 815.96 1777.52 814.284 1775.84C813.46 1775.01 813.136 1768.51 813.136 1752.58C813.136 1736.66 813.457 1730.15 814.284 1729.32C815.915 1727.69 859.168 1727.69 860.798 1729.32C861.447 1729.97 861.947 1733.08 861.947 1736.5V1742.53H877.666H893.384L911.128 1724.11C920.885 1713.97 928.914 1705.25 928.978 1704.74C929.04 1704.22 921.415 1701.38 912.033 1698.43C880.493 1688.5 856.143 1678.6 829.332 1664.8L812.513 1656.15L793.436 1667.41C768.889 1681.91 764.182 1684.13 758.096 1684.13C755.464 1684.13 747.739 1682.83 740.927 1681.26C734.116 1679.69 728.454 1678.4 728.342 1678.4C728.231 1678.4 727.614 1680.56 726.98 1683.21C725.17 1690.75 724.747 1690.79 703.835 1685.5C689.882 1681.98 685.49 1680.5 684.729 1679.08C683.977 1677.68 684.812 1672.95 688.233 1659.24C693.954 1636.29 691.95 1637.48 714.998 1643.36C724.333 1645.74 732.62 1648.23 733.413 1648.89C734.816 1650.05 734.718 1654.27 733.17 1659.76C732.669 1661.54 733.706 1661.96 745.55 1664.87L758.475 1668.04L764.062 1664.84C777.089 1657.4 794.894 1646.29 794.692 1645.74C794.571 1645.4 785.852 1639.36 775.323 1632.3C736.498 1606.3 711.653 1585.61 695.367 1565.72L692.057 1561.67L670.042 1565.1C657.933 1566.98 644.577 1568.6 640.366 1568.67C631.868 1568.82 630.619 1568.24 614.223 1556.66L607.215 1551.72L603.458 1555.82C600.901 1558.62 599.137 1559.8 597.94 1559.48C594.38 1558.55 568.098 1538.49 567.544 1536.28C567.115 1534.57 569.294 1530.99 577.685 1519.63C584.682 1510.15 589.142 1504.96 590.601 1504.59C592.362 1504.15 595.507 1505.98 605.59 1513.34C624.731 1527.31 624.784 1527.38 620.267 1533.3C618.951 1535.03 617.873 1536.91 617.873 1537.49C617.873 1538.06 621.423 1541.07 625.766 1544.18C639.497 1554.03 635.999 1553.36 656.678 1550.12C666.66 1548.55 675.801 1547.05 676.991 1546.77C678.981 1546.31 678.487 1545.49 670.879 1536.48C649.218 1510.83 636.65 1491.66 621.172 1460.71C615.135 1448.64 610.043 1438.61 609.863 1438.43C609.68 1438.25 598.809 1437.25 585.705 1436.2C559.203 1434.09 553.89 1433.25 549.285 1430.4C547.547 1429.33 542.179 1423.97 537.352 1418.49L528.573 1408.54L524.991 1411.38C518.835 1416.25 518.013 1415.81 505.048 1400.64C496.737 1390.92 493.437 1386.37 493.437 1384.61C493.437 1381.18 519.059 1359.19 523.054 1359.19C525.258 1359.19 527.594 1361.4 537.323 1372.74C550.65 1388.26 551.088 1389.45 545.158 1394.22L541.352 1397.27L545.391 1402.11C547.614 1404.77 551.587 1409.27 554.219 1412.1L559.008 1417.24L579.389 1418.72C590.598 1419.54 600.02 1419.94 600.334 1419.63C600.646 1419.32 597.981 1412.69 594.407 1404.91C586.247 1387.15 576.919 1363.98 572.926 1351.52C568.222 1336.84 565.611 1324.7 562.317 1302.23C560.658 1290.91 559.136 1281.1 558.94 1280.44C558.693 1279.61 557.428 1279.4 554.959 1279.76C552.971 1280.05 548.574 1280.38 545.177 1280.5C535.105 1280.83 535.116 1280.67 549.187 1250.06C561.033 1224.3 561.079 1224.22 564.059 1224.22ZM236.662 1225.21C239.83 1225.38 242.767 1225.78 245.479 1226.44C250.853 1227.71 255.145 1230.17 258.347 1233.79C261.5 1237.42 263.366 1242.36 263.943 1248.61C264.511 1254.77 263.577 1259.93 261.14 1264.07C258.655 1268.22 254.891 1271.45 249.85 1273.78C244.756 1276.07 238.577 1277.54 231.328 1278.21C224.031 1278.88 217.698 1278.56 212.319 1277.24C206.89 1275.87 202.596 1273.38 199.442 1269.75C196.237 1266.08 194.35 1261.15 193.778 1254.94C192.918 1245.61 195.423 1238.61 201.302 1233.96C207.18 1229.3 215.573 1226.48 226.471 1225.48C230.096 1225.14 233.493 1225.05 236.662 1225.21ZM2051.45 1241.6L2048.74 1261.18L2097.37 1267.92C2100.69 1268.24 2103.99 1268.56 2107.26 1268.87C2110.58 1269.18 2113.9 1269.5 2117.22 1269.81C2120.54 1270.13 2123.84 1270.42 2127.12 1270.68L2127.03 1271.32L2042.6 1305.44L2038.74 1333.3L2142.1 1347.63L2144.84 1327.9L2095.91 1321.11C2092.74 1320.77 2089.57 1320.43 2086.4 1320.08C2083.23 1319.79 2080.04 1319.49 2076.86 1319.2C2073.69 1318.9 2070.49 1318.57 2067.27 1318.22L2067.34 1317.74L2150.98 1283.57L2154.82 1255.93L2051.45 1241.6ZM288.304 1309.82L270.405 1313.52L278.98 1354.97L194.683 1372.41L199.16 1394.07L301.357 1372.94L288.304 1309.82ZM1263.66 1354.81H1266.73C1271.55 1354.58 1276.34 1355.34 1280.86 1357.03C1285.38 1358.72 1289.52 1361.31 1293.01 1364.64C1296.5 1367.97 1299.27 1371.97 1301.18 1376.4C1303.08 1380.83 1304.06 1385.6 1304.07 1390.42C1304.07 1399.08 1301.16 1407.49 1295.8 1414.29C1299.42 1417.76 1302.29 1421.91 1304.26 1426.52C1306.23 1431.13 1307.25 1436.1 1307.26 1441.11C1307.34 1446.09 1306.44 1451.01 1304.6 1455.63C1302.76 1460.25 1300.03 1464.46 1296.55 1468.01C1293.08 1471.57 1288.94 1474.4 1284.37 1476.34C1279.79 1478.29 1274.87 1479.3 1269.9 1479.33H1263.66V1454.44H1269.89C1273.2 1454.44 1276.37 1453.12 1278.7 1450.79C1281.04 1448.45 1282.35 1445.28 1282.35 1441.98C1282.44 1440.28 1282.18 1438.58 1281.59 1436.98C1281.01 1435.38 1280.11 1433.91 1278.95 1432.67C1277.79 1431.43 1276.39 1430.42 1274.84 1429.73C1273.28 1429.04 1271.6 1428.68 1269.89 1428.65H1263.66V1403.75H1266.71C1270.01 1403.75 1273.18 1402.44 1275.51 1400.11C1277.85 1397.77 1279.16 1394.61 1279.16 1391.31C1279.19 1389.7 1278.88 1388.11 1278.25 1386.63C1277.63 1385.15 1276.7 1383.82 1275.53 1382.72C1274.36 1381.63 1272.95 1380.8 1271.43 1380.28C1269.91 1379.77 1268.31 1379.57 1266.71 1379.72H1263.66V1354.81ZM2063.05 1365.64C2056.15 1365.8 2049.87 1367.2 2044.2 1369.83C2038.52 1372.5 2033.61 1376.5 2029.47 1381.82C2025.38 1387.15 2022.19 1393.92 2019.92 1402.13C2017.64 1410.34 2016.89 1417.79 2017.66 1424.47C2018.47 1431.16 2020.63 1437.09 2024.14 1442.26C2027.63 1447.47 2032.27 1451.92 2038.07 1455.59C2043.91 1459.29 2050.71 1462.21 2058.46 1464.35C2068.91 1467.25 2078.49 1468.05 2087.19 1466.76C2095.88 1465.51 2103.34 1461.94 2109.56 1456.06C2115.77 1450.23 2120.38 1441.85 2123.41 1430.94C2126.44 1419.98 2126.81 1410.35 2124.52 1402.06C2122.22 1393.77 2117.67 1386.84 2110.87 1381.25C2104.11 1375.73 2095.52 1371.52 2085.11 1368.64C2077.31 1366.48 2069.96 1365.48 2063.05 1365.64ZM2059.9 1388.54C2065.47 1388.21 2071.77 1389.01 2078.78 1390.96C2085.84 1392.91 2091.65 1395.46 2096.21 1398.6C2100.81 1401.8 2103.94 1405.65 2105.61 1410.16C2107.3 1414.73 2107.33 1420.02 2105.66 1426.03C2103.16 1435.06 2098.34 1440.71 2091.19 1442.98C2084.05 1445.25 2075.2 1444.92 2064.65 1442C2057.63 1440.05 2051.83 1437.51 2047.22 1434.36C2042.64 1431.26 2039.5 1427.45 2037.79 1422.93C2036.12 1418.42 2036.13 1413.14 2037.81 1407.09C2039.46 1401.12 2042.16 1396.65 2045.91 1393.63C2049.7 1390.64 2054.36 1388.94 2059.9 1388.54ZM306.563 1394.11L289.093 1399.45L300.189 1435.77L274.454 1443.63L264.128 1409.84L246.794 1415.13L257.12 1448.93L235.202 1455.62L224.106 1419.31L206.772 1424.6L224.33 1482.08L324.132 1451.58L306.563 1394.11ZM1999.94 1470.56L1975.91 1530.36L1992.87 1537.18L2008.65 1497.9L2088.51 1530L2096.77 1509.48L1999.94 1470.56ZM332.444 1476.66L236.555 1517.83L245.256 1538.09L282.835 1521.95L299.147 1559.93L261.559 1576.07L270.289 1596.4L366.178 1555.22L357.448 1534.89L316.063 1552.66L299.76 1514.69L341.145 1496.92L332.444 1476.66ZM1986.27 1558.97C1983.05 1558.95 1979.91 1559.27 1976.86 1559.92C1970.73 1561.27 1965.05 1564.07 1959.84 1568.34C1954.66 1572.63 1950.05 1578.53 1946.01 1586.03C1941.97 1593.52 1939.59 1600.62 1938.85 1607.3C1938.16 1614.01 1938.94 1620.27 1941.22 1626.09C1943.46 1631.95 1947 1637.31 1951.83 1642.19C1956.71 1647.08 1962.69 1651.44 1969.77 1655.26C1979.32 1660.4 1988.49 1663.31 1997.26 1663.98C2006.01 1664.69 2014.06 1662.88 2021.43 1658.53C2028.78 1654.22 2035.14 1647.07 2040.51 1637.1C2045.91 1627.09 2048.4 1617.79 2048.01 1609.2C2047.61 1600.61 2044.72 1592.83 2039.33 1585.87C2033.97 1578.98 2026.53 1572.98 2017.02 1567.85C2009.89 1564.02 2002.95 1561.41 1996.18 1560.03C1992.79 1559.34 1989.49 1558.99 1986.27 1558.97ZM373.001 1576.97L356.903 1586.21C360.916 1589.67 364.409 1593.01 367.366 1596.26C370.299 1599.45 372.811 1602.89 374.918 1606.56C377.95 1611.84 379.255 1616.83 378.821 1621.52C378.346 1626.24 376.323 1630.69 372.748 1634.89C369.108 1639.06 364.088 1642.98 357.691 1646.65C352.945 1649.38 348.391 1651.33 344.026 1652.52C339.66 1653.71 335.583 1654.13 331.811 1653.77C328.015 1653.37 324.615 1652.17 321.601 1650.17C318.522 1648.15 315.932 1645.3 313.825 1641.63C311.93 1638.33 310.593 1634.62 309.824 1630.51C309.055 1626.39 308.502 1622.18 308.17 1617.87L289.025 1620.64C289.412 1625.9 290.347 1631.13 291.838 1636.31C293.264 1641.47 295.271 1646.29 297.853 1650.79C301.784 1657.64 306.401 1663.06 311.703 1667.04C317.004 1671.02 322.769 1673.61 328.998 1674.81C335.227 1676.01 341.723 1675.9 348.484 1674.49C355.245 1673.08 362.043 1670.4 368.894 1666.47C378.18 1661.14 385.486 1655.03 390.803 1648.14C396.078 1641.27 398.942 1633.73 399.387 1625.52C399.768 1617.29 397.274 1608.52 391.922 1599.19C389.151 1594.37 386.287 1590.22 383.318 1586.77C380.39 1583.29 376.949 1580.03 373.001 1576.97ZM1980.21 1581.48C1982.67 1581.17 1985.27 1581.23 1988.01 1581.66C1993.52 1582.57 1999.48 1584.75 2005.89 1588.21C2012.34 1591.68 2017.44 1595.45 2021.19 1599.53C2024.96 1603.66 2027.16 1608.12 2027.78 1612.89C2028.42 1617.72 2027.26 1622.88 2024.31 1628.36C2019.86 1636.62 2013.9 1641.06 2006.43 1641.68C1998.96 1642.3 1990.41 1640.02 1980.77 1634.83C1974.36 1631.37 1969.26 1627.6 1965.47 1623.51C1961.7 1619.48 1959.48 1615.06 1958.81 1610.27C1958.19 1605.5 1959.37 1600.36 1962.35 1594.83C1965.28 1589.39 1968.92 1585.61 1973.24 1583.51C1975.42 1582.46 1977.74 1581.79 1980.21 1581.48ZM418.132 1648.14L355.268 1739.76L371.21 1761.61L477.562 1729.62L463.518 1710.35L438.99 1718.88L416.575 1688.14L432.177 1667.4L418.132 1648.14ZM1917.13 1662.18C1913.07 1662.66 1909.15 1663.78 1905.39 1665.53C1897.86 1669.05 1891.09 1675.03 1885.07 1683.48C1880.73 1689.57 1877.27 1695.31 1874.7 1700.72C1872.17 1706.16 1870.05 1711.63 1868.35 1717.14L1912.41 1748.55L1936.44 1714.83L1921.44 1704.16L1909.96 1720.26L1892.23 1707.63C1893.06 1705.89 1893.99 1704.03 1894.98 1702.05C1895.99 1700.14 1897.41 1697.9 1899.23 1695.35C1902.96 1690.12 1907.19 1686.73 1911.91 1685.19C1916.67 1683.66 1921.71 1683.66 1927.05 1685.19C1932.43 1686.74 1937.89 1689.49 1943.43 1693.44C1949.29 1697.61 1953.62 1702.28 1956.43 1707.44C1959.25 1712.66 1960.5 1718.04 1960.17 1723.59C1959.81 1729.18 1957.76 1734.59 1954.03 1739.82C1951.44 1743.46 1948.5 1746.63 1945.24 1749.33C1941.97 1752.02 1938.76 1754.21 1935.59 1755.87L1945.73 1772.12C1949.82 1769.66 1953.92 1766.59 1958.01 1762.9C1962.09 1759.21 1965.74 1755.12 1968.95 1750.63C1975.74 1741.1 1979.71 1731.75 1980.87 1722.58C1982 1713.45 1980.54 1704.84 1976.49 1696.75C1972.41 1688.7 1965.91 1681.5 1957 1675.15C1947.51 1668.38 1938.41 1664.21 1929.72 1662.63C1925.38 1661.84 1921.18 1661.69 1917.13 1662.18ZM404.692 1703.36L420.721 1725.32L396.691 1733.57C395.611 1733.94 393.814 1734.59 391.289 1735.49C388.764 1736.38 386.111 1737.35 383.328 1738.38C380.478 1739.39 378.118 1740.29 376.262 1741.05C377.557 1739.52 379.063 1737.65 380.768 1735.47C382.405 1733.27 384.036 1731.11 385.663 1728.98C387.224 1726.84 388.52 1725.1 389.547 1723.77L404.692 1703.36ZM475.722 1748.21C470.301 1748.98 465.261 1751.51 460.598 1755.79C456.565 1759.49 453.917 1763.08 452.656 1766.56C451.327 1770.04 450.979 1773.39 451.614 1776.62C452.215 1779.88 453.432 1783.03 455.254 1786.07L454.728 1786.55C451.957 1784.45 449.007 1783.21 445.891 1782.84C442.775 1782.47 439.626 1782.91 436.44 1784.15C433.222 1785.36 430.153 1787.3 427.243 1789.97C420.019 1796.6 417.39 1803.86 419.339 1811.75C421.289 1819.65 426.96 1828.72 436.353 1838.96L458.3 1862.89L535.201 1792.35L508.805 1763.57C503.466 1757.75 497.989 1753.55 492.376 1750.95C486.695 1748.35 481.144 1747.43 475.722 1748.21ZM1834.43 1749.69L1819.76 1766.06L1850.02 1793.15L1874.42 1861.45L1890.32 1843.7L1872.82 1798.82L1919.27 1811.36L1935.26 1793.49L1864.15 1776.3L1834.43 1749.69ZM484.784 1770.13C488.447 1770.32 492.525 1772.87 497.028 1777.78L506.781 1788.39L486.741 1806.78L477.474 1796.68C474.29 1793.21 472.201 1790.12 471.207 1787.42C470.18 1784.68 469.996 1782.23 470.662 1780.07C471.327 1777.91 472.613 1775.96 474.506 1774.22C477.697 1771.3 481.122 1769.93 484.784 1770.13ZM453.882 1801.37C457.027 1801.84 460.772 1804.45 465.114 1809.18L473.796 1818.64L456.704 1834.32L448.84 1825.76C444.562 1821.09 442.088 1817.1 441.424 1813.77C440.692 1810.44 441.797 1807.42 444.743 1804.72C447.653 1802.05 450.702 1800.93 453.882 1801.37ZM618.048 1909.21C614.726 1909.21 611.436 1909.86 608.367 1911.13C605.298 1912.4 602.509 1914.27 600.16 1916.62C597.811 1918.97 595.948 1921.75 594.677 1924.82C593.405 1927.89 592.752 1931.18 592.752 1934.51C592.754 1941.21 595.419 1947.64 600.163 1952.39C604.907 1957.13 611.34 1959.79 618.048 1959.79C624.754 1959.79 631.184 1957.13 635.926 1952.38C640.668 1947.64 643.333 1941.21 643.334 1934.51C643.335 1927.8 640.672 1921.36 635.93 1916.62C631.188 1911.88 624.756 1909.21 618.048 1909.21ZM1712.71 1909.21C1706 1909.21 1699.57 1911.88 1694.82 1916.62C1690.08 1921.36 1687.42 1927.8 1687.42 1934.51C1687.42 1941.21 1690.08 1947.64 1694.83 1952.38C1699.57 1957.13 1706 1959.79 1712.71 1959.79C1719.41 1959.79 1725.85 1957.13 1730.59 1952.39C1735.33 1947.64 1738 1941.21 1738 1934.51C1738 1931.18 1737.35 1927.89 1736.08 1924.82C1734.81 1921.75 1732.94 1918.97 1730.59 1916.62C1728.24 1914.27 1725.46 1912.4 1722.39 1911.13C1719.32 1909.86 1716.03 1909.21 1712.71 1909.21ZM1539.71 1963.61L1519.36 1972.1L1543.93 2030.92C1546 2035.88 1547.05 2040.24 1547.07 2043.99C1547.09 2047.75 1546.02 2050.98 1543.85 2053.7C1541.72 2056.39 1538.42 2058.67 1533.94 2060.54C1527.57 2063.2 1522.1 2063.6 1517.51 2061.75C1512.92 2059.91 1508.97 2055.01 1505.65 2047.07L1481.03 1988.11L1460.68 1996.62L1486.59 2058.66C1491.06 2069.37 1498 2076.59 1507.39 2080.3C1516.78 2084.01 1527.83 2083.2 1540.57 2077.88C1549.52 2074.14 1556.3 2069.48 1560.88 2063.91C1565.51 2058.31 1568.15 2052.26 1568.83 2045.73C1569.54 2039.15 1568.51 2032.54 1565.74 2025.91L1539.71 1963.61ZM820.095 1983.98C813.468 1984.15 807.345 1985.7 801.719 1988.63C796.093 1991.56 791.065 1995.68 786.642 2000.98C782.22 2006.29 778.543 2012.61 775.615 2019.95C771.647 2029.89 769.721 2039.21 769.834 2047.91C769.964 2056.57 772.403 2064.26 777.153 2070.97C781.965 2077.66 789.366 2083 799.354 2086.98C804.524 2089.05 809.345 2090.51 813.817 2091.37C818.271 2092.28 822.996 2092.7 827.988 2092.65L834.869 2075.41C829.576 2075.19 824.766 2074.73 820.435 2074.03C816.149 2073.34 812.037 2072.21 808.104 2070.64C802.447 2068.38 798.337 2065.28 795.762 2061.34C793.205 2057.34 792.021 2052.6 792.219 2047.1C792.48 2041.56 793.982 2035.37 796.716 2028.52C798.744 2023.43 801.099 2019.08 803.782 2015.43C806.465 2011.79 809.392 2008.94 812.571 2006.88C815.795 2004.84 819.215 2003.66 822.82 2003.36C826.487 2003.03 830.284 2003.65 834.217 2005.22C837.753 2006.63 841.095 2008.71 844.252 2011.45C847.409 2014.2 850.455 2017.15 853.391 2020.32L866.686 2006.27C863.114 2002.38 859.139 1998.87 854.754 1995.74C850.43 1992.58 845.857 1990.04 841.04 1988.11C833.704 1985.19 826.722 1983.8 820.095 1983.98ZM879.427 2003.46L847.766 2102.9L868.847 2109.6L900.508 2010.17L879.427 2003.46ZM1445.6 2004.11C1442.87 2004 1440.23 2004.02 1437.68 2004.15C1432.62 2004.37 1427.5 2005.28 1422.31 2006.88C1415.4 2009.01 1409.75 2012 1405.36 2015.84C1401 2019.63 1398.11 2024.06 1396.69 2029.13C1395.26 2034.2 1395.47 2039.71 1397.31 2045.66C1398.71 2050.21 1400.69 2053.89 1403.25 2056.68C1405.83 2059.42 1408.7 2061.54 1411.86 2063.06C1415.02 2064.57 1418.21 2065.71 1421.43 2066.46C1424.63 2067.17 1427.56 2067.7 1430.22 2068.08C1434.45 2068.72 1438.26 2069.36 1441.64 2070.01C1445.07 2070.64 1447.91 2071.58 1450.14 2072.84C1452.37 2074.09 1453.86 2075.97 1454.64 2078.47C1455.27 2080.52 1455.35 2082.49 1454.89 2084.37C1454.42 2086.26 1453.26 2087.98 1451.4 2089.55C1449.59 2091.1 1446.97 2092.42 1443.51 2093.48C1438.51 2095.02 1433.2 2095.74 1427.59 2095.63C1421.98 2095.52 1416.48 2095.15 1411.11 2094.51L1417.17 2114.16C1420.31 2114.62 1423.51 2114.85 1426.79 2114.85C1430.1 2114.77 1433.47 2114.46 1436.88 2113.9C1440.34 2113.33 1443.8 2112.52 1447.26 2111.45C1455.08 2109.04 1461.35 2105.8 1466.08 2101.76C1470.85 2097.69 1473.99 2093.04 1475.51 2087.79C1477.03 2082.54 1476.88 2076.96 1475.05 2071.05C1473.44 2065.82 1471.12 2061.76 1468.09 2058.86C1465.04 2055.92 1461.29 2053.71 1456.85 2052.24C1452.45 2050.71 1447.32 2049.53 1441.49 2048.69C1436.69 2047.98 1432.65 2047.31 1429.37 2046.68C1426.13 2046.03 1423.56 2045.14 1421.66 2043.98C1419.79 2042.76 1418.5 2040.97 1417.77 2038.61C1417.15 2036.61 1417.08 2034.71 1417.57 2032.91C1418.05 2031.07 1419.09 2029.46 1420.71 2028.07C1422.3 2026.63 1424.42 2025.49 1427.06 2024.68C1430.84 2023.52 1434.7 2022.9 1438.66 2022.82C1442.61 2022.7 1447.16 2022.86 1452.33 2023.31L1454.08 2004.77C1451.16 2004.42 1448.34 2004.21 1445.6 2004.11ZM1390.4 2019.06L1368.55 2023.73L1362.2 2088.59C1362.1 2089.73 1361.98 2091.79 1361.84 2094.79C1361.74 2097.73 1361.66 2100.84 1361.58 2104.12C1361.55 2107.39 1361.62 2110.07 1361.77 2112.18C1361.06 2110.19 1359.96 2107.72 1358.5 2104.77C1357.08 2101.77 1355.71 2098.95 1354.37 2096.32C1353.01 2093.64 1352.06 2091.82 1351.51 2090.87L1319.34 2034.25L1297.5 2038.92L1297.87 2039.53L1288.18 2040.42L1280.16 2098.35C1279.85 2100.67 1279.48 2103.54 1279.08 2106.97C1278.73 2110.4 1278.4 2113.85 1278.1 2117.32C1277.84 2120.74 1277.65 2123.64 1277.53 2126.04C1277.18 2124.3 1276.69 2122.27 1276.05 2119.94C1275.45 2117.56 1274.79 2115.14 1274.09 2112.67C1273.39 2110.2 1272.69 2107.92 1272.03 2105.83C1271.4 2103.69 1270.87 2101.99 1270.42 2100.74L1249.95 2043.92L1229.12 2045.83L1219.31 2105.43C1219.05 2106.79 1218.78 2108.55 1218.5 2110.73C1218.23 2112.91 1217.97 2115.27 1217.73 2117.83C1217.52 2120.33 1217.35 2122.81 1217.19 2125.26C1217.03 2127.67 1216.9 2129.78 1216.83 2131.6C1216.48 2129.86 1215.98 2127.83 1215.34 2125.5C1214.74 2123.11 1214.06 2120.67 1213.31 2118.16C1212.59 2115.59 1211.87 2113.16 1211.14 2110.84C1210.45 2108.51 1209.83 2106.51 1209.3 2104.84L1190.81 2049.33L1169.13 2051.32L1205.16 2152.81L1230.17 2150.52L1239.2 2094.79C1239.38 2093.62 1239.6 2091.93 1239.88 2089.71C1240.15 2087.48 1240.41 2085.1 1240.66 2082.54C1240.95 2079.98 1241.18 2077.57 1241.36 2075.31C1241.58 2073.05 1241.7 2071.24 1241.72 2069.9C1241.98 2071.21 1242.4 2072.99 1242.99 2075.23C1243.62 2077.42 1244.32 2079.77 1245.07 2082.28C1245.83 2084.74 1246.54 2087.02 1247.21 2089.11C1247.88 2091.2 1248.39 2092.75 1248.77 2093.77L1267.85 2147.06L1292.94 2144.77L1307.2 2055.19L1353.93 2133.56L1377.52 2128.52L1390.4 2019.06ZM945.553 2023.28C943.848 2023.37 942.174 2023.57 940.54 2023.84C934.006 2024.96 928.163 2027.36 923.011 2031.07C917.86 2034.77 913.474 2039.56 909.852 2045.44C906.23 2051.32 903.49 2058.1 901.638 2065.77C899.126 2076.18 898.553 2085.68 899.905 2094.28C901.268 2102.83 904.778 2110.1 910.436 2116.06C916.151 2122 924.237 2126.22 934.691 2128.75C940.103 2130.05 945.082 2130.81 949.631 2131.02C954.169 2131.29 958.898 2131.04 963.831 2130.27L968.192 2112.23C962.922 2112.77 958.085 2113 953.699 2112.92C949.359 2112.85 945.134 2112.33 941.017 2111.33C935.096 2109.9 930.579 2107.42 927.469 2103.88C924.369 2100.29 922.528 2095.76 921.94 2090.28C921.411 2084.77 922.011 2078.42 923.741 2071.25C925.025 2065.93 926.733 2061.28 928.87 2057.3C931.007 2053.31 933.502 2050.07 936.355 2047.57C939.255 2045.09 942.466 2043.44 945.991 2042.63C949.573 2041.78 953.427 2041.86 957.544 2042.85V2042.84C961.244 2043.73 964.851 2045.32 968.367 2047.59C971.882 2049.86 975.316 2052.35 978.674 2055.07L988.923 2040.55L987.307 2051.46L1015.34 2055.61L1002.74 2140.62L1024.63 2143.86L1037.22 2058.85L1065.25 2063L1067.94 2044.78L990.003 2033.25L989.186 2038.78C985.27 2035.66 981.066 2032.89 976.523 2030.54C971.794 2028.03 966.907 2026.16 961.865 2024.94C956.106 2023.55 950.668 2023 945.553 2023.28ZM1099.88 2103.17L1099.13 2121L1137.42 2122.6L1138.17 2104.78L1099.88 2103.17Z" fill="#4B83E2"/>
</svg>
