<svg width="893" height="994" viewBox="0 0 893 994" fill="none" xmlns="http://www.w3.org/2000/svg">
<path d="M100.552 256.652C101.971 259.164 103.822 261.803 105.781 264.599C109.924 270.506 114.534 277.156 115.036 282.93C114.172 283.541 113.471 284.355 112.994 285.3C112.516 286.244 112.277 287.291 112.297 288.35C112.304 289.893 112.837 291.388 113.808 292.587C113.14 293.247 112.61 294.034 112.25 294.903C111.89 295.771 111.707 296.702 111.713 297.642C111.713 299.458 112.434 301.2 113.719 302.485C115.003 303.769 116.745 304.491 118.561 304.491H157.363C158.274 304.485 159.176 304.299 160.014 303.943C160.853 303.587 161.613 303.068 162.249 302.416C162.886 301.764 163.388 300.992 163.724 300.145C164.061 299.298 164.226 298.393 164.211 297.482C164.21 296.563 164.024 295.654 163.663 294.809C163.302 293.964 162.774 293.2 162.111 292.564C163.094 291.318 163.628 289.777 163.627 288.19C163.625 287.306 163.444 286.431 163.096 285.618C162.747 284.806 162.237 284.072 161.597 283.462C160.957 282.852 160.201 282.378 159.373 282.068C158.544 281.758 157.662 281.62 156.779 281.661H140.242V238.203H144.807V245.052C144.807 245.352 144.866 245.649 144.981 245.926C145.096 246.203 145.264 246.454 145.476 246.666C145.688 246.878 145.939 247.047 146.216 247.161C146.493 247.276 146.79 247.335 147.09 247.335H153.937V250.038C152.414 250.577 151.131 251.637 150.314 253.03C149.496 254.424 149.198 256.061 149.471 257.654C149.744 259.246 150.571 260.691 151.806 261.732C153.041 262.774 154.605 263.345 156.22 263.345C157.835 263.345 159.398 262.774 160.633 261.732C161.868 260.691 162.696 259.246 162.969 257.654C163.242 256.061 162.943 254.424 162.126 253.03C161.309 251.637 160.025 250.577 158.502 250.038V245.052C158.502 244.752 158.443 244.455 158.329 244.178C158.214 243.901 158.046 243.65 157.834 243.438C157.622 243.226 157.37 243.058 157.093 242.943C156.816 242.828 156.52 242.769 156.22 242.769H149.372V238.203H158.502C158.802 238.203 159.099 238.144 159.376 238.029C159.653 237.914 159.904 237.746 160.116 237.534C160.328 237.322 160.496 237.071 160.611 236.794C160.726 236.517 160.785 236.22 160.785 235.92V231.354H174.9C175.438 232.877 176.498 234.161 177.891 234.978C179.284 235.796 180.922 236.095 182.514 235.821C184.106 235.548 185.55 234.721 186.591 233.485C187.632 232.25 188.203 230.687 188.203 229.071C188.203 227.455 187.632 225.891 186.591 224.656C185.55 223.421 184.106 222.594 182.514 222.32C180.922 222.047 179.284 222.346 177.891 223.163C176.498 223.981 175.438 225.265 174.9 226.788H160.785V217.656H169.915C170.215 217.656 170.511 217.597 170.788 217.482C171.065 217.367 171.317 217.199 171.529 216.987C171.741 216.775 171.909 216.523 172.024 216.246C172.138 215.969 172.197 215.672 172.197 215.373V205.82C173.72 205.282 175.004 204.222 175.821 202.829C176.639 201.435 176.937 199.797 176.664 198.205C176.391 196.612 175.564 195.168 174.329 194.126C173.094 193.085 171.53 192.514 169.915 192.514C168.3 192.514 166.736 193.085 165.501 194.126C164.266 195.168 163.439 196.612 163.166 198.205C162.893 199.797 163.191 201.435 164.009 202.829C164.826 204.222 166.109 205.282 167.632 205.82V213.09H160.785V208.524C160.785 208.224 160.726 207.927 160.611 207.65C160.496 207.373 160.328 207.121 160.116 206.909C159.904 206.697 159.653 206.529 159.376 206.414C159.099 206.3 158.802 206.24 158.502 206.24H153.937V194.405C155.46 193.867 156.744 192.807 157.561 191.413C158.378 190.02 158.677 188.382 158.404 186.79C158.131 185.197 157.303 183.753 156.068 182.711C154.833 181.67 153.27 181.099 151.655 181.099C150.039 181.099 148.476 181.67 147.241 182.711C146.006 183.753 145.179 185.197 144.906 186.79C144.633 188.382 144.931 190.02 145.749 191.413C146.566 192.807 147.849 193.867 149.372 194.405V206.24H140.242V169.792C140.242 169.492 140.183 169.195 140.068 168.918C139.954 168.641 139.786 168.389 139.574 168.177C139.362 167.965 139.11 167.797 138.833 167.683C138.556 167.568 138.259 167.509 137.96 167.509C109.803 167.509 87.7444 187.901 87.7444 213.93C87.7444 226.295 92.6518 242.666 100.552 256.652ZM156.22 254.184C156.671 254.184 157.113 254.318 157.488 254.569C157.863 254.82 158.156 255.176 158.329 255.594C158.501 256.011 158.547 256.47 158.458 256.913C158.37 257.356 158.153 257.762 157.834 258.082C157.515 258.401 157.108 258.618 156.665 258.706C156.222 258.795 155.763 258.749 155.346 258.577C154.929 258.404 154.573 258.111 154.322 257.736C154.071 257.36 153.937 256.919 153.937 256.467C153.937 256.167 153.996 255.871 154.111 255.594C154.226 255.317 154.394 255.065 154.606 254.853C154.818 254.641 155.069 254.473 155.346 254.358C155.623 254.243 155.92 254.184 156.22 254.184ZM181.327 226.788C181.779 226.788 182.22 226.922 182.596 227.173C182.971 227.423 183.264 227.78 183.436 228.197C183.609 228.614 183.654 229.073 183.566 229.516C183.478 229.959 183.261 230.366 182.941 230.685C182.622 231.004 182.216 231.222 181.773 231.31C181.33 231.398 180.871 231.353 180.454 231.18C180.037 231.007 179.68 230.715 179.43 230.339C179.179 229.964 179.045 229.522 179.045 229.071C179.045 228.771 179.104 228.474 179.219 228.197C179.333 227.92 179.502 227.668 179.714 227.456C179.925 227.244 180.177 227.076 180.454 226.962C180.731 226.847 181.028 226.788 181.327 226.788ZM169.915 197.108C170.366 197.108 170.808 197.242 171.183 197.493C171.558 197.744 171.851 198.101 172.024 198.518C172.196 198.935 172.242 199.394 172.154 199.837C172.066 200.28 171.848 200.686 171.529 201.006C171.21 201.325 170.803 201.542 170.36 201.631C169.917 201.719 169.458 201.673 169.041 201.501C168.624 201.328 168.268 201.035 168.017 200.66C167.766 200.284 167.632 199.843 167.632 199.391C167.632 198.786 167.873 198.205 168.301 197.777C168.729 197.349 169.31 197.108 169.915 197.108ZM151.655 185.693C152.106 185.693 152.548 185.827 152.923 186.078C153.298 186.329 153.591 186.685 153.764 187.103C153.936 187.52 153.982 187.979 153.893 188.422C153.805 188.864 153.588 189.271 153.269 189.591C152.95 189.91 152.543 190.127 152.1 190.215C151.657 190.303 151.198 190.258 150.781 190.085C150.364 189.913 150.008 189.62 149.757 189.245C149.506 188.869 149.372 188.428 149.372 187.976C149.372 187.371 149.613 186.79 150.041 186.362C150.469 185.934 151.049 185.693 151.655 185.693ZM140.242 210.807H156.22V233.637H140.242V210.807ZM157.361 299.925H118.558C118.246 299.92 117.939 299.852 117.654 299.725C117.368 299.599 117.112 299.416 116.899 299.188C116.686 298.96 116.521 298.691 116.414 298.398C116.307 298.105 116.26 297.794 116.276 297.482C116.276 296.876 116.516 296.296 116.944 295.868C117.372 295.439 117.953 295.199 118.558 295.199H157.361C157.673 295.204 157.981 295.272 158.266 295.399C158.551 295.525 158.808 295.708 159.021 295.936C159.234 296.164 159.399 296.432 159.506 296.725C159.613 297.019 159.66 297.33 159.644 297.642C159.644 298.247 159.403 298.828 158.975 299.256C158.547 299.684 157.966 299.925 157.361 299.925ZM156.777 286.227C157.07 286.2 157.365 286.235 157.644 286.33C157.922 286.425 158.177 286.577 158.393 286.778C158.608 286.978 158.779 287.222 158.894 287.493C159.009 287.764 159.065 288.056 159.059 288.35C159.059 288.955 158.819 289.536 158.391 289.964C157.963 290.392 157.382 290.633 156.777 290.633H119.143C118.831 290.628 118.523 290.56 118.238 290.433C117.953 290.307 117.696 290.124 117.483 289.896C117.27 289.668 117.105 289.399 116.998 289.106C116.891 288.813 116.844 288.502 116.86 288.19C116.871 287.908 116.94 287.63 117.063 287.376C117.185 287.121 117.359 286.895 117.573 286.711C117.788 286.526 118.038 286.388 118.308 286.305C118.578 286.222 118.862 286.195 119.143 286.227H156.777ZM121.736 241.367C120.683 240.475 119.706 239.497 118.814 238.445C118.52 238.1 118.129 237.851 117.693 237.729C117.256 237.607 116.793 237.618 116.363 237.76L113.347 238.751C112.597 237.652 111.923 236.503 111.33 235.313L113.724 233.167C114.062 232.864 114.303 232.466 114.414 232.026C114.525 231.585 114.503 231.122 114.349 230.694C113.884 229.4 113.526 228.07 113.279 226.717C113.198 226.27 112.985 225.858 112.668 225.532C112.352 225.207 111.945 224.984 111.501 224.891L108.369 224.231C108.315 223.523 108.287 222.861 108.287 222.229C108.287 221.596 108.315 220.934 108.369 220.226L111.501 219.567C111.945 219.474 112.352 219.25 112.668 218.925C112.985 218.599 113.198 218.187 113.279 217.74C113.526 216.387 113.884 215.056 114.349 213.761C114.503 213.333 114.525 212.87 114.414 212.429C114.303 211.989 114.062 211.591 113.724 211.288L111.33 209.145C111.925 207.955 112.599 206.806 113.347 205.706L116.363 206.697C116.793 206.838 117.256 206.848 117.693 206.726C118.13 206.604 118.52 206.356 118.816 206.012C119.71 204.958 120.688 203.979 121.74 203.083C122.084 202.789 122.333 202.399 122.455 201.963C122.577 201.526 122.567 201.064 122.425 200.633L121.437 197.618C122.531 196.869 123.675 196.195 124.86 195.599L127.006 197.994C127.309 198.333 127.706 198.573 128.146 198.685C128.587 198.796 129.05 198.773 129.478 198.62C130.771 198.152 132.101 197.794 133.454 197.549C133.901 197.468 134.313 197.255 134.638 196.939C134.964 196.622 135.187 196.215 135.28 195.771L135.677 193.96V201.809C130.669 202.386 126.047 204.784 122.692 208.548C119.337 212.312 117.483 217.179 117.483 222.222C117.483 227.264 119.337 232.131 122.692 235.895C126.047 239.659 130.669 242.058 135.677 242.634V250.486L135.298 248.689C135.206 248.244 134.982 247.837 134.657 247.52C134.332 247.202 133.919 246.99 133.472 246.908C132.119 246.663 130.789 246.305 129.496 245.837C129.248 245.749 128.988 245.704 128.725 245.703C128.404 245.703 128.086 245.771 127.793 245.902C127.5 246.033 127.238 246.224 127.024 246.463L124.879 248.858C123.689 248.263 122.54 247.589 121.441 246.84L122.432 243.824C122.574 243.392 122.583 242.927 122.459 242.489C122.335 242.051 122.083 241.661 121.736 241.367L121.736 241.367ZM135.677 206.423V238.02C131.877 237.474 128.401 235.577 125.887 232.675C123.373 229.773 121.989 226.062 121.989 222.222C121.989 218.382 123.373 214.671 125.887 211.769C128.401 208.867 131.877 206.969 135.677 206.423ZM135.677 172.125V188.074C135.072 188.12 134.454 188.175 133.792 188.255C133.319 188.312 132.876 188.516 132.525 188.838C132.174 189.159 131.932 189.583 131.833 190.049L131.149 193.357C130.576 193.494 130.007 193.647 129.435 193.814L127.152 191.275C126.834 190.92 126.413 190.673 125.947 190.569C125.482 190.466 124.996 190.511 124.557 190.698C122.002 191.8 119.591 193.208 117.376 194.892C116.995 195.178 116.714 195.577 116.572 196.032C116.429 196.487 116.433 196.975 116.582 197.428L117.629 200.624C117.197 201.031 116.778 201.45 116.372 201.882L113.176 200.834C112.724 200.688 112.237 200.685 111.783 200.827C111.33 200.969 110.931 201.248 110.643 201.626C108.962 203.844 107.558 206.258 106.461 208.816C106.274 209.255 106.229 209.741 106.333 210.206C106.436 210.672 106.683 211.093 107.039 211.412L109.577 213.695C109.405 214.265 109.253 214.837 109.12 215.409L105.813 216.094C105.347 216.192 104.923 216.434 104.602 216.786C104.28 217.137 104.076 217.58 104.019 218.053C103.647 220.82 103.647 223.624 104.019 226.391C104.076 226.863 104.28 227.307 104.602 227.658C104.923 228.009 105.347 228.251 105.813 228.349L109.12 229.034C109.257 229.608 109.409 230.18 109.577 230.749L107.039 233.032C106.683 233.35 106.436 233.771 106.333 234.237C106.229 234.703 106.274 235.189 106.461 235.628C107.562 238.185 108.971 240.598 110.656 242.815C110.945 243.193 111.344 243.472 111.798 243.614C112.252 243.756 112.739 243.754 113.192 243.607L116.388 242.559C116.794 242.991 117.213 243.411 117.645 243.817L116.598 247.013C116.449 247.466 116.445 247.954 116.587 248.409C116.729 248.863 117.01 249.262 117.39 249.55C119.605 251.236 122.017 252.645 124.573 253.748C125.011 253.935 125.498 253.98 125.963 253.876C126.429 253.773 126.85 253.526 127.168 253.171L129.451 250.632C130.019 250.805 130.592 250.958 131.165 251.088L131.849 254.394C131.947 254.86 132.189 255.284 132.539 255.607C132.89 255.929 133.333 256.133 133.806 256.191C134.467 256.271 135.086 256.328 135.693 256.371V281.661H119.538C118.604 274.935 113.804 268.088 109.52 261.976C107.625 259.273 105.836 256.725 104.528 254.406C97.1027 241.267 92.3094 225.379 92.3094 213.93C92.3094 191.172 111.179 173.18 135.677 172.125H135.677Z" fill="black"/>
<path d="M157.84 276.33L162.084 278.012C162.628 276.663 163.258 275.349 163.969 274.079L159.972 271.871C159.167 273.31 158.455 274.8 157.84 276.33Z" fill="black"/>
<path d="M168.854 266.435L165.108 263.828C164.209 265.115 163.314 266.426 162.458 267.75L166.29 270.229C167.119 268.951 167.986 267.684 168.854 266.435Z" fill="black"/>
<path d="M174.163 258.661L170.298 256.239C169.529 257.462 168.671 258.725 167.772 260.024L171.522 262.627C172.462 261.261 173.359 259.94 174.163 258.661Z" fill="black"/>
<path d="M178.703 250.239L174.594 248.273C173.94 249.643 173.255 250.996 172.54 252.332L176.566 254.487C177.303 253.09 178.018 251.672 178.703 250.239Z" fill="black"/>
<path d="M182.421 241.5L178.148 239.901C177.619 241.312 177.053 242.728 176.455 244.13L180.657 245.917C181.281 244.447 181.869 242.974 182.421 241.5Z" fill="black"/>
<path d="M187.983 218.34C188.111 216.822 188.175 215.34 188.175 213.939V213.482L183.61 213.518V213.936C183.61 215.21 183.55 216.564 183.432 217.954L187.983 218.34Z" fill="black"/>
<path d="M182.564 204.795C182.9 206.225 183.153 207.673 183.325 209.133L187.86 208.591C187.666 206.968 187.382 205.357 187.011 203.765L182.564 204.795Z" fill="black"/>
<path d="M179.625 196.528C180.268 197.846 180.836 199.199 181.328 200.58L185.628 199.053C185.08 197.511 184.446 196.001 183.729 194.53L179.625 196.528Z" fill="black"/>
<path d="M174.936 189.104C175.85 190.254 176.702 191.452 177.488 192.693L181.343 190.259C180.469 188.881 179.522 187.548 178.508 186.269L174.936 189.104Z" fill="black"/>
<path d="M168.758 182.814C169.893 183.753 170.978 184.749 172.01 185.8L175.265 182.604C174.123 181.442 172.923 180.339 171.668 179.3L168.758 182.814Z" fill="black"/>
<path d="M167.76 176.374C166.427 175.476 165.021 174.629 163.59 173.862L161.42 177.88C162.725 178.586 164.001 179.358 165.213 180.163L167.76 176.374Z" fill="black"/>
<path d="M159.208 171.766C157.738 171.138 156.202 170.572 154.643 170.077L153.253 174.419C154.675 174.876 156.074 175.385 157.411 175.953L159.208 171.766Z" fill="black"/>
<path d="M149.957 168.799C148.391 168.452 146.782 168.171 145.175 167.961L144.591 172.493C146.063 172.682 147.535 172.938 148.968 173.258L149.957 168.799Z" fill="black"/>
<path d="M21.0425 171.645L138.403 103.887L255.764 171.645V307.162L138.403 374.92L21.0425 307.162V171.645Z" stroke="black" stroke-width="5"/>
<path d="M493.563 892.483H489.404V822.429C489.404 821.726 488.835 821.157 488.131 821.157H473.712V805.715C473.712 805.011 473.143 804.442 472.44 804.442H454.391C453.688 804.442 453.119 805.011 453.119 805.715V808.26H432.532V805.715C432.532 805.011 431.963 804.442 431.26 804.442H415.756C415.053 804.442 414.484 805.011 414.484 805.715V821.158H400.065C399.361 821.158 398.792 821.727 398.792 822.431V892.484H394.313C393.61 892.484 393.041 893.053 393.041 893.757V904.987C393.041 905.691 393.61 906.26 394.313 906.26H493.563C494.267 906.26 494.836 905.691 494.836 904.987V893.757C494.836 893.053 494.267 892.483 493.563 892.483ZM473.712 892.483V845.156H486.859V892.484H473.712V892.483ZM486.859 842.611H473.712V837.282H486.859V842.611ZM486.859 823.702V834.737H473.712V823.702H486.859ZM471.167 806.987V892.484H455.664V806.987H471.167ZM453.119 810.805V892.484H432.532V810.805H453.119ZM429.987 882.692H417.029V877.363H429.987V882.692ZM417.029 885.237H429.987V892.483H417.029V885.237ZM429.987 806.987V874.819H417.029V806.987H429.987ZM401.337 823.702H414.484V892.483H401.337V823.702ZM492.291 903.715H395.586V895.029H492.291V903.715Z" fill="black" stroke="black" stroke-width="1.27778"/>
<path d="M483.4 882.691H477.179C476.476 882.691 475.907 883.26 475.907 883.964C475.907 884.668 476.476 885.237 477.179 885.237H483.4C484.104 885.237 484.673 884.668 484.673 883.964C484.673 883.26 484.103 882.691 483.4 882.691Z" fill="black" stroke="black" stroke-width="1.27778"/>
<path d="M477.179 880.346H483.4C484.104 880.346 484.673 879.777 484.673 879.073C484.673 878.37 484.104 877.801 483.4 877.801H477.179C476.476 877.801 475.907 878.37 475.907 879.073C475.907 879.777 476.476 880.346 477.179 880.346Z" fill="black" stroke="black" stroke-width="1.27778"/>
<path d="M463.416 850.901C464.119 850.901 464.688 850.332 464.688 849.628V817.911C464.688 817.208 464.119 816.639 463.416 816.639C462.712 816.639 462.143 817.208 462.143 817.911V849.628C462.143 850.33 462.712 850.901 463.416 850.901Z" fill="black" stroke="black" stroke-width="1.27778"/>
<path d="M407.815 831.01C407.112 831.01 406.543 831.579 406.543 832.283V863.999C406.543 864.703 407.112 865.272 407.815 865.272C408.519 865.272 409.088 864.703 409.088 863.999V832.283C409.088 831.579 408.519 831.01 407.815 831.01Z" fill="black" stroke="black" stroke-width="1.27778"/>
<path d="M445.875 852.279C446.579 852.279 447.147 851.71 447.147 851.006V817.911C447.147 817.208 446.579 816.639 445.875 816.639C445.171 816.639 444.603 817.208 444.603 817.911V851.006C444.603 851.709 445.173 852.279 445.875 852.279Z" fill="black" stroke="black" stroke-width="1.27778"/>
<path d="M439.775 852.279C440.479 852.279 441.047 851.71 441.047 851.006V817.911C441.047 817.208 440.479 816.639 439.775 816.639C439.071 816.639 438.502 817.208 438.502 817.911V851.006C438.502 851.709 439.071 852.279 439.775 852.279Z" fill="black" stroke="black" stroke-width="1.27778"/>
<path d="M473.712 813.436H495.964V796.315" stroke="black" stroke-width="2.55556"/>
<path d="M489.404 857.457H509.46V869.919" stroke="black" stroke-width="2.55556"/>
<path d="M398.792 857.458H380.925" stroke="black" stroke-width="2.55556"/>
<path d="M423.509 804.442V791.494" stroke="black" stroke-width="2.55556"/>
<path d="M423.508 791.494C427.058 791.494 429.935 788.616 429.935 785.065C429.935 781.515 427.058 778.637 423.508 778.637C419.959 778.637 417.082 781.515 417.082 785.065C417.082 788.616 419.959 791.494 423.508 791.494Z" stroke="black" stroke-width="2.55556" stroke-linecap="round" stroke-linejoin="round"/>
<path d="M495.964 797.766C501.557 797.766 506.091 793.231 506.091 787.637C506.091 782.042 501.557 777.507 495.964 777.507C490.371 777.507 485.837 782.042 485.837 787.637C485.837 793.231 490.371 797.766 495.964 797.766Z" stroke="black" stroke-width="2.55556" stroke-linecap="round" stroke-linejoin="round"/>
<path d="M509.461 882.775C513.01 882.775 515.888 879.897 515.888 876.347C515.888 872.796 513.01 869.918 509.461 869.918C505.911 869.918 503.034 872.796 503.034 876.347C503.034 879.897 505.911 882.775 509.461 882.775Z" stroke="black" stroke-width="2.55556" stroke-linecap="round" stroke-linejoin="round"/>
<path d="M374.498 863.886C378.048 863.886 380.925 861.008 380.925 857.458C380.925 853.907 378.048 851.029 374.498 851.029C370.949 851.029 368.072 853.907 368.072 857.458C368.072 861.008 370.949 863.886 374.498 863.886Z" stroke="black" stroke-width="2.55556" stroke-linecap="round" stroke-linejoin="round"/>
<path d="M383.493 818.379C386.662 818.379 389.232 815.809 389.232 812.639C389.232 809.469 386.662 806.899 383.493 806.899C380.324 806.899 377.755 809.469 377.755 812.639C377.755 815.809 380.324 818.379 383.493 818.379Z" stroke="black" stroke-width="2.55556" stroke-linecap="round" stroke-linejoin="round"/>
<path d="M500.139 837.698C501.02 837.698 501.734 836.983 501.734 836.102C501.734 835.221 501.02 834.507 500.139 834.507C499.258 834.507 498.544 835.221 498.544 836.102C498.544 836.983 499.258 837.698 500.139 837.698Z" fill="black" stroke="black" stroke-width="1.27778" stroke-linecap="round" stroke-linejoin="round"/>
<path d="M329.043 787.645L446.403 719.887L563.764 787.645V923.162L446.403 990.92L329.043 923.162V787.645Z" stroke="black" stroke-width="5"/>
<path d="M477.198 66.0444H414.773V122.392H477.198V66.0444Z" stroke="black" stroke-width="4" stroke-linecap="round" stroke-linejoin="round"/>
<path d="M467.962 92.0908H424.009V113.363H467.962V92.0908Z" stroke="black" stroke-width="4" stroke-linecap="round" stroke-linejoin="round"/>
<path d="M414.773 82.6992L477.198 82.8128" stroke="black" stroke-width="4"/>
<path d="M453.297 122.392H438.675V135.521H453.297V122.392Z" stroke="black" stroke-width="4" stroke-linecap="round" stroke-linejoin="round"/>
<path d="M445.986 135.521V146.289" stroke="black" stroke-width="4"/>
<path d="M477.198 94.2183H495.594V146.289" stroke="black" stroke-width="4"/>
<path d="M414.773 94.2183H396.377V146.289" stroke="black" stroke-width="4"/>
<path d="M389.054 146.289H403.676V157.65H389.054V146.289Z" stroke="black" stroke-width="4" stroke-linecap="round" stroke-linejoin="round"/>
<path d="M382.065 157.647H410.665V186.081H382.065V157.647Z" stroke="black" stroke-width="4" stroke-linecap="round" stroke-linejoin="round"/>
<path d="M403.596 164.792H389.134V178.936H403.596V164.792Z" stroke="black" stroke-width="4" stroke-linecap="round" stroke-linejoin="round"/>
<path d="M438.674 146.289H453.297V157.65H438.674V146.289Z" stroke="black" stroke-width="4" stroke-linecap="round" stroke-linejoin="round"/>
<path d="M431.686 157.647H460.286V186.081H431.686V157.647Z" stroke="black" stroke-width="4" stroke-linecap="round" stroke-linejoin="round"/>
<path d="M453.216 164.792H438.755V178.936H453.216V164.792Z" stroke="black" stroke-width="4" stroke-linecap="round" stroke-linejoin="round"/>
<path d="M488.283 146.289H502.905V157.65H488.283V146.289Z" stroke="black" stroke-width="4" stroke-linecap="round" stroke-linejoin="round"/>
<path d="M481.294 157.647H509.894V186.081H481.294V157.647Z" stroke="black" stroke-width="4" stroke-linecap="round" stroke-linejoin="round"/>
<path d="M502.825 164.792H488.363V178.936H502.825V164.792Z" stroke="black" stroke-width="4" stroke-linecap="round" stroke-linejoin="round"/>
<path d="M329.043 70.645L446.403 2.88675L563.764 70.645V206.162L446.403 273.92L329.043 206.162V70.645Z" stroke="black" stroke-width="5"/>
<path d="M812.165 753.876H808.152V735.814C808.152 732.495 805.451 729.794 802.133 729.794H778.056C774.737 729.794 772.037 732.495 772.037 735.814V753.876H768.024C766.914 753.876 766.018 754.773 766.018 755.883C766.018 761.416 770.518 765.917 776.05 765.917H804.139C809.671 765.917 814.171 761.416 814.171 755.883C814.171 754.773 813.274 753.876 812.165 753.876ZM776.05 735.814C776.05 734.707 776.948 733.808 778.056 733.808H802.133C803.24 733.808 804.139 734.707 804.139 735.814V753.876H776.05V735.814ZM804.139 761.904H776.05C773.433 761.904 771.202 760.226 770.373 757.89H774.043H806.145H809.815C808.987 760.226 806.755 761.904 804.139 761.904Z" fill="black"/>
<path d="M798.12 737.821H782.069C780.959 737.821 780.062 738.718 780.062 739.828V747.856C780.062 748.965 780.959 749.862 782.069 749.862H798.12C799.23 749.862 800.126 748.965 800.126 747.856V739.828C800.126 738.718 799.23 737.821 798.12 737.821ZM796.114 745.849H784.075V741.835H796.114V745.849Z" fill="black"/>
<path d="M733.916 839.207V828.13C733.916 822.597 729.415 818.095 723.884 818.095H703.82C698.288 818.095 693.788 822.597 693.788 828.13V840.171C693.788 845.703 698.288 850.205 703.82 850.205H741.941C742.794 850.205 743.552 849.665 743.833 848.862C744.114 848.06 743.856 847.163 743.195 846.631L733.916 839.207ZM703.82 846.191C700.501 846.191 697.8 843.49 697.8 840.171V828.13C697.8 824.81 700.501 822.109 703.82 822.109H723.884C727.202 822.109 729.903 824.81 729.903 828.13V840.171C729.903 840.78 730.18 841.357 730.655 841.738L736.221 846.191H703.82Z" fill="black"/>
<path d="M707.832 832.144H703.82V836.157H707.832V832.144Z" fill="black"/>
<path d="M715.858 832.144H711.845V836.157H715.858V832.144Z" fill="black"/>
<path d="M723.883 832.144H719.871V836.157H723.883V832.144Z" fill="black"/>
<path d="M703.82 779.965H715.858C716.514 779.965 717.132 779.645 717.505 779.102C717.881 778.562 717.967 777.874 717.738 777.258L713.109 764.834C714.761 763.758 715.858 761.906 715.858 759.793C715.858 756.473 713.157 753.772 709.839 753.772C706.52 753.772 703.82 756.473 703.82 759.793C703.82 761.904 704.917 763.758 706.566 764.834L701.938 777.258C701.709 777.874 701.797 778.563 702.17 779.102C702.546 779.644 703.164 779.965 703.82 779.965H703.82ZM706.707 775.952L709.839 767.547L712.971 775.952H706.707ZM709.839 757.786C710.946 757.786 711.845 758.685 711.845 759.793C711.845 760.832 711.045 761.659 710.033 761.759C709.905 761.774 709.775 761.774 709.646 761.759C708.633 761.659 707.832 760.832 707.832 759.793C707.832 758.685 708.731 757.786 709.839 757.786H709.839Z" fill="black"/>
<path d="M705.196 751.773C707.758 749.359 711.921 749.359 714.484 751.773L717.234 748.853C713.159 745.008 706.52 745.008 702.445 748.853L705.196 751.773Z" fill="black"/>
<path d="M718.25 745.365L721.087 742.528C714.829 736.268 704.646 736.268 698.388 742.528L701.226 745.365C705.918 740.669 713.557 740.669 718.25 745.365Z" fill="black"/>
<path d="M722.465 739.104L725.302 736.266C721.131 732.094 715.589 729.794 709.696 729.794C703.804 729.794 698.26 732.092 694.089 736.266L696.926 739.104C700.343 735.688 704.875 733.808 709.696 733.808C714.518 733.808 719.052 735.688 722.465 739.104Z" fill="black"/>
<path d="M812.165 822.109H784.075C782.966 822.109 782.069 823.006 782.069 824.116V832.144V840.171V848.198C782.069 849.308 782.966 850.205 784.075 850.205H812.165C813.274 850.205 814.171 849.308 814.171 848.198V840.171V832.144V824.116C814.171 823.006 813.274 822.109 812.165 822.109ZM786.082 834.15H810.158V838.164H786.082V834.15ZM786.082 826.123H810.158V830.137H786.082V826.123ZM810.158 846.192H786.082V842.178H810.158V846.192Z" fill="black"/>
<path d="M747.96 796.02C752.386 796.02 755.986 792.42 755.986 787.993C755.986 783.566 752.386 779.965 747.96 779.965C743.534 779.965 739.935 783.566 739.935 787.993C739.935 792.42 743.534 796.02 747.96 796.02ZM747.96 783.979C750.173 783.979 751.973 785.779 751.973 787.993C751.973 790.206 750.173 792.007 747.96 792.007C745.747 792.007 743.947 790.206 743.947 787.993C743.947 785.779 745.747 783.979 747.96 783.979Z" fill="black"/>
<path d="M731.909 794.013H733.081C733.111 794.096 733.149 794.178 733.183 794.258L732.355 795.087C731.978 795.465 731.767 795.972 731.767 796.506C731.767 797.037 731.978 797.549 732.355 797.925L738.031 803.602C738.783 804.354 740.115 804.354 740.868 803.602L741.696 802.773C741.777 802.811 741.859 802.841 741.941 802.876V804.048C741.941 805.157 742.838 806.054 743.948 806.054H751.973C753.083 806.054 753.98 805.157 753.98 804.048V802.876C754.062 802.845 754.144 802.807 754.225 802.773L755.053 803.602C755.43 803.979 755.938 804.19 756.472 804.19C757.006 804.19 757.515 803.979 757.89 803.602L763.566 797.925C763.943 797.548 764.154 797.038 764.154 796.506C764.154 795.972 763.943 795.462 763.566 795.087L762.738 794.258C762.776 794.178 762.806 794.096 762.84 794.013H764.012C765.121 794.013 766.018 793.116 766.018 792.006V783.979C766.018 782.869 765.121 781.972 764.012 781.972H762.84C762.802 781.889 762.772 781.807 762.738 781.727L763.566 780.898C763.943 780.521 764.154 780.013 764.154 779.479C764.154 778.948 763.943 778.436 763.566 778.061L757.89 772.383C757.138 771.628 755.806 771.632 755.053 772.383L754.225 773.212C754.144 773.174 754.062 773.144 753.98 773.11V771.938C753.98 770.828 753.083 769.931 751.973 769.931H743.948C742.838 769.931 741.941 770.828 741.941 771.938V773.11C741.859 773.147 741.777 773.178 741.696 773.212L740.868 772.383C740.491 772.006 739.983 771.795 739.449 771.795C738.915 771.795 738.406 772.006 738.031 772.383L732.355 778.061C731.978 778.437 731.767 778.948 731.767 779.479C731.767 780.013 731.978 780.523 732.355 780.898L733.183 781.727C733.145 781.807 733.115 781.889 733.081 781.972H731.909C730.8 781.972 729.903 782.869 729.903 783.979V792.006C729.903 793.116 730.8 794.013 731.909 794.013ZM733.916 785.986H734.506C735.392 785.986 736.175 785.404 736.428 784.553C736.673 783.736 736.987 782.967 737.369 782.267C737.792 781.484 737.654 780.517 737.024 779.889L736.613 779.478L739.45 776.64L739.861 777.051C740.489 777.681 741.46 777.82 742.238 777.396C742.938 777.017 743.705 776.7 744.524 776.455C745.372 776.204 745.954 775.422 745.954 774.535V773.944H749.967V774.535C749.967 775.422 750.549 776.204 751.399 776.457C752.216 776.702 752.985 777.017 753.685 777.398C754.465 777.82 755.432 777.683 756.062 777.053L756.473 776.642L759.31 779.48L758.899 779.891C758.271 780.517 758.131 781.486 758.554 782.269C758.933 782.969 759.25 783.736 759.495 784.555C759.746 785.404 760.529 785.986 761.416 785.986H762.005V789.999H761.416C760.529 789.999 759.746 790.581 759.493 791.432C759.248 792.249 758.934 793.018 758.552 793.718C758.129 794.501 758.267 795.468 758.897 796.096L759.308 796.507L756.471 799.345L756.06 798.934C755.432 798.306 754.465 798.169 753.683 798.589C752.983 798.968 752.216 799.285 751.397 799.53C750.549 799.781 749.967 800.563 749.967 801.451V802.041H745.954V801.451C745.954 800.563 745.373 799.781 744.522 799.528C743.705 799.283 742.937 798.968 742.236 798.587C741.456 798.165 740.489 798.302 739.859 798.932L739.448 799.343L736.611 796.505L737.022 796.094C737.649 795.468 737.79 794.499 737.367 793.716C736.987 793.016 736.671 792.249 736.426 791.43C736.175 790.581 735.392 789.999 734.506 789.999H733.916V785.986Z" fill="black"/>
<path d="M733.916 739.828H729.903V743.842H733.916V739.828Z" fill="black"/>
<path d="M741.941 739.828H737.928V743.842H741.941V739.828Z" fill="black"/>
<path d="M749.967 739.828H745.954V743.842H749.967V739.828Z" fill="black"/>
<path d="M757.992 739.828H753.979V743.842H757.992V739.828Z" fill="black"/>
<path d="M766.018 739.828H762.005V743.842H766.018V739.828Z" fill="black"/>
<path d="M810.159 771.938H806.146V775.952H810.159V771.938Z" fill="black"/>
<path d="M810.159 779.965H806.146V783.979H810.159V779.965Z" fill="black"/>
<path d="M810.159 812.075H806.146V816.088H810.159V812.075Z" fill="black"/>
<path d="M776.05 834.15H772.037V838.164H776.05V834.15Z" fill="black"/>
<path d="M768.025 834.15H764.012V838.164H768.025V834.15Z" fill="black"/>
<path d="M759.999 834.15H755.986V838.164H759.999V834.15Z" fill="black"/>
<path d="M751.973 834.15H747.96V838.164H751.973V834.15Z" fill="black"/>
<path d="M743.947 834.15H739.935V838.164H743.947V834.15Z" fill="black"/>
<path d="M701.813 810.068H697.801V814.082H701.813V810.068Z" fill="black"/>
<path d="M701.813 802.041H697.801V806.054H701.813V802.041Z" fill="black"/>
<path d="M701.813 794.013H697.801V798.027H701.813V794.013Z" fill="black"/>
<path d="M701.813 785.986H697.801V790H701.813V785.986Z" fill="black"/>
<path d="M810.159 804.048H806.146V808.062H810.159V804.048Z" fill="black"/>
<path d="M810.159 796.021H806.146V800.034H810.159V796.021Z" fill="black"/>
<path d="M810.159 787.993H806.146V792.007H810.159V787.993Z" fill="black"/>
<path d="M721.877 814.081H788.088C788.427 814.081 788.75 813.971 789.037 813.79C796.551 812.387 802.133 805.732 802.133 798.026C802.133 789.174 794.932 781.971 786.082 781.971C786.082 776.059 781.836 771.074 776.06 770.133C773.654 769.654 771.168 770.034 768.989 771.07C765.996 760.95 756.732 753.875 745.954 753.875C732.678 753.875 721.877 764.678 721.877 777.958C721.877 779.302 721.992 780.645 722.218 781.975C713.252 781.801 705.826 789.06 705.826 798.026C705.826 806.878 713.027 814.081 721.877 814.081L721.877 814.081ZM721.877 785.985C722.71 785.985 723.559 786.076 724.399 786.256C725.095 786.405 725.812 786.176 726.291 785.652C726.771 785.133 726.941 784.396 726.739 783.718C726.177 781.833 725.89 779.895 725.89 777.958C725.89 766.892 734.891 757.889 745.954 757.889C755.761 757.889 764.062 764.924 765.695 774.613C765.815 775.321 766.303 775.909 766.975 776.16C767.649 776.411 768.403 776.282 768.955 775.822C770.436 774.594 772.196 773.944 774.043 773.944C774.451 773.944 774.86 773.99 775.34 774.081C779.238 774.718 782.069 778.036 782.069 781.971C782.069 782.524 782.001 783.107 781.852 783.753C781.706 784.408 781.898 785.092 782.353 785.578C782.813 786.062 783.479 786.288 784.149 786.174C784.898 786.046 785.513 785.985 786.081 785.985C792.72 785.985 798.12 791.385 798.12 798.026C798.12 803.983 793.671 809.1 787.777 809.933C787.62 809.956 787.47 810.001 787.325 810.067H721.877C715.238 810.067 709.839 804.667 709.839 798.026C709.839 791.385 715.238 785.985 721.877 785.985L721.877 785.985Z" fill="black"/>
<path d="M637.043 732.645L754.403 664.887L871.764 732.645V868.162L754.403 935.92L637.043 868.162V732.645Z" stroke="black" stroke-width="5"/>
<path d="M86.8583 740.441C85.4913 740.441 84.1804 740.984 83.2139 741.951C82.2473 742.918 81.7042 744.229 81.7041 745.596V821.216C81.704 821.442 81.7483 821.665 81.8345 821.874C81.9207 822.083 82.0472 822.272 82.2067 822.432C82.3662 822.591 82.5555 822.718 82.764 822.805C82.9724 822.891 83.1958 822.936 83.4215 822.936H122.564L119.814 836.684H116.068C115.612 836.684 115.176 836.865 114.854 837.187C114.532 837.509 114.351 837.946 114.35 838.402V843.559H110.914V846.997H162.461V843.559H159.024V838.402C159.024 838.176 158.979 837.953 158.893 837.744C158.807 837.536 158.68 837.346 158.52 837.187C158.361 837.027 158.171 836.901 157.962 836.814C157.754 836.728 157.53 836.684 157.305 836.684H153.561L150.811 822.936H167.187C166.614 821.833 166.137 820.683 165.761 819.498H85.1389V804.03H166.646C167.187 802.828 167.837 801.677 168.588 800.593H93.7317V752.471H124.659V749.034H92.0124C91.7867 749.034 91.5633 749.078 91.3549 749.165C91.1464 749.251 90.9571 749.378 90.7976 749.538C90.6381 749.698 90.5116 749.887 90.4254 750.096C90.3392 750.304 90.2949 750.528 90.295 750.754V800.593H85.1389V745.596C85.139 745.371 85.1836 745.147 85.27 744.939C85.3565 744.73 85.4832 744.541 85.6428 744.381C85.8025 744.222 85.992 744.095 86.2006 744.009C86.4091 743.923 86.6326 743.878 86.8583 743.878H119.504V740.441H86.8583ZM153.87 740.441V743.878H186.516C186.972 743.879 187.408 744.06 187.73 744.382C188.052 744.704 188.233 745.141 188.234 745.596V791.465C189.394 791.579 190.543 791.786 191.67 792.086V745.596C191.67 744.229 191.127 742.918 190.161 741.951C189.194 740.984 187.883 740.441 186.516 740.441H153.87ZM148.714 749.034V752.471H179.643V792.432C180.764 792.068 181.914 791.797 183.079 791.621V750.754C183.08 750.528 183.035 750.304 182.949 750.095C182.862 749.887 182.736 749.697 182.576 749.537C182.416 749.377 182.227 749.251 182.018 749.164C181.81 749.078 181.586 749.034 181.36 749.034H148.714ZM126.069 822.936H147.306L150.054 836.684H123.319L126.069 822.936ZM117.787 840.122H152.151H155.587V843.559H117.787V840.122Z" fill="black"/>
<path d="M136.687 816.06C137.706 816.06 138.703 815.758 139.551 815.191C140.398 814.625 141.059 813.82 141.449 812.877C141.839 811.935 141.941 810.899 141.743 809.899C141.544 808.898 141.053 807.98 140.332 807.259C139.611 806.538 138.692 806.047 137.693 805.848C136.693 805.649 135.656 805.751 134.714 806.141C133.772 806.531 132.967 807.192 132.401 808.04C131.835 808.888 131.532 809.885 131.532 810.904C131.532 811.581 131.666 812.252 131.925 812.877C132.184 813.503 132.563 814.071 133.042 814.55C133.521 815.029 134.089 815.409 134.714 815.668C135.34 815.927 136.01 816.06 136.687 816.06ZM136.687 809.186C137.027 809.186 137.359 809.287 137.642 809.475C137.924 809.664 138.144 809.933 138.274 810.247C138.404 810.561 138.438 810.906 138.372 811.24C138.306 811.573 138.142 811.879 137.902 812.12C137.662 812.36 137.355 812.524 137.022 812.59C136.689 812.656 136.343 812.622 136.029 812.492C135.715 812.362 135.447 812.142 135.258 811.859C135.069 811.577 134.969 811.244 134.969 810.904C134.969 810.679 135.013 810.455 135.099 810.247C135.186 810.038 135.312 809.849 135.472 809.689C135.632 809.53 135.821 809.403 136.029 809.317C136.238 809.23 136.461 809.186 136.687 809.186Z" fill="black"/>
<path d="M129.814 749.034C129.814 756.046 121.223 757.627 120.948 757.627C120.672 757.674 120.412 757.787 120.19 757.957C119.969 758.127 119.792 758.349 119.675 758.603C119.558 758.857 119.505 759.136 119.52 759.415C119.535 759.694 119.618 759.965 119.762 760.205L133.645 783.406H131.532C131.306 783.406 131.083 783.451 130.874 783.537C130.666 783.624 130.477 783.75 130.317 783.91C130.157 784.069 130.031 784.259 129.945 784.467C129.858 784.676 129.814 784.899 129.814 785.125V786.517C126.811 785.862 123.918 784.78 121.223 783.303C118.587 781.991 116.303 780.068 114.561 777.694C112.819 775.321 111.668 772.565 111.205 769.657H114.35C114.575 769.657 114.799 769.613 115.007 769.527C115.216 769.44 115.405 769.314 115.565 769.154C115.724 768.994 115.851 768.805 115.937 768.596C116.023 768.388 116.068 768.164 116.068 767.939V757.627C116.068 757.171 115.887 756.734 115.565 756.412C115.242 756.089 114.805 755.908 114.35 755.908H104.04C103.585 755.908 103.148 756.089 102.825 756.412C102.503 756.734 102.322 757.171 102.322 757.627V767.939C102.322 768.164 102.366 768.388 102.453 768.596C102.539 768.805 102.666 768.994 102.825 769.154C102.985 769.314 103.174 769.44 103.383 769.527C103.591 769.613 103.815 769.657 104.04 769.657H107.717C108.395 775.06 111.142 779.989 115.381 783.406H109.195C108.969 783.406 108.746 783.451 108.537 783.537C108.329 783.624 108.14 783.75 107.98 783.91C107.82 784.069 107.694 784.259 107.608 784.467C107.521 784.676 107.477 784.899 107.477 785.125V795.437C107.477 795.893 107.658 796.33 107.98 796.652C108.302 796.974 108.739 797.155 109.195 797.155H119.504C119.96 797.155 120.397 796.974 120.719 796.652C121.042 796.33 121.223 795.893 121.223 795.437V791.999H129.814V795.437C129.814 795.893 129.995 796.33 130.317 796.652C130.639 796.974 131.076 797.155 131.532 797.155H141.841C142.297 797.155 142.734 796.974 143.056 796.652C143.379 796.33 143.56 795.893 143.56 795.437V791.999H152.151V795.437C152.151 795.893 152.332 796.33 152.654 796.652C152.976 796.974 153.413 797.155 153.869 797.155H164.178C164.634 797.155 165.071 796.974 165.393 796.652C165.716 796.33 165.897 795.893 165.897 795.437V785.125C165.897 784.899 165.852 784.676 165.766 784.467C165.68 784.259 165.553 784.069 165.393 783.91C165.234 783.75 165.045 783.624 164.836 783.537C164.628 783.451 164.404 783.406 164.178 783.406H158.01C162.249 779.989 164.996 775.06 165.673 769.657H169.333C169.559 769.657 169.782 769.613 169.991 769.527C170.199 769.44 170.389 769.314 170.548 769.154C170.708 768.994 170.834 768.805 170.921 768.596C171.007 768.388 171.051 768.164 171.051 767.939V757.627C171.051 757.171 170.87 756.734 170.548 756.412C170.226 756.089 169.789 755.908 169.333 755.908H159.024C158.568 755.908 158.131 756.089 157.809 756.412C157.487 756.734 157.306 757.171 157.306 757.627V767.939C157.306 768.164 157.35 768.388 157.436 768.596C157.523 768.805 157.649 768.994 157.809 769.154C157.968 769.314 158.158 769.44 158.366 769.527C158.575 769.613 158.798 769.657 159.024 769.657H162.168C161.711 772.545 160.576 775.283 158.856 777.646C157.135 780.009 154.878 781.931 152.271 783.252C149.54 784.75 146.605 785.844 143.56 786.5V785.125C143.56 784.899 143.515 784.676 143.429 784.467C143.343 784.259 143.216 784.069 143.056 783.91C142.897 783.75 142.707 783.624 142.499 783.537C142.291 783.451 142.067 783.406 141.841 783.406H139.728L153.629 760.222C153.772 759.982 153.855 759.711 153.87 759.432C153.886 759.153 153.833 758.874 153.716 758.62C153.599 758.366 153.422 758.145 153.2 757.975C152.978 757.804 152.718 757.691 152.443 757.644C152.151 757.625 143.56 756.046 143.56 749.034V740.441H148.714V737.003H124.659V740.441H129.814V749.034ZM107.477 766.22H105.758V759.346H112.631V766.22H107.477ZM117.786 793.718H110.913V786.844H117.786V793.718ZM121.223 788.562V787.119C122.342 787.66 123.489 788.142 124.659 788.562H121.223ZM160.742 766.22V759.346H167.615V766.22H160.742ZM155.587 786.844H162.46V793.718H155.587V786.844ZM152.151 787.118V788.562H148.714C149.884 788.141 151.031 787.66 152.151 787.118ZM140.123 786.844V793.718H133.25V786.844H140.123ZM133.25 740.441H140.123V747.315H133.25V740.441ZM133.13 750.752H140.261C141.085 756.218 145.759 759.174 149.505 760.428L138.405 778.921V764.502H134.968V778.921L123.886 760.428C127.614 759.174 132.305 756.218 133.13 750.752Z" fill="black"/>
<path d="M138.405 757.627H134.969V761.064H138.405V757.627Z" fill="black"/>
<path d="M199.665 805.811C198.61 803.8 197.126 802.019 195.28 800.667C195.016 800.469 194.621 800.535 194.423 800.799C194.225 801.062 194.291 801.458 194.555 801.656C196.236 802.909 197.621 804.525 198.577 806.372C199.566 808.318 200.094 810.395 200.094 812.605C200.094 820.124 193.994 826.225 186.477 826.225C178.959 826.225 172.86 820.124 172.86 812.605C172.86 805.086 178.959 798.985 186.477 798.985C186.807 798.985 187.07 798.721 187.07 798.391C187.07 798.061 186.807 797.765 186.477 797.765C178.3 797.765 171.64 804.426 171.64 812.605C171.64 820.784 178.3 827.445 186.477 827.445C194.654 827.445 201.314 820.784 201.314 812.605C201.314 810.231 200.753 807.889 199.665 805.811Z" fill="black" stroke="black" stroke-width="5.70765"/>
<path d="M182.685 805.712C182.487 805.811 182.388 806.009 182.388 806.24V819.497C182.388 819.827 182.652 820.091 182.982 820.091C183.312 820.091 183.575 819.827 183.575 819.497V807.295L192.511 812.605L185.949 816.859C185.653 817.024 185.587 817.42 185.784 817.684C185.949 817.98 186.345 818.046 186.609 817.848L193.994 813.1C194.159 813.001 194.291 812.803 194.258 812.572C194.258 812.374 194.159 812.176 193.961 812.077L183.279 805.712C183.114 805.613 182.883 805.613 182.685 805.712Z" fill="black" stroke="black" stroke-width="5.70765"/>
<path d="M21.0425 732.645L138.403 664.887L255.764 732.645V868.162L138.403 935.92L21.0425 868.162V732.645Z" stroke="black" stroke-width="5"/>
<path d="M637.043 171.645L754.403 103.887L871.764 171.645V307.162L754.403 374.92L637.043 307.162V171.645Z" stroke="black" stroke-width="5"/>
<path fill-rule="evenodd" clip-rule="evenodd" d="M810.069 273.228C810.069 274.799 808.793 276.075 807.222 276.075H700.737C699.166 276.075 697.89 274.799 697.89 273.228V268.061H701.897H739.128L742.547 271.481C742.922 271.855 743.433 272.068 743.963 272.068H763.995C764.526 272.068 765.037 271.855 765.412 271.481L768.831 268.061H806.062H810.069V273.228ZM703.9 196.338C703.9 195.008 704.809 193.926 705.927 193.926H802.032C803.15 193.926 804.059 195.008 804.059 196.338V264.053H768.002C767.471 264.053 766.96 264.264 766.585 264.64L763.166 268.061H744.793L741.373 264.64C740.999 264.264 740.488 264.053 739.957 264.053H703.9V196.338ZM812.072 264.053H808.065V196.338C808.065 192.798 805.359 189.918 802.032 189.918H705.927C702.6 189.918 699.893 192.798 699.893 196.338V264.053H695.887C694.781 264.053 693.884 264.951 693.884 266.057V273.228C693.884 277.009 696.959 280.082 700.737 280.082H807.222C811 280.082 814.075 277.007 814.075 273.228V266.057C814.075 264.951 813.178 264.053 812.072 264.053Z" fill="black"/>
<path fill-rule="evenodd" clip-rule="evenodd" d="M709.909 201.94H725.935C727.041 201.94 727.938 201.042 727.938 199.936C727.938 198.83 727.041 197.933 725.935 197.933H709.909C708.804 197.933 707.906 198.83 707.906 199.936C707.906 201.042 708.804 201.94 709.909 201.94Z" fill="black"/>
<path fill-rule="evenodd" clip-rule="evenodd" d="M719.925 205.947H709.909C708.804 205.947 707.906 206.845 707.906 207.951C707.906 209.057 708.804 209.955 709.909 209.955H719.925C721.031 209.955 721.929 209.057 721.929 207.951C721.929 206.845 721.031 205.947 719.925 205.947Z" fill="black"/>
<path fill-rule="evenodd" clip-rule="evenodd" d="M747.97 221.976C749.076 221.976 749.973 221.078 749.973 219.972V213.909L754.787 211.788C755.8 211.341 756.259 210.161 755.812 209.147C755.368 208.133 754.184 207.676 753.172 208.121L747.163 210.768C746.436 211.088 745.967 211.808 745.967 212.601V219.972C745.967 221.078 746.864 221.976 747.97 221.976Z" fill="black"/>
<path fill-rule="evenodd" clip-rule="evenodd" d="M727.938 246.862V233.157L739.957 226.288L747.169 230.41L751.976 233.157V246.862L739.957 253.73L727.938 246.862ZM753.979 202.244L765.999 209.113V222.818L761.191 225.565L753.979 229.686L746.768 225.565L741.96 222.818V209.113L753.979 202.244ZM780.021 246.862L768.002 253.73L755.983 246.862V233.157L760.79 230.41L768.002 226.288L780.021 233.157V246.862ZM740.951 257.777L753.979 250.332L767.008 257.777C767.317 257.954 767.659 258.042 768.002 258.042C768.344 258.042 768.687 257.954 768.995 257.777L783.018 249.763C783.643 249.408 784.027 248.743 784.027 248.024V231.995C784.027 231.275 783.643 230.612 783.018 230.255L770.005 222.818V207.951C770.005 207.232 769.62 206.568 768.995 206.212L754.973 198.197C754.356 197.844 753.603 197.844 752.986 198.197L738.964 206.212C738.339 206.568 737.954 207.232 737.954 207.951V222.818L724.941 230.255C724.316 230.612 723.932 231.275 723.932 231.995V248.024C723.932 248.743 724.316 249.408 724.941 249.763L738.964 257.777C739.272 257.954 739.615 258.042 739.957 258.042C740.3 258.042 740.642 257.954 740.951 257.777Z" fill="black"/>
<path fill-rule="evenodd" clip-rule="evenodd" d="M741.79 233.191C741.345 232.179 740.163 231.716 739.15 232.165L733.14 234.812C732.413 235.133 731.944 235.852 731.944 236.645V244.017C731.944 245.123 732.842 246.02 733.948 246.02C735.053 246.02 735.951 245.123 735.951 244.017V237.952L740.764 235.832C741.778 235.385 742.237 234.203 741.79 233.191Z" fill="black"/>
<path fill-rule="evenodd" clip-rule="evenodd" d="M767.195 232.165L761.185 234.812C760.458 235.132 759.989 235.851 759.989 236.645V244.016C759.989 245.122 760.887 246.02 761.992 246.02C763.098 246.02 763.996 245.122 763.996 244.016V237.953L768.809 235.831C769.823 235.385 770.282 234.204 769.835 233.191C769.39 232.179 768.204 231.716 767.195 232.165Z" fill="black"/>
</svg>
