<?xml version="1.0" encoding="UTF-8" standalone="no"?>
<!-- Created with Inkscape (http://www.inkscape.org/) -->

<svg
   xmlns:dc="http://purl.org/dc/elements/1.1/"
   xmlns:cc="http://creativecommons.org/ns#"
   xmlns:rdf="http://www.w3.org/1999/02/22-rdf-syntax-ns#"
   xmlns:svg="http://www.w3.org/2000/svg"
   xmlns="http://www.w3.org/2000/svg"
   xmlns:sodipodi="http://sodipodi.sourceforge.net/DTD/sodipodi-0.dtd"
   xmlns:inkscape="http://www.inkscape.org/namespaces/inkscape"
   width="65.883705mm"
   height="67.872261mm"
   viewBox="0 0 65.883705 67.872261"
   version="1.1"
   id="svg897"
   inkscape:version="0.92.4 (5da689c313, 2019-01-14)"
   sodipodi:docname="emblem.svg">
  <defs
     id="defs891" />
  <sodipodi:namedview
     id="base"
     pagecolor="#ffffff"
     bordercolor="#666666"
     borderopacity="1.0"
     inkscape:pageopacity="0.0"
     inkscape:pageshadow="2"
     inkscape:zoom="0.98994949"
     inkscape:cx="64.230983"
     inkscape:cy="64.926248"
     inkscape:document-units="mm"
     inkscape:current-layer="layer1"
     showgrid="false"
     fit-margin-top="0"
     fit-margin-left="0"
     fit-margin-right="0"
     fit-margin-bottom="0"
     inkscape:window-width="1920"
     inkscape:window-height="1016"
     inkscape:window-x="0"
     inkscape:window-y="27"
     inkscape:window-maximized="1" />
  <metadata
     id="metadata894">
    <rdf:RDF>
      <cc:Work
         rdf:about="">
        <dc:format>image/svg+xml</dc:format>
        <dc:type
           rdf:resource="http://purl.org/dc/dcmitype/StillImage" />
        <dc:title></dc:title>
      </cc:Work>
    </rdf:RDF>
  </metadata>
  <g
     inkscape:label="Layer 1"
     inkscape:groupmode="layer"
     id="layer1"
     transform="translate(-55.504573,-50.641253)">
    <path
       inkscape:connector-curvature="0"
       style="fill:#ffffff;fill-opacity:1;stroke-width:0.65633738"
       d="m 83.346373,50.641663 c -13.41487,2.48621 -24.41502,13.03396 -27.21751,26.73549 -0.52777,2.58033 -0.62429,3.641111 -0.62429,6.914599 0,3.273571 0.0965,4.33174 0.62429,6.912081 3.12773,15.291677 16.5213,26.704577 32.01697,27.281587 6.142521,0.22858 11.59579,-0.93454 16.917347,-3.60987 7.47033,-3.75562 13.23068,-10.05393 16.3251,-17.633936 l -1.0396,-0.02439 -1.26143,-0.02101 c -0.6943,-0.01159 -1.9721,-0.0431 -2.83813,-0.0704 l -1.57419,-0.0487 -0.35253,0.646091 c -3.02179,5.523525 -7.85706,9.910225 -13.62156,12.360165 -2.395026,1.0179 -4.764396,1.65875 -7.533766,2.03694 -0.90555,0.12373 -4.66507,0.22769 -5.51606,0.15257 -4.08586,-0.36037 -7.417841,-1.30911 -10.903921,-3.10478 -2.78212,-1.43309 -4.92524,-3.03425 -7.2133,-5.38659 -2.09894,-2.15789 -3.59937,-4.265537 -4.92766,-6.926137 -3.03419,-6.07777 -3.76545,-12.897109 -2.09465,-19.545289 1.02122,-4.063341 3.05594,-7.974801 5.88013,-11.302581 1.32734,-1.56395 3.61166,-3.61169 5.38786,-4.83152 2.21763,-1.52301 4.92201,-2.84053 7.47096,-3.640609 0.53203,-0.166981 0.967849,-0.330471 0.967849,-0.36279 0,-0.105531 0.997572,-5.480411 1.021681,-5.504531 l 0.106331,-1.0268 z m 8.077279,7.690161 c -0.212788,-0.0116 -0.349369,-0.009 -0.370469,0.0139 -0.0653,0.0653 -1.523058,7.97075 -1.478029,8.01578 0.0163,0.0163 0.529529,0.0644 1.139608,0.10507 2.994401,0.200929 5.627592,1.013589 8.091411,2.49717 1.086691,0.65425 1.350057,0.85549 1.229357,0.94091 -0.216045,0.15279 -1.482227,1.173359 -2.663806,2.12798 -2.27021,-1.481951 -4.97299,-2.34847 -7.867081,-2.34847 -7.95478,0 -14.47915,6.52439 -14.47915,14.479172 0,1.846479 0.35535,3.614338 0.99476,5.242999 l -9.32973,7.576077 c 0,0 0.22954,0.280932 1.37548,1.716481 0.75403,0.944571 1.91386,2.371527 2.57663,3.171447 1.18392,1.42914 1.24345,1.40112 1.24345,1.40112 l 9.3887,-7.220988 c 2.342351,1.631112 5.18001,2.593311 8.22986,2.593311 7.954819,0 14.479157,-6.52563 14.479157,-14.48045 0,-1.728761 -0.30893,-3.388831 -0.87299,-4.930211 0.9202,-0.694389 1.83145,-1.37586 2.82151,-2.14466 0.17721,0 0.91204,2.212301 1.18961,3.58167 0.4214,2.079691 0.47184,4.54002 0.13326,6.462109 -0.0838,0.47543 -0.14512,0.872803 -0.13721,0.883222 0.007,0.009 1.80887,0.0704 4.00211,0.13326 2.19322,0.0628 4.0431,0.109738 4.11108,0.103928 0.18675,-0.0163 0.31707,-1.11769 0.38072,-3.223987 0.10075,-3.329152 -0.32557,-6.180582 -1.38062,-9.234882 -2.23083,-6.45814 -6.92434,-11.7871 -13.03698,-14.80222 -2.334565,-1.151519 -4.429507,-1.851109 -6.874887,-2.29588 -0.935339,-0.170239 -2.25761,-0.32956 -2.895841,-0.362799 z m -9.654049,1.15885 c -0.0865,-0.0995 -2.81452,1.01899 -4.03802,1.656219 -7.8311,4.07884 -12.89468,11.45538 -13.96639,20.345189 -0.15768,1.306852 -0.13534,4.580681 0.0409,5.92754 0.34803,2.659941 1.06229,5.199243 2.10873,7.531222 l 6.74542,-5.19303 c -1.05519,-3.241101 -1.15255,-6.6557 -0.28202,-9.99503 1.07468,-4.122691 3.53359,-7.662101 7.02231,-10.109151 0.32976,-0.23139 0.61758,-0.49716 0.63965,-0.58968 0.0835,-0.3497 1.74594,-9.553689 1.72929,-9.573279 z m 7.73504,17.298079 c 4.11504,0 7.374839,3.258569 7.374839,7.373541 0,4.11502 -3.259799,7.3761 -7.374839,7.3761 -4.11497,0 -7.374819,-3.26108 -7.374819,-7.3761 0,-4.114972 3.259849,-7.373541 7.374819,-7.373541 z m 12.934467,19.981109 -0.52559,0.470472 c -2.168688,1.938829 -4.043686,3.073376 -6.441597,3.898296 -1.758641,0.60501 -3.285501,0.88293 -5.22763,0.94986 -1.56823,0.0542 -2.666939,-0.0365 -4.21618,-0.34739 -2.150301,-0.43147 -4.45553,-1.39774 -6.26213,-2.602256 l -6.29032,5.507076 c 0.55723,0.43279 1.25878,0.95093 1.76135,1.28447 3.55605,2.36003 7.712051,3.83276 11.9679,4.24183 v -10e-4 c 1.23706,0.11884 3.820941,0.10189 5.109689,-0.0333 6.003851,-0.6305 11.490268,-3.25239 15.754668,-7.52864 1.53004,-1.53429 2.62306,-2.917149 3.75726,-4.752048 l 0.52432,-0.847341 h -0.68072 c -0.37383,-7.94e-4 -2.60295,-0.0554 -4.95458,-0.120449 l -4.27644,-0.119308 z"
       id="path4955-6-0-37-4-4-6-4-7-7-7"
       inkscape:export-xdpi="205.31277"
       inkscape:export-ydpi="205.31277" />
  </g>
</svg>
