<?xml version="1.0" encoding="UTF-8" standalone="no"?>
<!-- Created with Inkscape (http://www.inkscape.org/) -->

<svg
   xmlns:dc="http://purl.org/dc/elements/1.1/"
   xmlns:cc="http://creativecommons.org/ns#"
   xmlns:rdf="http://www.w3.org/1999/02/22-rdf-syntax-ns#"
   xmlns:svg="http://www.w3.org/2000/svg"
   xmlns="http://www.w3.org/2000/svg"
   xmlns:sodipodi="http://sodipodi.sourceforge.net/DTD/sodipodi-0.dtd"
   xmlns:inkscape="http://www.inkscape.org/namespaces/inkscape"
   width="123.74935mm"
   height="123.76208mm"
   viewBox="0 0 438.48196 438.52708"
   id="svg8528"
   version="1.1"
   inkscape:version="0.91 r13725"
   sodipodi:docname="light.svg">
  <sodipodi:namedview
     id="base"
     pagecolor="#ffffff"
     bordercolor="#666666"
     borderopacity="1.0"
     inkscape:pageopacity="0.0"
     inkscape:pageshadow="2"
     inkscape:zoom="0.39932557"
     inkscape:cx="-474.70721"
     inkscape:cy="346.79015"
     inkscape:document-units="px"
     inkscape:current-layer="layer1"
     showgrid="false"
     fit-margin-top="0"
     fit-margin-left="0"
     fit-margin-right="0"
     fit-margin-bottom="0"
     showborder="false"
     inkscape:window-width="1920"
     inkscape:window-height="1016"
     inkscape:window-x="0"
     inkscape:window-y="27"
     inkscape:window-maximized="1"
     inkscape:snap-bbox="true"
     inkscape:bbox-paths="true"
     inkscape:bbox-nodes="true"
     inkscape:snap-bbox-midpoints="true"
     inkscape:object-paths="true"
     inkscape:snap-intersection-paths="true"
     inkscape:snap-bbox-edge-midpoints="true"
     inkscape:object-nodes="true"
     inkscape:snap-smooth-nodes="true"
     inkscape:snap-midpoints="true"
     inkscape:snap-object-midpoints="true"
     inkscape:snap-center="true"
     inkscape:snap-global="true" />
  <defs
     id="defs8530">
    <inkscape:path-effect
       bendpath-nodetypes="cc"
       vertical="false"
       scale_y_rel="false"
       prop_scale="1"
       bendpath="m 3204.1356,-1458.6874 c 40.293,-11.9748 81.2044,-12.8171 122.8747,0"
       is_visible="true"
       id="path-effect6162-3-5-6-7-1-2-5-2"
       effect="bend_path" />
    <inkscape:path-effect
       bendpath-nodetypes="cc"
       vertical="false"
       scale_y_rel="false"
       prop_scale="1"
       bendpath="m 3204.1356,-1458.6874 c 40.293,-11.9748 81.2044,-12.8171 122.8747,0"
       is_visible="true"
       id="path-effect6162-2-4-9-2-4-6-4-2-7"
       effect="bend_path" />
    <inkscape:path-effect
       bendpath-nodetypes="cc"
       vertical="false"
       scale_y_rel="false"
       prop_scale="1"
       bendpath="m 3248.487,-1459.6625 c 9.5663,-1.2251 19.7431,-1.3309 30.6485,0"
       is_visible="true"
       id="path-effect6267-6-4-0-5-6-6-2-5"
       effect="bend_path" />
    <inkscape:path-effect
       is_visible="true"
       id="path-effect8149-7-5"
       effect="spiro" />
    <filter
       style="color-interpolation-filters:sRGB"
       inkscape:label="Drop Shadow"
       id="filter11617">
      <feFlood
         flood-opacity="0.105882"
         flood-color="rgb(0,0,0)"
         result="flood"
         id="feFlood11619" />
      <feComposite
         in="flood"
         in2="SourceGraphic"
         operator="in"
         result="composite1"
         id="feComposite11621" />
      <feGaussianBlur
         in="composite1"
         stdDeviation="3"
         result="blur"
         id="feGaussianBlur11623" />
      <feOffset
         dx="3"
         dy="3"
         result="offset"
         id="feOffset11625" />
      <feComposite
         in="SourceGraphic"
         in2="offset"
         operator="over"
         result="composite2"
         id="feComposite11627" />
    </filter>
    <clipPath
       clipPathUnits="userSpaceOnUse"
       id="clipPath11636">
      <rect
         style="opacity:0.2;fill:#808080;fill-opacity:1;stroke:none;stroke-width:5;stroke-linecap:round;stroke-linejoin:round;stroke-miterlimit:4;stroke-dasharray:none;stroke-opacity:1"
         id="rect11638"
         width="300.00003"
         height="300.00003"
         x="-942.93237"
         y="-81.144493" />
    </clipPath>
  </defs>
  <metadata
     id="metadata8533">
    <rdf:RDF>
      <cc:Work
         rdf:about="">
        <dc:format>image/svg+xml</dc:format>
        <dc:type
           rdf:resource="http://purl.org/dc/dcmitype/StillImage" />
        <dc:title />
      </cc:Work>
    </rdf:RDF>
  </metadata>
  <g
     transform="translate(-490.6976,-361.89284)"
     id="layer1"
     inkscape:groupmode="layer"
     inkscape:label="Layer 1">
    <path
       style="fill:#ffffff"
       d="m 703.00516,800.24859 c -19.2764,-0.6867 -36.6533,-3.5095 -55.6992,-9.0481 -17.1178,-4.9778 -36.5496,-13.65231 -51.8939,-23.16571 -10.6924,-6.6292 -18.735,-12.4957 -28.6787,-20.9191 -6.7084,-5.6826 -17.2724,-16.2515 -22.9076,-22.9181 -13.4399,-15.8997 -22.85581,-30.3416 -31.75671,-48.7077 -4.3905,-9.0593 -9.4956,-22.3405 -12.2867,-31.9642 -5.6198,-19.3778 -8.2903,-36.23571 -8.9887,-56.74341 -0.611,-17.9411 1.7232,-39.7711 6.139,-57.4139 3.0487,-12.1802 5.7668,-20.515 10.4265,-31.9712 6.9335,-17.0464 17.50661,-35.3492 28.83821,-49.92101 6.8924,-8.8632 10.9697,-13.4833 18.8763,-21.3888 5.9599,-5.9591 7.9338,-7.8028 12.1571,-11.3552 10.0948,-8.4912 17.4894,-13.8717 28.1813,-20.5056 9.0341,-5.6053 20.9516,-11.6699 30.7923,-15.6696 18.9139,-7.6875 35.6394,-12.1337 55.8224,-14.8395 10.4623,-1.4026 23.7854,-2.085 33.8391,-1.7333 20.4343,0.715 37.28611,3.4139 56.83591,9.1026 9.6687,2.8135 22.709,7.847 31.7989,12.2745 18.5047,9.013 32.7676,18.3231 48.5486,31.6899 6.6551,5.6369 17.4248,16.4114 23.0021,23.0123 10.8429,12.8327 19.7913,25.81731 26.6189,38.62551 9.56961,17.9516 15.77821,34.2005 20.53821,53.7515 4.2508,17.4593 6.4773,38.8592 5.8735,56.4525 -0.7042,20.5193 -3.4032,37.41581 -9.1039,56.99281 -2.8226,9.6935 -7.8191,22.6418 -12.26421,31.7827 -8.9917,18.4905 -18.2852,32.7187 -31.7841,48.6606 -5.6668,6.6924 -16.4333,17.4525 -23.0186,23.0049 -15.9473,13.446 -30.4576,22.8921 -48.7956,31.7655 -16.097,7.78901 -36.8823,14.50491 -54.6519,17.65841 -11.95281,2.1212 -21.51131,3.115 -33.85351,3.5198 -5.9362,0.1947 -6.3465,0.1938 -12.605,-0.029 z m 15.216,-14.5591 c 41.55171,-1.79 80.06201,-15.33691 113.37101,-39.88091 12.7412,-9.3885 25.7768,-21.7123 35.906,-33.9456 15.4435,-18.6513 27.299,-39.4759 35.3957,-62.173 10.29701,-28.8655 13.93541,-60.47271 10.51421,-91.33841 -4.10041,-36.9936 -18.32411,-72.3175 -40.97741,-101.76571 -5.807,-7.5487 -10.5124,-12.8793 -17.7908,-20.1547 -5.2609,-5.2587 -8.8919,-8.6183 -13.3394,-12.3423 -45.114,-37.7753 -103.82701,-54.1635 -162.42501,-45.3368 -15.1367,2.2801 -30.7278,6.5268 -45.018,12.2621 -22.2739,8.9395 -42.244,21.3521 -60.5942,37.6631 -3.1382,2.7894 -12.9894,12.6406 -15.7788,15.7788 -16.6326,18.71211 -29.1619,39.02351 -38.15551,61.85471 -14.9822,38.0337 -18.1361,80.268 -8.9963,120.46821 7.3145,32.1722 22.47421,62.2725 44.03531,87.4347 6.5801,7.6791 14.8157,15.9146 22.4967,22.4967 25.1342,21.5381 55.2736,36.7158 87.425,44.0256 17.6198,4.00601 36.2358,5.71581 53.9315,4.95351 z m -15.126,-2.2789 c -25.6673,-0.9421 -49.9457,-6.36001 -73.1093,-16.31511 -29.439,-12.6521 -55.8211,-32.4886 -76.3382,-57.3979 -23.5646,-28.6092 -38.86361,-63.2079 -44.03081,-99.57531 -8.3454,-58.7359 8.8495,-117.1801 47.59691,-161.77861 19.3635,-22.2876 43.724,-40.3077 70.6219,-52.241 30.7275,-13.6323 64.6019,-19.4016 98.2187,-16.7282 22.89771,1.821 45.10991,7.4521 65.99641,16.7311 56.8298,25.247 99.219,75.63561 114.2312,135.78821 10.79561,43.2567 7.05761,88.99571 -10.6016,129.72331 -12.7796,29.4737 -32.6262,55.6861 -57.7491,76.2721 -31.8026,26.0595 -71.1763,41.8737 -112.05701,45.00721 -7.102,0.5443 -16.3,0.752 -22.7791,0.5142 z m 17.6471,-3.85021 c 35.84361,-2.0275 69.58441,-13.2693 99.12961,-33.0281 11.6582,-7.7966 20.3888,-14.9743 30.4411,-25.0265 10.0586,-10.0586 17.3678,-18.9524 25.0916,-30.5311 18.3597,-27.5231 29.4207,-58.8269 32.4181,-91.74671 0.602,-6.6122 0.7857,-10.842 0.7857,-18.0973 0,-7.2311 -0.1817,-11.4355 -0.782,-18.0972 -5.3948,-59.8695 -37.9997,-114.23541 -88.616,-147.75981 -38.3648,-25.4099 -84.15171,-36.5862 -130.16931,-31.7736 -38.9418,4.0726 -75.9638,19.788 -106.3088,45.1269 -4.8832,4.0776 -7.8578,6.8171 -13.1694,12.1287 -10.0503,10.0503 -17.2211,18.7721 -25.0276,30.44111 -25.69791,38.4125 -37.06661,84.5642 -32.22801,130.8307 4.0725,38.94101 19.78851,75.96451 45.12691,106.30891 4.0776,4.8832 6.8171,7.8578 12.1287,13.1694 5.3116,5.3116 8.2862,8.0511 13.1694,12.1287 33.1153,27.6521 73.8844,43.6915 116.7615,45.9363 2.0303,0.1063 4.5423,0.2193 5.5822,0.2512 2.9419,0.09 12.1745,-0.064 15.6663,-0.2616 z m -18.207,-20.7436 c -1.7412,-5.0758 -3.1123,-9.2907 -3.0468,-9.3666 0.065,-0.076 0.6702,-0.076 1.344,0 l 1.2251,0.1379 2.5408,7.518 c 1.3975,4.1349 2.5905,7.518 2.6511,7.518 0.061,0 1.4888,-3.302 3.1737,-7.3379 l 3.0635,-7.3379 0.7876,-0.057 c 0.4332,-0.032 1.0424,-0.01 1.3537,0.049 l 0.5662,0.1062 -3.7978,8.9998 -3.7977,8.9998 -1.4488,0 -1.4488,0 -3.1658,-9.2287 z m 19.2721,8.6139 c -2.3225,-0.4123 -2.3185,-0.4084 -2.3232,-2.2149 l 0,-0.939 0.7704,0.3302 c 1.1035,0.4731 3.1935,0.9175 4.3143,0.9175 1.1797,0 2.9524,-0.4368 3.5588,-0.8769 1.1655,-0.8459 1.5791,-2.3434 1.0152,-3.6757 -0.4983,-1.1772 -1.4432,-1.6105 -4.194,-1.923 -4.4492,-0.5055 -6.1373,-1.6976 -6.4752,-4.5726 -0.327,-2.7817 1.4327,-4.9652 4.5944,-5.7012 1.2516,-0.2914 3.8937,-0.2899 5.5324,0 l 1.2832,0.2294 0.1197,1.1683 c 0.066,0.6426 0.081,1.2069 0.034,1.254 -0.047,0.047 -0.4759,-0.042 -0.9527,-0.197 -2.3377,-0.7622 -4.6302,-0.7689 -6.3095,-0.018 -1.1687,0.5223 -1.6687,1.2647 -1.6697,2.4794 0,1.8409 0.7281,2.3276 4.1368,2.76 3.7902,0.4807 5.2478,1.172 6.2167,2.9483 0.4937,0.9051 0.5402,1.1389 0.5402,2.7152 0,1.6051 -0.038,1.7864 -0.5455,2.611 -1.0716,1.7411 -3.2892,2.724 -6.4629,2.8646 -1.0955,0.048 -2.3566,-0.016 -3.181,-0.1621 z m -34.5855,-1.3074 -1.3775,-0.2652 -0.1088,-1.5624 c -0.06,-0.8593 -0.2328,-4.2769 -0.3842,-7.5947 -0.1514,-3.3179 -0.2929,-6.235 -0.3144,-6.4826 -0.026,-0.295 -0.935,1.5061 -2.6368,5.2221 -1.4288,3.1197 -2.9408,6.4116 -3.36,7.3154 l -0.7622,1.6431 -1.4435,-0.2926 c -0.7939,-0.1609 -1.5005,-0.3503 -1.5702,-0.4209 -0.1,-0.1012 -1.1255,-16.4131 -1.1538,-18.3522 l -0.01,-0.4732 1.1726,0.2203 c 0.645,0.1212 1.2248,0.2725 1.2885,0.3362 0.064,0.064 0.3023,3.5301 0.5302,7.703 0.2278,4.1729 0.4402,7.6132 0.472,7.645 0.032,0.032 1.511,-3.098 3.2871,-6.9549 1.7761,-3.857 3.3136,-7.0099 3.4165,-7.0064 0.386,0.013 2.4617,0.4975 2.5622,0.5979 0.057,0.058 0.2913,3.5192 0.5196,7.6925 0.2282,4.1733 0.4401,7.6125 0.4708,7.6426 0.031,0.03 1.5146,-3.1041 3.2973,-6.9649 l 3.2413,-7.0197 0.5402,0.1079 c 0.2971,0.059 0.8441,0.1565 1.2155,0.2161 0.3714,0.059 0.6757,0.1992 0.6763,0.3103 0,0.3907 -7.8363,17.0367 -8.0143,17.0197 -0.099,-0.01 -0.7999,-0.1365 -1.5575,-0.2824 z m 53.9171,0.1186 c -2.4871,-0.5132 -4.0872,-2.1693 -4.7942,-4.962 -0.1486,-0.5871 -0.6412,-3.458 -1.0947,-6.3797 -0.4535,-2.9216 -0.8643,-5.4871 -0.9128,-5.7011 -0.081,-0.3562 0.019,-0.4071 1.1832,-0.6035 0.6994,-0.1179 1.2955,-0.186 1.3247,-0.1512 0.029,0.035 0.4305,2.4943 0.892,5.4654 0.9227,5.9405 1.2169,7.3626 1.7322,8.3726 0.771,1.5114 2.3551,2.1582 4.38431,1.7902 2.0153,-0.3654 3.0351,-1.1488 3.4778,-2.6714 0.3612,-1.2425 0.2957,-1.9593 -0.8156,-8.9319 l -0.8611,-5.4022 1.2485,-0.2358 c 0.6866,-0.1298 1.2707,-0.2108 1.298,-0.1801 0.1898,0.2132 1.8943,12.03 1.8936,13.1274 0,2.4163 -0.8279,4.1186 -2.5291,5.2103 -1.5772,1.012 -4.6712,1.6153 -6.42681,1.253 z m -84.3069,-13.4125 c -1.0117,-1.1389 -1.9355,-2.0705 -2.0529,-2.0701 -0.1174,0 -1.426,0.2396 -2.9081,0.5315 -1.4821,0.292 -2.7163,0.5094 -2.7426,0.4831 -0.026,-0.026 0.5681,-1.0961 1.321,-2.3773 0.7529,-1.2812 1.4041,-2.42 1.4472,-2.5307 0.043,-0.1107 -0.5446,-1.3089 -1.3057,-2.6628 -0.7612,-1.3538 -1.3419,-2.5036 -1.2905,-2.555 0.052,-0.051 1.3261,0.1719 2.8326,0.4962 l 2.7391,0.5898 0.7385,-0.8047 c 2.5215,-2.7475 3.2066,-3.4559 3.2755,-3.387 0.043,0.043 0.2023,1.3232 0.355,2.846 0.1527,1.5227 0.3032,2.7942 0.3345,2.8255 0.031,0.031 1.1833,0.5773 2.56,1.2133 1.3766,0.6359 2.5243,1.2246 2.5504,1.308 0.026,0.083 -1.0926,0.638 -2.4861,1.2323 -1.3934,0.5942 -2.5624,1.1261 -2.5977,1.1819 -0.035,0.056 -0.2074,1.3726 -0.3823,2.9262 -0.175,1.5535 -0.3699,2.8246 -0.4333,2.8246 -0.063,0 -0.9429,-0.9318 -1.9546,-2.0708 z m 105.52661,-1.3055 c -0.1236,-1.3618 -0.2664,-2.6501 -0.3173,-2.8629 -0.071,-0.2951 -0.6905,-0.6566 -2.6107,-1.5224 -1.385,-0.6245 -2.5516,-1.1895 -2.5924,-1.2555 -0.041,-0.066 1.0914,-0.6329 2.5159,-1.2596 l 2.5902,-1.1394 0.3196,-2.8454 c 0.1758,-1.5649 0.3799,-2.8453 0.4536,-2.8453 0.074,0 0.9652,0.9297 1.9812,2.066 1.4721,1.6466 1.9228,2.0475 2.2196,1.9745 0.2049,-0.05 1.4923,-0.3239 2.8609,-0.6078 2.0129,-0.4175 2.4692,-0.4657 2.3873,-0.2524 -0.056,0.1451 -0.6691,1.242 -1.363,2.4374 -0.694,1.1955 -1.2618,2.2524 -1.2618,2.3487 0,0.096 0.6186,1.263 1.3746,2.5928 0.756,1.3298 1.3421,2.4503 1.3024,2.4901 -0.057,0.057 -3.6201,-0.6595 -5.2391,-1.0531 -0.2166,-0.053 -0.9008,0.5752 -2.2509,2.0656 -1.0669,1.1777 -1.986,2.142 -2.0425,2.143 -0.057,0 -0.204,-1.1125 -0.3276,-2.4743 z m 20.8688,1.2605 c 2e-4,-0.1733 0.3648,-2.7433 0.8103,-5.711 0.4456,-2.9677 0.8101,-5.6122 0.8101,-5.8767 0,-0.2644 -0.8508,-2.2512 -1.8908,-4.415 -1.0399,-2.1639 -1.8907,-4.0248 -1.8907,-4.1354 0,-0.1654 2.017,-1.1577 2.3497,-1.1559 0.054,0 0.9796,1.8586 2.0562,4.1297 l 1.9573,4.1293 5.2818,3.0947 c 2.905,1.702 5.2818,3.1289 5.2818,3.1707 0,0.042 -0.574,0.351 -1.2754,0.6872 l -1.2753,0.6112 -1.4708,-0.8675 c -6.7542,-3.9838 -6.6899,-3.9494 -6.7996,-3.6407 -0.059,0.1653 -0.381,2.2738 -0.7162,4.6856 l -0.6094,4.3851 -1.2151,0.6119 c -1.4118,0.711 -1.4042,0.7094 -1.4039,0.2968 z m -152.07111,-2.5116 c -2.2185,-0.2942 -4.8898,-1.6329 -6.552,-3.2835 -0.6551,-0.6505 -1.3081,-1.4094 -1.4512,-1.6866 -0.2436,-0.4717 -0.2198,-0.5855 0.3741,-1.7865 l 0.6343,-1.2828 0.4124,0.852 c 1.0348,2.1375 2.9459,3.7499 5.2879,4.4613 2.7017,0.8206 5.064,-0.028 6.9449,-2.4947 0.7358,-0.9649 1.895,-3.4656 2.184,-4.7114 0.3321,-1.4308 0.1542,-3.3427 -0.4148,-4.4602 -1.3295,-2.611 -5.1679,-4.2797 -8.365,-3.6366 -0.718,0.1444 -1.3055,0.2053 -1.3055,0.1352 0,-0.07 0.2508,-0.6632 0.5572,-1.3181 l 0.5572,-1.1907 1.5048,0 c 2.0516,0 3.123,0.2512 5.084,1.1922 5.3949,2.5885 6.8279,7.8384 3.7421,13.7095 -1.6154,3.0733 -4.0435,4.9747 -6.9435,5.4372 -1.1851,0.189 -1.2853,0.1918 -2.2509,0.064 z m 169.02391,-8.6499 -0.743,-1.2185 2.024,-0.1116 c 2.3146,-0.1277 3.4715,-0.4899 5.1538,-1.6133 1.3151,-0.8781 2.2855,-1.9338 2.7809,-3.0249 0.5595,-1.2322 0.5164,-3.3371 -0.099,-4.8442 -1.0442,-2.5568 -2.9268,-4.9341 -4.6736,-5.9018 -0.864,-0.4786 -1.1188,-0.5306 -2.6001,-0.5306 -1.5754,0 -1.7036,0.031 -3.1512,0.7656 -1.4818,0.7518 -3.2887,2.2178 -3.8282,3.106 -0.2636,0.4339 -0.2244,0.5292 1.0854,2.6391 l 1.3588,2.1889 1.688,-1.0635 c 0.9284,-0.5849 1.7618,-1.0634 1.8519,-1.0634 0.09,0 0.4141,0.3845 0.7198,0.8545 0.4305,0.6617 0.5064,0.8997 0.3365,1.0546 -0.3192,0.291 -5.5314,3.4938 -5.6779,3.489 -0.068,0 -1.1109,-1.6018 -2.3173,-3.5546 l -2.1934,-3.5505 0.5662,-1.0823 c 1.1684,-2.2333 4.3606,-4.8897 7.0637,-5.8781 1.5734,-0.5753 4.2697,-0.5824 5.7606,-0.015 2.4072,0.9158 4.5801,3.1082 6.0486,6.103 1.4832,3.0249 1.5686,5.6271 0.2708,8.2531 -1.5376,3.1111 -5.5315,5.6105 -9.7614,6.1087 l -0.9209,0.1085 -0.7429,-1.2185 z m -188.16451,-1.5888 c -3.0322,-0.8162 -5.4738,-2.9128 -6.5436,-5.619 -0.3365,-0.8511 -0.409,-1.383 -0.4111,-3.0143 0,-1.8107 0.047,-2.1048 0.5738,-3.4258 2.0954,-5.253 6.5432,-8.4229 10.7964,-7.6943 1.7372,0.2975 3.9244,1.4338 5.2125,2.7079 2.8318,2.8011 3.3378,6.5781 1.416,10.5704 -2.3814,4.9471 -6.8932,7.5923 -11.044,6.4751 z m 3.1173,-2.5027 c 3.3605,-1.0114 6.734,-6.2318 6.3175,-9.7761 -0.2229,-1.8964 -1.4144,-3.5514 -3.2511,-4.5158 -0.7741,-0.4064 -1.1352,-0.4774 -2.4392,-0.4796 -1.3267,0 -1.6721,0.067 -2.592,0.5186 -1.911,0.9383 -3.9606,3.4238 -5.0152,6.0815 -0.2834,0.7142 -0.3843,1.3758 -0.3935,2.5811 -0.011,1.4274 0.048,1.7438 0.4949,2.654 0.6617,1.3474 2.136,2.5473 3.7231,3.0301 0.7499,0.2281 2.2324,0.184 3.1555,-0.094 z m 87.5119,-1.4683 c -9.5063,-0.5727 -16.4316,-1.4444 -24.2575,-3.0534 -25.0142,-5.1428 -48.4326,-16.4454 -68.0294,-32.8335 -6.5698,-5.4941 -13.9468,-12.8714 -19.4645,-19.4656 -19.7214,-23.5686 -31.9325,-52.4214 -35.1712,-83.10331 -0.6224,-5.8968 -0.7356,-8.4318 -0.7356,-16.4766 0,-8.0447 0.1132,-10.5798 0.7356,-16.4766 3.2405,-30.6986 15.4048,-59.44 35.1721,-83.1032 5.4693,-6.5473 12.8698,-13.9479 19.4636,-19.4641 19.5869,-16.38581 43.0239,-27.69801 68.0294,-32.83551 6.608,-1.3576 12.1976,-2.1317 20.476,-2.8357 3.6749,-0.3125 18.3272,-0.3136 22.1489,0 10.2989,0.8408 17.8541,2.0554 27.10081,4.3571 20.1494,5.0157 39.7938,14.5162 56.3198,27.2378 9.1986,7.08091 18.1847,15.76811 25.3767,24.53251 19.2882,23.5053 31.1513,51.8689 34.3437,82.1128 0.6225,5.8968 0.7356,8.4319 0.7356,16.4766 0,8.0448 -0.1131,10.5798 -0.7356,16.4766 -4.3615,41.31961 -24.9108,78.84601 -57.3928,104.80861 -17.1914,13.7411 -37.5057,23.8119 -58.6474,29.0745 -8.96461,2.2315 -16.10531,3.4078 -25.75031,4.2418 -3.1278,0.2704 -16.8882,0.5013 -19.7179,0.3309 z m 15.6663,-4.0287 c 27.64551,-1.6839 52.73341,-10.029 75.30201,-25.048 37.1693,-24.7355 61.692,-64.8754 66.4957,-108.84331 0.7239,-6.6258 0.8154,-8.5348 0.8154,-17.0124 0,-8.4775 -0.091,-10.3866 -0.8154,-17.0123 -3.4046,-31.1619 -16.8902,-60.9973 -38.1752,-84.4583 -21.5183,-23.71811 -49.6121,-39.84501 -80.93341,-46.45901 -7.4274,-1.5684 -14.5831,-2.4963 -23.0455,-2.9883 -4.114,-0.2392 -15.7775,-0.1233 -19.4515,0.1933 -13.7752,1.1869 -25.3277,3.5565 -37.365,7.6639 -27.3326,9.3265 -51.204,26.14991 -69.4614,48.95321 -17.5759,21.9521 -28.8655,49.2279 -31.9101,77.0952 -0.727,6.6542 -0.8173,8.533 -0.8173,17.0123 0,8.4794 0.09,10.3582 0.8173,17.0124 3.9119,35.80611 20.9468,69.36101 47.8042,94.16361 20.2705,18.7197 45.5905,31.6301 72.5649,37.0001 7.4454,1.4822 13.5236,2.24 22.3289,2.7838 2.2714,0.1403 13.2601,0.1013 15.8464,-0.056 z m -15.1261,-2.8242 c -10.8446,-0.6612 -17.6049,-1.5833 -26.3805,-3.5983 -11.6182,-2.6676 -21.6068,-6.2292 -32.503,-11.5895 -30.5097,-15.009 -55.3377,-40.6646 -69.4093,-71.7229 -17.0956,-37.73271 -17.5773,-81.25421 -1.3207,-119.33201 11.0545,-25.8932 29.6381,-48.4903 52.9028,-64.32841 28.9601,-19.7153 63.4203,-28.4605 98.4094,-24.9739 45.80131,4.564 86.81741,30.26591 111.26881,69.72401 21.4714,34.6494 27.5907,77.3926 16.7498,116.99721 -12.2365,44.7031 -45.1312,81.3964 -88.3789,98.5847 -14.8072,5.8849 -30.48161,9.2906 -46.84261,10.178 -2.9922,0.1623 -12.1996,0.2011 -14.4958,0.061 z m 8.8173,-17.4431 c 1.5227,-0.3966 2.7202,-1.1002 3.9746,-2.3351 1.853,-1.8242 2.7844,-3.9427 2.7844,-6.3332 0,-1.2405 -0.8283,-5.2004 -1.5003,-7.1722 -1.0087,-2.9603 -2.7288,-5.7086 -5.1726,-8.2648 -2.4025,-2.5131 -4.9636,-4.1866 -8.093,-5.2884 -3.384,-1.1914 -5.7798,-1.4381 -10.9844,-1.1309 -2.3119,0.1364 -4.9875,0.1697 -7.1593,0.089 l -3.4679,-0.1287 -1.6152,-4.9766 c -1.5445,-4.7587 -2.1501,-6.149 -3.0086,-6.9079 -0.1977,-0.1748 -1.4052,-0.9166 -2.6833,-1.6484 l -2.3238,-1.3305 -0.1209,-0.8326 c -0.066,-0.4579 -0.3258,-1.1824 -0.5763,-1.6098 -1.8785,-3.2055 -6.7579,-2.6181 -7.7917,0.938 -0.3626,1.2472 -0.2128,2.2293 0.528,3.4629 1.1111,1.8503 3.406,2.4926 5.4707,1.5313 l 0.9313,-0.4336 2.13,1.175 c 1.1714,0.6463 2.2639,1.3082 2.4278,1.4708 0.2841,0.2822 0.9025,2.1364 2.1241,6.3692 0.3066,1.0625 0.6022,2.0482 0.6568,2.1905 0.08,0.208 -0.054,0.2416 -0.6794,0.1711 -2.2857,-0.2571 -7.566,-1.2238 -9.6923,-1.7744 -2.862,-0.7411 -8.6415,-2.5845 -8.6479,-2.7583 0,-0.067 -0.3207,-2.3363 -0.7071,-5.0441 -0.9002,-6.3073 -0.8772,-6.2551 -3.8007,-8.6437 l -2.1288,-1.7392 -0.011,-1.0148 c -0.036,-3.3715 -3.7492,-5.3866 -6.5045,-3.5297 -0.3332,0.2245 -0.8494,0.7549 -1.1472,1.1786 -0.4446,0.6326 -0.5528,0.9864 -0.6046,1.9781 -0.055,1.0434 0.01,1.3425 0.4447,2.1981 1.037,2.0223 3.2037,2.7662 5.4953,1.8868 0.3221,-0.1236 4.1996,2.9583 4.3604,3.4657 0.1209,0.3817 1.0241,7.835 0.9575,7.9016 -0.208,0.208 -7.0745,-3.0783 -10.3954,-4.9751 -2.671,-1.5257 -10.6156,-6.7864 -10.7406,-7.1123 -0.048,-0.1251 0.2422,-2.0797 0.645,-4.3436 0.7904,-4.4428 0.8837,-5.835 0.4593,-6.8508 -0.1499,-0.3588 -0.8,-1.4798 -1.4446,-2.4909 l -1.172,-1.8385 0.27,-1.0366 c 0.495,-1.9005 -0.2041,-3.5733 -1.873,-4.4816 -0.8215,-0.4471 -1.0892,-0.5034 -2.0928,-0.4394 -2.1317,0.1357 -3.5833,1.6905 -3.5833,3.8381 0,2.1308 1.4042,3.651 3.5299,3.8217 l 1.1477,0.092 1.2863,2.0155 c 1.0466,1.6399 1.2694,2.1142 1.1956,2.5449 -0.2414,1.4071 -1.3537,6.8403 -1.4128,6.9005 -0.074,0.076 -1.5417,-1.1491 -3.8479,-3.213 -0.8342,-0.7465 -2.7385,-2.8126 -4.2317,-4.5912 -1.4932,-1.7786 -3.2292,-3.845 -3.8577,-4.5919 -0.6286,-0.7468 -1.8638,-2.3118 -2.7448,-3.4778 l -1.602,-2.1198 2.2766,-4.5428 c 2.1533,-4.2971 2.2806,-4.611 2.3519,-5.8034 0.063,-1.0453 -0.032,-1.6387 -0.5534,-3.4764 l -0.6289,-2.216 0.5572,-0.8964 c 1.7145,-2.7581 -0.058,-6.089 -3.2467,-6.1023 -2.5856,-0.011 -4.4459,2.39 -3.8097,4.9165 0.2654,1.0537 1.187,2.1262 2.1798,2.5367 0.4293,0.1774 0.8958,0.38 1.0367,0.4502 0.278,0.1384 1.4244,3.759 1.4431,4.5574 0.01,0.4242 -2.5454,5.5044 -3.4255,6.8101 -0.2846,0.4222 -0.2888,0.4181 -1.038,-1.0071 -0.4138,-0.787 -1.7601,-3.5064 -2.9917,-6.043 -4.9265,-10.1459 -7.4933,-16.5278 -8.3664,-20.80151 -0.4664,-2.2829 -1.3628,-8.5011 -1.2428,-8.6211 0.053,-0.053 0.7631,-0.1477 1.5782,-0.2105 1.5077,-0.1163 1.9932,-0.3423 1.9912,-0.9268 -5e-4,-0.1663 -1.382,-2.2471 -3.0698,-4.624 -2.8861,-4.0643 -3.1023,-4.3217 -3.6311,-4.3217 -0.5606,0 -0.569,0.015 -2.7976,4.8619 -2.6472,5.758 -2.6509,5.7863 -0.756,5.7243 0.6391,-0.021 1.4678,-0.083 1.8417,-0.1379 0.4646,-0.068 0.7014,-0.028 0.7479,0.128 0.037,0.1254 0.3235,1.9702 0.6357,4.0995 0.6197,4.2265 1.1116,6.5108 1.9966,9.27221 0.7513,2.3442 2.5047,6.7045 4.0398,10.0462 0.6725,1.4639 1.1747,2.7097 1.116,2.7684 -0.059,0.059 -1.8322,-0.019 -3.941,-0.1716 l -3.8342,-0.2784 -0.9004,-0.9674 c -0.4952,-0.5321 -1.2424,-1.3775 -1.6606,-1.8788 l -0.7602,-0.9113 0.7152,-0.5748 c 1.1156,-0.8965 1.0337,-1.121 -1.4735,-4.041 -1.8303,-2.1317 -2.27,-2.5492 -2.6846,-2.5492 -0.7517,0 -5.5708,4.1373 -5.5708,4.7827 0,0.3318 0.6195,1.1882 2.183,3.0174 2.4391,2.8536 2.5938,2.9369 3.7519,2.0197 l 0.6746,-0.5342 1.6514,1.8727 c 0.9082,1.03 1.9188,2.038 2.2457,2.2401 0.8665,0.5355 1.8647,0.6945 6.8506,1.0914 2.4651,0.1962 4.5102,0.3848 4.5446,0.4192 0.034,0.034 0.9918,1.9205 2.1276,4.1914 2.9119,5.8219 5.2779,9.4277 9.3529,14.2541 1.4313,1.6952 1.5227,1.8494 1.1482,1.9366 -0.2238,0.052 -1.9434,0.3355 -3.8213,0.6299 -3.8904,0.6098 -3.231,0.7364 -5.8143,-1.1165 -0.8171,-0.586 -1.4856,-1.1536 -1.4856,-1.2613 0,-0.1077 0.2026,-0.4615 0.4502,-0.7861 0.8498,-1.1141 0.84,-1.1273 -2.761,-3.7555 -1.8968,-1.3844 -2.4888,-1.7302 -2.82,-1.647 -0.2744,0.069 -1.1138,1.0459 -2.4301,2.8287 -1.5787,2.1381 -1.9889,2.8115 -1.9082,3.1331 0.1043,0.4156 5.0498,4.1897 5.7194,4.3649 0.2252,0.059 0.5569,-0.1607 1.0379,-0.6869 l 0.7069,-0.7734 1.3176,0.9306 c 3.0846,2.1787 3.3204,2.287 4.919,2.2586 0.7923,-0.014 3.3043,-0.3158 5.5823,-0.6706 l 4.1416,-0.645 0.6228,0.7606 c 3.064,3.7423 7.7393,7.6357 15.0435,12.5275 1.9808,1.3266 3.62,2.463 3.6427,2.5254 0.038,0.105 -3.3111,2.1952 -5.7619,3.5959 l -1.052,0.6013 -2.4313,-0.597 c -2.2281,-0.5472 -2.4228,-0.6276 -2.3286,-0.9615 0.2913,-1.0323 0.3089,-1.8252 0.045,-2.044 -0.1492,-0.1238 -1.7082,-0.592 -3.4644,-1.0404 -4.336,-1.1071 -3.9588,-1.3308 -5.0352,2.9854 -0.6435,2.5806 -0.8005,3.4704 -0.659,3.7349 0.1431,0.2673 0.9699,0.5453 3.5948,1.2085 3.9342,0.9941 4.0146,0.9861 4.355,-0.433 0.1193,-0.4973 0.2341,-0.9042 0.255,-0.9042 0.021,0 1.0866,0.2422 2.368,0.5381 1.2815,0.296 2.7351,0.539 3.2303,0.5401 1.1449,0 2.0308,-0.4165 6.6489,-3.145 l 3.5878,-2.1197 3.1649,1.6291 c 5.044,2.5963 9.6244,4.4587 15.5579,6.3262 1.7651,0.5555 3.1997,1.0895 3.188,1.1867 -0.012,0.097 -1.523,1.7365 -3.3587,3.643 l -3.3375,3.4664 -2.9568,0 -2.9567,0 0,-1.1345 c 0,-0.6423 -0.094,-1.2282 -0.2161,-1.3505 -0.3067,-0.3068 -8.4448,-0.3068 -8.7515,0 -0.1556,0.1556 -0.2161,1.3805 -0.2161,4.3757 0,2.9952 0.061,4.2202 0.2161,4.3758 0.3153,0.3153 8.5275,0.3068 8.7319,-0.01 0.08,-0.1238 0.1862,-0.7518 0.2357,-1.3956 l 0.09,-1.1705 3.1503,-0.142 c 4.465,-0.2013 4.1082,0 9.3832,-5.3889 l 4.2501,-4.3449 2.8627,0.4806 c 5.0166,0.8422 11.2105,1.382 15.8573,1.382 l 1.8802,0 -0.8505,1.5757 c -2.1963,4.0688 -3.5589,6.466 -3.8482,6.7698 -0.1806,0.1897 -1.4658,0.6638 -2.9953,1.1049 l -2.679,0.7727 -0.3438,-1.1341 c -0.2316,-0.7638 -0.4668,-1.1898 -0.7203,-1.3045 -0.565,-0.2557 -7.927,1.8837 -8.2915,2.4095 -0.2394,0.3453 -0.1619,0.7372 0.8488,4.2913 0.834,2.933 1.1984,3.9575 1.4567,4.0957 0.4768,0.2552 8.0596,-1.8953 8.3559,-2.3696 0.1522,-0.2438 0.1354,-0.5768 -0.069,-1.3585 -0.1487,-0.5695 -0.2042,-1.0947 -0.1234,-1.1671 0.081,-0.072 1.2814,-0.4754 2.6679,-0.8958 2.9209,-0.8855 3.6282,-1.2127 4.4493,-2.0581 0.3289,-0.3386 1.4812,-2.1828 2.5608,-4.0981 1.0796,-1.9154 2.3756,-4.2118 2.88,-5.1032 l 0.917,-1.6206 1.2591,-0.1392 c 3.8387,-0.4244 8.7972,1.1361 11.8284,3.7224 2.2449,1.9155 3.6353,3.743 4.9217,6.4687 1.1784,2.497 1.5958,4.283 1.6068,6.8749 0.01,2.3761 -0.2068,3.0686 -1.2799,4.0871 -1.6493,1.5653 -4.6452,1.3185 -6.1579,-0.5075 -1.7209,-2.0772 -1.3963,-6.4838 0.8256,-11.2079 l 0.4541,-0.9656 -0.5178,-0.4345 c -0.2848,-0.239 -0.9839,-0.7597 -1.5535,-1.1571 l -1.0357,-0.7226 -0.726,1.1323 c -1.8218,2.8412 -2.8087,5.7133 -3.0496,8.8754 -0.2746,3.604 0.3823,5.8065 2.3635,7.9245 2.19,2.341 5.4684,3.3084 8.5192,2.5138 z m 35.07891,-8.2324 c 0.1809,-0.1369 0.7221,-1.7392 1.3814,-4.09 0.9318,-3.3225 1.0511,-3.9144 0.8503,-4.2168 -0.1694,-0.2551 -1.2448,-0.6404 -3.913,-1.402 -2.0237,-0.5775 -3.85191,-1.0502 -4.06261,-1.0503 -0.5056,0 -0.6835,0.2468 -1.0706,1.4869 -0.2432,0.7791 -0.3938,1.0151 -0.6054,0.9491 -0.155,-0.048 -1.4098,-0.417 -2.7884,-0.8193 -1.4717,-0.4295 -2.5995,-0.8585 -2.7316,-1.0392 -0.2069,-0.2829 -2.0157,-3.5346 -3.8524,-6.9253 l -0.7559,-1.3955 2.7032,0 c 4.5235,0 10.95701,-0.6049 15.76461,-1.4821 l 2.1387,-0.3903 4.0738,4.1636 c 2.2406,2.29 4.3574,4.3624 4.704,4.6054 1.0228,0.7169 1.8697,0.8862 5.0244,1.0045 l 2.9888,0.1121 0.053,1.2 c 0.029,0.66 0.1512,1.2815 0.2714,1.3813 0.351,0.2913 8.3216,0.3266 8.6689,0.038 0.2388,-0.1982 0.2805,-0.8346 0.2805,-4.2742 0,-2.4415 -0.074,-4.1793 -0.1864,-4.3897 -0.1758,-0.3287 -0.4169,-0.3484 -4.2625,-0.3484 -4.8445,0 -4.7347,-0.04 -4.7347,1.7442 l 0,1.148 -2.9262,-0.1166 -2.9262,-0.1166 -1.319,-1.2845 c -2.7052,-2.6343 -5.6512,-5.8732 -5.4076,-5.9452 0.1342,-0.04 2.0267,-0.6504 4.2056,-1.3573 5.3951,-1.7502 8.6162,-3.0611 13.5338,-5.5077 l 4.1701,-2.0746 3.6631,2.1708 c 4.8168,2.8546 5.3508,3.1091 6.5085,3.1017 0.7503,0 3.9711,-0.6329 5.3585,-1.045 0.2101,-0.062 0.3397,0.1467 0.5151,0.8312 0.3624,1.4139 0.4745,1.4247 4.4162,0.4242 2.7976,-0.7102 3.4067,-0.9226 3.5506,-1.2385 0.2089,-0.4584 -1.3301,-6.8666 -1.7521,-7.2957 -0.2293,-0.2331 -0.6857,-0.1597 -3.7852,0.6086 -4.0249,0.9976 -4.0737,1.0313 -3.6915,2.5489 0.1167,0.4636 0.1877,0.8674 0.1578,0.8973 -0.1836,0.1837 -4.6001,1.1686 -4.8946,1.0916 -0.4268,-0.1116 -6.7746,-3.9252 -6.7659,-4.0648 0,-0.053 1.4416,-1.0394 3.1963,-2.1922 3.5863,-2.3561 7.4359,-5.1751 9.8529,-7.215 1.5966,-1.3474 4.7345,-4.4722 5.7717,-5.7475 l 0.5308,-0.6527 4.862,0.726 c 3.5892,0.5359 5.0907,0.6914 5.736,0.5939 0.6833,-0.1033 1.3672,-0.4678 3.1349,-1.6708 l 2.2609,-1.5387 0.6165,0.7422 c 0.3391,0.4082 0.7706,0.7422 0.9589,0.7422 0.4587,0 5.7015,-3.8846 5.8425,-4.3289 0.1355,-0.4271 0.2435,-0.2483 -2.0365,-3.3705 -1.2011,-1.6448 -2.0219,-2.6042 -2.2843,-2.6701 -0.3222,-0.081 -1.0094,0.342 -3.2226,1.9827 -3.0772,2.2813 -3.1612,2.404 -2.3629,3.4508 0.2476,0.3246 0.4502,0.6668 0.4502,0.7605 0,0.1514 -1.5485,1.3768 -3.2047,2.536 l -0.5936,0.4155 -3.6381,-0.5823 c -2.0009,-0.3202 -3.7068,-0.6444 -3.791,-0.7204 -0.084,-0.076 0.646,-1.0985 1.6226,-2.2722 3.9365,-4.7312 6.0194,-7.9333 9.0018,-13.8386 1.1504,-2.2779 2.102,-4.156 2.1145,-4.1735 0.013,-0.017 1.6426,-0.1611 3.6224,-0.319 5.2834,-0.4216 6.7117,-0.6122 7.4642,-0.9961 0.3715,-0.1896 1.4318,-1.1795 2.3563,-2.1999 0.9244,-1.0204 1.7464,-1.8823 1.8267,-1.9154 0.08,-0.033 0.4498,0.1726 0.8211,0.4569 0.4049,0.31 0.8357,0.4914 1.0761,0.4532 0.6143,-0.097 4.7327,-4.9691 4.7253,-5.5894 0,-0.3962 -0.4702,-0.8781 -2.5968,-2.6886 -1.7641,-1.5018 -2.725,-2.2019 -3.0105,-2.1934 -0.5717,0.017 -4.8311,4.9872 -4.8311,5.6373 0,0.2971 0.2378,0.6403 0.7226,1.043 l 0.7226,0.6002 -1.5557,1.8007 c -1.1244,1.3014 -1.7051,1.8331 -2.0946,1.9174 -0.7982,0.1728 -7.3328,0.5795 -7.4488,0.4635 -0.055,-0.055 0.4836,-1.3827 1.1964,-2.951 1.6917,-3.7217 3.4222,-8.1357 4.2145,-10.7495 0.7692,-2.53771 1.181,-4.56661 1.8141,-8.93851 0.2653,-1.8323 0.5063,-3.4161 0.5355,-3.5196 0.036,-0.1287 0.6116,-0.1372 1.8178,-0.027 1.5989,0.1462 1.7868,0.131 2.0006,-0.1613 0.1297,-0.1775 0.2359,-0.4136 0.2359,-0.5248 0,-0.1111 -1.002,-2.3848 -2.2266,-5.0526 -2.1215,-4.6215 -2.2511,-4.8528 -2.7461,-4.899 -0.4885,-0.046 -0.7067,0.2161 -3.6541,4.385 -2.8533,4.0357 -3.1196,4.4763 -2.9676,4.9105 0.1584,0.4523 0.2529,0.4848 1.8291,0.6307 1.4672,0.1357 1.662,0.1944 1.662,0.5005 0,0.9624 -1.1768,8.0635 -1.6243,9.8016 -1.0308,4.00301 -3.5188,10.02301 -7.9274,19.18051 -2.8662,5.9536 -3.7363,7.5928 -3.9577,7.4559 -0.312,-0.1927 -3.5973,-6.5538 -3.5942,-6.959 0,-0.2318 0.2711,-1.3533 0.5986,-2.4922 l 0.5953,-2.0709 0.7937,-0.2701 c 0.4374,-0.1488 1.1704,-0.6338 1.6329,-1.0804 1.1111,-1.0728 1.4324,-2.3013 0.9951,-3.8055 -0.9404,-3.2348 -5.2126,-3.8649 -7.0793,-1.0441 -0.8584,1.2971 -0.7626,3.2799 0.2222,4.5998 l 0.4183,0.5606 -0.6206,2.219 c -1.0339,3.6964 -1.0509,3.6056 1.7173,9.162 l 2.338,4.6929 -1.6627,2.2068 c -2.2991,3.0515 -8.8444,10.7986 -10.2379,12.1177 -1.5122,1.4314 -4.2921,3.7525 -4.384,3.6605 -0.093,-0.093 -1.3185,-6.2233 -1.3629,-6.8187 -0.056,-0.7553 -0.033,-0.8062 1.2639,-2.7739 l 1.2574,-1.908 0.8192,0 c 2.1937,0 3.7537,-1.6075 3.7706,-3.8856 0.011,-1.53 -0.6834,-2.669 -2.0508,-3.3623 -1.7217,-0.8728 -3.4142,-0.5514 -4.7194,0.8963 -0.8912,0.9886 -1.1439,2.1523 -0.775,3.5688 l 0.2689,1.0323 -1.2541,2.0007 c -0.6897,1.1004 -1.3399,2.2289 -1.4448,2.5077 -0.3358,0.8924 -0.2083,2.45 0.5543,6.7718 l 0.745,4.2223 -0.5199,0.4227 c -0.8821,0.7173 -6.5246,4.4487 -8.8033,5.8218 -1.1884,0.7162 -3.2143,1.8529 -4.5018,2.526 -2.4689,1.2908 -7.2844,3.4765 -7.4014,3.3594 -0.082,-0.082 0.7887,-7.4632 0.9355,-7.9265 0.162,-0.5114 4.079,-3.573 4.3951,-3.4353 0.1486,0.065 0.6753,0.1963 1.1705,0.2923 1.5941,0.3093 3.1049,-0.3548 4.132,-1.8162 0.463,-0.6587 0.5518,-0.9667 0.5965,-2.0681 0.064,-1.5763 -0.391,-2.6068 -1.5381,-3.4835 -2.7838,-2.1277 -6.6867,-0.1498 -6.7074,3.399 l -0.01,0.9512 -2.1402,1.7518 c -2.9355,2.4028 -2.8979,2.3166 -3.8027,8.7058 -0.3898,2.7526 -0.7087,5.0274 -0.7087,5.0553 0,0.1376 -7.0505,2.3091 -9.2641,2.8533 -2.1724,0.534 -5.9273,1.212 -8.96151,1.6182 l -0.8486,0.1136 0.2748,-0.9554 c 1.18781,-4.1299 2.30081,-7.6539 2.47461,-7.8349 0.1146,-0.1193 1.2106,-0.7796 2.4357,-1.4674 l 2.2274,-1.2505 0.9197,0.462 c 1.08,0.5424 2.5345,0.613 3.5694,0.1731 1.6457,-0.6994 2.855,-2.8159 2.5738,-4.5047 -0.2621,-1.5745 -1.4903,-3.093 -2.8698,-3.5483 -2.4808,-0.8188 -5.3059,0.9535 -5.6112,3.5201 l -0.1059,0.8902 -2.2276,1.2245 c -2.60431,1.4316 -3.15411,1.8595 -3.79591,2.9547 -0.2611,0.4455 -1.1819,3.0097 -2.0462,5.6983 l -1.5714,4.8884 -1.7769,0.1389 c -0.9773,0.076 -4.532,0.091 -7.8993,0.032 -6.5735,-0.1146 -8.0793,0 -10.8119,0.8266 -1.3909,0.4205 -4.0816,1.6161 -4.0039,1.7791 0.027,0.058 0.699,0.7277 1.4925,1.4894 l 1.4426,1.385 1.4778,-0.523 c 2.2402,-0.7927 4.0269,-1.0981 6.0772,-1.0386 l 1.7968,0.052 2.705,4.8112 c 1.4878,2.6461 3.0029,5.2088 3.367,5.6948 0.802,1.0705 1.4073,1.3764 4.786,2.419 1.4118,0.4357 2.6118,0.837 2.6667,0.892 0.055,0.055 -0.021,0.5637 -0.1692,1.1306 -0.3233,1.2379 -0.1595,1.6311 0.788,1.8914 0.3466,0.095 2.0078,0.5735 3.69151,1.0629 3.4113,0.9916 3.5012,1.0074 3.9201,0.6905 z m -33.63211,-61.1614 c 1.5847,-0.767 3.57,-1.8823 4.4118,-2.4786 0.8418,-0.5963 2.7073,-1.7903 4.1456,-2.6533 2.9709,-1.7828 7.0612,-5.0992 13.2373,-10.7325 0.7058,-0.6438 2.0962,-1.8998 3.0899,-2.7911 l 1.8067,-1.6207 -1.1908,-0.1267 c -1.1946,-0.1271 -7.5831,-0.5861 -10.483,-0.7532 l -1.5491,-0.089 -1.9927,1.655 c -1.096,0.9103 -2.7889,2.1412 -3.762,2.7355 -0.9731,0.5942 -2.6611,1.6804 -3.7511,2.4136 -2.0059,1.3495 -6.2458,3.5262 -7.2656,3.7302 -0.4534,0.091 -0.9953,-0.1121 -2.948,-1.1029 -1.3158,-0.6676 -2.8786,-1.5563 -3.4729,-1.9748 -0.5942,-0.4186 -1.9312,-1.2717 -2.9711,-1.896 -2.6419,-1.5859 -3.7314,-2.342 -5.3185,-3.6907 -0.7577,-0.644 -1.5133,-1.1709 -1.6791,-1.1709 -0.5406,0 -6.8959,0.5478 -9.479,0.817 -1.3866,0.1445 -2.7236,0.2651 -2.9712,0.268 -0.5184,0.01 -0.908,-0.3945 3.2369,3.3268 4.2526,3.8178 9.2301,8.0943 10.8521,9.3234 0.4695,0.3559 2.1517,1.4274 3.7381,2.3813 1.5865,0.9538 3.2355,2.0022 3.6647,2.3297 0.429,0.3276 2.1413,1.3006 3.805,2.1623 2.3874,1.2366 3.1239,1.5421 3.4949,1.4495 0.2585,-0.064 1.7665,-0.7447 3.3511,-1.5117 z m -73.9983,-7.4072 c 2.0107,-0.6825 9.1212,-2.8622 11.4772,-3.5183 1.0525,-0.293 1.7335,-0.5712 1.6875,-0.6893 -0.042,-0.1089 -0.7006,-1.2514 -1.4628,-2.5389 -2.0533,-3.4687 -6.0534,-11.644 -7.8989,-16.14391 l -0.2698,-0.6577 -2.5825,0.7978 c -1.4205,0.4387 -3.8182,1.2073 -5.3284,1.70791 l -2.7457,0.9102 1.4852,1.1946 c 1.4916,1.1997 3.5713,2.9386 6.4888,5.4252 0.863,0.7355 1.5691,1.4348 1.5691,1.554 0,0.1192 -0.372,1.2596 -0.8266,2.5342 -1.1494,3.2225 -3.3151,9.6375 -3.3151,9.8198 0,0.2003 -0.1032,0.224 1.722,-0.3956 z m 140.91861,-5.6897 c -1.0851,-3.2553 -2.0228,-6.0439 -2.0837,-6.1969 -0.1034,-0.2596 3.6469,-3.5205 8.1534,-7.0894 0.7267,-0.5755 1.2534,-1.1102 1.1705,-1.1883 -0.2934,-0.2763 -10.2038,-3.43191 -10.3369,-3.29151 -0.074,0.079 -0.5953,1.1961 -1.1579,2.48361 -1.6877,3.8628 -5.3744,11.1653 -7.0909,14.0456 l -1.6097,2.7011 0.6585,0.2115 c 0.3622,0.1163 2.1576,0.6602 3.9899,1.2087 1.8322,0.5485 4.8709,1.5151 6.7527,2.148 1.8817,0.6329 3.4452,1.0912 3.4742,1.0185 0.029,-0.073 -0.8349,-2.7956 -1.9201,-6.0509 z m -120.76181,-7.8339 c 13.1334,-3.0055 25.4574,-4.7329 39.7959,-5.578 4.6048,-0.2714 18.0089,-0.2733 22.6891,0 15.535,0.8965 29.99131,3.1079 43.66061,6.6789 0.739,0.1931 1.3556,0.3345 1.3701,0.3142 0.015,-0.02 0.6797,-1.2929 1.478,-2.828 2.3977,-4.6104 5.1306,-10.91621 6.7608,-15.59981 l 0.6256,-1.7972 -1.8275,-0.699 c -15.2751,-5.8423 -40.17461,-8.9049 -65.30291,-8.032 -18.7551,0.6514 -34.6718,2.3192 -49.1863,5.1538 -5.6871,1.1106 -14.7503,3.3187 -15.1643,3.6944 -0.1812,0.1644 0.1188,1.1315 1.4221,4.5847 1.6001,4.2398 2.8936,7.19891 5.0484,11.54921 l 2.0636,4.1662 2.1129,-0.5342 c 1.1621,-0.2938 3.1664,-0.7752 4.4539,-1.0699 z m 27.4739,-8.87371 c -0.1163,-0.14 -0.2537,-0.8085 -0.3055,-1.4856 l -0.094,-1.231 2.1839,-2.7911 c 2.575,-3.2909 3.0946,-4.1136 3.1179,-4.9374 0.041,-1.4609 -1.3153,-1.5908 -3.0371,-0.2908 -1.2304,0.929 -1.4589,0.8945 -2.751,-0.4154 -1.111,-1.1261 -1.0979,-1.2806 0.1977,-2.3422 2.489,-2.0396 5.812,-2.4383 8.004,-0.9604 1.1718,0.7901 1.72,1.8929 1.72,3.4603 0,1.5837 -0.8159,3.2294 -2.6481,5.3409 -0.7472,0.8611 -1.3585,1.5935 -1.3585,1.6276 0,0.034 0.5875,0 1.3055,-0.069 0.7181,-0.072 1.8104,-0.1359 2.4276,-0.1421 1.2772,-0.013 1.2055,-0.1142 1.4007,1.9835 0.081,0.8693 0.048,1.2352 -0.1258,1.3753 -0.1298,0.1051 -1.3705,0.2872 -2.7571,0.4049 -1.3866,0.1176 -3.4529,0.3287 -4.5918,0.469 -2.5407,0.313 -2.4314,0.3129 -2.6882,0 z m 43.8346,0.069 c -0.5942,-0.077 -2.539,-0.275 -4.3217,-0.4398 -2.1112,-0.195 -3.3277,-0.3837 -3.4891,-0.5412 -0.1869,-0.1824 -0.2176,-0.5235 -0.1249,-1.3889 0.068,-0.6309 0.1791,-1.2285 0.2478,-1.328 0.069,-0.1 1.3809,-1.2811 2.916,-2.6257 3.3179,-2.9061 3.5584,-3.1566 3.7834,-3.9411 0.4227,-1.4739 -1.0401,-1.9106 -2.9806,-0.8899 -0.5689,0.2993 -1.1646,0.5003 -1.3238,0.4466 -0.3818,-0.1287 -1.8199,-2.1627 -1.8199,-2.574 0,-0.3638 1.5328,-1.3629 2.7426,-1.7875 0.9227,-0.3239 3.1803,-0.3637 4.2185,-0.074 1.2882,0.3591 2.4351,1.2624 3.0022,2.3646 0.4319,0.8394 0.4966,1.1446 0.4245,2.0012 -0.1687,2.0035 -1.2178,3.4919 -3.9545,5.6103 -0.7699,0.5959 -1.368,1.1153 -1.3292,1.1541 0.039,0.039 1.0224,0.1812 2.1859,0.3166 1.2835,0.1492 2.215,0.3457 2.3688,0.4995 0.2077,0.2076 0.2195,0.4937 0.065,1.5795 -0.2727,1.9232 -0.2708,1.922 -2.6115,1.618 z m -28.2713,-1.0628 c -2.7921,-0.6797 -4.2214,-3.4923 -4.2285,-8.3211 -0.01,-3.4282 0.825,-5.3179 2.7757,-6.3179 0.924,-0.4738 3.0249,-0.6348 4.1549,-0.3184 1.6195,0.4534 2.9732,2.1102 3.5308,4.3215 0.3709,1.4711 0.3231,5.3871 -0.083,6.7527 -0.3892,1.3101 -1.2126,2.5805 -2.0403,3.1476 -1.0803,0.7402 -2.8154,1.0508 -4.11,0.7356 z m 1.7724,-3.7005 c 0.6106,-0.6107 0.843,-3.5247 0.467,-5.855 -0.2414,-1.4957 -0.5505,-1.9808 -1.2623,-1.9808 -0.8198,0 -1.0671,0.765 -1.0671,3.301 0,3.1471 0.4314,4.8022 1.2518,4.8022 0.1887,0 0.4635,-0.1203 0.6106,-0.2674 z m 10.0534,3.5258 c -2.5339,-0.8751 -3.8241,-3.8377 -3.5757,-8.2103 0.1808,-3.1805 1.0699,-5.1551 2.7717,-6.1555 0.7828,-0.4601 1.0219,-0.5072 2.5737,-0.5072 1.9756,0 2.7135,0.2715 3.8109,1.4024 1.0653,1.0976 1.4621,2.3547 1.551,4.9127 0.1678,4.8308 -1.1643,7.8489 -3.8111,8.6349 -1.1795,0.3503 -2.1484,0.3278 -3.3205,-0.077 z m 2.3778,-3.6635 c 0.6639,-1.0493 0.9231,-5.8011 0.3865,-7.0854 -0.237,-0.5673 -0.3296,-0.63 -0.8553,-0.5794 -0.9108,0.088 -1.2315,0.9249 -1.3515,3.5287 -0.097,2.1051 0.1085,3.8092 0.519,4.3039 0.31,0.3734 1.0165,0.2823 1.3013,-0.1678 z m -53.6729,-13.8017 c 2.1604,-0.3861 3.9671,-0.7411 4.0148,-0.7888 0.048,-0.048 -0.5933,-1.1298 -1.4245,-2.4045 -1.6136,-2.4748 -3.9478,-6.2884 -4.12,-6.7314 -0.057,-0.1475 -0.5184,-0.9488 -1.0245,-1.7807 -1.7579,-2.8893 -4.8588,-9.3165 -6.5778,-13.6336 -0.9509,-2.388 -1.7288,-4.4238 -1.7288,-4.5239 0,-0.1002 -0.1634,-0.5514 -0.363,-1.0027 -1.2879,-2.9116 -3.7625,-11.7249 -5.6475,-20.1136 -1.8531,-8.2471 -2.451,-12.501 -2.8979,-20.6183 -0.055,-0.9904 -0.2194,-3.8265 -0.3664,-6.3025 -0.1471,-2.476 -0.3481,-6.3656 -0.4468,-8.6435 -0.099,-2.2779 -0.2979,-6.451 -0.4426,-9.2737 -0.1446,-2.8226 -0.3179,-6.9958 -0.385,-9.2737 -0.1152,-3.9123 -0.1032,-4.1583 0.2166,-4.4427 0.2293,-0.2039 1.327,-0.4525 3.3998,-0.7701 1.6837,-0.2579 3.669,-0.581 4.4118,-0.7179 0.7428,-0.1368 2.6875,-0.4665 4.3217,-0.7325 4.4262,-0.7205 11.8242,-2.1844 14.5845,-2.8859 3.4443,-0.8754 9.4892,-2.6548 10.0433,-2.9564 0.1717,-0.093 1.1225,-0.4275 2.1129,-0.7424 6.0221,-1.9148 16.6363,-6.6949 27.461,-12.3673 l 1.8907,-0.9908 2.521,1.3357 c 5.5744,2.9534 16.165,7.9697 19.7179,9.3395 0.4457,0.1718 1.8233,0.7176 3.0613,1.2129 3.9873,1.5952 11.71601,4.0213 16.65661,5.2287 4.2494,1.0385 10.148,2.1535 18.7275,3.5402 5.8104,0.9391 7.2075,1.2052 7.4215,1.414 0.232,0.2263 0.079,7.5275 -0.3042,14.529 -0.1003,1.8322 -0.2652,5.2356 -0.3665,7.563 -0.4837,11.1127 -1.2397,22.4895 -1.7172,25.8404 -0.6446,4.5239 -1.9755,10.9098 -3.5463,17.0168 -0.3949,1.5351 -0.8268,3.2773 -0.9599,3.8715 -0.2369,1.0579 -2.5286,8.2972 -2.9642,9.3638 -0.1213,0.2971 -0.4426,1.1479 -0.714,1.8907 -2.4189,6.6214 -4.4737,11.23 -6.976,15.647 -3.8123,6.7294 -4.2085,7.4012 -5.9313,10.0556 -1.2385,1.9081 -1.2902,2.0281 -0.9108,2.1114 3.5647,0.7829 8.8609,1.7322 8.9061,1.5965 0.032,-0.096 0.583,-1.0482 1.2244,-2.1161 0.6414,-1.0679 1.1661,-1.9765 1.1661,-2.019 0,-0.043 0.4744,-0.8647 1.0542,-1.827 3.4835,-5.7816 5.9302,-11.0076 9.2499,-19.7569 0.3006,-0.7923 0.7379,-1.9268 0.9717,-2.521 0.6052,-1.538 2.6769,-7.9359 3.2944,-10.1741 0.9652,-3.4981 1.9887,-7.4636 2.254,-8.7335 0.1449,-0.6932 0.6384,-2.8811 1.0967,-4.8619 0.7935,-3.4296 1.5778,-7.5195 2.1583,-11.2545 0.2878,-1.8519 0.8961,-8.8498 1.0722,-12.3349 0.06,-1.1885 0.2273,-4.0652 0.3716,-6.3926 0.1443,-2.3274 0.384,-6.9868 0.5328,-10.3541 0.1487,-3.3674 0.3904,-8.3914 0.5371,-11.1645 0.1467,-2.7731 0.322,-7.2802 0.3896,-10.0158 l 0.1229,-4.9738 -0.6133,-0.1945 c -0.3373,-0.107 -1.3831,-0.3177 -2.324,-0.4682 -7.1742,-1.1477 -8.7231,-1.4012 -9.994,-1.636 -0.7923,-0.1464 -2.413,-0.4257 -3.6014,-0.6206 -14.6215,-2.3978 -26.9482,-6.0166 -39.83641,-11.69501 -6.3361,-2.7915 -15.617,-7.2879 -20.1498,-9.762 -0.7054,-0.3851 -1.418,-0.7001 -1.5833,-0.7001 -0.1654,0 -0.8442,0.2975 -1.5085,0.6611 -1.8666,1.0217 -10.6872,5.448 -13.0025,6.5249 -9.6665,4.49581 -13.1978,5.95101 -20.3481,8.38531 -7.2708,2.4753 -11.099,3.544 -18.0072,5.0269 -3.8021,0.8161 -13.118,2.4439 -21.7711,3.8041 -1.6244,0.2553 -3.1159,0.5512 -3.3144,0.6574 -0.3527,0.1887 -0.3584,0.3133 -0.2457,5.4389 0.063,2.8851 0.2385,7.5146 0.389,10.2877 0.1505,2.7731 0.3957,7.7566 0.5449,11.0744 0.1493,3.3178 0.3878,7.9367 0.5301,10.2641 0.1424,2.3274 0.3085,5.1636 0.3692,6.3025 0.221,4.15 0.8312,10.7178 1.1855,12.7615 0.1997,1.1519 0.518,3.0264 0.7073,4.1653 0.3899,2.3458 2.8318,13.1618 3.4964,15.4862 0.2406,0.8418 0.5662,2.0978 0.7234,2.7911 0.4036,1.7802 2.8932,9.655 3.5296,11.1645 0.2922,0.6933 0.5312,1.3284 0.5309,1.4114 -3e-4,0.1508 0.6697,1.8915 2.7495,7.142 1.197,3.0216 4.9647,10.7221 6.3926,13.0649 0.4861,0.7976 1.1459,1.9321 1.4662,2.521 0.3203,0.5889 1.2043,2.1092 1.9646,3.3784 l 1.3822,2.3075 0.6303,-0.1013 c 0.3466,-0.056 2.3979,-0.4173 4.5583,-0.8035 z m 54.3253,-12.2827 c 6.0622,-0.6298 11.7343,-2.2575 17.1968,-4.935 5.5774,-2.7338 9.53931,-5.5742 14.05871,-10.079 3.4278,-3.4166 5.6402,-6.2156 7.8786,-9.9671 1.2555,-2.1044 3.6429,-6.8414 3.5083,-6.9613 -0.03,-0.027 -2.3243,-0.1061 -5.0974,-0.1753 l -5.042,-0.1258 -0.5361,1.0502 c -0.912,1.7865 -3.2168,5.0984 -4.9915,7.1726 -6.96591,8.1414 -16.49861,13.2742 -27.24561,14.6702 -2.374,0.3084 -8.8852,0.264 -11.1644,-0.076 -9.1139,-1.3599 -17.227,-5.3068 -23.6143,-11.4877 -4.5612,-4.4139 -7.5749,-8.761 -9.868,-14.2344 -2.4818,-5.9237 -3.482,-11.4018 -3.2926,-18.033 0.1885,-6.5934 1.5717,-12.0302 4.5676,-17.9529 4.7103,-9.3119 12.4478,-16.3796 22.31,-20.3787 1.0858,-0.4403 2.5134,-0.9766 3.1725,-1.1917 l 1.1985,-0.3912 0.2975,-1.6567 c 0.1636,-0.9111 0.536,-2.9064 0.8274,-4.4339 0.6602,-3.4605 0.6726,-3.8322 0.1247,-3.7171 -6.1365,1.2887 -11.5352,3.3849 -16.7022,6.485 -14.5593,8.7357 -24.2185,24.5747 -25.0381,41.0576 -0.2123,4.269 0.02,9.6332 0.5396,12.4661 1.9892,10.8434 6.8578,20.2008 14.4982,27.8652 11.2057,11.2411 26.5489,16.6782 42.4138,15.0301 z m -2.7775,-12.4044 c 12.4685,-0.8516 23.942,-7.7081 30.69341,-18.3422 0.5175,-0.8151 0.9105,-1.5075 0.8732,-1.5387 -0.037,-0.031 -3.3843,-0.1437 -7.43811,-0.2499 l -7.3704,-0.1932 -1.586,1.3307 c -3.8649,3.2427 -7.4207,5.0579 -12.0345,6.1434 -2.8526,0.6711 -7.383,0.7851 -10.4349,0.2625 -3.3572,-0.5749 -7.2571,-2.034 -9.9061,-3.7062 l -0.6501,-0.4104 -4.7449,4.153 -4.7449,4.153 0.5196,0.4263 c 1.1736,0.9629 4.1286,2.8314 5.9066,3.7348 5.3558,2.7214 11.4325,4.2621 17.302,4.387 0.5942,0.013 2.221,-0.055 3.6151,-0.1501 z m -22.7928,-15.9601 c 3.8131,-2.9331 7.0246,-5.3688 7.1369,-5.4127 0.1122,-0.044 0.6765,0.2224 1.254,0.5918 1.4576,0.9325 3.9442,1.9807 5.9957,2.5276 2.1323,0.5685 6.1626,0.7747 8.4895,0.4345 8.2146,-1.2011 15.0937,-6.9496 17.7243,-14.811 1.5616,-4.6668 1.5594,-8.5612 -0.01,-14.1276 -0.093,-0.33 0.2138,-0.6311 2.0739,-2.0357 l 2.183,-1.6484 0.3661,0.8277 c 0.504,1.1394 1.1828,3.4564 1.5535,5.3025 0.3762,1.8732 0.4319,7.781 0.089,9.4513 -0.1203,0.5863 -0.1986,1.0852 -0.1741,1.1087 0.024,0.024 2.7875,0.1112 6.14001,0.1946 5.9892,0.1492 6.0989,0.1455 6.2937,-0.2083 0.2906,-0.5281 0.3944,-8.1407 0.1405,-10.3001 -0.9534,-8.1076 -4.4438,-15.7674 -9.99941,-21.9436 -4.8781,-5.4231 -12.3451,-9.9407 -19.3128,-11.6844 -2.1068,-0.5272 -4.4975,-0.9416 -6.3819,-1.106 l -1.3757,-0.12 -0.2089,0.9684 c -0.5875,2.724 -2.0076,10.8412 -1.9314,11.0398 0.057,0.1483 0.671,0.2727 1.7482,0.354 3.6754,0.2774 6.8491,1.116 9.9862,2.6387 2.1639,1.0502 4.1024,2.2698 4.0167,2.5269 -0.034,0.1027 -0.9467,0.8962 -2.0278,1.7632 l -1.9655,1.5765 -1.8386,-0.9602 c -3.1763,-1.6588 -5.698,-2.3413 -9.2592,-2.5061 -10.8241,-0.501 -20.4292,7.0938 -22.5246,17.8103 -0.7202,3.6831 -0.2949,8.762 0.9921,11.8469 0.089,0.2121 -0.8941,1.1035 -3.8955,3.5341 -2.2076,1.7878 -5.4073,4.3849 -7.1105,5.7712 l -3.0967,2.5207 3.2507,4.0292 c 3.0998,3.8421 4.4283,5.3805 4.6449,5.3791 0.054,0 3.2183,-2.4005 7.0313,-5.3336 z m 17.6726,-12.5033 c -2.17,-0.3875 -5.093,-2.0522 -6.3964,-3.6429 -1.9638,-2.3965 -2.7162,-4.4808 -2.7116,-7.5112 0,-1.8397 0.064,-2.2425 0.547,-3.6094 1.0294,-2.9119 3.0271,-5.1747 5.7016,-6.4579 1.9127,-0.9177 3.2406,-1.1654 5.6688,-1.0573 1.6166,0.072 2.1752,0.1797 3.3776,0.6511 2.8841,1.1307 5.2878,3.5337 6.4237,6.4219 0.4877,1.2399 0.578,1.7297 0.6486,3.5161 0.1438,3.638 -0.8028,6.1108 -3.2722,8.5487 -1.5172,1.4979 -2.7994,2.2665 -4.7905,2.8716 -1.203,0.3656 -3.8802,0.5043 -5.1966,0.2693 z m -28.1168,0.8494 c 2.4265,-1.87 4.398,-3.4923 4.3811,-3.6051 -0.017,-0.1128 -0.2476,-1.0964 -0.5125,-2.1859 -0.6958,-2.8607 -0.824,-7.3645 -0.2974,-10.4442 1.1731,-6.8607 4.8607,-12.9826 10.3844,-17.2399 0.8914,-0.687 1.6797,-1.3838 1.7518,-1.5484 0.072,-0.1646 0.6618,-3.2975 1.3103,-6.962 0.6485,-3.6644 1.219,-6.845 1.2678,-7.0678 0.049,-0.2247 0,-0.4052 -0.1056,-0.4052 -0.1069,0 -1.0999,0.3709 -2.2067,0.8243 -5.6102,2.2977 -9.9489,5.2033 -13.9998,9.3755 -3.1378,3.2317 -5.0778,6.0126 -7.1186,10.2039 -4.7744,9.8053 -5.2568,21.4745 -1.3065,31.6006 l 0.7234,1.8542 0.6583,-0.5 c 0.362,-0.275 2.6436,-2.03 5.07,-3.9 z m -86.4187,186.81971 -0.9746,-0.8645 5.3414,-6.5916 c 2.9377,-3.6254 5.337,-6.6572 5.3317,-6.7374 -0.01,-0.1152 -5.0832,-4.2988 -6.8686,-5.6614 l -0.3844,-0.2934 0.6818,-0.832 c 0.375,-0.4576 0.7558,-0.8321 0.8463,-0.8321 0.2099,0 9.3359,7.3884 9.3359,7.5583 0,0.1635 -12.0295,15.0281 -12.2035,15.0797 -0.072,0.021 -0.57,-0.3501 -1.106,-0.8256 z m 224.80411,-0.3763 c -2.9526,-0.9698 -6.1583,-4.2206 -7.4014,-7.5055 -1.2768,-3.374 -0.5675,-6.6358 1.9952,-9.1747 1.5454,-1.5311 3.2594,-2.4585 5.1253,-2.7733 2.4353,-0.4107 5.2475,0.5299 7.3953,2.4735 2.0565,1.861 3.6944,4.4468 4.1483,6.5489 0.123,0.5698 0.1844,1.7194 0.1407,2.6339 -0.066,1.3837 -0.1667,1.8054 -0.6818,2.8606 -0.8557,1.7527 -2.7483,3.5945 -4.6176,4.4936 -1.2931,0.622 -1.5596,0.6831 -3.2167,0.738 -1.4314,0.047 -2.0314,-0.014 -2.8873,-0.295 z m 5.4022,-2.6878 c 3.6792,-1.7677 4.4859,-5.8387 1.915,-9.6633 -1.0005,-1.4883 -2.7896,-3.2095 -4.0431,-3.8893 -1.0408,-0.5646 -1.2245,-0.6038 -2.8239,-0.6038 -1.3037,0 -1.8703,0.079 -2.3815,0.3335 -0.9884,0.4914 -2.238,1.6571 -2.7984,2.6104 -0.4483,0.7625 -0.4924,0.9998 -0.4924,2.6476 0,1.7242 0.032,1.8737 0.6646,3.1513 2.3133,4.668 6.6291,7.0139 9.9597,5.4136 z m -243.44431,-8.2908 -0.8834,-0.8968 6.0168,-6.1541 6.0168,-6.1541 -3.4034,-3.3231 -3.4035,-3.323 0.8257,-0.8258 0.8258,-0.8257 4.2889,4.1925 c 2.359,2.3059 4.31,4.2464 4.3357,4.3122 0.064,0.1626 -13.2275,13.782 -13.511,13.8449 -0.1237,0.027 -0.6225,-0.3537 -1.1084,-0.847 z m 256.05381,-11.8279 -6.1179,-6.0181 -3.3405,3.3371 -3.3405,3.337 -0.7896,-0.8045 -0.7895,-0.8045 2.357,-2.4847 c 1.2963,-1.3666 3.2093,-3.3299 4.251,-4.3628 l 1.8941,-1.878 6.8973,6.8176 c 3.7935,3.7497 6.9182,6.8658 6.9438,6.9247 0.026,0.059 -0.3795,0.5227 -0.9003,1.0307 l -0.9469,0.9237 -6.118,-6.0182 z m -271.28301,-4.4051 c -2.1294,-2.5714 -3.8347,-4.7345 -3.7897,-4.807 0.1393,-0.2243 1.4753,-1.3022 1.6139,-1.3022 0.072,0 1.488,1.622 3.1464,3.6045 1.9219,2.2974 3.0926,3.5577 3.2283,3.4755 0.37,-0.2242 4.0844,-3.3527 4.0844,-3.4401 0,-0.046 -1.1956,-1.5117 -2.6568,-3.2573 -1.4613,-1.7455 -2.7724,-3.3211 -2.9135,-3.5012 -0.2325,-0.2967 -0.1817,-0.3931 0.541,-1.0277 0.4387,-0.3852 0.8488,-0.7038 0.9114,-0.708 0.063,0 1.4329,1.5716 3.0451,3.5018 2.5015,2.9951 2.9717,3.4768 3.2077,3.2864 0.152,-0.1228 1.3464,-1.1225 2.6543,-2.2215 l 2.3778,-1.9983 -3.1333,-3.7397 c -1.7233,-2.0569 -3.1333,-3.7762 -3.1333,-3.8207 0,-0.085 0.9225,-0.8927 1.4464,-1.2665 0.2688,-0.1918 0.7873,0.3578 4.2468,4.5018 2.1673,2.5961 3.9406,4.8089 3.9406,4.9173 0,0.2005 -14.6113,12.5063 -14.8277,12.488 -0.065,-0.01 -1.8605,-2.1138 -3.9898,-4.6851 z m 280.55221,-0.3167 c -1.3932,-0.464 -2.4214,-1.015 -3.8288,-2.0518 -1.6922,-1.2465 -2.9072,-2.67 -3.7829,-4.4321 -0.6835,-1.375 -0.7526,-1.6447 -0.8206,-3.1993 -0.062,-1.4119 -0.01,-1.9128 0.3369,-2.9764 0.8088,-2.5155 3.0948,-4.9767 5.516,-5.9388 1.5021,-0.5968 4.1524,-0.6014 5.8645,-0.01 2.353,0.8127 5.1239,2.9588 6.5054,5.0383 2.1175,3.1873 2.1814,6.642 0.1791,9.6851 -0.9608,1.4603 -2.3661,2.7272 -3.8342,3.4567 -1.2558,0.624 -1.4541,0.6675 -3.2413,0.7113 -1.4611,0.036 -2.1339,-0.03 -2.8941,-0.2831 z m 5.042,-2.5919 c 1.8578,-0.5766 3.4089,-2.4251 3.7851,-4.5106 0.529,-2.9327 -1.8756,-6.4974 -5.6861,-8.4295 -1.5301,-0.7759 -1.6083,-0.7947 -3.2995,-0.7947 -1.5798,0 -1.8163,0.047 -2.6873,0.529 -1.1885,0.6585 -2.1034,1.6557 -2.6856,2.9274 -0.6265,1.3683 -0.5484,3.2809 0.1957,4.7977 0.657,1.3392 2.33,3.1304 3.8968,4.172 2.3338,1.5514 4.3724,1.9631 6.4809,1.3087 z m -293.60741,-10.4763 c -1.1775,-0.3739 -2.4651,-1.1009 -3.3813,-1.9089 -1.7545,-1.5473 -3.4987,-4.5725 -3.9996,-6.937 -0.4372,-2.0638 -0.4185,-2.133 0.7984,-2.9593 0.5888,-0.3999 1.1358,-0.7267 1.2155,-0.7263 0.08,0 0.1515,0.7094 0.1595,1.5756 0.03,3.2545 1.7369,6.3778 4.3124,7.8916 0.829,0.4872 1.0281,0.5259 2.6958,0.5239 1.6503,0 1.9037,-0.051 3.0336,-0.5818 2.4817,-1.1669 4.6647,-3.0816 5.5383,-4.8578 0.3381,-0.6874 0.4237,-1.1546 0.4251,-2.3198 0,-1.3513 -0.054,-1.5709 -0.7478,-2.9712 -0.7726,-1.5586 -2.2998,-3.4323 -3.2427,-3.9784 l -0.5273,-0.3054 -1.9695,1.2676 c -1.0832,0.6971 -2.0423,1.3368 -2.1313,1.4216 -0.094,0.089 0.3036,0.8816 0.9453,1.8845 0.609,0.9518 1.1073,1.7624 1.1073,1.8013 0,0.152 -1.6426,1.1911 -1.7964,1.1365 -0.1813,-0.064 -3.7879,-5.4938 -3.7824,-5.6941 0.01,-0.1906 6.7493,-4.5379 7.0398,-4.5379 0.4271,0 2.003,0.9017 2.9467,1.686 3.3367,2.7732 5.1672,6.7181 4.6279,9.9732 -0.4522,2.7286 -2.3219,5.2305 -5.2626,7.0421 -2.0336,1.2528 -3.8825,1.8305 -5.8081,1.8148 -0.812,-0.01 -1.8005,-0.115 -2.1966,-0.2408 z m 298.96551,-8.3584 c -4.5306,-2.7413 -8.2378,-5.0421 -8.2383,-5.1128 0,-0.099 1.4889,-2.6806 1.7289,-2.9964 0.027,-0.035 3.9831,0.1541 8.7921,0.4205 4.809,0.2664 8.8313,0.4551 8.9383,0.4195 0.1071,-0.036 -2.8096,-1.8728 -6.4815,-4.0824 -3.6719,-2.2097 -6.6762,-4.0852 -6.6762,-4.1678 0,-0.083 0.2634,-0.6014 0.5852,-1.1527 0.3963,-0.6786 0.6704,-0.9711 0.849,-0.9055 0.6626,0.2432 16.3929,9.8515 16.3929,10.013 0,0.1003 -0.3849,0.8279 -0.8553,1.6169 l -0.8554,1.4344 -1.8907,-0.1182 c -6.3335,-0.396 -16.1709,-0.8784 -16.0634,-0.7876 0.07,0.059 3.0037,1.834 6.5196,3.9445 3.5159,2.1104 6.5293,3.9305 6.6965,4.0445 0.2766,0.1887 0.2447,0.3078 -0.3544,1.3236 -0.3621,0.614 -0.7015,1.1106 -0.7541,1.1035 -0.053,-0.01 -3.8026,-2.2557 -8.3332,-4.997 z m -314.67661,-14.7058 -2.7433,-5.4899 0.8929,-0.4525 c 0.4911,-0.2488 0.9762,-0.4524 1.0782,-0.4524 0.1019,0 1.1265,1.884 2.2769,4.1867 1.1505,2.3026 2.1139,4.2111 2.1411,4.2411 0.089,0.098 4.9524,-2.3855 4.9524,-2.5289 0,-0.077 -0.8936,-1.9257 -1.9859,-4.1086 -1.0923,-2.1828 -1.9485,-4.0295 -1.9026,-4.1037 0.1153,-0.1867 1.8903,-1.0066 1.9771,-0.9134 0.039,0.042 0.9713,1.8785 2.0722,4.0821 1.1009,2.2037 2.0428,4.0066 2.093,4.0066 0.09,0 5.8863,-2.8736 5.995,-2.9719 0.031,-0.028 -0.9216,-2.0032 -2.1158,-4.3901 -1.1943,-2.3869 -2.1714,-4.3796 -2.1714,-4.4282 0,-0.1058 1.7267,-0.9949 1.9321,-0.9949 0.1741,0 5.7427,11.1148 5.6244,11.2262 -0.1552,0.1462 -17.0976,8.5817 -17.236,8.5817 -0.075,0 -1.3716,-2.4704 -2.8803,-5.4899 z m 325.63681,-4.2392 c -4.841,-2.1686 -8.8263,-3.9674 -8.8563,-3.9974 -0.06,-0.06 0.8811,-2.2396 1.0325,-2.391 0.052,-0.052 1.903,0.717 4.1133,1.709 2.2103,0.9919 4.1065,1.8031 4.2138,1.8027 0.1693,0 3.6407,-7.5048 3.8257,-8.2699 0.052,-0.215 -0.9054,-0.7109 -3.9957,-2.0698 -2.2353,-0.9829 -4.1031,-1.8503 -4.1509,-1.9276 -0.048,-0.077 0.1531,-0.6694 0.4462,-1.3159 l 0.533,-1.1755 2.0386,0.9132 c 1.1212,0.5023 4.9557,2.2108 8.5211,3.7968 3.5655,1.5859 6.6576,2.9765 6.8713,3.0902 l 0.3888,0.2066 -0.5284,1.1601 c -0.2906,0.638 -0.5543,1.1859 -0.5859,1.2176 -0.046,0.046 -6.769,-2.8757 -7.1476,-3.106 -0.092,-0.056 -3.6695,7.7963 -3.8029,8.3481 -0.037,0.1532 1.1504,0.7779 3.3642,1.7697 1.8817,0.843 3.4877,1.597 3.5689,1.6754 0.1256,0.1213 -0.8316,2.5526 -0.9916,2.5185 -0.031,-0.01 -4.0171,-1.7862 -8.8581,-3.9548 z m 14.5115,-17.1635 -1.1331,-0.3939 1.1331,-0.8985 c 2.108,-1.6716 3.273,-4.0052 3.2836,-6.5775 0.011,-2.6517 -1.5345,-4.6888 -4.4915,-5.9206 -2.6962,-1.1232 -5.6129,-1.3569 -7.3427,-0.5882 -2.1401,0.9511 -3.6166,3.3431 -3.8387,6.219 -0.094,1.218 0.064,2.1176 0.7375,4.2092 l 0.1287,0.3993 -1.3511,-0.4543 c -1.3377,-0.4497 -1.3532,-0.4621 -1.5501,-1.2443 -0.2856,-1.1343 -0.2451,-3.7969 0.077,-5.0496 1.3202,-5.1373 5.3948,-8.023 10.2823,-7.2821 6.2954,0.9542 10.1683,4.9883 9.7311,10.136 -0.1275,1.5022 -0.6455,3.2041 -1.4193,4.6641 -0.6557,1.2369 -2.3953,3.209 -2.8136,3.1894 -0.165,-0.01 -0.8099,-0.1913 -1.433,-0.408 z m -346.04591,-1.9887 c -3.8408,-0.9352 -6.5787,-4.6803 -6.5704,-8.9877 0.01,-4.7491 4.0265,-8.3988 10.1021,-9.1776 4.3527,-0.5579 8.1475,1.7258 9.5292,5.7346 1.2553,3.6422 0.5171,6.9863 -2.078,9.414 -2.6915,2.5177 -7.5508,3.8524 -10.9829,3.0167 z m 4.8423,-2.9864 c 2.6443,-0.6763 5.0045,-2.266 5.8632,-3.9493 1.4889,-2.9184 0.1608,-6.6571 -2.8355,-7.9826 -1.2764,-0.5645 -3.4027,-0.6287 -5.2641,-0.1587 -3.2187,0.8126 -5.3127,2.2251 -6.314,4.2591 -0.5269,1.0703 -0.5639,1.264 -0.4874,2.5565 0.1624,2.7413 1.5487,4.5981 4.0155,5.3783 1.108,0.3504 3.4356,0.3025 5.0223,-0.1033 z m 348.86561,-15.5317 c -0.7445,-0.1552 -0.8424,-0.2275 -0.7643,-0.564 0.3413,-1.4701 1.7146,-8.99301 1.653,-9.05471 -0.042,-0.042 -1.2694,-0.3055 -2.7272,-0.5854 -1.8242,-0.3501 -2.6715,-0.4465 -2.7179,-0.3091 -0.06,0.1781 -1.7025,8.69991 -1.7025,8.83381 0,0.07 -2.1593,-0.3785 -2.243,-0.4657 -0.034,-0.036 0.3249,-2.0506 0.7987,-4.4771 0.4738,-2.42641 0.7893,-4.45751 0.7011,-4.51331 -0.2486,-0.1577 -6.4684,-1.3003 -6.563,-1.2056 -0.046,0.046 -0.4897,2.1778 -0.9857,4.73711 -0.496,2.5593 -0.9381,4.6896 -0.9825,4.734 -0.077,0.077 -2.073,-0.2736 -2.1829,-0.3836 -0.052,-0.052 2.2684,-12.24341 2.3449,-12.32221 0.074,-0.077 18.9271,3.5929 19.0442,3.7069 0.065,0.063 -0.4003,2.7887 -1.0336,6.05711 -0.6332,3.2683 -1.1522,5.9626 -1.1532,5.9874 0,0.079 -0.6067,0.01 -1.4861,-0.1756 z m -363.60591,-3.4259 c -0.2791,-0.8622 -1.8881,-10.65991 -1.77,-10.77801 0.082,-0.081 0.5965,-0.2009 1.1442,-0.2653 l 0.996,-0.117 0.7117,3.9983 c 0.3915,2.19911 0.7549,4.06811 0.8075,4.15331 0.053,0.085 1.2887,-0.06 2.7467,-0.322 2.0746,-0.3732 2.6504,-0.5377 2.6485,-0.7565 0,-0.1537 -0.2849,-1.81371 -0.6302,-3.68871 -0.3454,-1.8751 -0.6279,-3.4612 -0.6279,-3.5247 0,-0.1067 2.1886,-0.5802 2.2633,-0.4896 0.018,0.022 0.3343,1.7017 0.702,3.732 0.3678,2.0303 0.694,3.71731 0.7249,3.74901 0.031,0.032 2.0663,-0.3095 4.5229,-0.758 2.4567,-0.4485 4.4922,-0.78991 4.5234,-0.75871 0.031,0.031 0.1672,0.63641 0.3022,1.34491 0.241,1.2647 0.2384,1.2897 -0.1391,1.3723 -0.9363,0.2046 -18.4158,3.3338 -18.6226,3.3338 -0.1269,0 -0.2635,-0.1013 -0.3035,-0.2251 z m 366.57571,-13.77071 c -0.701,-0.087 -0.6871,0.083 -0.3196,-3.9116 0.1453,-1.5792 0.2248,-2.9107 0.1767,-2.9588 -0.048,-0.048 -3.9053,-0.4149 -8.5713,-0.8149 l -8.4838,-0.7273 0.1134,-1.3411 c 0.062,-0.7376 0.1335,-1.359 0.1581,-1.381 0.025,-0.022 3.8356,0.2861 8.4689,0.6848 4.6332,0.3986 8.4768,0.6721 8.5412,0.6076 0.064,-0.064 0.2441,-1.5946 0.3994,-3.4006 l 0.2823,-3.2835 1.0805,0.063 c 0.5942,0.035 1.1171,0.098 1.162,0.1417 0.045,0.043 -0.2216,3.6613 -0.5923,8.0401 -0.3707,4.3789 -0.6708,8.0629 -0.6669,8.1867 0.01,0.2238 -0.4913,0.2508 -1.7486,0.095 z m -370.18412,-14.8264 c -0.07,-0.6991 -0.088,-1.3107 -0.04,-1.3591 0.099,-0.099 16.47581,-0.9618 18.36311,-0.9675 l 1.2155,0 0,1.3506 c 0,1.2799 -0.021,1.3506 -0.4052,1.3524 -0.2228,0 -4.3352,0.2024 -9.1387,0.4474 -4.8034,0.2449 -8.9886,0.4466 -9.30041,0.4482 l -0.567,0 -0.1276,-1.2712 z m 8.19781,-8.6687 c -4.7024,-0.191 -8.56061,-0.3623 -8.57371,-0.3807 -0.013,-0.019 0.026,-0.8418 0.087,-1.8297 l 0.1103,-1.7961 8.04111,-3.8762 c 4.4226,-2.1318 8.0116,-3.9066 7.9755,-3.9438 -0.036,-0.037 -3.5736,-0.1993 -7.8611,-0.3602 l -7.79541,-0.2924 -0.053,-1.3055 -0.053,-1.3055 1.13331,0 c 1.8268,-0.01 16.9047,0.5513 17.7706,0.6572 l 0.7909,0.097 -0.1008,1.689 c -0.055,0.929 -0.1403,1.7529 -0.1887,1.8309 -0.048,0.078 -3.7131,1.8841 -8.1438,4.0134 -5.1663,2.4829 -7.9012,3.8864 -7.6249,3.913 0.4218,0.041 14.5308,0.5889 15.1517,0.5888 0.2721,0 0.3151,0.1844 0.3151,1.3506 l 0,1.3505 -1.2155,-0.024 c -0.6685,-0.014 -5.0629,-0.1806 -9.7654,-0.3716 z m 348.51751,-6.5054 c -2.4779,-0.9547 -3.6588,-3.1949 -3.8136,-7.2342 -0.066,-1.7151 -0.01,-2.5271 0.2836,-3.9362 0.2016,-0.9765 0.3914,-1.7972 0.4218,-1.8238 0.03,-0.027 0.6802,-0.1055 1.4437,-0.1752 l 1.3884,-0.1266 -0.5142,1.4103 c -1.0469,2.8707 -1.0961,5.724 -0.1317,7.6227 0.5954,1.1722 1.3512,1.6206 2.7312,1.6206 2.1606,0 2.947,-1.049 3.4267,-4.5712 0.5307,-3.8963 1.2683,-5.454 3.0091,-6.3556 0.807,-0.4179 1.1735,-0.4917 2.4777,-0.4991 1.3868,-0.01 1.6237,0.044 2.521,0.5494 1.2643,0.7123 2.1997,1.9364 2.7283,3.5703 0.4898,1.5141 0.5697,4.6284 0.1704,6.6441 -0.2782,1.4045 -0.4835,1.5625 -2.031,1.5625 -0.8583,0 -0.903,-0.023 -0.7917,-0.4052 0.8471,-2.9098 1.0238,-4.7126 0.6311,-6.4375 -0.2422,-1.0637 -0.9229,-2.0762 -1.6517,-2.4571 -0.7248,-0.3789 -2.0509,-0.3803 -2.7804,0 -0.8972,0.464 -1.0685,0.9902 -1.763,5.4154 -0.4893,3.1179 -1.6577,4.9066 -3.6477,5.5847 -0.9731,0.3316 -3.298,0.3569 -4.108,0.045 z m -346.54021,-15.2561 c -5.0015,-0.7719 -9.0983,-1.4099 -9.1041,-1.4177 -0.024,-0.032 1.545,-10.399 1.6262,-10.7467 0.083,-0.3546 0.1535,-0.3682 1.1206,-0.2166 0.5678,0.089 1.0701,0.1998 1.1164,0.246 0.046,0.046 -0.1837,1.9097 -0.511,4.1409 -0.3273,2.2312 -0.5454,4.1064 -0.4846,4.1673 0.061,0.061 1.2862,0.2836 2.7231,0.495 2.322,0.3417 2.6211,0.3536 2.6898,0.1068 0.043,-0.1527 0.3051,-1.8471 0.5836,-3.7652 l 0.5063,-3.4876 1.0678,0.1116 c 0.5872,0.061 1.1082,0.1521 1.1577,0.2016 0.079,0.079 -0.7633,6.2201 -0.9885,7.2119 -0.079,0.3481 0.079,0.3939 2.6727,0.7733 1.5162,0.2219 3.5926,0.5323 4.6142,0.6899 l 1.8575,0.2865 -0.1137,0.7409 c -0.3082,2.0096 -0.2635,1.9133 -0.8752,1.8884 -0.3108,-0.013 -4.6573,-0.6545 -9.6588,-1.4263 z m 341.86841,-3.2776 c -0.052,-0.2229 -0.2047,-0.9991 -0.3385,-1.725 l -0.2432,-1.3198 1.0167,-0.8411 c 0.5592,-0.4625 3.7013,-2.9884 6.9825,-5.6129 3.2812,-2.6246 5.9417,-4.7962 5.9121,-4.8259 -0.03,-0.03 -3.4751,0.5984 -7.6568,1.3956 -4.1816,0.7972 -7.6682,1.4495 -7.7478,1.4495 -0.1503,0 -0.6524,-2.4809 -0.5217,-2.5781 0.041,-0.03 4.3283,-0.865 9.5278,-1.8549 6.2504,-1.19 9.4908,-1.7354 9.5629,-1.6096 0.06,0.1046 0.248,0.9065 0.4176,1.782 0.2782,1.4354 0.281,1.6122 0.029,1.8007 -1.2149,0.9091 -13.7462,11.0248 -13.7074,11.0651 0.028,0.029 3.5067,-0.6105 7.7317,-1.42 4.225,-0.8095 7.7178,-1.4358 7.7618,-1.3918 0.044,0.044 0.1933,0.6201 0.3316,1.2801 0.2278,1.0867 0.224,1.2083 -0.041,1.2867 -0.509,0.1509 -18.357,3.5246 -18.6462,3.5246 -0.1521,0 -0.3194,-0.1824 -0.3718,-0.4052 z m -337.33711,-12.2217 c -0.5285,-0.088 -1.5819,-0.368 -2.3409,-0.6224 -4.3836,-1.4697 -6.8723,-4.5422 -6.8723,-8.4845 0,-4.0949 2.2245,-7.4023 5.8669,-8.7233 1.6447,-0.5964 4.66,-0.5523 6.8234,0.1 2.1297,0.6419 3.5344,1.4093 4.8789,2.6655 1.8414,1.7205 2.6464,3.6249 2.6252,6.2103 -0.014,1.7027 -0.607,3.7464 -1.4865,5.1222 -1.9236,3.0094 -5.4667,4.4022 -9.4947,3.7324 z m 5.3429,-3.3106 c 1.7884,-0.8026 2.8813,-2.261 3.2602,-4.3506 0.4722,-2.6044 -0.9193,-5.0263 -3.6851,-6.4139 -1.8137,-0.9099 -3.4468,-1.2954 -5.4877,-1.2956 -1.7029,-1e-4 -2.0028,0.052 -3.0183,0.5189 -2.0662,0.9509 -3.1114,2.5848 -3.247,5.0761 -0.088,1.6163 0.1959,2.5348 1.1651,3.7679 2.1396,2.7224 7.8436,4.1194 11.0128,2.6972 z m 330.98751,-5.8212 c -2.9005,-0.7572 -4.8279,-2.6858 -5.9534,-5.957 -1.8169,-5.281 1.5842,-10.3692 7.9489,-11.8917 5.7539,-1.3764 10.3334,1.2685 11.6163,6.7089 0.8532,3.6185 -0.6722,7.2221 -3.9233,9.2678 -3.0496,1.919 -6.7612,2.6361 -9.6885,1.872 z m 4.8802,-2.9239 c 2.9667,-0.8213 5.1126,-2.3336 6.0659,-4.2748 0.4185,-0.8522 0.5024,-1.2541 0.4985,-2.3883 0,-1.1707 -0.088,-1.5329 -0.5928,-2.5585 -1.0888,-2.2117 -2.801,-3.1907 -5.5804,-3.1907 -4.6644,0 -8.8033,2.7816 -9.3261,6.2678 -0.2579,1.7203 0.7322,4.195 2.1255,5.312 1.5209,1.2194 4.2198,1.5493 6.8094,0.8325 z m -336.01461,-11.3493 c -4.9006,-1.984 -8.9326,-3.6296 -8.9599,-3.6569 -0.092,-0.092 2.6459,-6.6241 3.0538,-7.2851 1.2044,-1.9517 2.4961,-2.7973 4.2821,-2.8035 3.011,-0.011 5.4909,1.8189 5.7217,4.2206 l 0.086,0.8999 0.5623,-0.3435 c 0.3092,-0.1889 0.9893,-0.4688 1.5112,-0.6221 0.9401,-0.276 8.246,-0.9748 8.4159,-0.805 0.092,0.092 -0.7542,2.3094 -0.9623,2.5212 -0.066,0.067 -1.6653,0.2492 -3.555,0.4056 -1.9002,0.1573 -3.8119,0.4125 -4.2774,0.5711 -1.1388,0.3881 -1.8845,1.3092 -2.6829,3.3144 l -0.6525,1.6387 0.3971,0.151 c 1.5907,0.6048 6.8981,2.7952 7.0147,2.8951 0.1532,0.1311 -0.7311,2.5215 -0.9292,2.5116 -0.064,0 -4.1255,-1.629 -9.0261,-3.6131 z m 1.2145,-4.8384 c 1.2077,-3.1261 1.008,-4.4722 -0.8082,-5.4479 -1.1295,-0.6068 -1.8471,-0.7439 -2.6969,-0.5151 -1.0076,0.2714 -1.7742,1.1746 -2.5766,3.0358 -1.1473,2.6611 -1.3528,2.2881 2.0236,3.6717 1.6116,0.6604 3.0124,1.2074 3.1127,1.2155 0.1004,0.01 0.5258,-0.8739 0.9454,-1.96 z m 319.12481,-0.6814 c -0.7644,-1.7099 -1.4976,-1.2308 8.3492,-5.4556 4.8366,-2.0752 8.8309,-3.7731 8.8761,-3.7731 0.1217,0 1.1679,2.3806 1.0834,2.4651 -0.1113,0.1113 -17.6469,7.619 -17.7955,7.619 -0.072,0 -0.3028,-0.3849 -0.5132,-0.8554 z m -312.32721,-13.375 c -4.5546,-2.5649 -8.3069,-4.741 -8.3384,-4.8356 -0.032,-0.095 0.3596,-0.912 0.8693,-1.8162 l 0.9268,-1.644 0.839,0.1222 c 0.4615,0.067 3.5737,0.542 6.9161,1.0551 5.7401,0.8813 6.0586,0.9124 5.7465,0.5617 -0.1817,-0.2042 -2.0576,-2.4376 -4.1686,-4.9631 -2.111,-2.5255 -3.9937,-4.7653 -4.1838,-4.9773 -0.3438,-0.3834 -0.3406,-0.3944 0.5958,-2.0708 0.5178,-0.927 0.9662,-1.7162 0.9966,-1.7538 0.048,-0.06 16.7736,9.2512 16.9859,9.4557 0.1246,0.1201 -0.9528,2.0707 -1.1993,2.1715 -0.1662,0.068 -6.8713,-3.5917 -14.3675,-7.8417 -0.2528,-0.1432 0.4293,0.6906 4.8378,5.9144 l 3.8732,4.5895 -0.5575,0.9927 c -0.3067,0.546 -0.6225,1.0782 -0.7019,1.1825 -0.099,0.1298 -2.2674,-0.1348 -6.8591,-0.837 -3.6933,-0.5647 -6.7336,-1.0097 -6.7564,-0.9887 -0.023,0.021 3.097,1.7971 6.9328,3.9471 3.8358,2.15 7.0847,3.9786 7.2199,4.0636 0.1962,0.1235 0.123,0.3647 -0.3639,1.1979 -0.3353,0.5738 -0.6889,1.0646 -0.7859,1.0906 -0.097,0.026 -3.9028,-2.0513 -8.4574,-4.6163 z m 306.73931,1.5404 c -0.4083,-0.7642 -0.5575,-1.217 -0.4389,-1.3315 0.099,-0.096 3.4617,-1.8878 7.4728,-3.983 4.0111,-2.0952 7.3444,-3.8646 7.4073,-3.9319 0.063,-0.067 -0.5652,-1.4168 -1.3956,-2.9987 -0.8304,-1.5819 -1.5099,-2.9628 -1.5099,-3.0687 0,-0.1059 0.4353,-0.406 0.9673,-0.6669 l 0.9673,-0.4744 3.809,7.2897 c 2.0949,4.0094 3.7718,7.3499 3.7264,7.4234 -0.115,0.186 -1.8898,1.0047 -1.9772,0.9121 -0.039,-0.042 -0.7349,-1.3512 -1.546,-2.9103 -0.8112,-1.5591 -1.5332,-2.8708 -1.6046,-2.9149 -0.071,-0.044 -2.1107,0.953 -4.5319,2.2158 -2.4211,1.2627 -5.8253,3.0387 -7.5647,3.9466 l -3.1626,1.6507 -0.6187,-1.158 z m -3.626,-7.0729 c -1.1769,-1.7914 -1.2359,-1.3487 0.4856,-3.6462 0.842,-1.1236 1.5309,-2.1148 1.5309,-2.2027 0,-0.1254 -4.345,-6.8623 -4.6052,-7.1402 -0.035,-0.038 -1.2058,0.2168 -2.6007,0.5661 l -2.5361,0.635 -0.796,-1.1866 c -0.4379,-0.6526 -0.7746,-1.2081 -0.7483,-1.2344 0.066,-0.066 19.5752,-4.3919 20.0106,-4.4371 0.251,-0.026 0.5722,0.297 1.1273,1.1341 0.4269,0.6437 0.7551,1.2673 0.7294,1.3857 -0.06,0.2764 -11.8948,16.7777 -12.0427,16.7913 -0.061,0.01 -0.3108,-0.2936 -0.5548,-0.665 z m 6.573,-11.8651 c 1.5653,-2.1377 2.8213,-3.9105 2.7912,-3.9397 -0.063,-0.061 -9.3818,2.0819 -9.4913,2.1827 -0.093,0.086 3.5999,5.6556 3.7453,5.6488 0.06,0 1.3896,-1.7541 2.9548,-3.8918 z m -295.73301,-4.4122 c -2.8226,-4.3714 -5.3509,-8.2945 -5.6183,-8.718 l -0.4862,-0.7701 0.9089,-1.2006 c 0.8144,-1.0758 0.9585,-1.1885 1.3866,-1.085 1.0479,0.2535 19.5696,5.3666 19.6293,5.4189 0.086,0.075 -1.5848,2.2389 -1.7289,2.2389 -0.062,0 -1.2042,-0.3295 -2.5376,-0.7321 -1.3333,-0.4027 -2.4729,-0.6609 -2.5323,-0.5737 -0.059,0.087 -1.2019,1.6457 -2.5389,3.4635 -1.3371,1.8178 -2.4121,3.3685 -2.3889,3.446 0.023,0.077 0.6511,1.0278 1.3955,2.1118 0.7445,1.084 1.3535,2.0639 1.3535,2.1775 0,0.2356 -1.4245,2.1721 -1.5972,2.1713 -0.062,-2e-4 -2.4229,-3.577 -5.2455,-7.9484 z m 4.6778,-3.414 c 1.1044,-1.4958 1.966,-2.7616 1.9146,-2.813 -0.072,-0.072 -9.2431,-2.7508 -9.4177,-2.7508 -0.022,0 1.1823,1.8637 2.6762,4.1416 1.4939,2.2779 2.7392,4.1417 2.7675,4.1417 0.028,0 0.955,-1.2238 2.0594,-2.7195 z m 273.85621,2.2684 c -2.212,-0.9 -4.1883,-2.6345 -5.4453,-4.7791 -1.6515,-2.818 -1.7689,-5.5436 -0.362,-8.4082 1.1861,-2.4147 4.3453,-5.13461 7.0894,-6.10331 1.4497,-0.5118 3.7666,-0.574 5.2502,-0.1409 2.8554,0.8335 5.6418,3.71781 6.7336,6.97021 0.6834,2.0357 0.6445,2.2541 -0.5784,3.2462 l -1.0354,0.84 -0.1341,-1.2986 c -0.2305,-2.2318 -0.9235,-3.8023 -2.3375,-5.2975 -2.2922,-2.4237 -4.8486,-2.80831 -7.9326,-1.1934 -1.34,0.7017 -3.4534,2.5512 -4.2678,3.7348 -0.8324,1.2099 -1.3222,2.8838 -1.1871,4.0573 0.3452,2.9993 3.0755,5.882 6.3247,6.6777 1.1188,0.274 1.149,0.3038 0.6831,0.6726 -0.2104,0.1665 -0.6969,0.5581 -1.0811,0.8702 l -0.6986,0.5674 -1.0211,-0.4154 z m -265.19741,-15.0172 c -3.5098,-3.17501 -6.3945,-5.75411 -6.4105,-5.73141 -0.054,0.076 -3.9091,4.35821 -4.234,4.70271 -0.3126,0.3314 -0.3408,0.3231 -1.1461,-0.3368 -0.4542,-0.3721 -0.8257,-0.7468 -0.8257,-0.8326 0,-0.1143 7.4459,-8.46181 10.7259,-12.02451 0.1926,-0.2093 0.3612,-0.141 1.0542,0.4269 0.4537,0.3717 0.8249,0.7568 0.8249,0.8558 0,0.1537 -1.7684,2.1751 -3.9111,4.4708 l -0.5996,0.6424 6.307,5.71091 c 3.4688,3.1409 6.307,5.7836 6.307,5.8726 0,0.089 -0.3849,0.5789 -0.8554,1.0888 l -0.8553,0.927 -6.3813,-5.7726 z m 250.67361,-0.083 -0.9485,-0.9604 6.9896,-6.86451 6.9895,-6.8645 0.9758,0.972 0.9758,0.972 -5.2991,5.1898 c -2.9145,2.8543 -6.0721,5.93811 -7.0168,6.85291 l -1.7178,1.6631 -0.9485,-0.9604 z M 587.63936,454.12756 c -3.4006,-3.5945 -6.3808,-6.7564 -6.6228,-7.0264 l -0.4399,-0.491 0.8833,-0.8968 c 0.4859,-0.4932 0.9392,-0.8968 1.0075,-0.8968 0.068,0 3.1352,3.18 6.8155,7.0666 l 6.6913,7.0665 -0.8979,0.8566 c -0.4939,0.4712 -0.9782,0.8566 -1.0761,0.8566 -0.098,0 -2.9604,-2.9409 -6.3609,-6.5353 z m 235.23951,3.6353 c -0.713,-0.6046 -1.2963,-1.1271 -1.2963,-1.161 0,-0.069 3.313,-14.901 3.6884,-16.5122 0.1327,-0.5695 0.2186,-1.0354 0.191,-1.0354 -0.028,0 -2.3406,2.6741 -5.1399,5.9424 -2.7993,3.2683 -5.1803,5.9392 -5.291,5.9354 -0.1107,0 -0.5998,-0.3581 -1.087,-0.7875 l -0.8858,-0.7806 6.268,-7.3205 c 3.4474,-4.0264 6.3199,-7.3527 6.3834,-7.392 0.2154,-0.1331 2.7156,2.0873 2.7156,2.4118 0,0.1767 -0.8509,4.1138 -1.8909,8.749 -1.0401,4.6352 -1.8624,8.4562 -1.8275,8.4912 0.035,0.035 2.3553,-2.612 5.1562,-5.8821 2.8008,-3.2702 5.1425,-5.9421 5.2037,-5.9377 0.2559,0.019 1.8579,1.5942 1.7976,1.768 -0.1013,0.2921 -12.4074,14.6105 -12.5572,14.6105 -0.072,0 -0.7153,-0.4947 -1.4283,-1.0993 z m -223.13291,-5.5802 c -4.057,-0.7038 -8.3844,-5.4356 -9.0109,-9.8532 -0.515,-3.6309 1.5524,-7.2931 5.1302,-9.088 2.6897,-1.3494 5.8592,-1.1403 8.4734,0.5589 1.3039,0.8476 3.3743,3.0238 4.1966,4.411 1.1413,1.9256 1.5229,3.2418 1.5235,5.2547 4e-4,1.4448 -0.08,2.0079 -0.4083,2.8495 -1.5067,3.866 -6.0218,6.5406 -9.9045,5.8671 z m 4.4458,-3.0509 c 1.1932,-0.5962 2.14,-1.5265 2.78,-2.7315 0.5468,-1.0294 0.5833,-3.3919 0.073,-4.735 -0.8902,-2.3437 -3.2966,-5.1501 -5.2443,-6.116 -0.8663,-0.4296 -1.3673,-0.5475 -2.567,-0.6039 -1.3294,-0.062 -1.5964,-0.018 -2.4701,0.4091 -1.2513,0.6122 -2.4121,1.7429 -2.9663,2.8895 -0.5919,1.2243 -0.6052,3.3254 -0.03,4.7981 0.9671,2.4783 3.0962,4.9057 5.2461,5.9813 1.1665,0.5835 1.4614,0.6551 2.6973,0.6551 1.1852,0 1.5472,-0.08 2.4817,-0.5467 z m 200.44061,-5.7302 c -2.3441,-0.7708 -4.6789,-2.6966 -5.5809,-4.6032 -0.8897,-1.8806 -0.6306,-4.2619 0.7107,-6.5309 1.1871,-2.0082 7.123,-10.7663 7.2678,-10.7233 0.1961,0.058 2.1276,1.3352 2.1276,1.4066 0,0.029 -1.5924,2.4652 -3.5388,5.4147 -1.9463,2.9495 -3.7421,5.8069 -3.9906,6.3497 -0.5493,1.1998 -0.6158,2.7068 -0.1575,3.5693 0.838,1.5771 3.0162,2.9307 4.7162,2.9307 2.0535,0 2.654,-0.6094 6.9273,-7.0287 1.963,-2.9488 3.6489,-5.5042 3.7465,-5.6786 0.1653,-0.2954 0.2319,-0.2852 0.9708,0.1478 0.4364,0.2557 0.9644,0.6134 1.1735,0.7949 l 0.3801,0.33 -3.6307,5.4484 c -2.0028,3.0054 -4.0659,5.892 -4.6013,6.4379 -1.8478,1.8839 -4.1801,2.5044 -6.5207,1.7347 z m -191.75331,-9.3335 c -2.5255,-4.2218 -4.777,-7.9845 -5.0034,-8.3614 l -0.4116,-0.6854 0.6965,-0.4396 c 0.383,-0.2419 1.0949,-0.6613 1.582,-0.9321 l 0.8856,-0.4923 7.2929,4.4068 c 7.8045,4.716 8.1968,4.9454 8.0532,4.7104 -1.2369,-2.0245 -8.0532,-13.4324 -8.0532,-13.4781 0,-0.1938 2.2122,-1.3688 2.3297,-1.2374 0.1682,0.1881 9.9152,16.4521 9.9152,16.5447 0,0.035 -0.6881,0.4801 -1.5292,0.9882 l -1.5292,0.9237 -7.6285,-4.6031 c -4.1957,-2.5317 -7.6773,-4.6031 -7.7368,-4.6031 -0.06,0 1.6805,2.9779 3.8669,6.6176 2.1863,3.6398 4.0102,6.7071 4.053,6.8163 0.057,0.1459 -1.946,1.5435 -2.1591,1.5065 -0.018,0 -2.0985,-3.4598 -4.624,-7.6817 z m 177.23591,0.2475 c -0.619,-0.3082 -1.1254,-0.6128 -1.1254,-0.6769 0,-0.064 1.1844,-2.5386 2.6322,-5.4988 1.4477,-2.9602 3.072,-6.314 3.6095,-7.4529 l 0.9773,-2.0709 -1.4937,1.4546 c -0.8215,0.8001 -3.0927,2.9676 -5.047,4.8168 l -3.5534,3.3621 -1.1735,-0.5787 c -1.0972,-0.541 -1.1735,-0.618 -1.1735,-1.184 0,-0.333 0.2472,-3.2035 0.5494,-6.379 0.3022,-3.1754 0.5251,-5.9408 0.4952,-6.1453 -0.05,-0.3442 -1.0488,1.6232 -5.7644,11.3564 l -1.4153,2.9214 -1.1642,-0.5741 c -0.6403,-0.3157 -1.1641,-0.6219 -1.1641,-0.6804 0,-0.1608 8.2938,-17.1712 8.4543,-17.3395 0.1794,-0.1882 3.6105,1.51 3.6105,1.787 0,0.115 -0.2845,3.1886 -0.6322,6.8302 -0.3477,3.6416 -0.5993,6.654 -0.5591,6.6942 0.04,0.04 2.2796,-2.0185 4.9765,-4.5749 2.6969,-2.5563 4.9958,-4.6705 5.1086,-4.698 0.2357,-0.058 3.5312,1.5112 3.5312,1.6809 0,0.1463 -8.2974,17.2407 -8.4425,17.3934 -0.061,0.064 -0.6174,-0.1355 -1.2364,-0.4436 z m -148.56091,-16.3307 0.047,-10.4762 1.0389,-0.4227 c 0.5714,-0.2324 1.1899,-0.4705 1.3744,-0.5291 0.2673,-0.085 1.7539,1.4721 7.3078,7.6537 3.8348,4.268 6.9438,7.7844 6.9089,7.8141 -0.035,0.03 -0.5091,0.2201 -1.0538,0.423 -0.5447,0.203 -1.1167,0.4193 -1.2711,0.4807 -0.2008,0.08 -0.7605,-0.4543 -1.965,-1.8752 -0.9264,-1.0928 -1.7387,-1.9869 -1.8052,-1.9869 -0.066,0 -1.127,0.393 -2.3567,0.8734 -1.2297,0.4804 -3.0056,1.1696 -3.9465,1.5316 l -1.7107,0.6582 0.061,2.6612 0.061,2.6613 -1.2238,0.444 c -0.6731,0.2442 -1.2886,0.4712 -1.3677,0.5045 -0.079,0.033 -0.123,-4.6537 -0.098,-10.4156 z m 5.7663,0.4341 c 1.7071,-0.6531 3.1274,-1.2103 3.1563,-1.238 0.029,-0.028 -1.4211,-1.7236 -3.2223,-3.7685 -1.8012,-2.0449 -3.2907,-3.6959 -3.3101,-3.6689 -0.068,0.094 0.1327,9.8629 0.2023,9.8629 0.039,0 1.4668,-0.5344 3.1738,-1.1875 z m 121.05091,6.0106 c -0.5942,-0.2038 -1.0953,-0.3811 -1.1134,-0.3939 -0.018,-0.013 1.0942,-3.5015 2.4718,-7.7526 1.3777,-4.2511 2.476,-7.7581 2.4407,-7.7934 -0.035,-0.035 -1.9362,2.2895 -4.2242,5.1662 -2.2881,2.8767 -4.2341,5.2303 -4.3245,5.2303 -0.091,0 -0.6875,-0.1615 -1.3267,-0.359 l -1.1623,-0.359 -0.1121,-1.9369 c -0.062,-1.0653 -0.2102,-4.2017 -0.3303,-6.9698 l -0.2182,-5.033 -0.7661,2.3319 c -0.4214,1.2825 -1.587,4.8706 -2.5904,7.9736 -1.436,4.4409 -1.8806,5.6202 -2.0887,5.5403 -0.1454,-0.056 -0.7071,-0.2301 -1.2481,-0.3874 -0.5411,-0.1573 -0.9837,-0.3297 -0.9837,-0.3831 0,-0.254 5.8427,-18.1767 5.9746,-18.3274 0.094,-0.1077 0.8294,0.049 1.9497,0.4167 1.4618,0.4791 1.8137,0.6632 1.8795,0.9831 0.044,0.2165 0.1744,2.784 0.2885,5.7057 0.1141,2.9217 0.2602,5.866 0.3247,6.5429 l 0.1172,1.2307 4.1416,-5.179 c 2.278,-2.8484 4.2227,-5.2853 4.3218,-5.4153 0.1452,-0.1907 0.5282,-0.123 1.9808,0.3499 0.9904,0.3225 1.8351,0.6503 1.8771,0.7284 0.125,0.2323 -5.8227,18.4873 -6.0188,18.4734 -0.099,-0.01 -0.6663,-0.1795 -1.2605,-0.3833 z m -106.76561,-3.537 c -0.2351,-0.388 -4.7737,-18.6567 -4.6594,-18.755 0.1252,-0.1077 3.0537,-0.9069 3.3009,-0.9009 0.055,0 2.8097,2.9935 6.1225,6.6493 3.3127,3.6558 6.04,6.6304 6.0606,6.6103 0.021,-0.02 -0.8409,-3.4771 -1.9144,-7.6823 -1.2264,-4.8044 -1.8838,-7.6886 -1.7689,-7.7612 0.2493,-0.1577 2.2876,-0.5832 2.3723,-0.4952 0.081,0.084 4.785,18.4528 4.785,18.6844 0,0.1512 -2.7626,0.9239 -3.303,0.9239 -0.1402,0 -2.9888,-3.0111 -6.3303,-6.6914 -3.3415,-3.6803 -6.0293,-6.5366 -5.9728,-6.3475 0.2599,0.8708 3.7751,14.7789 3.7922,15.004 0.02,0.2638 -2.3467,0.9892 -2.4847,0.7616 z m 76.7836,-4.0937 c -2.9776,-0.7903 -5.3456,-2.9917 -6.1411,-5.7089 -0.8454,-2.8875 -0.3051,-7.2032 1.2333,-9.8508 0.8269,-1.4232 2.3333,-2.8351 3.7963,-3.5581 1.2093,-0.5977 1.5127,-0.6698 3.0841,-0.7329 2.10101,-0.084 3.33291,0.1487 4.99481,0.9452 3.6748,1.7611 5.4073,5.9346 4.4786,10.7888 -0.8055,4.2097 -3.0209,7.0562 -6.285,8.0751 -1.28271,0.4004 -3.73471,0.4202 -5.16101,0.042 z m 4.61981,-2.4967 c 1.8953,-0.8624 3.3808,-3.1291 3.9513,-6.0294 1.0433,-5.3041 -1.3613,-9.0823 -5.78641,-9.0918 -2.7449,-0.01 -4.9202,1.9313 -5.9082,5.2615 -0.7853,2.6466 -0.7335,5.2778 0.1407,7.1508 1.3105,2.808 4.7172,4.0218 7.60261,2.7089 z m -61.34251,1.6911 c 0,-0.1055 -0.5291,-4.414 -1.1758,-9.5745 -0.6467,-5.1605 -1.1126,-9.4388 -1.0354,-9.5075 0.2208,-0.1962 6.654,-0.9022 8.1536,-0.8947 5.751,0.029 8.8562,3.188 9.297,9.4591 0.298,4.2395 -1.18,7.0693 -4.5251,8.6638 -1.6361,0.7799 -3.4956,1.2325 -6.9087,1.6816 -3.146,0.4139 -3.8056,0.4438 -3.8056,0.1722 z m 5.1368,-2.6798 c 3.8102,-0.5574 5.4937,-1.4455 6.571,-3.4668 1.1687,-2.1926 0.7294,-6.9187 -0.856,-9.2104 -1.4323,-2.0704 -3.7646,-2.6428 -8.4313,-2.0693 -1.5384,0.189 -1.7002,0.2447 -1.7002,0.5855 0,0.2072 0.4047,3.5368 0.8993,7.3991 0.4945,3.8624 0.8997,7.0428 0.9003,7.0675 0,0.072 0.1537,0.055 2.6169,-0.3056 z m 32.2006,1.2339 c -2.0855,-0.3484 -4.4105,-1.6443 -5.4841,-3.0565 -1.4009,-1.8429 -1.9827,-3.7992 -1.978,-6.6503 0.01,-5.1522 2.1743,-8.6366 6.1845,-9.9504 1.7333,-0.5678 4.7866,-0.5186 6.7073,0.1082 0.7923,0.2585 1.8453,0.7362 2.34,1.0614 l 0.8994,0.5914 -0.061,1.3486 c -0.034,0.7417 -0.092,1.3802 -0.1294,1.4189 -0.037,0.039 -0.3914,-0.2219 -0.7867,-0.5789 -1.5773,-1.4251 -3.9237,-2.2057 -6.1688,-2.0524 -3.9624,0.2706 -6.0772,3.1034 -6.0846,8.1504 0,3.1227 0.8448,5.1799 2.6259,6.3596 1.2166,0.8058 2.0647,1.0145 4.1241,1.0145 2.1143,0 2.8319,-0.1878 4.452,-1.1649 0.6603,-0.3983 1.2253,-0.7243 1.2555,-0.7246 0.03,-2e-4 0.028,0.6095 0,1.3548 l -0.059,1.3552 -0.9032,0.4577 c -1.965,0.9958 -4.5559,1.3538 -6.9287,0.9573 z"
       id="path5097"
       inkscape:connector-curvature="0"
       inkscape:export-filename="/home/mj/Desktop/cict_logo/dark.png"
       inkscape:export-xdpi="410.46497"
       inkscape:export-ydpi="410.46497" />
  </g>
</svg>
