<?xml version="1.0" encoding="UTF-8" standalone="no"?>
<svg
   xmlns:dc="http://purl.org/dc/elements/1.1/"
   xmlns:cc="http://creativecommons.org/ns#"
   xmlns:rdf="http://www.w3.org/1999/02/22-rdf-syntax-ns#"
   xmlns:svg="http://www.w3.org/2000/svg"
   xmlns="http://www.w3.org/2000/svg"
   xmlns:sodipodi="http://sodipodi.sourceforge.net/DTD/sodipodi-0.dtd"
   xmlns:inkscape="http://www.inkscape.org/namespaces/inkscape"
   sodipodi:docname="mascot.svg"
   inkscape:version="1.0 (4035a4fb49, 2020-05-01)"
   inkscape:export-ydpi="219.7607"
   inkscape:export-xdpi="219.7607"
   inkscape:export-filename="/home/user/Desktop/mascot.png"
   id="svg8"
   version="1.1"
   viewBox="0 0 115.58027 121.84466"
   height="121.84466mm"
   width="115.58027mm">
  <defs
     id="defs2">
    <clipPath
       clipPathUnits="userSpaceOnUse"
       id="clipPath5559">
      <rect
         ry="5.2235179"
         rx="5.2235179"
         y="306.66141"
         x="244.44795"
         height="144.19434"
         width="144.19434"
         id="rect5561"
         style="color:#000000;clip-rule:nonzero;display:inline;overflow:visible;visibility:visible;opacity:1;isolation:auto;mix-blend-mode:normal;color-interpolation:sRGB;color-interpolation-filters:linearRGB;solid-color:#000000;solid-opacity:1;fill:#f48128;fill-opacity:1;fill-rule:nonzero;stroke:none;stroke-width:5;stroke-linecap:round;stroke-linejoin:round;stroke-miterlimit:4;stroke-dasharray:none;stroke-dashoffset:0;stroke-opacity:1;color-rendering:auto;image-rendering:auto;shape-rendering:auto;text-rendering:auto;enable-background:accumulate" />
    </clipPath>
  </defs>
  <sodipodi:namedview
     inkscape:document-rotation="0"
     fit-margin-bottom="0"
     fit-margin-right="0"
     fit-margin-left="0"
     fit-margin-top="0"
     inkscape:window-maximized="1"
     inkscape:window-y="27"
     inkscape:window-x="0"
     inkscape:window-height="1016"
     inkscape:window-width="1920"
     showgrid="false"
     inkscape:current-layer="layer1"
     inkscape:document-units="mm"
     inkscape:cy="25.589416"
     inkscape:cx="382.81027"
     inkscape:zoom="0.24748737"
     inkscape:pageshadow="2"
     inkscape:pageopacity="0.0"
     borderopacity="1.0"
     bordercolor="#666666"
     pagecolor="#ffffff"
     id="base" />
  <metadata
     id="metadata5">
    <rdf:RDF>
      <cc:Work
         rdf:about="">
        <dc:format>image/svg+xml</dc:format>
        <dc:type
           rdf:resource="http://purl.org/dc/dcmitype/StillImage" />
        <dc:title />
      </cc:Work>
    </rdf:RDF>
  </metadata>
  <g
     transform="translate(-43.617059,-52.975826)"
     id="layer1"
     inkscape:groupmode="layer"
     inkscape:label="Layer 1">
    <g
       id="g1091">
      <path
         style="fill:#ffa000;fill-opacity:1;stroke:none;stroke-width:0.26458332px;stroke-linecap:butt;stroke-linejoin:miter;stroke-opacity:1"
         d="m 64.896888,71.594501 2.57496,1.91349 c 0,0 3.51991,-3.28366 8.07926,-5.26804 4.55933,-1.98437 8.57533,-4.46484 15.68601,-5.00819 7.11067,-0.54335 11.221162,-0.42521 11.221162,-0.42521 l -2.19699,-3.44903 1.67727,-3.99238 4.205,-1.55916 c 0,0 4.06323,1.46465 4.18134,1.51191 0.11814,0.0472 2.24425,2.97656 2.24425,2.97656 0,0 -0.37799,3.59077 -0.44887,3.68528 -0.0709,0.0945 -2.64583,3.16555 -2.55132,3.16555 0.0945,0 6.52007,4.15772 6.52007,4.15772 l 4.77197,5.4098 1.86624,3.47265 c 0,0 -0.16536,6.26023 0.0709,6.33109 0.23622,0.0709 5.69325,1.2048 5.69325,1.2048 0,0 6.73272,2.05526 6.8272,2.07889 0.0945,0.0236 3.51991,2.76394 3.51991,2.76394 l -0.11811,3.56714 c 0,0 -2.95296,2.97656 -2.97656,3.14193 -0.0236,0.16536 -1.81901,0.61423 -2.26788,0.42524 -0.44884,-0.189 -3.00019,-2.197 -2.97656,-2.36236 0.0236,-0.16537 -5.76413,-6.33111 -8.69344,-6.80358 -2.92931,-0.47247 -40.689642,20.443349 -41.090532,21.913319 -0.40093,1.46997 1.73725,2.80633 1.73725,2.80633 0,0 7.01582,-1.20271 7.34989,-1.20271 0.33409,0 5.61268,0.60137 5.61268,0.60137 l 2.00451,2.13815 -1.70384,4.40994 -6.54812,2.27179 -7.08263,0.83521 -7.21627,0.73499 c 0,0 -1.47,1.97112 -1.67045,2.6393 -0.20044,0.66817 -0.26725,3.8754 -0.13364,4.77745 0.13364,0.90201 1.20272,2.7061 1.20272,2.7061 l 8.25196,-1.43658 c 0,0 4.67722,1.83748 4.81084,1.90428 0.13364,0.0668 3.54134,7.38333 3.57473,7.51698 0.0334,0.13364 -0.90202,7.81761 -0.90202,7.81761 0,0 -2.80633,7.01583 -2.57249,7.11608 0.23387,0.10022 2.87316,0.93543 2.87316,0.93543 l 2.47224,2.40543 c 0,0 -2.23837,3.17381 -2.43882,3.34087 -0.20047,0.16703 -5.71291,0.90202 -5.91336,0.7684 -0.20045,-0.13364 -7.85103,-6.38106 -7.85103,-6.38106 l -4.2095,-3.24064 -8.68627,-5.41221 -8.51921,-4.87767 -6.98241,-8.95353 -2.20498,-7.01582 9.65512,-0.26729 4.577,11.25874 2.3386,1.87089 -0.50112,-8.75307 1.50339,-11.42577 3.74145,-10.95357 -2.33829,-2.44332 -5.67949,-4.30974 -0.96885,-6.982409 0.86863,-9.92238 1.87089,-6.41448 -3.77518,0.40093 -3.30748,-1.70387 -1.70383,-4.40994 2.23837,-4.94448 2.77294,-0.80182 4.64381,1.36978 z"
         id="path968"
         inkscape:connector-curvature="0" />
      <path
         style="fill:#ffffff;stroke:none;stroke-width:0.26458332px;stroke-linecap:butt;stroke-linejoin:miter;stroke-opacity:1"
         d="m 87.686798,94.439561 c 0.0668,-0.13364 0.39321,-4.03676 0.93544,-5.98016 0.71806,-2.57358 1.53846,-5.2068 3.04019,-7.41673 1.14651,-1.68719 3.37428,-3.74177 4.40995,-4.2429 1.03567,-0.50113 3.61265,-1.38495 5.512432,-1.46998 1.82899,-0.0819 3.69653,0.29643 5.41221,0.93544 2.38752,0.88923 4.60076,2.29941 6.5481,3.94223 2.19086,1.84825 5.61266,6.51469 5.61266,6.51469 0,0 -25.925142,9.58829 -26.225822,9.6217 -0.30068,0.0334 -5.24516,-1.90429 -5.24516,-1.90429 z"
         id="path970"
         inkscape:connector-curvature="0"
         sodipodi:nodetypes="caacaaaccc" />
      <path
         style="fill:#f48128;fill-opacity:1;stroke:#000000;stroke-width:3.79999995;stroke-miterlimit:4;stroke-dasharray:none;stroke-opacity:1"
         d="m 112.38206,172.82077 c -2.01045,-0.10288 -2.05139,-0.10719 -4.3629,-0.45828 -1.61858,-0.24584 -2.25926,-0.37878 -4.06987,-0.84447 -1.18189,-0.30398 -2.38331,-0.63883 -2.66984,-0.7441 -3.156432,-1.15977 -3.462752,-1.28716 -5.483622,-2.2805 -1.56556,-0.76954 -2.49035,-1.27454 -3.6466,-1.99127 -1.81218,-1.12334 -1.74401,-1.0757 -3.76312,-2.62954 -3.20332,-2.46517 -6.14782,-5.53051 -8.5867,-8.93907 -3.04118,-4.25036 -5.4252,-9.4189 -6.64625,-14.40904 -0.56351,-2.30296 -0.5848,-2.41243 -0.87996,-4.52569 -1.48771,-10.65177 1.17006,-21.57321 7.4013,-30.4138 0.63686,-0.90355 1.36398,-1.88038 1.61581,-2.17074 0.25184,-0.29036 0.89997,-1.04073 1.44029,-1.66749 1.36736,-1.5861 3.56997,-3.661859 5.40166,-5.090549 1.91338,-1.49242 1.8452,-1.44434 3.75293,-2.64655 2.41282,-1.5205 5.06911,-2.83399 7.76632,-3.8403 2.772812,-1.03452 5.302462,-1.70395 8.179162,-2.16446 1.82962,-0.2929 2.28373,-0.34126 4.32348,-0.46039 2.20337,-0.1287 2.35163,-0.1296 4.46057,-0.0273 1.96942,0.0955 2.39032,0.1373 4.33029,0.43002 1.89664,0.28619 2.40107,0.38955 4.29779,0.88062 3.07385,0.79583 5.24515,1.60124 8.13033,3.01579 1.71388,0.84028 2.41187,1.22617 3.85141,2.12932 9.46065,5.93546 16.20018,15.266329 18.85484,26.104529 2.59723,10.60369 1.01312,21.73962 -4.45396,31.31012 -2.72411,4.76876 -6.43158,9.05289 -10.72171,12.38936 -1.85728,1.44442 -1.70855,1.34037 -3.8094,2.66505 -3.44984,2.17529 -7.42967,3.9033 -11.39564,4.94788 -1.03863,0.27356 -1.99097,0.52532 -2.11633,0.55945 -0.12535,0.0341 -1.15096,0.20911 -2.27912,0.38884 -1.8253,0.29077 -2.29507,0.3408 -4.26523,0.45424 -2.46962,0.14218 -2.43543,0.14197 -4.65593,0.0283 z"
         id="path1063"
         inkscape:connector-curvature="0" />
      <g
         id="g936"
         transform="translate(-183.44763,401.71842)">
        <g
           id="g958"
           transform="matrix(0.18458623,0,0,0.18458623,208.18903,-256.26375)">
          <circle
             r="221.83865"
             cy="-82.786781"
             cx="486.72382"
             id="path954"
             style="opacity:1;fill:#ffffff;fill-opacity:1;stroke:none;stroke-width:4.92743015;stroke-linecap:round;stroke-linejoin:round;stroke-miterlimit:4;stroke-dasharray:none;stroke-opacity:1;paint-order:stroke fill markers" />
          <path
             inkscape:connector-curvature="0"
             id="path938"
             d="m 474.79523,148.25644 c -10.89164,-0.55735 -11.11345,-0.58067 -23.63611,-2.48271 -8.76867,-1.33188 -12.23958,-2.05207 -22.04861,-4.57493 -6.40291,-1.64683 -12.91166,-3.46089 -14.46389,-4.03122 -17.10006,-6.28305 -18.75955,-6.97319 -29.70766,-12.35463 -8.48147,-4.16903 -13.49154,-6.90485 -19.75555,-10.78777 -9.81753,-6.0857 -9.44817,-5.82761 -20.38678,-14.245591 -17.35407,-13.35511 -33.30594,-29.96163 -46.5186,-48.4276 -16.47567,-23.0264 -29.39115,-51.02708017 -36.00621,-78.06129 -3.05287,-12.47634 -3.16819,-13.06943 -4.7672,-24.51805 -8.05975,-57.706159 6.33878,-116.873349 40.09666,-164.767409 3.45022,-4.895 7.38939,-10.18703 8.75372,-11.76005 1.36433,-1.57302 4.87558,-5.63817 7.80279,-9.03365 7.40768,-8.59273 19.34041,-19.83821 29.26359,-27.57817 10.36581,-8.08521 9.99646,-7.82476 20.33162,-14.33774 13.07148,-8.23734 27.46202,-15.3532 42.07418,-20.80492 15.02177,-5.60454 28.72619,-9.23116 44.3108,-11.72603 9.91203,-1.58677 12.37218,-1.84874 23.42253,-2.49416 11.93684,-0.6972 12.74002,-0.70212 24.16528,-0.14807 10.66934,0.51739 12.94959,0.74384 23.45944,2.32968 10.27504,1.55041 13.00783,2.11036 23.28333,4.77075 16.65266,4.31146 28.41575,8.67476 44.04628,16.33811 9.28497,4.55223 13.06632,6.64282 20.86511,11.53566 51.25328,32.15546 87.76483,82.70566 102.14652,141.42183 14.07054,57.445729 5.48855,117.774929 -24.12944,169.623279 -14.75796,25.8349 -34.84322,49.04422 -58.08514,67.11963 -10.06185,7.825211 -9.25611,7.261511 -20.6375,14.438001 -18.68956,11.78468 -40.25042,21.1462 -61.7361,26.80522 -5.62681,1.48205 -10.78618,2.84593 -11.46528,3.03085 -0.6791,0.18496 -6.23535,1.13288 -12.34722,2.10654 -9.88858,1.57526 -12.43355,1.8463 -23.10695,2.46084 -13.37922,0.77029 -13.194,0.76916 -25.22361,0.1536 z m 74.6125,-52.534891 c 20.31841,-2.44958 37.38986,-7.4749 55.11398,-16.22379 15.62481,-7.71267 28.25587,-16.42367 41.16009,-28.38605 5.49872,-5.09736 13.07688,-13.23996 17.49676,-18.79988 6.0597,-7.62275 15.63532,-22.28038 16.11178,-24.6627302 0.13727,-0.68633 0.0469,-1.059 -0.28197,-1.16282 -0.26617,-0.084 -4.72483,-0.25079 -9.90808,-0.37056 l -9.42411,-0.2177 -4.54755,6.0977302 c -14.60895,19.5888 -32.14832,34.24703 -53.72915,44.90324 -17.51033,8.64627 -35.62403,13.29376 -55.87231,14.33534 -8.9282,0.45928 -15.92523,0.0169 -28.75138,-1.81804 C 494.38211,66.212709 472.78052,56.901039 452.8788,41.872599 437.81711,30.499009 425.1681,16.222659 414.54244,-1.3958712 403.68085,-19.405601 396.42005,-40.626131 393.6899,-62.339851 c -3.87063,-30.78432 1.08332,-61.400259 14.5387,-89.850679 10.37091,-21.92853 27.76251,-42.92106 47.16386,-56.92912 19.70102,-14.22443 38.4241,-21.96818 63.86159,-26.41277 1.8481,-0.32291 3.57128,-0.71758 3.8293,-0.87703 0.54038,-0.33397 0.8746,-1.69565 3.24608,-13.22434 0.95441,-4.63958 1.73524,-9.10483 1.73524,-9.92278 0,-2.40003 -0.16538,-2.44437 -7.33082,-1.96541 -21.73239,1.45268 -42.89567,7.3045 -62.69556,17.33585 -17.32599,8.77798 -30.50803,18.32817 -44.2894,32.08701 -19.46263,19.43082 -33.41004,41.70819 -42.74099,68.2676 -3.54943,10.10304 -5.5939,18.5303 -7.48865,30.86806 -1.81455,11.81556 -2.3228,16.600549 -2.84777,26.811109 -0.18585,3.61459 0.31864,15.86309 0.90087,21.87222 2.84516,29.36473 13.04821,58.4337898 29.14342,83.03126 8.21627,12.55649 19.11355,25.19507 30.98641,35.93775 6.66222,6.02805 19.58064,15.25372 28.575,20.40678 8.49596,4.86748 21.11431,10.40871 30.77691,13.51534 11.59864,3.72911 26.62102,6.65226 39.07309,7.6031 6.13265,0.46828 23.77203,0.17156 29.28055,-0.49255 z m 4.40972,-31.61848 c 34.28873,-3.01657 67.33,-19.99015 90.93708,-46.71515 4.57613,-5.18054 7.97627,-9.5180502 8.32626,-10.6217102 0.36502,-1.15098 -0.36689,-1.46435 -4.01334,-1.71824 -5.61647,-0.39109 -20.52052,-1.93439 -29.22111,-3.02578 -6.10006,-0.76521 -8.41213,-0.93546 -8.93117,-0.65768 -0.38516,0.20613 -2.23757,1.44667 -4.11639,2.75675 -11.20073,7.8099702 -22.48041,13.0731302 -33.98481,15.8575002 -11.38827,2.75629 -20.49847,3.43274 -31.72806,2.35588 -6.28456,-0.60261 -10.40105,-1.27772 -15.19212,-2.49153 -14.68498,-3.72028 -29.81325,-11.7652402 -41.36131,-21.9952002 -1.41643,-1.25476 -2.75943,-2.15582 -3.21319,-2.15582 -0.4288,0 -3.38181,1.36719 -6.56226,3.03816 -6.89292,3.62154 -25.54708,12.9242902 -31.6236,15.7706102 -5.88034,2.75442 -5.94827,2.33631 1.5875,9.77131 15.91909,15.70626 33.93096,26.77234 55.02076,33.80348 7.43695,2.47939 14.66653,4.04322 25.52708,5.52168 8.85874,1.20593 18.62356,1.3789 28.54868,0.50574 z M 435.31149,8.1792588 c 13.15695,-5.33319 35.6721,-15.38139 52.42784,-23.3978498 l 6.06494,-2.90163 3.27292,2.88851 c 11.81486,10.4272298 26.26503,17.2820898 42.03715,19.9416798 4.54484,0.76638 15.39688,1.05537 20.36311,0.54229 19.25514,-1.98924 36.14822,-9.97281 50.31497,-23.7784498 16.22566,-15.81207 25.41393,-36.17056 26.93045,-59.67001 0.35557,-5.50956 -0.052,-14.39401 -0.89115,-19.42763 l -0.52828,-3.168799 0.97296,-0.78373 c 2.71307,-2.18536 10.75101,-7.90029 10.90087,-7.75045 0.69913,0.69914 2.43088,11.674089 2.98873,18.941119 0.92667,12.07194 -0.79827,27.23192 -4.48518,39.41893 -1.36395,4.50847 -1.49973,5.958 -0.58212,6.21425 3.65372,1.02034 26.45173,5.26433 28.4868,5.303 l 2.11667,0.0402 0.76094,-2.29306 c 2.30544,-6.94732 4.79937,-22.48494 5.44195,-33.90413 1.61276,-28.661189 -5.73878,-58.879369 -20.50408,-84.281079 -18.88158,-32.48326 -49.19969,-56.05396 -84.64952,-65.81043 -5.30846,-1.46099 -6.93582,-1.55316 -7.39662,-0.41894 -0.17734,0.43656 -0.81283,4.36562 -1.41217,8.73125 -0.59933,4.36562 -1.79733,12.22375 -2.66223,17.4625 -1.65541,10.02709 -1.7319,10.68855 -1.31184,11.34888 0.14442,0.22702 3.35668,1.20928 7.13835,2.18281 15.29799,3.93818 25.55716,8.68967 36.64303,16.97105 4.79534,3.58222 11.15497,9.20481 11.15497,9.86218 0,0.2515 -2.56551,2.20041 -5.7011,4.33093 l -5.7011,3.87365 -3.8239,-3.09962 c -12.29632,-9.9673 -25.00898,-15.48538 -41.9239,-18.19758 -1.67287,-0.26823 -5.83928,-0.44732 -10.23055,-0.43975 -8.39724,0.0145 -12.66367,0.53363 -20.1463,2.4514 -23.48889,6.02012 -43.66367,22.35557 -54.89288,44.44661 -4.93145,9.70155 -7.58098,17.97464 -9.34311,29.173649 -0.91439,5.81132 -0.88606,20.37631 0.0507,26.03607 1.09599,6.62212 1.95005,5.38966 -7.39058,10.66495 -10.57832,5.9743 -30.28453,16.81266 -38.98195,21.43997 -11.9713,6.36916 -12.1619,6.48258 -12.28098,7.30843 -0.19298,1.33833 19.76023,37.0484698 22.27946,39.8734498 0.91164,1.02228 1.71857,0.99988 4.49278,-0.12464 z M 552.40634,-38.752531 c -17.67928,-1.64659 -32.66235,-13.98838 -37.88547,-31.20683 -1.60281,-5.28384 -2.06915,-9.06293 -1.88938,-15.31105 0.22437,-7.79733 1.58182,-13.42517 4.78794,-19.850279 7.43144,-14.89268 21.83977,-24.07516 37.76715,-24.06913 20.53625,0.008 37.59193,14.0463 42.4294,34.923579 0.89647,3.86898 1.23913,12.1138 0.68174,16.40417 -2.84018,21.86175 -19.84396,38.23874 -40.59971,39.10315 -2.03729,0.0848 -4.41854,0.0877 -5.29167,0.006 z m -137.90004,-7.57573 c 8.4724,-4.41702 23.12422,-12.1738 30.00319,-15.88393 2.84264,-1.53315 5.25114,-3.00309 5.35222,-3.26652 0.10109,-0.26343 -0.0655,-2.20495 -0.37015,-4.31449 -0.72008,-4.98585 -0.81467,-20.743 -0.15327,-25.53137 1.27325,-9.217899 2.94373,-16.512669 5.37466,-23.470449 5.66391,-16.2111 13.77674,-29.22786 25.51371,-40.93583 7.36593,-7.34772 13.56297,-12.03312 22.61747,-17.10038 6.51669,-3.64701 6.40348,-3.54223 7.40252,-6.85082 2.15226,-7.12776 9.62003,-36.21598 10.76286,-41.92324 0.67179,-3.355 0.0317,-3.60751 -5.91556,-2.33422 -20.32566,4.35154 -38.78411,12.60444 -54.939,24.56359 -25.91736,19.18613 -44.39738,46.39792 -53.96113,79.45768 -1.87028,6.46511 -4.00113,18.94885 -5.11286,29.953959 -0.77163,7.63843 -0.3937,20.72872 0.89774,31.09526 0.7483,6.00669 2.85722,16.77681 3.8511,19.66736 0.32471,0.94435 2.0836,0.31052 8.6765,-3.1266 z"
             style="fill:#f48128;fill-opacity:1;stroke-width:0.35277778" />
        </g>
      </g>
      <path
         style="fill:#ffa000;fill-opacity:1;stroke:none;stroke-width:0.26458332px;stroke-linecap:butt;stroke-linejoin:miter;stroke-opacity:1"
         d="m 130.16026,94.075621 1.46997,2.67268 c 0,0 1.93771,0.86863 2.07135,0.90205 0.13364,0.0334 1.60361,-0.46773 1.80406,-0.53454 0.20045,-0.0668 3.21474,-2.9845 3.21474,-2.9845 0,0 0.59386,-2.52794 0.56044,-2.66158 -0.0334,-0.13364 -2.97336,-3.84201 -5.27857,-4.1761 -2.30518,-0.33406 -7.53414,-2.26843 -7.53414,-2.26843 l -1.12476,-0.0955 c 0,0 -1.97317,0.8812 -0.7037,1.68299 3.7972,0.98431 5.44727,2.51784 5.98883,4.18715 0.34038,1.04918 -0.46825,3.27574 -0.46825,3.27574 z"
         id="path995"
         inkscape:connector-curvature="0"
         sodipodi:nodetypes="ccccccccccscc" />
      <path
         style="fill:#ffa000;fill-opacity:1;stroke:none;stroke-width:0.26458332px;stroke-linecap:butt;stroke-linejoin:miter;stroke-opacity:1"
         d="m 70.726188,135.90328 c 0,0 0.26726,-1.53678 3.54132,-2.7395 3.27406,-1.20272 8.68627,-1.33636 8.95353,-1.26952 0.26728,0.0668 5.04473,2.53904 5.04473,2.53904 l 2.77291,6.38107 -1.63703,10.12282 -2.97336,5.51244 2.73949,0.10022 2.10477,1.00227 0.56795,2.37202 c 0,0 -1.67045,2.3052 -1.80409,2.43882 -0.13361,0.13364 -3.94221,0.735 -3.94221,0.735 l -5.54584,-2.372 -11.12511,-19.34366 z"
         id="path974"
         inkscape:connector-curvature="0"
         sodipodi:nodetypes="csccccccccccccc" />
      <path
         style="fill:#ffa000;fill-opacity:1;stroke:none;stroke-width:0.26458332px;stroke-linecap:butt;stroke-linejoin:miter;stroke-opacity:1"
         d="m 71.427798,112.88469 c 0.4677,0.10023 2.90654,1.60363 7.95125,1.03566 5.0447,-0.56795 9.48806,-1.80406 10.92464,-1.73725 1.43659,0.0668 3.84204,-0.46771 5.11154,0.46773 1.26953,0.93543 2.07132,3.00677 2.07132,3.00677 l -1.26952,3.0402 c 0,0 -5.44561,3.30745 -6.24743,3.04019 -0.80182,-0.26728 -17.47273,1.40317 -17.67318,1.40317 -0.20048,0 -3.54135,-0.33409 -3.54135,-0.33409 z"
         id="path972"
         inkscape:connector-curvature="0"
         sodipodi:nodetypes="cccccccscc" />
      <path
         style="fill:#000000;stroke-width:0.26458332"
         d="m 84.845228,164.07469 c -0.80036,-0.11197 -1.87192,-0.41581 -2.38125,-0.67519 -2.67184,-1.36069 -6.05868,-4.39339 -7.87349,-7.05022 -0.75287,-1.10218 -0.96089,-1.23794 -2.13566,-1.39378 -1.52675,-0.20253 -2.93325,-1.13386 -5.10921,-3.38313 -0.82078,-0.84843 -1.71375,-1.5467 -1.98438,-1.55171 -0.99054,-0.0183 -4.30229,-1.52796 -6.51256,-2.96869 -7.06135,-4.60282 -13.52244,-14.10056 -15.03698,-22.10423 -0.38342,-2.0262 -0.18135,-5.2643 0.4391,-7.03643 1.21437,-3.46851 5.27089,-4.88146 8.65499,-3.01469 1.99063,1.0981 2.69308,2.91263 3.87496,10.0096 0.88878,5.33691 1.88606,8.67159 3.59675,12.02667 1.41977,2.7845 1.76832,3.23102 1.41936,1.81829 -0.13919,-0.5635 -0.32517,-2.69872 -0.4133,-4.74495 -0.34899,-8.10344 1.19169,-15.60689 4.50876,-21.95854 l 1.39248,-2.6664 -1.86926,-0.98821 c -2.19462,-1.1602 -4.84856,-3.25009 -6.27178,-4.9388 -0.9779,-1.16032 -1.01862,-1.28979 -1.24833,-3.968749 -0.50525,-5.89253 0.53835,-14.56586 2.25155,-18.71256 0.10568,-0.2558 -0.0248,-0.27111 -0.56393,-0.0661 -1.98028,0.75291 -4.70098,-0.0244 -6.24641,-1.78451 -1.29114,-1.47052 -1.81728,-2.86834 -1.81728,-4.82797 0,-3.53691 2.42388,-6.50081 5.75155,-7.03293 1.24307,-0.19877 3.63138,0.42692 5.05152,1.32342 1.40089,0.88434 2.94364,2.69022 2.94364,3.4457 0,1.10969 -0.53908,1.05057 -1.67987,-0.18423 -1.92463,-2.08323 -4.96087,-3.22531 -6.88571,-2.59006 -1.26104,0.41618 -2.93737,2.35541 -3.30781,3.8266 -0.49929,1.98284 0.0699,3.72494 1.67827,5.13715 1.19191,1.04652 1.87426,1.21379 4.04447,0.99144 1.40544,-0.14399 1.91462,-0.32971 2.63282,-0.9603 1.08608,-0.95359 2.05759,-1.0704 1.78601,-0.21473 -0.099,0.31187 -0.52413,1.10973 -0.94478,1.77301 -1.48643,2.34387 -2.65766,6.72914 -3.04346,11.3952 l -0.18404,2.22589 1.73593,-1.23874 c 1.8748,-1.33783 4.30738,-2.52808 7.15503,-3.50092 1.81882,-0.62136 2.41925,-0.6173 2.66305,0.018 0.17464,0.45512 -0.20448,0.92713 -1.77234,2.2066 -1.96592,1.6043 -6.40448,6.55536 -7.92943,8.84502 -0.75113,1.127779 -1.46057,2.050519 -1.57654,2.050519 -0.11597,0 0.20038,0.36106 0.70299,0.80236 l 0.91383,0.80235 1.93964,-1.9381 c 1.8296,-1.828149 5.21278,-4.535599 6.48454,-5.189369 0.71582,-0.36799 1.40823,-0.12838 1.40823,0.48731 0,0.25531 -0.59539,1.36723 -1.32309,2.47094 -0.72769,1.103699 -1.97923,3.246439 -2.78118,4.761649 l -1.4581,2.75492 1.52441,0.67585 c 0.83843,0.37172 1.95637,0.8527 2.48431,1.06884 1.18187,0.48387 1.39852,0.80642 1.01855,1.5164 -0.20745,0.38764 -0.50213,0.52665 -0.99307,0.46849 -0.63422,-0.0751 -0.81309,0.13513 -1.9553,2.29855 -2.10573,3.98838 -3.72352,9.60846 -4.28415,14.88282 l -0.11953,1.12448 h 1.70029 c 1.54933,0 1.72661,0.0578 1.99673,0.65062 0.23649,0.51904 0.20941,0.78344 -0.1339,1.30741 -0.513,0.78293 -2.61064,2.2753 -3.19812,2.2753 -0.3253,0 -0.41535,0.30481 -0.41535,1.40594 v 1.40595 l 1.58816,-0.11488 c 1.78407,-0.12904 2.38059,0.16958 2.38059,1.19173 0,0.81912 -2.05461,4.31334 -2.53625,4.31334 -0.2678,0 -0.15132,0.58949 0.45745,2.31511 1.76682,5.00821 4.41926,8.86303 6.69705,9.73293 0.66791,0.25508 1.27459,0.40357 1.34818,0.32998 0.0736,-0.0736 0.0114,-0.45571 -0.13819,-0.84917 -0.39548,-1.04019 -0.34463,-2.26843 0.0939,-2.26843 0.29729,0 1.75076,2.54737 1.75076,3.06841 0,0.37026 1.84975,2.78855 3.29213,4.30399 2.612,2.74432 4.47746,3.93028 6.92453,4.40226 1.19849,0.23115 2.56802,0.33155 3.21796,0.23591 2.30405,-0.33906 3.76563,-2.05202 2.96081,-3.47006 -0.58957,-1.0388 -1.65498,-1.70511 -2.96195,-1.85243 -0.96488,-0.10876 -1.38345,-0.004 -2.30419,0.57736 -0.61881,0.39064 -1.16589,0.66948 -1.21573,0.61965 -0.0498,-0.0498 0.89009,-2.05953 2.08872,-4.46597 3.46635,-6.95929 4.01885,-9.39767 3.06074,-13.5083 -0.69309,-2.97364 -1.20278,-4.04659 -2.53866,-5.34413 -1.63999,-1.59292 -3.39509,-2.10572 -6.70352,-1.95864 -4.87758,0.21684 -8.07001,1.85404 -11.08367,5.68414 -1.7805,2.26285 -2.61827,2.7956 -2.28837,1.45521 0.45545,-1.85059 3.1096,-5.1857 5.30225,-6.66264 2.52028,-1.69763 6.92654,-2.83652 9.98288,-2.58029 1.8912,0.15855 4.14849,1.01854 5.61637,2.13974 1.15516,0.88235 2.97047,4.61537 3.48632,7.16933 0.88783,4.39562 0.1098,7.85727 -3.25011,14.46062 -0.49179,0.96652 -0.46861,1.01751 0.46257,1.01751 2.13393,0 3.9378,1.9741 3.98573,4.36188 0.0605,3.01336 -3.34654,4.77513 -7.98064,4.12679 z m -20.19736,-16.49232 c -0.0801,-0.1819 -0.46256,-1.10464 -0.84991,-2.05052 -0.38734,-0.94589 -1.07868,-2.11502 -1.53631,-2.59809 -0.82609,-0.87201 -0.84486,-0.87702 -2.62394,-0.70015 -2.79019,0.27739 -3.18653,-0.38644 -1.75021,-2.93146 l 0.82351,-1.45918 -0.50271,-1.22495 -0.50271,-1.22495 -2.05819,0.0601 c -2.22812,0.0651 -2.81675,-0.17836 -2.81675,-1.16481 0,-0.5701 1.65403,-2.34616 2.76287,-2.9667 0.39285,-0.21985 0.44965,-0.45584 0.30074,-1.24957 l -0.18357,-0.97854 -1.07237,0.96882 c -1.47479,1.33239 -2.67834,1.78123 -4.78753,1.78541 l -1.78923,0.004 0.83206,1.48244 c 2.23603,3.98381 6.17621,8.68426 9.29278,11.08586 1.50397,1.15895 5.66376,3.48185 6.24808,3.48904 0.19747,0.002 0.2935,-0.1444 0.21339,-0.32631 z m 1.57571,-23.69544 c -0.24956,-0.40379 0.47151,-1.00839 1.74964,-1.46702 0.85776,-0.30779 3.26059,-0.47138 9.99285,-0.68034 9.9195,-0.3079 11.81602,-0.58361 15.3598,-2.23296 2.27777,-1.06012 3.31411,-1.96895 3.56911,-3.12993 0.39299,-1.78928 -1.59097,-3.10861 -4.99017,-3.31844 -2.08206,-0.12852 -6.87111,0.46939 -7.84636,0.97961 -0.22211,0.11621 -1.65271,0.41925 -3.1791,0.67343 -2.94803,0.49093 -5.96558,0.42472 -7.96655,-0.17478 -1.26153,-0.37797 -2.35507,-1.57045 -2.35507,-2.56816 0,-1.00688 0.71681,-1.93901 1.41461,-1.83957 0.49408,0.0704 0.55907,0.22647 0.48923,1.17478 -0.0745,1.01217 -0.0199,1.1147 0.7335,1.37736 2.55693,0.89135 9.09147,0.59407 13.93192,-0.63381 5.14525,-1.3052 9.38489,-0.50188 10.95675,2.07607 0.71482,1.17236 0.65134,1.99354 -0.26596,3.43997 -1.34258,2.11702 -6.07465,4.73971 -9.13609,5.06355 -1.78487,0.1888 -4.43494,0.42757 -5.71321,0.51477 -0.66842,0.0456 -1.32326,0.14578 -1.45521,0.22263 -0.13195,0.0768 -3.03788,0.21961 -6.45762,0.31722 -3.41974,0.0976 -6.768,0.24521 -7.44058,0.32798 -0.72098,0.0887 -1.29207,0.0385 -1.39149,-0.12236 z M 132.60252,98.328101 c -1.04752,-0.46425 -2.09196,-1.46686 -2.64782,-2.54177 -0.33617,-0.65008 -0.42369,-1.33687 -0.34588,-2.71403 0.0871,-1.54217 0.20544,-1.9257 0.72328,-2.34503 1.01814,-0.82444 1.37536,-0.25778 1.17777,1.86827 -0.19308,2.07746 0.24292,3.21145 1.48087,3.85162 1.14627,0.59276 1.73267,0.49751 2.82298,-0.45854 2.4739,-2.16927 3.14258,-4.22354 1.80892,-5.55721 -1.39673,-1.39673 -6.31122,-3.48153 -10.44407,-4.43054 -2.46789,-0.56669 -2.7809,-1.32319 -0.54748,-1.32319 3.18886,0 9.70186,2.38903 11.88159,4.35828 2.05843,1.85967 2.05458,4.1778 -0.0113,6.79133 -2.0612,2.60763 -3.89943,3.38694 -5.89885,2.50081 z m -10.605,-13.51028 c -0.0951,-0.37883 -0.10084,-1.04894 -0.0128,-1.48915 0.1482,-0.74097 0.0769,-0.8371 -0.96106,-1.2953 -0.61662,-0.27221 -1.95457,-0.64034 -2.97322,-0.81808 -1.03612,-0.18078 -2.07786,-0.53424 -2.36456,-0.80229 -0.49406,-0.46193 -0.49538,-0.49804 -0.0366,-1.00504 0.5929,-0.65515 2.90991,-1.15545 4.80429,-1.03737 1.55046,0.0966 1.86007,-0.15833 0.71904,-0.59214 -0.97793,-0.37182 -6.51579,-1.30285 -7.7494,-1.30285 -0.58819,0 -1.25741,-0.20623 -1.61877,-0.49884 -0.52759,-0.42723 -0.56524,-0.56006 -0.2622,-0.92521 0.47488,-0.57218 3.46938,-1.47732 5.53366,-1.67264 l 1.67134,-0.15814 -1.40675,-1.42864 c -1.47143,-1.49432 -4.789,-3.87034 -7.49217,-5.36584 -2.01183,-1.11302 -3.3073,-2.06702 -3.3073,-2.43554 0,-0.18842 0.41295,-0.23048 1.20159,-0.12239 1.09464,0.15004 1.28543,0.0885 2.14355,-0.69164 1.25476,-1.14065 1.68199,-2.03455 1.68199,-3.51915 0,-3.59436 -4.13773,-5.99596 -7.51427,-4.3614 -1.75469,0.84943 -2.80448,2.15645 -2.80448,3.49167 0,1.59683 0.88409,2.99914 2.07659,3.29382 0.79047,0.19532 0.96612,0.35898 0.96612,0.90018 0,0.64512 -0.0532,0.66335 -2.15309,0.73783 l -2.153082,0.0764 -0.18877,1.7627 c -0.26129,2.43994 -0.50328,2.97936 -1.33656,2.97936 -0.59421,0 -0.80082,-0.25479 -1.55549,-1.91823 -0.47865,-1.05503 -0.94342,-2.12659 -1.03282,-2.38125 -0.17087,-0.48674 -1.60987,-0.66617 -1.87694,-0.23404 -0.0778,0.12594 0.27875,1.68878 0.79241,3.47298 0.97555,3.38855 1.07744,4.8351 0.35027,4.97264 -0.26872,0.0508 -1.61875,-1.32119 -3.70417,-3.76447 -3.26083,-3.8204 -3.28713,-3.84341 -4.20739,-3.68072 -0.50932,0.09 -0.95705,0.18884 -0.99494,0.21956 -0.0379,0.0307 0.53194,1.51755 1.26631,3.30408 1.26178,3.0696 1.31252,3.28284 0.92269,3.8778 -0.22688,0.34626 -0.57925,0.62957 -0.78306,0.62957 -0.2038,0 -1.81401,-1.40617 -3.57825,-3.12482 l -3.20771,-3.12482 -1.79931,0.70007 c -3.04616,1.18517 -6.21862,2.90619 -8.89597,4.82593 -2.65657,1.90485 -3.58252,2.09355 -2.39857,0.48879 1.93423,-2.62171 6.94944,-5.6503 12.74264,-7.69504 5.28261,-1.86453 12.40831,-3.17922 17.24336,-3.18139 1.49159,-6.7e-4 2.708192,-0.0905 2.703572,-0.19966 -0.005,-0.10914 -0.17462,-0.41778 -0.37775,-0.68586 -1.130862,-1.49248 -0.663792,-4.1651 1.02264,-5.85153 2.02721,-2.02721 5.02479,-2.73302 7.71466,-1.81649 1.67384,0.57034 3.92012,2.75853 4.32362,4.21182 0.6897,2.48407 -0.11168,5.49551 -1.79327,6.73876 l -0.80836,0.59765 2.11955,1.19709 c 4.63213,2.61615 7.96766,5.9731 10.14983,10.215 1.00226,1.94827 1.02762,2.0662 1.01809,4.73492 -0.0103,2.88745 -0.36882,4.19422 -1.19431,4.35319 -0.30252,0.0583 -0.50861,-0.14036 -0.62442,-0.60181 z m -23.465602,0.0167 c -0.42364,-0.32145 -0.33045,-0.41154 0.97291,-0.94054 1.094962,-0.44441 1.541462,-0.79582 1.857582,-1.46201 0.73486,-1.5486 0.67757,-1.59073 -2.163532,-1.59095 -2.09848,-1.6e-4 -2.81471,-0.10869 -3.83958,-0.58181 -1.55183,-0.71639 -1.73295,-1.13337 -0.95145,-2.19041 1.9839,-2.68337 9.700682,-3.94811 10.544682,-1.72822 0.33104,0.87071 -0.11781,2.46749 -0.93271,3.31805 -0.81221,0.84777 -0.70066,1.21173 0.52883,1.72545 0.7217,0.30154 1.07398,0.29786 2.2828,-0.0239 0.78617,-0.20924 1.64051,-0.38184 1.89853,-0.38357 0.43515,-0.003 0.43881,0.0431 0.0507,0.63552 -0.91502,1.3965 -3.50697,1.91061 -5.01513,0.99475 l -0.79118,-0.48045 -0.4502,1.00556 c -0.75277,1.68135 -2.844462,2.57337 -3.992202,1.70249 z m -18.34787,-3.74446 c -1.48743,-0.74515 -1.85532,-2.49628 -0.78568,-3.73982 0.53006,-0.61623 1.347585,-0.940381 2.124345,-0.959506 0.694923,-0.01711 1.452327,0.268945 1.940473,0.763843 0.389589,0.394979 0.588292,1.350413 0.588292,1.556923 0,1.88332 -2.17983,3.22397 -3.86743,2.37856 z m -22.04542,-4.30418 c -1.02259,-0.54842 -1.8684,-1.92391 -1.8684,-3.03848 0,-0.48525 0.28569,-1.03777 0.80522,-1.5573 0.74802,-0.74803 0.91092,-0.79644 2.29378,-0.68176 1.21623,0.10085 1.60463,0.25835 2.12286,0.86083 0.85435,0.99324 0.46298,1.39757 -0.94458,0.97585 -1.95786,-0.58659 -2.62079,-0.33058 -2.31358,0.89344 0.0991,0.39502 0.56124,0.84717 1.19759,1.17181 1.24902,0.6372 1.48503,0.96459 1.06243,1.47379 -0.43139,0.5198 -1.26807,0.48492 -2.35532,-0.0982 z m 48.799312,-4.33061 c -0.72513,-0.41119 -0.91726,-0.74866 -0.92199,-1.61946 -0.006,-1.04893 0.37767,-1.64327 1.30875,-2.02894 2.28667,-0.94717 3.85935,2.11259 1.82003,3.54099 -0.70414,0.49319 -1.46147,0.53005 -2.20679,0.10741 z m 0.39687,-10.6548 c 0,-0.0677 0.18618,-0.67142 0.41373,-1.34165 0.32187,-0.94805 0.34405,-1.30255 0.0999,-1.59674 -0.7442,-0.89671 -2.62737,-0.0687 -2.63434,1.15821 -0.009,1.54484 -1.14744,1.86822 -1.36475,0.3876 -0.3071,-2.09238 0.89384,-3.51146 2.97168,-3.51146 1.81653,0 2.89504,0.93186 2.89504,2.50138 0,1.37186 -0.79445,2.52571 -1.739,2.52571 -0.35324,0 -0.64225,-0.0554 -0.64225,-0.12305 z"
         id="path826"
         inkscape:connector-curvature="0"
         sodipodi:nodetypes="ccsccccscccccccccsccccsccsccccccccsccscccsccscscccscccsccsccssccssccscssccccsccccssccsscscsccccccssccccsccccccccccccscscccccscccscccccccccccccsscssccccccccccccsccscccsccscscscccsccccccccccsscccsssccscccccccccccccccccccccccccccccaasccscccccscccccccccccccssscc" />
    </g>
  </g>
</svg>
